<svg id="Layer_1" data-name="Layer 1" xmlns="http://www.w3.org/2000/svg" viewBox="0 0 458.83 458.78"><path d="M257.61,279.8a7.4,7.4,0,0,1,7.4,7.4h14.8a22.2,22.2,0,1,0-44.4,0h14.8a7.41,7.41,0,0,1,7.4-7.4Z" transform="translate(-146.61 -146.6)"/><path d="M316.8,279.8a7.4,7.4,0,0,1,7.4,7.4H339a22.2,22.2,0,0,0-44.4,0h14.8a7.4,7.4,0,0,1,7.4-7.4Z" transform="translate(-146.61 -146.6)"/><path d="M315.24,336.47l.78-1.56-13.24-6.62-.78,1.56a16.55,16.55,0,0,1-29.6,0l-.78-1.57-13.24,6.63.78,1.55a31.35,31.35,0,0,0,56.08,0Z" transform="translate(-146.61 -146.6)"/><path d="M435.2,279.8a7.4,7.4,0,0,1,7.4,7.4h14.8a22.2,22.2,0,0,0-44.4,0h14.8a7.4,7.4,0,0,1,7.4-7.4Z" transform="translate(-146.61 -146.6)"/><path d="M494.4,265a22.23,22.23,0,0,0-22.2,22.2H487a7.4,7.4,0,0,1,14.8,0h14.8A22.23,22.23,0,0,0,494.4,265Z" transform="translate(-146.61 -146.6)"/><path d="M487,315.61a23.4,23.4,0,0,1-44.4,0l-.38-1.14-14,4.72.39,1.12a38.19,38.19,0,0,0,72.46,0l.39-1.14-14-4.72Z" transform="translate(-146.61 -146.6)"/><path d="M571,400.92a77.67,77.67,0,0,0-17.37-8.61,107.83,107.83,0,0,0,22.14-65.57V257.6A110.87,110.87,0,0,0,382.1,183.76a87.5,87.5,0,0,0-71.5-37.16H263.8a87.7,87.7,0,0,0-87.59,87.6,151.31,151.31,0,0,0,6.19,42.5,29.26,29.26,0,0,0-6.19,17.9,29.63,29.63,0,0,0,29.6,29.6H209a81.74,81.74,0,0,0,38.71,48.9L243.89,392l-38.72,8.6a74.8,74.8,0,0,0-58.56,73v80a51.87,51.87,0,0,0,51.79,51.8H553.6a51.87,51.87,0,0,0,51.8-51.79l0-89A76.27,76.27,0,0,0,571,400.92Zm19.62,63.73,0,37.15H561V457.4h-14.8v88.79H527.05l-6.32-6.32a28.8,28.8,0,0,0-33.85-5.15A37.32,37.32,0,0,0,473.94,524a7.4,7.4,0,0,1-3.31-9.93l5.29-10.56a35.07,35.07,0,0,0,3.68-15.59,34.7,34.7,0,0,0-5.85-19.33l-4-6a29.49,29.49,0,0,1-5-16.42V442.6a73.53,73.53,0,0,0-3.48-22.37c1.15.08,2.31.17,3.48.17a48.82,48.82,0,0,0,40.56-21.62l31.47,4.5a63,63,0,0,1,26.49,10.3,61.25,61.25,0,0,1,27.32,51.07ZM307.4,565.32a70.05,70.05,0,0,1,9.82-7.67,29.55,29.55,0,0,0,29.13,25.55,30.71,30.71,0,0,0,3.43,7.39H305.3a28.62,28.62,0,0,0,2.1-25.27Zm53.8-21.07a57.14,57.14,0,0,0,29.6,0v2a14.8,14.8,0,0,1-29.6,0Zm44.4,2v-7.4a14.8,14.8,0,0,1,0,29.6,14.56,14.56,0,0,1-4-.66l-4.17-1.19a29.48,29.48,0,0,0,8.2-20.35ZM376,531.4A44.45,44.45,0,0,1,331.6,487V463.1a29.72,29.72,0,0,1,21.46-28.46l8.23-2.35a51.28,51.28,0,0,0,29.41,13.62l16.52,1.84a14.8,14.8,0,0,1,13.18,14.72V487A44.44,44.44,0,0,1,376,531.39Zm-29.6,7.39v7.4a29.4,29.4,0,0,0,8.21,20.35l-4.17,1.19a14.36,14.36,0,0,1-4,.67,14.81,14.81,0,0,1,0-29.61Zm13.47,35.93-.07-3.8a29.38,29.38,0,0,0,32.4,0l-.07,3.8a16.13,16.13,0,0,1-32.26,0Zm45.79,8.47a29.54,29.54,0,0,0,29.13-25.55,72.18,72.18,0,0,1,9.82,7.67,28.55,28.55,0,0,0,2.1,25.28H402.22a30.63,30.63,0,0,0,3.44-7.4Zm47.65-30a86.29,86.29,0,0,0-22.18-14.31,29.59,29.59,0,0,0-12-11.46A58.92,58.92,0,0,0,435.2,487V462.47A29.59,29.59,0,0,0,408.86,433l-16.52-1.83A36.62,36.62,0,0,1,361,403.8l-14.35,3.6a50.79,50.79,0,0,0,4.86,12.3l-2.48.71A44.58,44.58,0,0,0,316.8,463.1V487a58.89,58.89,0,0,0,16.07,40.42,29.69,29.69,0,0,0-12,11.46,86.34,86.34,0,0,0-22.19,14.31,29.3,29.3,0,0,0-18.88-7H277c-.29-.51-.64-1-.95-1.47a22.28,22.28,0,0,1,8.67-7.49,22.19,22.19,0,0,0,9.93-29.79l-5.28-10.56a20.05,20.05,0,0,1,1.25-20.1l4-6A44.22,44.22,0,0,0,302,446.2v-3.6a59.27,59.27,0,0,1,59.2-59.2h29.6A59.27,59.27,0,0,1,450,442.6v3.6a44.28,44.28,0,0,0,7.45,24.62l4,6a20,20,0,0,1,3.36,11.13,20.21,20.21,0,0,1-2.11,9l-5.28,10.56a22.09,22.09,0,0,0-1.21,16.95,22.39,22.39,0,0,0,11.65,13.09,21.35,21.35,0,0,1,8.16,7.24c-.32.5-.67,1-1,1.47H472.2a29.33,29.33,0,0,0-18.89,7ZM355.57,346a108.66,108.66,0,0,0,6.68,22.58H361.2a73.38,73.38,0,0,0-33.73,8.22l-.73-3.72A82,82,0,0,0,355.57,346Zm13-44V279.8a14.81,14.81,0,0,1,0,29.61h-.38c.22-2.45.38-4.91.38-7.41Zm125.23,87.42-.67,1a33.48,33.48,0,0,1-39.63,13.11,74.36,74.36,0,0,0-16.61-18.7l3.17-12.69a81,81,0,0,0,49.42,0ZM378.67,368.6a93.85,93.85,0,0,1-10.07-41.86V324.2a29.23,29.23,0,0,0,18.2-6.44,81.76,81.76,0,0,0,39.49,48.53l-2.54,10.15a73.4,73.4,0,0,0-32.95-7.84Zm86.12-7.4a66.67,66.67,0,0,1-66.59-66.6V265.34a44.36,44.36,0,0,1,29.29-41.76A62.49,62.49,0,0,0,471.63,246l39,2.43a22.23,22.23,0,0,1,20.8,22.16v24a66.67,66.67,0,0,1-66.6,66.6Zm0-199.79a96.31,96.31,0,0,1,96.2,96.2v69.13a93.18,93.18,0,0,1-23.34,61.71l-29.9-4.26-4.46-17.89a81.46,81.46,0,0,0,42.9-71.69v-24a37.06,37.06,0,0,0-34.69-36.93l-39-2.43a47.82,47.82,0,0,1-44.74-47.65H413a62.18,62.18,0,0,0,6.29,27.3,59,59,0,0,0-21.47,15.77A86.66,86.66,0,0,0,390,197.4a96.52,96.52,0,0,1,74.81-36Zm-259,148a14.8,14.8,0,0,1,0-29.6V302c0,2.5.16,5,.38,7.4ZM206,265h-.2a29.34,29.34,0,0,0-10.74,2.09A136.39,136.39,0,0,1,191,234.21a72.88,72.88,0,0,1,72.8-72.8h46.8a72.88,72.88,0,0,1,72.8,72.8,136.33,136.33,0,0,1-4.06,32.89A29.34,29.34,0,0,0,368.6,265h-.75a37.06,37.06,0,0,0-36.25-29.6h-63a18.4,18.4,0,0,1-5.84-35.86l4.56-1.52-4.67-14-4.56,1.52A33.14,33.14,0,0,0,235.4,217a34.74,34.74,0,0,0,.22,3.84l-4.52,2.7A52,52,0,0,0,206,265Zm14.61,3a37.18,37.18,0,0,1,18.06-31.79l2.06-1.23a33.22,33.22,0,0,0,27.87,15.19h63a22.23,22.23,0,0,1,22.2,22.2V302a66.13,66.13,0,0,1-8.67,32.73L337,318.37A29.42,29.42,0,0,0,310.48,302H263.93a29.45,29.45,0,0,0-26.48,16.36l-8.18,16.36A66.06,66.06,0,0,1,220.6,302Zm18.56,80,11.51-23a14.72,14.72,0,0,1,13.24-8.19h46.55A14.7,14.7,0,0,1,323.71,325l11.52,23a66.33,66.33,0,0,1-96.06,0Zm48,35.38a81,81,0,0,0,25.65-4.2l1.28,6.35a74.3,74.3,0,0,0-17.06,20.31l-9.87,5.91-28.72-17.23,3.07-15.34a81.22,81.22,0,0,0,25.65,4.2Zm-38.27,22.67,25.33,15.2-21.09,16.88L240.24,408ZM161.41,553.6v-80a60,60,0,0,1,47-58.57l17.17-3.81,21.68,50.59,41.3-33a74.62,74.62,0,0,0-1.33,13.79v3.6a29.54,29.54,0,0,1-5,16.42l-4,6a34.88,34.88,0,0,0-2.17,34.93l5.28,10.56c1.83,3.64.34,8.1-3.82,10.18a35.78,35.78,0,0,0-12.43,10.47,28.8,28.8,0,0,0-33.84,5.14l-6.33,6.34H205.8V457.4H191v88.8H176.21V561H220.6v29.6H198.4a37,37,0,0,1-37-37Zm74,37V556.66l6.33-6.33a14.12,14.12,0,0,1,22.6,3.66l3.49,7h12a14.81,14.81,0,0,1,0,29.61Zm318.2,0H472.19a14.81,14.81,0,0,1,0-29.61h12l3.49-7a14.11,14.11,0,0,1,22.6-3.67L520.93,561h54.85v-14.8H561v-29.6h29.63v37a37,37,0,0,1-37,37Z" transform="translate(-146.61 -146.6)"/><path d="M361.2,472.2a7.4,7.4,0,1,1-7.4-7.4,7.4,7.4,0,0,1,7.4,7.4" transform="translate(-146.61 -146.6)"/><path d="M405.6,472.2a7.4,7.4,0,1,1-7.4-7.4,7.4,7.4,0,0,1,7.4,7.4" transform="translate(-146.61 -146.6)"/><path d="M390.8,492.65a16.54,16.54,0,0,1-29.6,0l-.78-1.56-13.24,6.62.78,1.56a31.35,31.35,0,0,0,56.08,0l.78-1.57-13.24-6.62Z" transform="translate(-146.61 -146.6)"/></svg>