<svg xmlns="http://www.w3.org/2000/svg" data-name="Layer 1" viewBox="0 0 512 512"><path d="M344.69727,95.36518a7.49163,7.49163,0,0,0,9.45019,4.81543L373.168,93.99994a7.49982,7.49982,0,1,0-4.63477-14.26562L349.5127,85.915A7.49991,7.49991,0,0,0,344.69727,95.36518ZM320.89746,54.26361a7.49644,7.49644,0,0,0,10.47559-1.65918l11.75586-16.18066a7.4997,7.4997,0,1,0-12.13477-8.81641L319.23828,43.788A7.49917,7.49917,0,0,0,320.89746,54.26361Zm-100.334-10.99023A7.49969,7.49969,0,1,0,232.69824,34.457L220.94238,18.27729a7.49969,7.49969,0,0,0-12.13476,8.8164Zm56.9209-8.27344a7.49944,7.49944,0,0,0,7.5-7.5v-20a7.5,7.5,0,1,0-15,0v20A7.49943,7.49943,0,0,0,277.48438,34.99994ZM170.832,78.90424l19.02051,6.17969A7.49982,7.49982,0,0,0,194.4873,70.8183l-19.0205-6.17969A7.49982,7.49982,0,1,0,170.832,78.90424Zm23.375,233.74512a7.5,7.5,0,1,0-7.5,7.5A7.50037,7.50037,0,0,0,194.207,312.64936Zm35.05859,38.5498a26.23145,26.23145,0,1,0,26.23145-26.23145A26.26142,26.26142,0,0,0,229.26562,351.19916Zm37.4629,0a11.23145,11.23145,0,1,1-11.23145-11.23145A11.24376,11.24376,0,0,1,266.72852,351.19916Zm163.40429.46484c-.00439-.28418.00147-.56836-.00488-.85254-.02344-1.03417-.07324-2.06933-.12109-3.10351-.01807-.3877-.02393-.77539-.04541-1.16211-.04639-.83887-.11866-1.67578-.18164-2.51367-.04395-.583-.07471-1.166-.12647-1.749-.03906-.43945-.09521-.87793-.13916-1.3164-.23779-2.39746-.52832-4.792-.90088-7.17774l-.001-.0039a129.81489,129.81489,0,0,0-6.62109-25.30371l-2.09961-5.63477a129.4904,129.4904,0,0,0-77-76.3623,19.63756,19.63756,0,0,1,.2666-25.19532c.03809-.042.07618-.084.11426-.12695l10.55566-12.00586a11.61976,11.61976,0,0,0,1.873-12.59473,11.92045,11.92045,0,0,0-2.46045-3.55175c2.40967-12.78028-.71679-24.752-8.86474-32.90039a31.92612,31.92612,0,0,0-12.05616-7.53711c2.87354-13.25586-.15869-25.71778-8.52294-34.083-6.06788-6.06641-14.20167-9.1582-23.01758-9.46.31494-10.10938-2.97852-19.21-9.55274-25.7832-7.668-7.669-18.64551-10.89942-30.9082-9.10743-11.44531,1.67578-22.77441,7.625-31.89941,16.751-8.98707,8.98535-14.80811,19.93457-16.6211,31.11426a60.77517,60.77517,0,0,0-4.5918,4.13281c-8.70727,8.708-14.43579,19.73535-16.082,30.72754a45.04156,45.04156,0,0,0-13.14843,11.10254,47.0855,47.0855,0,0,0-9.325,21.65332h-1.75024a11.77508,11.77508,0,0,0-8.90332,19.542l10.54981,11.999a19.281,19.281,0,0,1,.77343,24.502l-.89575,1.14648a132.06429,132.06429,0,0,0-62.60107,48.11914c-.158.14356-.31421.29-.46216.44922a7.47494,7.47494,0,0,0-1.51807,2.44727,132.19814,132.19814,0,0,0-13.146,120.5791l.05664.14746A132.23646,132.23646,0,0,0,166.33057,474.208L156.1875,501.92377a7.49923,7.49923,0,0,0,7.043,10.07715H348.16992a7.49991,7.49991,0,0,0,7.04395-10.07617l-9.791-26.76856A129.28944,129.28944,0,0,0,429.374,367.84662l.002-.01562q.22558-2.02442.38281-4.05469c.00488-.0586.01221-.11719.0166-.17578.09766-1.25782.16992-2.5166.23-3.77637.00781-.16016.02246-.32129.0293-.48145.05762-1.29687.08935-2.5957.10742-3.89453.00146-.123.00879-.24511.01025-.36816C430.16455,353.94135,430.15039,352.80268,430.13281,351.664ZM333.7666,150.71283c4.44043,4.44141,6.13477,11.28028,4.85352,18.90723H284.06641a46.11063,46.11063,0,0,1,8.52734-11.68652c.46094-.46192.93164-.90528,1.39453-1.333C307.082,144.50775,324.92773,141.86615,333.7666,150.71283Zm-20.57617-41.61719c4.88867,4.88965,6.38525,12.77832,4.19629,21.45508a52.75636,52.75636,0,0,0-27.01514,9.76172c-.19531-.20605-.37646-.4248-.57763-.626-7.14258-7.1416-17.0608-10.2705-27.65723-9.498a47.0959,47.0959,0,0,1,9.458-13.44727q.61194-.6123,1.24-1.19531c.02588-.02246.04956-.04688.075-.06934C286.165,103.18354,304.28711,100.19525,313.19043,109.09564Zm-33.9917,41.21192a59.00686,59.00686,0,0,0-11.397,19.3125H228.99121a47.53882,47.53882,0,0,1,8.60059-11.68555,51.08242,51.08242,0,0,1,4.3584-3.88281c13.07421-10.29688,29.083-11.91406,37.23632-3.75781ZM239.02539,81.496c6.8584-6.85938,15.19336-11.30372,23.4668-12.51563,7.4541-1.09473,13.89355.6377,18.12793,4.87207,4.06836,4.06738,5.80713,10.23047,4.97851,17.25879a57.44136,57.44136,0,0,0-16.439,8.13477C259.68408,89.81342,245.343,87.45111,231.291,91.5849A48.00573,48.00573,0,0,1,239.02539,81.496Zm-21.21191,35.248c12.85742-12.85742,30.66357-16.0625,40.18823-7.40527a57.53181,57.53181,0,0,0-13.17676,25.4541,58.84334,58.84334,0,0,0-6.62988,3.582c-6.80274-5.56836-15.88159-8.3125-25.90015-7.7334-1.38159.07813-2.75366.23145-4.11719.42774A43.86576,43.86576,0,0,1,217.81348,116.74408ZM189.7207,157.29682c5.31543-6.68555,14.29-11.16114,23.42383-11.67969a23.80675,23.80675,0,0,1,12.9502,2.63086,60.91461,60.91461,0,0,0-13.4314,21.37207H183.9375A31.6672,31.6672,0,0,1,189.7207,157.29682Zm28.51123,27.32324c.01172,0,.0232.00195.03467.00195l.02271-.00195H337.84277l-5.78418,6.5791a34.67373,34.67373,0,0,0-7.85693,30.0459,129.915,129.915,0,0,0-25.52295-2.53613h-84.708a132.48212,132.48212,0,0,0-26.46875,2.68164,34.30372,34.30372,0,0,0-7.68945-30.13282l-5.83594-6.63769Zm-70.4956,69.6123a117.37876,117.37876,0,0,1,27.49194-13.94824c.20728-.05664.407-.12793.60767-.20117a116.86125,116.86125,0,0,1,38.13476-6.374h84.708a114.12208,114.12208,0,0,1,37.19092,6.20605,7.38293,7.38293,0,0,0,.7998.2666,114.67975,114.67975,0,0,1,53.53223,39.2959l-65.666,61.44922-57.83056-54.11719a15.87934,15.87934,0,0,0-21.5957-.03125l-58.241,54.17774L120.959,279.64447A116.89061,116.89061,0,0,1,147.73633,254.23236Zm165.82178,96.9668-57.104,53.43652a.82955.82955,0,0,1-1.12793.002l-57.44629-53.43848,57.44629-53.43848a.8288.8288,0,0,1,1.12891.002ZM97.37256,362.10443a116.664,116.664,0,0,1-.06445-21.87207,11.234,11.234,0,1,1,.06445,21.87207Zm15.405,47.77246a117.71753,117.71753,0,0,1-8.02661-16.71777l-.05664-.14746a117.61025,117.61025,0,0,1-4.812-15.61914,26.23051,26.23051,0,0,0-.06591-52.46094c-.02491,0-.04981.002-.075.00293A117.5717,117.5717,0,0,1,112.523,292.28314l63.334,58.916Zm61.18432,87.124,6.65308-18.18067a132.24854,132.24854,0,0,0,33.40942,4.28321h86.752a129.57484,129.57484,0,0,0,30.26806-3.58887l6.396,17.48633Zm190.93164-48.55567a113.9512,113.9512,0,0,1-64.11718,19.65821h-86.752a117.1672,117.1672,0,0,1-92.77685-45.61914l65.6206-61.042L245.11035,415.621a15.87817,15.87817,0,0,0,21.59473-.03321l57.83056-54.11621,66.627,62.34863A114.23872,114.23872,0,0,1,364.89355,448.44525Zm42.07911-52.22363a115.01218,115.01218,0,0,1-7.31348,15.00488L335.5127,351.19916l63.00244-58.957a115.1071,115.1071,0,0,1,7.32177,15.8457l2.09961,5.63379a114.20316,114.20316,0,0,1,3.54493,11.25293,26.22764,26.22764,0,0,0,.40917,52.45215c.2627,0,.52344-.01953.78565-.02734A114.54484,114.54484,0,0,1,406.97266,396.22162Zm8.165-40.749q-.02052,1.32274-.07276,2.64453c-.01025.26855-.01758.53711-.03027.80469q-.07251,1.55712-.18946,3.11035a11.2311,11.2311,0,1,1-.48925-21.7959q.18384,1.54541.32666,3.09375c.02783.30078.0498.60059.0747.90137q.1062,1.27587.18457,2.55175c.02051.33594.04151.67188.05909,1.00782.05761,1.10742.10449,2.21582.12939,3.32422.001.03613.001.07226.00195.10937.02344,1.09473.02686,2.18945.01856,3.28418C415.14893,354.83,415.14307,355.15131,415.1377,355.4726Zm-91.71924-35.32324a7.5,7.5,0,1,0-7.5-7.5A7.49975,7.49975,0,0,0,323.41846,320.14936Zm-7.5,70.28515a7.5,7.5,0,1,0,7.5-7.5A7.49974,7.49974,0,0,0,315.91846,390.43451Zm-129.21143-7.5a7.5,7.5,0,1,0,7.5,7.5A7.50037,7.50037,0,0,0,186.707,382.93451Z"/></svg>