<svg xmlns="http://www.w3.org/2000/svg" data-name="Layer 1" viewBox="0 0 128 128" x="0px" y="0px"><title>254 Indian festival final</title><path d="M44.14209,33.95459a1.99927,1.99927,0,0,0,0-2.82812l-1.41455-1.41455A1.99979,1.99979,0,1,0,39.89941,32.54L41.314,33.95459a1.99927,1.99927,0,0,0,2.82813,0Z"/><path d="M88.10059,29.71191a1.99927,1.99927,0,0,0-2.82812,0l-1.41455,1.41455A1.99979,1.99979,0,1,0,86.686,33.95459L88.10059,32.54A1.99927,1.99927,0,0,0,88.10059,29.71191Z"/><path d="M66,23.729v-2a2,2,0,0,0-4,0v2a2,2,0,1,0,4,0Z"/><path d="M33,51a2,2,0,0,0,0,4h2a2,2,0,0,0,0-4Z"/><path d="M95,51H93a2,2,0,0,0,0,4h2a2,2,0,0,0,0-4Z"/><path d="M23.25244,63.33984a2.00138,2.00138,0,0,0,.542,1.66162l.40332.41406A17.11907,17.11907,0,0,1,27.457,69.61279a11.90632,11.90632,0,0,1,.50262,1.14008q1.85394-.60141,3.84845-1.12439a15.95289,15.95289,0,0,0-.78857-1.834,20.14724,20.14724,0,0,0-3.665-4.87109,20.35668,20.35668,0,0,0,.09668-6.11914A20.13432,20.13432,0,0,0,25.458,51a20.11483,20.11483,0,0,0,1.99268-5.80273,20.32713,20.32713,0,0,0-.09668-6.12012,20.149,20.149,0,0,0,3.665-4.87061,20.26651,20.26651,0,0,0,1.80713-5.85107,20.21207,20.21207,0,0,0,5.01074-3.51855,20.22452,20.22452,0,0,0,3.519-5.01123,20.27475,20.27475,0,0,0,5.84961-1.80615,20.16088,20.16088,0,0,0,4.87158-3.665,24.588,24.588,0,0,0,3.54883.2915,16.607,16.607,0,0,0,2.56982-.19482A20.13432,20.13432,0,0,0,64,12.458a20.118,20.118,0,0,0,5.80176,1.99268,16.56684,16.56684,0,0,0,2.57178.19531,24.5198,24.5198,0,0,0,3.54932-.292,20.1392,20.1392,0,0,0,4.87061,3.665,20.26651,20.26651,0,0,0,5.85107,1.80713,20.21207,20.21207,0,0,0,3.51855,5.01074,20.22452,20.22452,0,0,0,5.01123,3.519,20.27475,20.27475,0,0,0,1.80615,5.84961,20.14724,20.14724,0,0,0,3.665,4.87109,20.35668,20.35668,0,0,0-.09668,6.11914A20.13432,20.13432,0,0,0,102.542,51a20.11483,20.11483,0,0,0-1.99268,5.80273,20.32713,20.32713,0,0,0,.09668,6.12012,20.149,20.149,0,0,0-3.665,4.87061,15.94485,15.94485,0,0,0-.7901,1.83728q1.99173.52359,3.84827,1.12549a11.91537,11.91537,0,0,1,.50433-1.14392,17.10286,17.10286,0,0,1,3.2583-4.1958l.40625-.418a1.99937,1.99937,0,0,0,.53955-1.65869l-.07812-.54492a17.32632,17.32632,0,0,1-.16895-5.37109,17.07462,17.07462,0,0,1,1.80469-5.01025l.26709-.54541a2.00121,2.00121,0,0,0,0-1.73633l-.28223-.57568a16.996,16.996,0,0,1-1.79-4.981,17.59287,17.59287,0,0,1,.1792-5.44189l.06836-.47314a2.00138,2.00138,0,0,0-.542-1.66162l-.40332-.41406a17.11907,17.11907,0,0,1-3.25928-4.19727A17.25438,17.25438,0,0,1,99.04248,27.25l-.09717-.55811a1.99956,1.99956,0,0,0-1.0293-1.41309l-.50879-.26807A17.16723,17.16723,0,0,1,92.9917,22.0083a17.14763,17.14763,0,0,1-3.002-4.41553l-.269-.51025a2.00039,2.00039,0,0,0-1.41162-1.02734L87.751,15.958a17.25,17.25,0,0,1-5.13867-1.50146,17.10286,17.10286,0,0,1-4.1958-3.2583l-.418-.40625a2.00878,2.00878,0,0,0-1.65869-.53955l-.54443.07813a23.27008,23.27008,0,0,1-3.42187.31543,12.6045,12.6045,0,0,1-1.94971-.14648,17.07462,17.07462,0,0,1-5.01025-1.80469l-.54541-.26709a1.99788,1.99788,0,0,0-1.73633,0L62.55615,8.71a16.996,16.996,0,0,1-4.981,1.79,12.66458,12.66458,0,0,1-1.94922.146,23.46094,23.46094,0,0,1-3.49268-.3252l-.47314-.06836a2.00863,2.00863,0,0,0-1.66162.542l-.41406.40332A17.11907,17.11907,0,0,1,45.38721,14.457,17.25438,17.25438,0,0,1,40.25,15.95752l-.55811.09717a1.99956,1.99956,0,0,0-1.41309,1.0293l-.26807.50879A17.16723,17.16723,0,0,1,35.0083,22.0083a17.14763,17.14763,0,0,1-4.41553,3.002l-.51025.269a2.00039,2.00039,0,0,0-1.02734,1.41162L28.958,27.249a17.25,17.25,0,0,1-1.50146,5.13867,17.10286,17.10286,0,0,1-3.2583,4.1958l-.40625.418a1.99937,1.99937,0,0,0-.53955,1.65869l.07813.54492a17.32632,17.32632,0,0,1,.16895,5.37109,17.07462,17.07462,0,0,1-1.80469,5.01025l-.26709.54541a2.00121,2.00121,0,0,0,0,1.73633l.28223.57568a16.996,16.996,0,0,1,1.79,4.981,17.59286,17.59286,0,0,1-.1792,5.44189Z"/><path d="M15.59668,58.6665a10.69392,10.69392,0,0,1-.18115,2.96826,11.1621,11.1621,0,0,0,.06836,5.12842A11.25,11.25,0,0,0,18.48,71.01074,10.5147,10.5147,0,0,1,20.33154,73.25a4.36714,4.36714,0,0,1,.22821.55457q1.69785-.89218,3.63159-1.67975c-.0921-.23248-.18115-.4657-.2973-.69318a13.46556,13.46556,0,0,0-2.55566-3.21875,8.17125,8.17125,0,0,1-2.0498-2.68457,8.12719,8.12719,0,0,1,.08447-3.31348,13.67551,13.67551,0,0,0,.1748-4.16943,13.35415,13.35415,0,0,0-1.42334-3.8291A8.223,8.223,0,0,1,17,51a8.22487,8.22487,0,0,1,1.12451-3.2168,13.34034,13.34034,0,0,0,1.42334-3.82861,13.67938,13.67938,0,0,0-.1748-4.16992,8.13464,8.13464,0,0,1-.085-3.313,8.17843,8.17843,0,0,1,2.05029-2.68457A13.47256,13.47256,0,0,0,23.894,30.56885a13.59712,13.59712,0,0,0,1.12158-3.99658,8.16953,8.16953,0,0,1,.957-3.19922,8.18474,8.18474,0,0,1,2.76221-1.90527,13.532,13.532,0,0,0,3.44531-2.2876,13.5297,13.5297,0,0,0,2.28857-3.4458,8.1748,8.1748,0,0,1,1.90479-2.76172,8.16364,8.16364,0,0,1,3.19971-.95752A13.59362,13.59362,0,0,0,43.56836,10.894a13.46556,13.46556,0,0,0,3.21875-2.55566,8.17125,8.17125,0,0,1,2.68457-2.0498,8.13581,8.13581,0,0,1,3.31348.08447,13.63069,13.63069,0,0,0,4.16943.1748,13.35415,13.35415,0,0,0,3.8291-1.42334A8.223,8.223,0,0,1,64,4a8.22487,8.22487,0,0,1,3.2168,1.12451,13.34034,13.34034,0,0,0,3.82861,1.42334,13.6626,13.6626,0,0,0,4.16992-.1748,8.10874,8.10874,0,0,1,3.313-.085,8.17843,8.17843,0,0,1,2.68457,2.05029A13.47256,13.47256,0,0,0,84.43115,10.894a13.59712,13.59712,0,0,0,3.99658,1.12158,8.16953,8.16953,0,0,1,3.19922.957,8.18474,8.18474,0,0,1,1.90527,2.76221,13.532,13.532,0,0,0,2.2876,3.44531,13.5297,13.5297,0,0,0,3.4458,2.28857,8.1748,8.1748,0,0,1,2.76172,1.90479,8.16364,8.16364,0,0,1,.95752,3.19971,13.59362,13.59362,0,0,0,1.12109,3.99512,13.46557,13.46557,0,0,0,2.55566,3.21875,8.17125,8.17125,0,0,1,2.0498,2.68457,8.12719,8.12719,0,0,1-.08447,3.31348,13.67551,13.67551,0,0,0-.1748,4.16943,13.35415,13.35415,0,0,0,1.42334,3.8291A8.223,8.223,0,0,1,111,51a8.22487,8.22487,0,0,1-1.12451,3.2168,13.34034,13.34034,0,0,0-1.42334,3.82861,13.67939,13.67939,0,0,0,.1748,4.16992,8.13464,8.13464,0,0,1,.085,3.313,8.17843,8.17843,0,0,1-2.05029,2.68457,13.47256,13.47256,0,0,0-2.55566,3.21826c-.117.22913-.20679.464-.29944.69818q1.93268.78717,3.631,1.6814a4.369,4.369,0,0,1,.2309-.56073,10.49171,10.49171,0,0,1,1.85205-2.23926,11.25,11.25,0,0,0,2.99609-4.24756,11.15983,11.15983,0,0,0,.06787-5.12793,10.70169,10.70169,0,0,1-.18115-2.96924,10.40109,10.40109,0,0,1,1.05713-2.6748A11.31314,11.31314,0,0,0,115,51a11.31314,11.31314,0,0,0-1.53955-4.99121,10.39687,10.39687,0,0,1-1.05713-2.67529,10.69392,10.69392,0,0,1,.18115-2.96826,11.1621,11.1621,0,0,0-.06836-5.12842A11.25,11.25,0,0,0,109.52,30.98926,10.5147,10.5147,0,0,1,107.66846,28.75a10.603,10.603,0,0,1-.74121-2.853,11.21375,11.21375,0,0,0-1.66553-4.877,11.23307,11.23307,0,0,0-4.14014-3.09473,10.562,10.562,0,0,1-2.47314-1.57324,10.53173,10.53173,0,0,1-1.57275-2.47266,11.23225,11.23225,0,0,0-3.09521-4.14111,11.209,11.209,0,0,0-4.876-1.665A10.59556,10.59556,0,0,1,86.25,7.33154a10.49171,10.49171,0,0,1-2.23926-1.85205A11.25,11.25,0,0,0,79.76318,2.4834a11.16655,11.16655,0,0,0-5.12793-.06787,10.73447,10.73447,0,0,1-2.96924.18115,10.40109,10.40109,0,0,1-2.6748-1.05713A11.31314,11.31314,0,0,0,64,0a11.31314,11.31314,0,0,0-4.99121,1.53955A10.39688,10.39688,0,0,1,56.3335,2.59668a10.75529,10.75529,0,0,1-2.96826-.18115,11.16877,11.16877,0,0,0-5.12842.06836A11.25,11.25,0,0,0,43.98926,5.48,10.5147,10.5147,0,0,1,41.75,7.33154a10.603,10.603,0,0,1-2.853.74121A11.21375,11.21375,0,0,0,34.02,9.73828a11.23307,11.23307,0,0,0-3.09473,4.14014,10.562,10.562,0,0,1-1.57324,2.47314,10.53173,10.53173,0,0,1-2.47266,1.57275,11.23225,11.23225,0,0,0-4.14111,3.09521,11.209,11.209,0,0,0-1.665,4.876,10.59556,10.59556,0,0,1-.7417,2.85449,10.49171,10.49171,0,0,1-1.85205,2.23926,11.25,11.25,0,0,0-2.99609,4.24756,11.15983,11.15983,0,0,0-.06787,5.12793,10.70169,10.70169,0,0,1,.18115,2.96924,10.40109,10.40109,0,0,1-1.05713,2.6748A11.31314,11.31314,0,0,0,13,51a11.31314,11.31314,0,0,0,1.53955,4.99121A10.39688,10.39688,0,0,1,15.59668,58.6665Z"/><path d="M51.20233,43.5434c.64972-1.18158,1.30475-2.32227,1.951-3.4057L50.21973,37.2041a1.99979,1.99979,0,0,0-2.82812,2.82813l3.03906,3.03906A1.97607,1.97607,0,0,0,51.20233,43.5434Z"/><path d="M43.28564,55h2.82672c.40155-1.30408.89166-2.63892,1.45178-3.98633C47.51855,51.01056,47.4751,51,47.42871,51H43.28564a2,2,0,0,0,0,4Z"/><path d="M84.71436,55a2,2,0,0,0,0-4H80.57129c-.04639,0-.08984.01056-.13544.01367C80.996,52.36115,81.48608,53.69592,81.88763,55Z"/><path d="M80.6084,37.2041a1.99927,1.99927,0,0,0-2.82812,0l-2.93365,2.93365c.64618,1.08331,1.30121,2.22388,1.95087,3.40533a1.97631,1.97631,0,0,0,.77234-.47229l3.03857-3.03857A1.99927,1.99927,0,0,0,80.6084,37.2041Z"/><path d="M64,78c8.27106,0,15-7.52863,15-16.78265,0-7.89215-9.74084-22.6001-11.69348-25.46838a4,4,0,0,0-6.613,0C58.74084,38.61725,49,53.3252,49,61.21735,49,70.47137,55.729,78,64,78Zm0-40S75,54.15771,75,61.21735,70.07513,74,64,74,53,68.277,53,61.21735,64,38,64,38Z"/><path d="M64,70a2,2,0,0,0,0-4c-1.208,0-3-1.75781-3-4.18652a2,2,0,0,0-4,0C57,66.6377,60.689,70,64,70Z"/><path d="M15.01093,85.78516c-.01947.156-.02258.53235-.02271.58344a3.416,3.416,0,0,0,.063.72369C20.25049,110.41211,41.293,127.998,64.00146,128c22.70557-.002,43.748-17.58789,48.94727-40.90771a3.08776,3.08776,0,0,0,.06653-.63037c.00323-.22577-.00977-.45245-.02112-.67676-.39325-7.78918-14.98468-12.85052-32.218-14.83472a21.0344,21.0344,0,0,1-2.3349,3.73724c18.79352,1.86267,30.13391,7.13916,30.54279,11.19391-1.40894,2.337-6.1911,5.89618-13.31317,7.22192C89.668,94.2207,77.76318,94.33936,65.41992,82.5918a2.09177,2.09177,0,0,0-2.86523.02441C50.2207,94.34033,38.32715,94.22168,32.3291,93.10352c-7.12329-1.32593-11.90588-4.88611-13.31384-7.22308.39374-4.04633,11.73767-9.3291,30.54333-11.19293a21.038,21.038,0,0,1-2.33478-3.73706C29.9906,72.93463,15.39911,77.996,15.01093,85.78516ZM64.00146,124c-13.784,0-26.89819-7.0849-35.60522-18.09357A33.73138,33.73138,0,0,0,36.86328,107,39.38639,39.38639,0,0,0,63.99854,96.71631c8.71094,7.73486,17.87646,10.64844,26.09229,10.64795a34.48749,34.48749,0,0,0,9.39984-1.31653C90.78363,116.97534,77.72424,124,64.00146,124ZM31.59717,97.03613C38.12939,98.25293,50.83984,98.4502,64,86.72168,73.82715,95.48,83.40186,97.58691,90.34229,97.58691a33.192,33.192,0,0,0,6.06055-.55078,30.60906,30.60906,0,0,0,10.58142-4.03241,49.03851,49.03851,0,0,1-3.51282,7.255c-5.33862,2.643-21.312,8.28235-38.09155-7.70648a2.00006,2.00006,0,0,0-2.75977,0A35.80448,35.80448,0,0,1,36.86328,103a28.35978,28.35978,0,0,1-12.34607-2.76074,49.03741,49.03741,0,0,1-3.5014-7.23553A30.60872,30.60872,0,0,0,31.59717,97.03613Z"/></svg>