<svg id="Devi_1_" enable-background="new 0 0 512 512" height="512" viewBox="0 0 512 512" width="512" xmlns="http://www.w3.org/2000/svg"><g id="Devi_Icon"><g id="Eyes"><g id="Left_Eye"><path id="Left_Eyelid" d="m141.16 434.221c-23.68 0-45.962-5.947-66.227-17.678-24.518-14.191-46.197-36.973-64.438-67.709l-1.918-3.232 2.723-2.902c7.236-7.787 34.104-33.188 76.022-33.188 46.618 0 94.639 30.842 142.729 91.67l3.359 4.248-4.503 3.01c-1.575 1.052-39.133 25.781-87.747 25.781zm-120.092-87.219c31.421 51.244 71.809 77.219 120.092 77.219 36.065 0 66.257-14.914 77.494-21.275-44.877-55.371-89.042-83.434-131.332-83.434-34.145 0-57.244 18.66-66.254 27.49z"/><path id="Left_Iris" d="m114.622 410.879c-21.505 0-39-17.496-39-39s17.495-39 39-39 39 17.496 39 39-17.495 39-39 39zm0-68c-15.991 0-29 13.01-29 29s13.009 29 29 29c15.99 0 29-13.01 29-29s-13.01-29-29-29z"/><path id="Left_Eyebrow" d="m222.45 338.859c-51.772-56.219-85.278-63.721-190.988-63.721v-10c107.565 0 144.368 8.334 198.345 66.947z"/></g><g id="Right_Eye"><path id="Right_Eyelid" d="m370.843 434.221c-.002 0-.002 0-.003 0-48.614 0-86.172-24.729-87.747-25.781l-4.503-3.01 3.359-4.248c48.09-60.828 96.11-91.67 142.728-91.67 41.917 0 68.786 25.4 76.023 33.186l2.723 2.904-1.918 3.232c-18.241 30.736-39.921 53.518-64.438 67.709-20.264 11.73-42.546 17.678-66.224 17.678zm-77.492-31.282c11.258 6.359 41.516 21.281 77.489 21.281 48.282 0 88.67-25.975 120.092-77.219-9.011-8.83-32.11-27.49-66.255-27.49-42.286.001-86.453 28.065-131.326 83.428z"/><path id="Right_Iris" d="m397.378 410.879c-21.505 0-39-17.496-39-39s17.495-39 39-39 39 17.496 39 39-17.495 39-39 39zm0-68c-15.99 0-29 13.01-29 29s13.01 29 29 29 29-13.01 29-29-13.01-29-29-29z"/><path id="Right_Eyebrow" d="m289.549 338.859-7.355-6.773c53.977-58.613 90.779-66.947 198.345-66.947v10c-105.711 0-139.217 7.502-190.99 63.72z"/></g></g><g id="Bindi"><path id="Bindi_Big" d="m255.823 275.893c-13.656 0-48.13-8.805-61.615-34.969-10.646-20.655-5.501-45.926 15.29-75.109l9.988-14.021-.924 17.191c-.01.204-.929 21.456 11.199 34.218 6.157 6.479 14.829 9.769 25.776 9.778 11.336-.009 20.225-3.388 26.411-10.041 11.926-12.825 10.577-33.657 10.562-33.866l-1.277-17.769 10.337 14.509c21.49 30.166 26.986 55.939 16.335 76.605-12.569 24.386-44.75 33.474-62.082 33.474zm-45.973-92.202c-11.864 20.643-14.143 38.313-6.752 52.65 10.763 20.883 39.651 29.551 52.726 29.551 16.083 0 43.219-8.703 53.193-28.055 7.42-14.396 4.85-32.5-7.62-53.938-1.497 8.138-4.831 18.007-12.124 25.849-8.153 8.768-19.503 13.219-33.734 13.231-13.829-.012-24.954-4.366-33.075-12.942-7.532-7.953-11.019-18.074-12.614-26.346z"/><path id="Bindi_Small" d="m256 196.035-1.743-.648c-.867-.323-21.311-8.157-28.056-30.799-6.537-21.942 2.135-49.314 25.775-81.355l4.024-5.454 4.023 5.454c23.641 32.041 32.313 59.413 25.775 81.355-6.746 22.643-27.189 30.477-28.056 30.799zm0-101.237c-18.383 26.587-25.368 49.638-20.215 66.935 4.302 14.44 15.825 21.336 20.222 23.501 4.45-2.175 15.967-9.057 20.25-23.642 5.074-17.279-1.926-40.281-20.257-66.794z"/></g></g></svg>