<?xml version="1.0" encoding="UTF-8" standalone="no"?>
<!-- Created with Inkscape (http://www.inkscape.org/) -->

<svg
   version="1.1"
   id="svg5553"
   xml:space="preserve"
   width="682.66669"
   height="682.66669"
   viewBox="0 0 682.66669 682.66669"
   xmlns="http://www.w3.org/2000/svg"
   xmlns:svg="http://www.w3.org/2000/svg"><defs
     id="defs5557"><clipPath
       clipPathUnits="userSpaceOnUse"
       id="clipPath5571"><path
         d="M 0,512 H 512 V 0 H 0 Z"
         id="path5569" /></clipPath></defs><g
     id="g5559"
     transform="matrix(1.3333333,0,0,-1.3333333,0,682.66667)"><g
       id="g5561"
       transform="translate(296.3584,369.6455)"><path
         d="m 0,0 -37.525,-37.524 73.288,-73.288 37.525,37.525 z"
         style="fill:none;stroke:#000000;stroke-width:15;stroke-linecap:round;stroke-linejoin:round;stroke-miterlimit:10;stroke-dasharray:none;stroke-opacity:1"
         id="path5563" /></g><g
       id="g5565"><g
         id="g5567"
         clip-path="url(#clipPath5571)"><g
           id="g5573"
           transform="translate(504.5009,21.8359)"><path
             d="m 0,0 c -6.126,-9.978 -17.886,-15.979 -30.413,-13.94 v 0 c -8.525,1.387 -16.046,6.376 -20.624,13.7 -12.321,19.715 -15.655,47.956 -14.005,78.565"
             style="fill:none;stroke:#000000;stroke-width:15;stroke-linecap:round;stroke-linejoin:round;stroke-miterlimit:10;stroke-dasharray:none;stroke-opacity:1"
             id="path5575" /></g><g
           id="g5577"
           transform="translate(296.3579,369.6455)"><path
             d="m 0,0 c -8.858,57.048 -64.34,94.593 -120.561,81.478 -24.588,-5.737 -50.886,-10.331 -75.636,-11.665 l 2.946,-2.946 c 19.838,-14.767 38.947,-18.846 60.644,-17.765 34.997,1.747 67.289,-18.742 80.566,-51.169 L -37.524,-37.524 0,0 Z"
             style="fill:none;stroke:#000000;stroke-width:15;stroke-linecap:round;stroke-linejoin:round;stroke-miterlimit:10;stroke-dasharray:none;stroke-opacity:1"
             id="path5579" /></g><g
           id="g5581"
           transform="translate(21.8359,504.501)"><path
             d="m 0,0 c -9.978,-6.126 -15.979,-17.887 -13.94,-30.413 1.387,-8.525 6.376,-16.046 13.7,-20.624 19.715,-12.321 47.956,-15.655 78.565,-14.005"
             style="fill:none;stroke:#000000;stroke-width:15;stroke-linecap:round;stroke-linejoin:round;stroke-miterlimit:10;stroke-dasharray:none;stroke-opacity:1"
             id="path5583" /></g><g
           id="g5585"
           transform="translate(396.4238,396.4238)"><path
             d="M 0,0 -324.861,-324.861"
             style="fill:none;stroke:#000000;stroke-width:15;stroke-linecap:round;stroke-linejoin:round;stroke-miterlimit:10;stroke-dasharray:none;stroke-opacity:1"
             id="path5587" /></g><g
           id="g5589"
           transform="translate(158.0723,72.8174)"><path
             d="m 0,0 -23.792,61.463 -47.566,-47.567 21.652,-55.937 c 1.75,-4.519 7.568,-5.747 10.995,-2.32 L -1.512,-7.162 C 0.366,-5.284 0.958,-2.476 0,0 Z"
             style="fill:none;stroke:#000000;stroke-width:15;stroke-linecap:round;stroke-linejoin:round;stroke-miterlimit:10;stroke-dasharray:none;stroke-opacity:1"
             id="path5591" /></g><g
           id="g5593"
           transform="translate(156.5605,65.6553)"><path
             d="M 0,0 299.775,-20.884"
             style="fill:none;stroke:#000000;stroke-width:15;stroke-linecap:round;stroke-linejoin:round;stroke-miterlimit:10;stroke-dasharray:none;stroke-opacity:1"
             id="path5595" /></g><g
           id="g5597"
           transform="translate(72.8174,158.0723)"><path
             d="m 0,0 61.463,-23.792 -47.567,-47.566 -55.937,21.653 c -4.519,1.749 -5.747,7.566 -2.32,10.993 l 37.199,37.2 C -5.284,0.365 -2.476,0.958 0,0 Z"
             style="fill:none;stroke:#000000;stroke-width:15;stroke-linecap:round;stroke-linejoin:round;stroke-miterlimit:10;stroke-dasharray:none;stroke-opacity:1"
             id="path5599" /></g><g
           id="g5601"
           transform="translate(65.6557,156.5605)"><path
             d="M 0,0 -20.884,299.774"
             style="fill:none;stroke:#000000;stroke-width:15;stroke-linecap:round;stroke-linejoin:round;stroke-miterlimit:10;stroke-dasharray:none;stroke-opacity:1"
             id="path5603" /></g><g
           id="g5605"
           transform="translate(423.4507,444.4951)"><path
             d="m 0,0 -80.832,-18.129 c -8.677,-1.946 -10.183,-13.672 -2.278,-17.746 L -38.055,-59.1 16.312,-4.733 C 12.044,-0.465 5.889,1.32 0,0 Z"
             style="fill:none;stroke:#000000;stroke-width:15;stroke-linecap:round;stroke-linejoin:round;stroke-miterlimit:10;stroke-dasharray:none;stroke-opacity:1"
             id="path5607" /></g><g
           id="g5609"
           transform="translate(439.3081,400.3223)"><path
             d="M 0,0 5.187,23.128 C 6.508,29.017 4.722,35.172 0.454,39.439 l -54.367,-54.366 23.225,-45.054 c 4.074,-7.906 15.8,-6.4 17.746,2.277 l 5.282,23.551"
             style="fill:none;stroke:#000000;stroke-width:15;stroke-linecap:round;stroke-linejoin:round;stroke-miterlimit:10;stroke-dasharray:none;stroke-opacity:1"
             id="path5611" /></g><g
           id="g5613"
           transform="translate(450.7509,222.457)"><path
             d="M 0,0 C -9.411,37.308 -40.256,67.559 -81.105,73.901 L -118.63,36.377 -83.173,21.859 c 31.18,-12.765 53.277,-44.056 51.079,-82.248 -1.2,-20.812 4.198,-40.613 17.856,-58.961 l 2.946,-2.947 C -9.042,-80.562 0.853,-48.585 2.37,-35"
             style="fill:none;stroke:#000000;stroke-width:15;stroke-linecap:round;stroke-linejoin:round;stroke-miterlimit:10;stroke-dasharray:none;stroke-opacity:1"
             id="path5615" /></g></g></g></g></svg>
