<svg id="Capa_1" enable-background="new 0 0 512 512" height="512" viewBox="0 0 512 512" width="512" xmlns="http://www.w3.org/2000/svg"><g id="XMLID_1118_"><g id="XMLID_287_"><path id="XMLID_290_" d="m431.803 160.105c-1.297-17.798-8.968-34.557-21.601-47.189-14.058-14.058-32.749-21.8-52.63-21.8-6.59 0-13.043.869-19.246 2.518 6.588-24.822.188-52.406-19.243-71.835-12.633-12.633-29.392-20.305-47.19-21.601-15.24-1.108-30.401 2.489-43.401 10.198-13-7.709-28.162-11.309-43.401-10.198-17.799 1.296-34.559 8.967-47.19 21.6-14.058 14.058-21.801 32.749-21.801 52.63 0 6.59.869 13.043 2.518 19.246-24.822-6.588-52.405-.187-71.835 19.242-12.633 12.633-20.304 29.392-21.6 47.191-1.11 15.238 2.488 30.401 10.198 43.402-7.71 13-11.309 28.163-10.198 43.401 1.296 17.798 8.967 34.558 21.6 47.191 14.511 14.51 33.57 21.765 52.631 21.765 6.473 0 12.943-.858 19.238-2.532-2.121 7.921-2.959 16.219-2.361 24.587.376 5.267 4.766 9.288 9.964 9.288.239 0 .48-.009.724-.026 5.509-.393 9.655-5.178 9.262-10.687-1.127-15.771 4.632-31.222 15.799-42.391.001-.001.003-.003.005-.004l.005-.005 57.606-57.607c5.557 3.187 11.986 5.019 18.838 5.019s13.281-1.832 18.838-5.019l57.612 57.611c10.28 10.28 15.942 23.949 15.942 38.487s-5.662 28.207-15.943 38.488c-18.797 18.798-49.128 21.163-70.548 5.504-3.515-2.569-8.288-2.569-11.803 0-10.338 7.557-23.112 11.212-35.966 10.297-5.507-.402-10.293 3.753-10.686 9.263-.393 5.509 3.754 10.293 9.263 10.686 15.201 1.083 30.323-2.518 43.291-10.206 11.457 6.794 24.592 10.396 37.98 10.396 1.804 0 3.613-.065 5.422-.197 17.799-1.296 34.558-8.967 47.191-21.601 11.595-11.596 18.543-26.099 20.872-41.184 20.709 50.189 10.71 110.173-30.013 150.895-3.905 3.905-3.905 10.237 0 14.143 1.953 1.953 4.512 2.929 7.071 2.929 2.56 0 5.118-.976 7.071-2.929 52.484-52.484 60.376-132.922 23.697-193.826 3.221.421 6.486.654 9.788.654 19.881 0 38.572-7.742 52.63-21.8 12.633-12.633 20.304-29.392 21.601-47.19 1.109-15.238-2.488-30.401-10.198-43.401 7.709-13.001 11.306-28.164 10.197-43.403zm-295.703-85.677c0-14.538 5.662-28.207 15.943-38.488 18.796-18.797 49.124-21.165 70.548-5.504 3.516 2.568 8.287 2.568 11.803 0 21.422-15.659 51.752-13.293 70.549 5.504 21.222 21.223 21.222 55.753 0 76.976l-57.612 57.611c-5.557-3.187-11.986-5.019-18.838-5.019s-13.281 1.832-18.838 5.019l-57.611-57.611c-10.282-10.281-15.944-23.949-15.944-38.488zm-75.175 205.529c-18.798-18.797-21.164-49.126-5.504-70.548 2.569-3.515 2.569-8.288 0-11.803-15.66-21.422-13.294-51.751 5.504-70.548 21.222-21.221 55.754-21.222 76.976 0l57.611 57.612c-3.187 5.557-5.019 11.986-5.019 18.838 0 6.853 1.833 13.281 5.02 18.839l-57.613 57.61c-21.222 21.223-55.753 21.223-76.975 0zm149.567-76.449c0-9.925 8.075-18 18-18s18 8.075 18 18-8.075 18-18 18-18-8.075-18-18zm191.073 5.901c15.659 21.421 13.293 51.751-5.505 70.549-10.28 10.28-23.948 15.942-38.487 15.942s-28.207-5.662-38.487-15.942l-57.612-57.612c3.187-5.557 5.019-11.986 5.019-18.838s-1.832-13.281-5.02-18.839l57.612-57.612c10.28-10.28 23.948-15.942 38.487-15.942s28.207 5.662 38.487 15.942c18.798 18.797 21.164 49.127 5.505 70.548-2.569 3.516-2.569 8.29.001 11.804z"/><path id="XMLID_294_" d="m462 0c-5.522 0-10 4.477-10 10v13.333c0 5.523 4.478 10 10 10s10-4.477 10-10v-13.333c0-5.523-4.478-10-10-10z"/><path id="XMLID_295_" d="m462 66.666c-5.522 0-10 4.477-10 10v13.334c0 5.523 4.478 10 10 10s10-4.477 10-10v-13.334c0-5.522-4.478-10-10-10z"/><path id="XMLID_296_" d="m502 40h-13.333c-5.522 0-10 4.477-10 10s4.478 10 10 10h13.333c5.522 0 10-4.477 10-10s-4.478-10-10-10z"/><path id="XMLID_964_" d="m435.333 40h-13.333c-5.522 0-10 4.477-10 10s4.478 10 10 10h13.333c5.522 0 10-4.477 10-10s-4.478-10-10-10z"/><path id="XMLID_992_" d="m50 412c-5.522 0-10 4.477-10 10v13.333c0 5.523 4.478 10 10 10s10-4.477 10-10v-13.333c0-5.523-4.478-10-10-10z"/><path id="XMLID_993_" d="m50 478.667c-5.522 0-10 4.477-10 10v13.333c0 5.523 4.478 10 10 10s10-4.477 10-10v-13.333c0-5.523-4.478-10-10-10z"/><path id="XMLID_995_" d="m90 452h-13.333c-5.522 0-10 4.477-10 10s4.478 10 10 10h13.333c5.522 0 10-4.477 10-10s-4.478-10-10-10z"/><path id="XMLID_1119_" d="m23.333 452h-13.333c-5.523 0-10 4.477-10 10s4.477 10 10 10h13.333c5.522 0 10-4.477 10-10s-4.478-10-10-10z"/><path id="XMLID_1168_" d="m343.325 193.508h-46.833c-5.522 0-10 4.477-10 10s4.478 10 10 10h46.833c5.522 0 10-4.477 10-10s-4.477-10-10-10z"/><path id="XMLID_1176_" d="m160.492 193.508h-46.833c-5.522 0-10 4.477-10 10s4.478 10 10 10h46.833c5.522 0 10-4.477 10-10s-4.477-10-10-10z"/><path id="XMLID_1226_" d="m238.492 318.341v-46.833c0-5.523-4.478-10-10-10-5.523 0-10 4.477-10 10v46.833c0 5.523 4.477 10 10 10s10-4.477 10-10z"/><path id="XMLID_1227_" d="m228.492 145.508c5.522 0 10-4.477 10-10v-46.834c0-5.523-4.478-10-10-10-5.523 0-10 4.477-10 10v46.833c0 5.524 4.478 10.001 10 10.001z"/><path id="XMLID_1228_" d="m144.97 368.15c-2.63 0-5.21 1.06-7.07 2.93-1.859 1.86-2.93 4.44-2.93 7.07s1.07 5.2 2.93 7.07c1.86 1.86 4.44 2.93 7.07 2.93s5.21-1.07 7.07-2.93c1.87-1.87 2.93-4.44 2.93-7.07s-1.059-5.21-2.93-7.07c-1.86-1.87-4.44-2.93-7.07-2.93z"/></g></g></svg>