<svg id="Layer_1" data-name="Layer 1" xmlns="http://www.w3.org/2000/svg" xmlns:xlink="http://www.w3.org/1999/xlink" viewBox="0 0 473.59 473.46"><defs><clipPath id="clip-path" transform="translate(-139.21 -139.28)"><rect x="139.21" y="139.21" width="473.58" height="473.58" fill="none"/></clipPath></defs><g clip-path="url(#clip-path)"><path d="M302.51,315.33a1.19,1.19,0,0,0-.37,2.33v2l.8.19v-2.18a1.18,1.18,0,0,0,.73-1.32,1.2,1.2,0,0,0-1.16-1Zm143.37,0a1.19,1.19,0,0,0-.36,2.33v2.1l.8.05v-2.18a1.15,1.15,0,0,0,.76-1.1,1.17,1.17,0,0,0-.35-.85,1.15,1.15,0,0,0-.84-.35Zm-143.37,0a1.19,1.19,0,0,0-.37,2.33v2l.8.19v-2.18a1.18,1.18,0,0,0,.73-1.32,1.2,1.2,0,0,0-1.16-1Zm75-176h-3.09C244.4,140.07,139.21,245.75,139.21,376c0,130.75,106,236.74,236.73,236.74A236,236,0,0,0,483.45,587V587l.92-.47.93-.48q4.86-2.54,9.6-5.29l.8-.46.77-.46v.78a6.5,6.5,0,0,1,.12-.87v-.09h0a238,238,0,0,0,28.91-20.21c1.78-1.46,3.55-2.94,5.28-4.45h0a237.85,237.85,0,0,0,29.39-30.4v.15l.8-1,.8-1h0a235.78,235.78,0,0,0,51-146.8c0-130.24-105.19-235.93-235.25-236.72ZM252.79,570.66h0v-26l0-1.3ZM254.54,541v0Zm305.64-26.77c-1.38,1.85-2.8,3.67-4.24,5.47h0v-.77a.33.33,0,0,0,0-.14v-.64h0v-.94a.14.14,0,0,0,0-.09v-.62a.14.14,0,0,0,0-.09v-.24h0v-.78h0V515a.43.43,0,0,0,0-.16v-1.06a.28.28,0,0,0,0-.13v-2.56c0-.4.05-.8.07-1.22v-.15a3.64,3.64,0,0,1,0-.73.67.67,0,0,1,0-.2,7.39,7.39,0,0,1,0-.93l.06-.93c.27-5.2.56-11.19.77-17.39h0a39.75,39.75,0,0,0-3.34-18.28c-.13-.29-.25-.58-.4-.87a39.26,39.26,0,0,0-5.33-8.32,84.52,84.52,0,0,0-6.84-6.81c-4.63-4.23-9.3-8-13.47-11.19s-7.86-5.7-10.48-7.4c-2.46-1.62-4-2.56-4.18-2.67l3.41,2.93c2.06,1.76,5.28,4.63,8.93,8s7.87,7.46,12.28,12l3.35,3.47c1.13,1.21,2.24,2.36,3.24,3.6h0a40.4,40.4,0,0,1,7.73,15c.23.82.42,1.65.6,2.48a41.22,41.22,0,0,1,.67,4.7c.08.78.1,1.56.15,2.33s0,1.61.07,2.41c.19,6.36.44,12.24.7,17.25v.47h0V511a.81.81,0,0,0,0,.22v.24h0V512h0v1.08a.54.54,0,0,0,0,.18v2.37h0a1.41,1.41,0,0,0,0,.29v.41a5.45,5.45,0,0,0,.07,1.08c.06.35,0,.68.06,1V519h0v.55c0,.34.05.66.07,1h0a226.65,226.65,0,0,1-15.41,18.35q-3.85,3.85-7.89,7.53-2.77,2.54-5.66,5h0A234,234,0,0,1,504.7,567c-2.23,1.5-4.49,3-6.77,4.39,2.32-13.11,5.55-26.94,4.83-30.8-.4-2.16-1.17-8.11-8.12,7.59l-.3,0h0a2.16,2.16,0,0,0-.84,0,68.29,68.29,0,0,0,6.71-14.8,66.45,66.45,0,0,0,3.1-19.23c0-2.44-.88-2.42-.92,0a65.94,65.94,0,0,1-3.6,19.26c0,.06-.05.13-.08.2s0-.14.05-.2v0a.65.65,0,0,1-.07.3,66.14,66.14,0,0,1-56.81,43.95,30,30,0,0,0-4.33.68c-1.13.32-1.86.72-1.86,1.16s.73.79,1.9,1l.7.12h0a13.72,13.72,0,0,0,3.84,0,68.18,68.18,0,0,0,43.33-21.8,65.85,65.85,0,0,0,5.95-7.47l-.23,1-5.91,26.36c-6.42,3.47-13,6.64-19.71,9.47a228.26,228.26,0,0,1-43.22,13.42,232.57,232.57,0,0,1-46.41,4.68h-.38c0-1.85-.06-2.85-.06-2.85s0,1-.08,2.85h0a232.15,232.15,0,0,1-45.92-4.68,228.91,228.91,0,0,1-64-23.45l-7-30.88c.24.35.5.69.75,1a68.93,68.93,0,0,0,10.59,11.4,68,68,0,0,0,25.29,13.56,54.74,54.74,0,0,0,7.06,1.63l3.59.59c1.18.22,2.4.18,3.6.3h0a62.91,62.91,0,0,0,14.51-.41A17.5,17.5,0,0,0,329,574c1.29-.62,2-1.3,1.89-1.79-.28-1-3.62-.86-7.47-.25a59.46,59.46,0,0,1-13.78.68,30.57,30.57,0,0,1-3.45-.21l-3.43-.48h0a52.46,52.46,0,0,1-6.79-1.41A65.76,65.76,0,0,1,271.35,558a66.65,66.65,0,0,1-17.3-21.66c-.5-1-1-1.95-1.39-2.94h0a66.12,66.12,0,0,1-5.54-24.05c-.17-2.77-1.21-2.77-1.1,0a67.34,67.34,0,0,0,4.91,24l.46,1.11q-.34-.6-.66-1.11c-3.4-5.5-3.95-1.7-4.26,0v.05c-.83,4.48,3.62,22.31,5.84,36.93-1.71-1.08-3.41-2.2-5.09-3.33h0a231.61,231.61,0,0,1-23.56-18.15q-2.88-2.53-5.68-5.18-2.49-2.34-4.89-4.75a233.69,233.69,0,0,1-19.21-21.78v-.64h0v-.73c0-.45,0-.93.08-1.35v-.68h0a.54.54,0,0,0,0-.18V511.4c.27-5.21.55-11.18.77-17.4a41.39,41.39,0,0,1,2.68-13.47,37.9,37.9,0,0,1,1.6-3.84,42.3,42.3,0,0,1,4.62-7.55c1.85-2.32,4.07-4.56,6.17-6.82,4.27-4.45,8.5-8.63,12.29-12.2s7.09-6.52,9.46-8.58l3.78-3.24s-1.41.85-3.82,2.44-5.86,3.93-9.87,7-8.62,6.76-13.37,11.1c-1.19,1.07-2.39,2.19-3.58,3.34s-2.44,2.34-3.62,3.7h0a38.71,38.71,0,0,0-5.31,7.75c-.22.43-.45.86-.65,1.29h0a39.22,39.22,0,0,0-3.26,10.28,39.8,39.8,0,0,0-.55,5.23c-.05.86,0,1.72,0,2.56s.05,1.62.07,2.41c.19,6.37.45,12.24.7,17.25v1.13c0,.37,0,.73,0,1.08q-1.56-2.07-3.08-4.18v-22A39.15,39.15,0,0,1,200,461.51,243.63,243.63,0,0,1,232.54,433c.92-.67,1.85-1.34,2.77-2h0a241.55,241.55,0,0,1,48.77-26.73l-3.75,87.77a7.53,7.53,0,1,0,15.05,0l-3.87-90.65q8.42-3.09,17-5.55a5.24,5.24,0,0,0-.37,1.41,4.81,4.81,0,0,0,1.23,3.76l.25.24a4.45,4.45,0,0,0,1.61,1l-.19,2.19a4.46,4.46,0,0,0-1.44.49l-.24.13h0a4.79,4.79,0,0,0-.92,7.4l.26.24a4.56,4.56,0,0,0,1.63.93c-.05.73-.09,1.46-.13,2.21a4.52,4.52,0,0,0-1.4.54l-.21.14h0A4.79,4.79,0,0,0,308,424l.27.22a4.56,4.56,0,0,0,1.62.84v2.23a4.82,4.82,0,0,0-1.34.58l-.21.15a4.72,4.72,0,0,0-2,3.89,4.77,4.77,0,0,0,1.65,3.58l.27.23a5,5,0,0,0,1.52.74l-.09,2.35a4.6,4.6,0,0,0-1.06.54l-.21.15a4.78,4.78,0,0,0-1.85,4,4.6,4.6,0,0,0,1.76,3.53l.28.21h0a6.38,6.38,0,0,0,.67.38l-.14,3.23-.2.16h0a4.67,4.67,0,0,0-1.68,4,4.73,4.73,0,0,0,1.59,3.21l-.27,6.26h0a5,5,0,0,0-.23,2.07,5.78,5.78,0,0,0,.12.57l-1.65,38.46h0A7.53,7.53,0,0,0,318,512.5a4.72,4.72,0,0,0,2.54,2.43l.33.13a4.44,4.44,0,0,0,1.66.25l.73,2.2a4.77,4.77,0,0,0-.92.93l-.15.2a4.75,4.75,0,0,0,2.34,7.14l.33.11a4.62,4.62,0,0,0,1.57.16c.29.74.6,1.47.92,2.21h0a4.94,4.94,0,0,0-.78.93l-.14.22a4.73,4.73,0,0,0-.35,4c.06.14.11.27.18.41h0a4.84,4.84,0,0,0,3,2.61,1.87,1.87,0,0,0,.34.08,4.26,4.26,0,0,0,1.51,0c.36.72.74,1.44,1.12,2.16h0a4.1,4.1,0,0,0-.67.92,1.27,1.27,0,0,0-.12.23,4.83,4.83,0,0,0,3.47,6.75l.35.06a4.71,4.71,0,0,0,1.59-.11c.42.66.87,1.33,1.32,2a3.83,3.83,0,0,0-.63,1.09.78.78,0,0,1-.09.24,4.87,4.87,0,0,0,4.29,6.35h.35a4.62,4.62,0,0,0,1.72-.37c.5.57,1,1.14,1.53,1.7h0a4.58,4.58,0,0,0-.58,1.32l-.05.26h0a4.91,4.91,0,0,0,5,5.69H350a1.41,1.41,0,0,0,.35,0,4.31,4.31,0,0,0,1.74-.76l.7.56a40.48,40.48,0,0,1-5.41,3.48,18.76,18.76,0,0,1-2,.93,7.21,7.21,0,0,1-1.57.58l-1.28.4,1.15-.3h0a22.53,22.53,0,0,0,3.39-1.24,41.13,41.13,0,0,0,6.09-3.63l.74.55h0a4.43,4.43,0,0,0-.36,1.55v.26a4.7,4.7,0,0,0,2.38,4,4.8,4.8,0,0,0,3.89.56l.33-.1.32-.14a4,4,0,0,0,1.66-1.4c.65.28,1.31.53,2,.76h0a4.23,4.23,0,0,0,.05,1.84.34.34,0,0,0,.08.27,3.9,3.9,0,0,0,1.44,2,6,6,0,0,0,2.13,1.06,5.41,5.41,0,0,0,4-.73l.31-.25.25-.24h0a4.65,4.65,0,0,0,.63-.83,4,4,0,0,0,.48-1.25h1v3.7h-2.29a8.7,8.7,0,0,0-2.47,1.2,3.58,3.58,0,0,0-.39.29h0a9.07,9.07,0,0,0-3.49,6c0,.32-.07.63-.08.92v.26h0a9.12,9.12,0,0,0,3.13,6.89l.35.29a9,9,0,0,0,5.26,1.94h.49a9,9,0,0,0,4.8-1.42l.42-.29h0a9.13,9.13,0,0,0,.69-14.29l-.52-.41h0a8.81,8.81,0,0,0-3-1.48h-2.1v-3.7h.25a4.45,4.45,0,0,0,.35,1.18,3.44,3.44,0,0,0,.42.69l.16.21a4.25,4.25,0,0,0,.57.55,4.75,4.75,0,0,0,3.91,1,5.8,5.8,0,0,0,2-.71,4.7,4.7,0,0,0,1.06-1,4.59,4.59,0,0,0,.33-.44l.15-.26c.06-.11.11-.22.16-.33a4.08,4.08,0,0,0,.32-2.26c.66-.2,1.33-.42,2-.66a4.16,4.16,0,0,0,1.3,1.34l.22.14h0a4,4,0,0,0,.73.34,5.06,5.06,0,0,0,6.39-3.44,2,2,0,0,1,.08-.33,1.37,1.37,0,0,1,0-.34,4.05,4.05,0,0,0-.33-2.09c.32-.21.63-.42.93-.64h0A37.52,37.52,0,0,0,400.5,568c.74.41,1.47.63,2.07.92a8.12,8.12,0,0,0,1.6.53l1.2.32-1.05-.33a21,21,0,0,1-3.31-1.34,38.84,38.84,0,0,1-4.45-2.71l.54-.38h0a4.25,4.25,0,0,0,1.49.85l.27.08h0a5.32,5.32,0,0,0,.78.14,5.09,5.09,0,0,0,3.62-1.31,4.93,4.93,0,0,0,1.6-3.81,1.93,1.93,0,0,0,0-.34,4.07,4.07,0,0,0-.64-1.78c.52-.53,1-1.08,1.53-1.62h0a4.6,4.6,0,0,0,1.41.42h.26a4.69,4.69,0,0,0,4.08-1.85,4.59,4.59,0,0,0,.92-3.94,1.4,1.4,0,0,0-.08-.34,4.52,4.52,0,0,0-.78-1.51c.45-.64.92-1.28,1.33-1.92h0a4.09,4.09,0,0,0,1.3.18h.26a4.8,4.8,0,0,0,3.79-2.32,4.91,4.91,0,0,0,.45-4,1,1,0,0,0-.13-.33,4.39,4.39,0,0,0-.92-1.38c.38-.68.74-1.36,1.1-2.06h0a4.71,4.71,0,0,0,1.3.06h.26a4.61,4.61,0,0,0,3.52-2.66,4.86,4.86,0,0,0,.49-2.25,4.55,4.55,0,0,0-.39-1.74l-.16-.32a4.57,4.57,0,0,0-1.09-1.35c.31-.69.61-1.4.93-2.11a4.06,4.06,0,0,0,1.39,0l.25,0a4.83,4.83,0,0,0,3.09-6.88,2.28,2.28,0,0,0-.17-.3,4.63,4.63,0,0,0-1.28-1.33c.25-.71.5-1.41.73-2.1h0a4.72,4.72,0,0,0,1.5-.13l.25-.07h0a4.81,4.81,0,0,0,2-1.25A7.51,7.51,0,0,0,442,508.47l-1.57-36.89h0a4.8,4.8,0,0,0,.58-6.92l-.25-.25a5.59,5.59,0,0,0-.66-.52l-.12-2.77a5.26,5.26,0,0,0,.86-.33l.23-.13h0a4.7,4.7,0,0,0,2.3-3.7,4.76,4.76,0,0,0-1.32-3.69l-.25-.25h0a4.25,4.25,0,0,0-1.5-.93l.14-2.28h0a4.82,4.82,0,0,0,1.28-.48l.23-.14a4.74,4.74,0,0,0,.69-7.46l-.26-.23h0a4.65,4.65,0,0,0-1.65-.75c0-.76.05-1.51.05-2.26a4.75,4.75,0,0,0,1.31-.56l.21-.14h0a4.77,4.77,0,0,0,2-3.85,4.66,4.66,0,0,0-1.59-3.62l-.26-.22a4.68,4.68,0,0,0-1.61-.8v-2.24a4.6,4.6,0,0,0,1.31-.61l.21-.15a4.79,4.79,0,0,0,.15-7.49l-.27-.2a4.21,4.21,0,0,0-1.69-.74c0-.74-.07-1.49-.1-2.22a4.75,4.75,0,0,0,1.33-.67l.2-.17a4.77,4.77,0,0,0-.12-7.48l-.28-.2a4.61,4.61,0,0,0-1.74-.69c-.06-.73-.11-1.47-.18-2.2h0a4.34,4.34,0,0,0,1.32-.72l.2-.17a4.78,4.78,0,0,0-.41-7.48l-.28-.18h0a4.49,4.49,0,0,0-1.74-.62v-.14q9.47,2.55,18.7,5.85l-4.05,94.28a7.53,7.53,0,1,0,15.05,0l-3.92-91.61h0a242.19,242.19,0,0,1,51,27.61c.93.64,1.85,1.31,2.78,2a243.78,243.78,0,0,1,30.78,26.63A38.8,38.8,0,0,1,560.18,487ZM305.64,326.89a3,3,0,0,1-1.77,2.79,3.06,3.06,0,0,1-4.23-3.63,3,3,0,0,1,2.5-2.18v-4.25a3,3,0,0,1-1.13-.72c-4.44-4.4-10-13.6-10-32.1,0-15.66,15.4-19.38,15.4-11.42v41.23a3.2,3.2,0,0,1-3.47,3.2v4.05a3.05,3.05,0,0,1,2.7,3Zm104.45,30.78h-.85l-5.79-29.42a3.18,3.18,0,0,0-3.12-2.57H348.94a3.18,3.18,0,0,0-3.13,2.57L340,357.67h-.85l-29.6-35.26V284.94c0-31.38,9.51-56.81,40.88-56.81h48.31c31.38,0,40.88,25.43,40.88,56.81V322.4Zm28.42,71.05-.07-1.61h.05C438.5,427.62,438.5,428.16,438.51,428.72ZM438.23,418l-.17.06-.1-2.32h.15Zm-11.1,86-.17,3.86h0l-.43.11-.23.09a4.81,4.81,0,0,0-2.62,2.38,3.85,3.85,0,0,0-.19.47l-.05.11a4.75,4.75,0,0,0,.45,3.84l.12.2a4.66,4.66,0,0,0,1.58,1.51c-.22.65-.45,1.31-.69,2h0a4.72,4.72,0,0,0-1.91.09l-.25.07h0a4.82,4.82,0,0,0-2.78,2.23,4.51,4.51,0,0,0-.22.44v.11a4.78,4.78,0,0,0,.19,3.85l.11.2h0a4.74,4.74,0,0,0,1.55,1.66c-.27.63-.53,1.26-.81,1.89h0a4.66,4.66,0,0,0-2-.06l-.24.05h0a4.78,4.78,0,0,0-2.9,2,2.67,2.67,0,0,0-.25.43.24.24,0,0,0-.06.11,4.74,4.74,0,0,0-.44,1.85,4.8,4.8,0,0,0,.33,2l.1.22h0a4.6,4.6,0,0,0,1.43,1.78c-.32.61-.65,1.21-1,1.85a5,5,0,0,0-2-.24h-.24a4.66,4.66,0,0,0-3.08,1.73l-.27.38-.06.11h0a4.6,4.6,0,0,0-.46,3.76.75.75,0,0,0,.07.23h0a4.91,4.91,0,0,0,1.19,1.85c-.39.57-.78,1.15-1.18,1.71a4.91,4.91,0,0,0-1.85-.43h-.25a4.84,4.84,0,0,0-3.2,1.35,3.64,3.64,0,0,0-.34.34l-.08.09a4.76,4.76,0,0,0-.92,3.7.81.81,0,0,0,0,.22,4.65,4.65,0,0,0,.92,1.94q-.69.79-1.41,1.56a4.69,4.69,0,0,0-1.72-.66h-.24a4.6,4.6,0,0,0-3.41.8L397,558l-.12.11a4.37,4.37,0,0,0-1.47,2.93v.55a5.08,5.08,0,0,0,.46,2l-1.05.74h0q-2.22-1.68-4.26-3.57a64.28,64.28,0,0,1-11.79-14.15,30.62,30.62,0,0,1-3.94-9.61,13.64,13.64,0,0,1-.35-2.62v-.11a5.93,5.93,0,0,1,.06-.84V524.3l.07.18,53-132.27,4.18.93-4.52,105.54h0a4.81,4.81,0,0,0-.58,1,3.75,3.75,0,0,0-.17.47v.12a4.74,4.74,0,0,0,.54,3.69Zm-40.89,64.75c-.69.25-1.38.48-2.09.68h0a5.78,5.78,0,0,0-.92-1.11l-.19-.16a5.09,5.09,0,0,0-.47-.34,4.48,4.48,0,0,0-1.52-.62,3.35,3.35,0,0,0-1.09-.16h-.53a4.65,4.65,0,0,0-2.78,1.66l-.18.25-.13.19h0a5.58,5.58,0,0,0-.71,1.55c-.74,0-1.48,0-2.23-.06a5.23,5.23,0,0,0-.48-1.34l-.12-.21a3,3,0,0,0-.31-.48,4.3,4.3,0,0,0-2.12-1.71l-.4-.1h-.12a4.08,4.08,0,0,0-3.19.54l-.26.15-.19.12a5.14,5.14,0,0,0-1.33,1.3q-1-.36-2-.78h0a5.49,5.49,0,0,0,.05-1.62v-.25a5.09,5.09,0,0,0-.13-.58,4.54,4.54,0,0,0-1.53-2.31l-.36-.28-.09-.06a4.72,4.72,0,0,0-3.6-.44l-.23.06h0a4.9,4.9,0,0,0-1.76,1l-.21-.17c.92-.7,1.85-1.48,2.77-2.31a63.13,63.13,0,0,0,12.14-14.09,31.65,31.65,0,0,0,4-9.2,34,34,0,0,0,3.33,7.91,60,60,0,0,0,11.94,14.47,63.4,63.4,0,0,0,5.27,4.27l-.35.24h0a5.11,5.11,0,0,0-1.44-.92l-.23-.1-.57-.18a4.31,4.31,0,0,0-2.77.15,2.27,2.27,0,0,0-.39.16h-.11a4.5,4.5,0,0,0-2.09,2.54,1,1,0,0,1-.09.3,1.42,1.42,0,0,0,0,.22,4.78,4.78,0,0,0-.23,1.84Zm-33.18-11.62q-.13-.18-.3-.36l-.07-.09h0a4.76,4.76,0,0,0-3.51-1.25h-.23a4.9,4.9,0,0,0-2,.63c-.48-.52-.93-1.05-1.4-1.59h0a4.86,4.86,0,0,0,.84-1.61,1.09,1.09,0,0,1,.07-.24h0a4.62,4.62,0,0,0-.45-3.47,2.46,2.46,0,0,0-.22-.34l-.09-.13a4.56,4.56,0,0,0-3.31-1.85h-.23a5.18,5.18,0,0,0-2.17.38c-.39-.57-.77-1.15-1.15-1.73h0A4.81,4.81,0,0,0,340,543.9a1,1,0,0,0,.09-.22,4.73,4.73,0,0,0,0-3.51,3.49,3.49,0,0,0-.2-.44l-.06-.11h0a4.77,4.77,0,0,0-3.09-2.22l-.23,0a4.72,4.72,0,0,0-2.24.16c-.33-.61-.64-1.23-.93-1.85h0a4.93,4.93,0,0,0,1.27-1.46l.11-.21h0a5.22,5.22,0,0,0,.24-.54,4.78,4.78,0,0,0,.07-3c-.05-.15-.11-.31-.17-.45l-.06-.11h0a4.73,4.73,0,0,0-2.89-2.51l-.23-.07h0a5,5,0,0,0-2.17-.06c-.27-.65-.53-1.3-.79-2A4.91,4.91,0,0,0,330,524a1.2,1.2,0,0,0,.13-.21,4.65,4.65,0,0,0,.56-3.51,1.76,1.76,0,0,0-.15-.46c-.06-.15,0-.07,0-.12a4.73,4.73,0,0,0-2.72-2.72l-.22-.08a4.83,4.83,0,0,0-2-.21c-.23-.69-.45-1.37-.67-2.06h0a5,5,0,0,0,1.26-1.16l.15-.2h0a4.69,4.69,0,0,0,.76-3.47c0-.15-.07-.31-.11-.46v-.13a4.68,4.68,0,0,0-2.56-2.89l-.21-.09a4.57,4.57,0,0,0-1.9-.34l-.2-.71-.07-1.63a4.52,4.52,0,0,0,.92-.83l.16-.19a4.71,4.71,0,0,0,.93-3.44,4,4,0,0,0-.09-.48v-.13a4.74,4.74,0,0,0-2.26-2.94l-.25-5.91a4.78,4.78,0,0,0,.12-1.41,3.86,3.86,0,0,0-.06-.49v-.13h0a4.94,4.94,0,0,0-.15-.55l-3.75-87.87.05-.2a2.56,2.56,0,0,1,.1-.48c0-.16,0-.09,0-.13h0a4.75,4.75,0,0,0-.29-2.21l-.11-2.49c1.54-.37,3.08-.73,4.63-1.08L373.5,521.21v12.42l.05.63-.14,1.85h0a31.21,31.21,0,0,1-3.63,9.17,57.23,57.23,0,0,1-5.43,8,69.19,69.19,0,0,1-6.06,6.52c-1.27,1.23-2.54,2.33-3.77,3.33l-.68-.55-.38-.31h0a5.07,5.07,0,0,0,.5-1.66v-.85h0a4.66,4.66,0,0,0-.95-2.64Zm-4.62-199.46,4.62-23.63h2.31a14,14,0,0,0,13.23,9.25h12.12A14.09,14.09,0,0,0,394,334.05h2.29l4.62,23.63Zm100.64-30.79h0a3.06,3.06,0,1,1-6-.84,3,3,0,0,1,2.5-2.17v-4.12a3.18,3.18,0,0,1-2.66-3.15V275.38c0-8,15.39-4.25,15.39,11.41,0,18.5-5.55,27.71-10,32.11a3.08,3.08,0,0,1-1.95.92v4.05a3.07,3.07,0,0,1,2.65,3ZM588.22,465.64h0a231.77,231.77,0,0,1-20,37.23V487a46.92,46.92,0,0,0-5.88-22.79v-.87c0-16.48-13.48-31.16-25.36-44.12-3.62-4-7-7.67-9.75-11.1L476.9,344.3V279.37h0A104,104,0,0,0,447,206.18a100.75,100.75,0,0,0-72.4-30.65h-2.05c-55.26,1.12-100.18,47-100.18,102.23v66.53l-50.28,63.65c-2.7,3.42-6.09,7.13-9.67,11.09C200.5,432.1,187,446.92,187,463.53v.73l.17.7.08.34h0a46.89,46.89,0,0,0-6.2,23.33v10.05A229.19,229.19,0,0,1,145.74,376a232,232,0,0,1,4.68-46.42A230.08,230.08,0,0,1,374.54,145.68h3.7a232.31,232.31,0,0,1,44.16,4.67,227.86,227.86,0,0,1,43.23,13.42A230.49,230.49,0,0,1,588.16,465.64Zm-141.92-148a1.17,1.17,0,0,0,.76-1.1,1.2,1.2,0,0,0-.65-1.07,1.19,1.19,0,0,0-1.72,1.26,1.18,1.18,0,0,0,.82.94v2.1l.79.05Zm-143.37,0h0a1.18,1.18,0,0,0,.78-1.32,1.19,1.19,0,0,0-2.35,0,1.18,1.18,0,0,0,.78,1.32v2l.79.18Zm-.43-2.3h0a1.19,1.19,0,0,0-.37,2.33v2l.79.19v-2.18a1.19,1.19,0,0,0-.42-2.3Zm143.37,0h0a1.2,1.2,0,0,0-1.19,1,1.19,1.19,0,0,0,.82,1.32v2.1l.8.05v-2.18a1.17,1.17,0,0,0,.76-1.1,1.2,1.2,0,0,0-1.18-1.2Z" transform="translate(-139.21 -139.28)"/></g><path d="M303.9,528.15a7.48,7.48,0,1,0,7.46,7.47,7.24,7.24,0,0,0-.33-2.22A7.47,7.47,0,0,0,303.9,528.15Z" transform="translate(-139.21 -139.28)"/><path d="M455.55,528.15a7.47,7.47,0,0,0-7.13,5.25,7.25,7.25,0,0,0-.34,2.22,7.47,7.47,0,1,0,7.47-7.47Z" transform="translate(-139.21 -139.28)"/><path d="M381.12,244.05h36.35a1.59,1.59,0,0,0,0-3.18H378.05a7.26,7.26,0,0,1,3.07,3.18Z" transform="translate(-139.21 -139.28)"/><path d="M330.2,242.46a1.59,1.59,0,0,0,1.59,1.59h36.36a7.25,7.25,0,0,1,3.07-3.18H331.79a1.59,1.59,0,0,0-1.59,1.59Z" transform="translate(-139.21 -139.28)"/><path d="M331.79,245.66a1.59,1.59,0,0,0,0,3.18h35.8a7.11,7.11,0,0,1,0-3.18Z" transform="translate(-139.21 -139.28)"/><path d="M417.48,248.84a1.59,1.59,0,0,0,0-3.18H381.7a7.41,7.41,0,0,1,0,3.18Z" transform="translate(-139.21 -139.28)"/><path d="M331.79,253.62h39.42a7.33,7.33,0,0,1-3.07-3.19H331.79a1.6,1.6,0,0,0,0,3.19Z" transform="translate(-139.21 -139.28)"/><path d="M419.08,252.05a1.6,1.6,0,0,0-1.6-1.59H381.13a7.28,7.28,0,0,1-3.07,3.19h39.42a1.61,1.61,0,0,0,1.6-1.6Z" transform="translate(-139.21 -139.28)"/><path d="M385.25,285.74a23.39,23.39,0,0,0,34.18,0C402.87,296.56,385.25,285.74,385.25,285.74Z" transform="translate(-139.21 -139.28)"/><path d="M327.4,285.74a23.39,23.39,0,0,0,34.18,0C345,296.56,327.4,285.74,327.4,285.74Z" transform="translate(-139.21 -139.28)"/><path d="M334.61,263.91a21.85,21.85,0,0,1,23.21,1,21.43,21.43,0,0,1,7.41,9.12c.65,1.5,2.07,2.51,3.45,2.13s1.94-2.34,1-4.22A26,26,0,0,0,360,261.54a25.52,25.52,0,0,0-13.51-3.7,25,25,0,0,0-13.15,4A24.59,24.59,0,0,0,324.5,272c-.57,1.24.77,1.79,1.36.69h0a22.74,22.74,0,0,1,8.75-8.79Z" transform="translate(-139.21 -139.28)"/><path d="M405.6,257.88a25.37,25.37,0,0,0-13.5,3.7A26,26,0,0,0,382.45,272c-.93,1.86-.33,3.87,1,4.22s2.77-.63,3.44-2.13h0a21.43,21.43,0,0,1,18.74-13,22,22,0,0,1,11.89,2.78,22.71,22.71,0,0,1,8.73,8.85c.6,1.1,1.94.56,1.37-.68h0a24.56,24.56,0,0,0-8.87-10.18,25,25,0,0,0-13.15-4Z" transform="translate(-139.21 -139.28)"/><path d="M370.81,278.3h-1.59v30a5.55,5.55,0,0,0,.3,11,5.41,5.41,0,0,0,10.18,0,5.55,5.55,0,0,0,.32-11v-30h-1.59v39.18a3.83,3.83,0,1,1-7.65,0Z" transform="translate(-139.21 -139.28)"/><path d="M274.62,422.18a32.8,32.8,0,0,1-1.57,4,28.89,28.89,0,0,1-2.91,4.9,23.55,23.55,0,0,1-2,2.26l-1,1.07-1.14.92a21.86,21.86,0,0,1-5.09,3,25.76,25.76,0,0,1-5.45,1.57,28.22,28.22,0,0,1-4.29.51l-1.7.14,1.51.29,1.79.32h0a11.1,11.1,0,0,0,2.37.19c.93,0,1.85.07,2.87,0a25.36,25.36,0,0,0,3.22-.53h0a30.57,30.57,0,0,0,3.35-1.24,17.91,17.91,0,0,0,3.19-2,18.23,18.23,0,0,0,4.67-5.55,23.57,23.57,0,0,0,2.65-9.89,10.15,10.15,0,0,0,0-1.56s-.14.55-.46,1.57Z" transform="translate(-139.21 -139.28)"/><path d="M506.61,439.62a13.91,13.91,0,0,1-2.08-.65,35.6,35.6,0,0,1-10.35-5.21,29.52,29.52,0,0,1-7.74-8.47,22.92,22.92,0,0,1-2.27-4.77,14.71,14.71,0,0,0,.12,1.62,20.76,20.76,0,0,0,1,4.11,21.27,21.27,0,0,0,7.17,9.8,23.52,23.52,0,0,0,11.34,4.22,24.82,24.82,0,0,0,4.22.21h1.62l-1.42-.41Z" transform="translate(-139.21 -139.28)"/></svg>