<svg id="Capa_1" enable-background="new 0 0 512.004 512.004" height="512" viewBox="0 0 512.004 512.004" width="512" xmlns="http://www.w3.org/2000/svg"><g><path d="m512.003 312.103v-297.098c.004-8.257-6.734-15.005-15.005-15.005h-296.98c-7.565 0-13.947 5.634-14.884 13.142l-33.196 265.858h-53.935c-13.318 0-20.048 16.165-10.606 25.606l50.676 50.676c-40.221 8.975-65.908 33.981-74.131 75.099-5.969 29.056-22.813 45.937-51.88 51.911-8.123 1.625-13.392 9.527-11.767 17.65 1.629 8.146 9.55 13.388 17.65 11.767 40.787-8.155 67.237-34.558 75.399-75.369 9.457-46.034 39.215-47.984 70.21-55.577l43.843 43.843c9.409 9.411 25.606 2.757 25.606-10.606v-53.589l265.736-33.217c7.668-.888 13.356-7.479 13.264-15.091zm-121.353-169.537 91.352-91.353v208.093c-21.143-32.15-52.977-76.419-91.352-116.74zm-21.221-21.205c-40.431-38.426-84.788-70.274-116.892-91.361h208.253zm-157.4-81.491c29.144 17.915 86.286 55.465 136.176 102.715l-136.415 136.416h-29.619zm-9.026 337.917c-3.959-3.959-64.735-64.735-68.787-68.787h68.787zm30-77.574 136.424-136.423c47.316 49.893 85.011 107.23 102.989 136.462l-239.413 29.927z"/></g></svg>