<svg id="Capa_1" enable-background="new 0 0 512 512" height="512" viewBox="0 0 512 512" width="512" xmlns="http://www.w3.org/2000/svg"><g><path d="m256 248.5c-36.108 0-65.483 29.376-65.483 65.483s29.376 65.483 65.483 65.483 65.483-29.376 65.483-65.483-29.375-65.483-65.483-65.483zm0 115.967c-27.836 0-50.483-22.647-50.483-50.483s22.647-50.483 50.483-50.483c27.837 0 50.483 22.647 50.483 50.483.001 27.836-22.646 50.483-50.483 50.483z"/><path d="m256 230.367c4.143 0 7.5-3.358 7.5-7.5v-33.133c0-4.142-3.357-7.5-7.5-7.5-4.142 0-7.5 3.358-7.5 7.5v33.133c0 4.142 3.358 7.5 7.5 7.5z"/><path d="m256 397.6c-4.142 0-7.5 3.358-7.5 7.5v33.133c0 4.142 3.358 7.5 7.5 7.5 4.143 0 7.5-3.358 7.5-7.5v-33.133c0-4.142-3.357-7.5-7.5-7.5z"/><path d="m325.734 373.109c-2.93-2.929-7.678-2.929-10.607 0s-2.929 7.678 0 10.606l23.429 23.429c1.465 1.464 3.385 2.197 5.304 2.197s3.839-.732 5.304-2.197c2.929-2.929 2.929-7.678 0-10.606z"/><path d="m172.384 313.983c0-4.142-3.358-7.5-7.5-7.5h-33.134c-4.142 0-7.5 3.358-7.5 7.5s3.358 7.5 7.5 7.5h33.133c4.143 0 7.501-3.357 7.501-7.5z"/><path d="m380.25 306.483h-33.134c-4.143 0-7.5 3.358-7.5 7.5s3.357 7.5 7.5 7.5h33.134c4.143 0 7.5-3.358 7.5-7.5s-3.357-7.5-7.5-7.5z"/><path d="m186.268 254.857c1.464 1.464 3.384 2.197 5.303 2.197s3.839-.732 5.303-2.197c2.929-2.929 2.929-7.678 0-10.606l-23.429-23.429c-2.929-2.929-7.678-2.929-10.606 0-2.929 2.929-2.929 7.678 0 10.606z"/><path d="m186.268 373.109-23.429 23.429c-2.929 2.929-2.929 7.678 0 10.606 1.464 1.464 3.384 2.197 5.303 2.197s3.839-.732 5.303-2.197l23.429-23.429c2.929-2.929 2.929-7.678 0-10.606-2.928-2.928-7.677-2.928-10.606 0z"/><path d="m320.43 257.054c1.919 0 3.839-.732 5.304-2.197l23.429-23.429c2.929-2.929 2.929-7.678 0-10.606-2.93-2.929-7.678-2.929-10.607 0l-23.429 23.429c-2.929 2.929-2.929 7.678 0 10.606 1.464 1.465 3.384 2.197 5.303 2.197z"/><path d="m454.801 33.133h-58.768v-9.066c0-13.271-10.795-24.067-24.066-24.067s-24.066 10.796-24.066 24.067v9.066h-183.801v-9.066c0-13.271-10.796-24.067-24.067-24.067-13.27 0-24.066 10.796-24.066 24.067v9.066h-58.767c-22.405 0-40.633 18.228-40.633 40.632v397.602c0 22.406 18.228 40.633 40.633 40.633h51.268c4.142 0 7.5-3.358 7.5-7.5s-3.358-7.5-7.5-7.5h-51.268c-14.134 0-25.633-11.498-25.633-25.632v-1.635c6.998 5.705 15.921 9.134 25.633 9.134h397.601c9.711 0 18.634-3.429 25.632-9.134v1.635c0 14.134-11.498 25.632-25.632 25.632h-316.334c-4.142 0-7.5 3.358-7.5 7.5s3.358 7.5 7.5 7.5h316.334c22.404 0 40.632-18.227 40.632-40.632v-397.602c0-22.405-18.228-40.633-40.632-40.633zm-91.9-9.066c0-5 4.067-9.067 9.066-9.067s9.066 4.067 9.066 9.067v49.7c0 4.999-4.067 9.067-9.066 9.067s-9.066-4.067-9.066-9.067zm-231.934 0c0-5 4.067-9.067 9.066-9.067 5 0 9.067 4.067 9.067 9.067v49.7c0 4.999-4.067 9.067-9.067 9.067-4.999 0-9.066-4.067-9.066-9.067zm-73.767 24.066h58.767v18.133h-9.067c-4.142 0-7.5 3.358-7.5 7.5s3.358 7.5 7.5 7.5h10.27c3.16 9.608 12.212 16.567 22.864 16.567s19.704-6.959 22.864-16.567h10.269c4.142 0 7.5-3.358 7.5-7.5s-3.358-7.5-7.5-7.5h-9.067v-18.133h183.8v18.133h-9.067c-4.143 0-7.5 3.358-7.5 7.5s3.357 7.5 7.5 7.5h10.27c3.16 9.608 12.212 16.567 22.864 16.567s19.704-6.959 22.863-16.567h10.27c4.143 0 7.5-3.358 7.5-7.5s-3.357-7.5-7.5-7.5h-9.066v-18.133h58.768c14.134 0 25.632 11.499 25.632 25.632v42.201h-93.466c-4.143 0-7.5 3.358-7.5 7.5s3.357 7.5 7.5 7.5h93.466v18.134h-448.867v-18.133h325.4c4.143 0 7.5-3.358 7.5-7.5s-3.357-7.5-7.5-7.5h-325.4v-42.201c0-14.134 11.499-25.633 25.633-25.633zm397.601 415.733h-397.601c-14.134 0-25.633-11.499-25.633-25.632v-274.134h448.866v274.134c0 14.134-11.498 25.632-25.632 25.632z"/></g></svg>