<svg id="Capa_1" enable-background="new 0 0 511.575 511.575" height="512" viewBox="0 0 511.575 511.575" width="512" xmlns="http://www.w3.org/2000/svg"><g><path d="m134.375 416.758c-48.147-41.126-77.212-82.662-86.389-123.453-.909-4.04-4.922-6.578-8.963-5.671-4.041.909-6.58 4.922-5.671 8.964 9.903 44.022 40.615 88.288 91.281 131.566 1.55 1.559 6.962 3.054 10.574-.832 2.69-3.149 2.317-7.884-.832-10.574z"/><path d="m39.238 242.76c3.087.793 7.565-.771 9.12-5.415 8.38-32.875 30.276-59.473 58.785-74.433 15.106-8.058 34.855-13.353 53.651-13.238 25.932 0 50.37 8.4 70.719 24.32 13.501 10.562 35.44 10.553 48.907-.025 19.289-15.273 46.109-24.465 72.617-24.248 27.237.092 53.144 10.382 74.917 29.76 3.094 2.755 7.834 2.479 10.588-.616s2.478-7.835-.617-10.589c-5.694-5.068-11.649-9.576-17.819-13.526 17.726-16.892 27.718-40.044 27.718-64.92.001-49.533-40.28-89.83-89.793-89.83-49.512 0-89.793 40.297-89.793 89.829 0 22.102 8.164 43.316 22.686 59.669-6.992 3.61-13.62 7.844-19.77 12.675-8.082 6.35-22.286 6.353-30.397.006-6.318-4.942-12.993-9.219-19.945-12.859 14.422-16.33 22.527-37.47 22.527-59.491-.002-49.532-40.283-89.829-89.795-89.829-23.364 0-45.492 8.931-62.309 25.146-2.981 2.875-3.068 7.623-.193 10.604s7.623 3.067 10.605.192c14.007-13.504 32.437-20.942 51.897-20.942 41.241 0 74.793 33.568 74.793 74.829 0 19.94-7.981 39.01-22.024 53.012-5.519-2.064-11.177-3.745-16.95-5.031 1.647-1.232 3.243-2.546 4.77-3.956 11.016-10.169 17.784-23.969 19.058-38.86.288-3.372-1.079-6.693-3.658-8.884-2.584-2.197-6.092-3.011-9.385-2.179-2.844.719-5.79 1.006-8.756.858-14.904-.749-27.183-13.012-27.956-27.917-.224-4.318.462-8.517 2.039-12.479 1.258-3.163.91-6.757-.93-9.612-1.827-2.834-4.927-4.621-8.292-4.78-.897-.043-1.799-.065-2.707-.065-33.012 0-59.869 26.867-59.869 59.892 0 10.171 2.607 20.229 7.542 29.091 1.369 2.456 3.716 4.28 6.439 5.006 2.729.727 5.679.31 8.094-1.145 1.171-.705 3.094-1.471 5.608-1.103 3.456.501 6.333 3.236 6.998 6.653.315 1.619.19 3.19-.371 4.671-.746 1.965-.872 4.054-.394 6.052-7.588 2.027-14.999 4.741-22.13 8.101-17.032-14.261-26.713-34.914-26.713-57.325 0-9.53 1.764-18.812 5.244-27.584 1.527-3.851-.356-8.21-4.207-9.737-3.849-1.525-8.209.356-9.737 4.206-4.18 10.541-6.3 21.682-6.3 33.115 0 24.549 10.227 48.11 27.784 64.948-4.112 2.583-8.095 5.394-11.918 8.436-22.523 17.923-38.786 42.935-45.794 70.427-1.022 4.013 1.402 8.096 5.416 9.12zm308.514-109.229c.398-2.653.341-5.38-.182-8.065-1.893-9.722-9.757-17.21-19.569-18.632-3.802-.552-7.553-.199-11.061 1.016-2.479-5.654-3.775-11.808-3.775-18.021 0-23.412 18.004-42.695 40.888-44.717-.958 4.074-1.33 8.27-1.108 12.537 1.165 22.49 19.693 40.993 42.182 42.122 2.244.112 4.481.059 6.699-.161-4.51 20.103-22.708 35.11-43.792 35.11-3.482.001-6.925-.399-10.282-1.189zm-64.514-43.702c0-41.261 33.552-74.829 74.793-74.829 41.242 0 74.794 33.568 74.794 74.829 0 22.289-9.632 42.917-26.553 57.184-5.322-2.563-10.771-4.737-16.327-6.508 3.063-1.934 5.97-4.153 8.675-6.65 11.016-10.169 17.784-23.969 19.058-38.858.289-3.373-1.078-6.694-3.656-8.886-2.586-2.197-6.098-3.014-9.387-2.179-2.844.719-5.791 1.005-8.756.858-14.904-.749-27.183-13.012-27.956-27.917-.224-4.318.462-8.517 2.039-12.479 1.258-3.163.91-6.757-.93-9.612-1.826-2.834-4.927-4.621-8.292-4.78-.897-.043-1.799-.065-2.707-.065-33.012 0-59.869 26.867-59.869 59.892 0 10.172 2.607 20.23 7.541 29.089 1.368 2.456 3.715 4.281 6.438 5.007 2.729.731 5.68.312 8.097-1.144 1.17-.705 3.092-1.471 5.607-1.103 3.456.501 6.333 3.237 6.999 6.653.315 1.618.19 3.19-.373 4.673-.407 1.074-.621 2.186-.662 3.299-9.049 1.382-17.873 3.659-26.319 6.779-14.189-14.023-22.254-33.201-22.254-53.253zm-159.724 17.005c-3.801-.552-7.552-.199-11.062 1.016-2.479-5.655-3.775-11.809-3.775-18.021 0-23.412 18.004-42.695 40.888-44.717-.958 4.074-1.33 8.27-1.108 12.537 1.165 22.49 19.693 40.993 42.182 42.122 2.245.112 4.481.059 6.699-.161-4.511 20.103-22.708 35.11-43.792 35.11-3.481 0-6.925-.399-10.282-1.189.398-2.653.341-5.38-.182-8.064-1.892-9.723-9.756-17.211-19.568-18.633z"/><path d="m448.024 203.165c6.063 9.587 10.602 20.776 13.874 34.208.835 3.428 3.903 5.727 7.281 5.727 3.82.072 8.31-3.926 7.293-9.277-3.664-15.038-8.822-27.689-15.77-38.675-2.213-3.499-6.846-4.542-10.348-2.33-3.5 2.213-4.543 6.846-2.33 10.347z"/><path d="m469.855 288.627c-4.037-.932-8.063 1.584-8.995 5.621-8.907 38.601-36.18 77.38-85.831 122.043-3.08 2.771-3.331 7.513-.561 10.592 2.782 2.059 5.175 4.092 10.592.561 52.052-46.823 80.782-88.075 90.416-129.822.932-4.037-1.585-8.064-5.621-8.995z"/><path d="m349.572 436.492c-39.751 31.215-78.027 52.242-92.64 59.835-.648.337-1.429.329-2.087-.022-27.691-14.712-30.24-14.505-72.294-43.015-3.426-2.326-8.091-1.434-10.417 1.992-2.327 3.428-1.435 8.092 1.993 10.418 42.925 29.077 44.682 28.436 73.662 43.841 2.543 1.355 5.337 2.034 8.13 2.034 2.724 0 5.447-.646 7.933-1.938 14.985-7.786 54.239-29.35 94.986-61.348 3.258-2.558 3.825-7.272 1.267-10.53-2.561-3.259-7.276-3.826-10.533-1.267z"/><path d="m189.845 336.333c-3.914-1.354-8.185.725-9.539 4.639l-19.592 56.693-20.106-56.748c-1.383-3.904-5.669-5.95-9.574-4.564-3.904 1.383-5.948 5.67-4.564 9.574l26.387 74.476-9.766 28.259c-1.353 3.915.724 8.186 4.639 9.539.811.28 1.638.413 2.45.413 3.109 0 6.016-1.948 7.088-5.052l37.216-107.689c1.353-3.916-.724-8.186-4.639-9.54z"/><path d="m361.389 335.922c-4.142 0-7.5 3.357-7.5 7.5v48.534c.135 9.072-8.421 16.843-18.741 16.187-9.867 0-17.308-6.959-17.308-16.187v-48.534c0-4.143-3.358-7.5-7.5-7.5s-7.5 3.357-7.5 7.5v48.534c0 17.487 14.191 31.187 32.308 31.187 18.039.834 33.825-13.241 33.741-31.187v-48.534c0-4.143-3.358-7.5-7.5-7.5z"/><path d="m210.608 388.261c2.215 12.145 8.979 22.692 18.556 28.938 6.023 3.928 12.801 5.951 19.67 5.951 2.74 0 5.496-.322 8.223-.975 20.835-4.981 34.322-28.025 30.064-51.368-2.216-12.146-8.979-22.693-18.557-28.938-8.426-5.496-18.333-7.262-27.892-4.977-20.836 4.98-34.322 28.025-30.064 51.369zm33.553-36.781c1.597-.381 3.194-.571 4.779-.571 3.966 0 7.851 1.188 11.432 3.523 6.143 4.005 10.514 10.954 11.993 19.065 2.853 15.637-5.579 30.929-18.795 34.088-5.593 1.339-11.199.317-16.212-2.952-6.142-4.005-10.513-10.954-11.992-19.064-2.854-15.637 5.578-30.929 18.795-34.089z"/><path d="m179.587 226.186c-4.208-.259-8.074 2.401-9.378 6.421-.028.086-.054.173-.079.259l-16.712 58.65-17.318-58.729c-.026-.09-.055-.179-.084-.268-1.346-4.008-5.225-6.62-9.449-6.323-4.217.283-7.719 3.381-8.532 7.614l-14.073 78.001c-.735 4.077 1.973 7.978 6.049 8.713 4.074.732 7.977-1.973 8.712-6.049l9.803-54.338 16.077 54.519c.026.09.054.178.084.267 1.276 3.801 4.818 6.346 8.824 6.346h.049c4.025-.021 7.564-2.607 8.806-6.438.028-.085.054-.172.079-.258l15.525-54.483 10.404 54.461c.777 4.069 4.706 6.736 8.774 5.96 4.069-.777 6.737-4.706 5.959-8.774l-14.923-78.115c-.843-4.142-4.378-7.199-8.597-7.436z"/><path d="m322.055 297.565c1.807-10.115-2.906-23.375-21.55-30.255-10.159-3.749-19.587-7.841-22.044-8.921-2.391-1.772-3.549-4.591-3.111-7.64.558-3.887 3.56-7.011 8.031-8.358 12.538-3.776 23.903 5.332 24.119 5.509 3.17 2.639 7.88 2.222 10.538-.938 2.666-3.17 2.257-7.901-.913-10.567-.708-.596-17.602-14.539-38.072-8.365-10.053 3.029-17.161 10.918-18.55 20.588-1.295 9.016 2.608 17.687 10.187 22.63.967.669 12.394 5.554 24.624 10.135 8.583 3.167 12.948 8.104 11.976 13.545-.97 5.432-7.325 11.05-16.281 11.05-8.575 0-16.852-3.485-22.139-9.322-2.781-3.068-7.523-3.306-10.594-.523-3.07 2.781-3.304 7.523-.523 10.594 8.084 8.924 20.516 14.252 33.256 14.252 15.314-.001 28.661-10.067 31.046-23.414z"/><path d="m376.315 305.978c-8.575 0-16.851-3.485-22.139-9.322-2.781-3.068-7.523-3.306-10.594-.523-3.07 2.781-3.304 7.523-.523 10.594 8.084 8.924 20.516 14.252 33.256 14.252 15.316 0 28.664-10.065 31.048-23.412 1.807-10.115-2.906-23.375-21.549-30.255-10.159-3.749-19.587-7.841-22.044-8.921-2.391-1.772-3.549-4.591-3.111-7.64.558-3.887 3.56-7.011 8.031-8.358 12.539-3.778 23.902 5.333 24.118 5.509 3.171 2.639 7.881 2.223 10.538-.938 2.666-3.17 2.257-7.901-.913-10.567-.709-.597-17.605-14.543-38.072-8.365-10.053 3.029-17.161 10.918-18.55 20.587-1.294 9.017 2.609 17.688 10.187 22.631.967.669 12.394 5.554 24.624 10.135 8.583 3.167 12.948 8.104 11.976 13.545-.971 5.429-7.327 11.048-16.283 11.048z"/><path d="m229.303 222.798c-4.142 0-7.5 3.357-7.5 7.5v83.18c0 4.143 3.358 7.5 7.5 7.5s7.5-3.357 7.5-7.5v-83.18c0-4.143-3.358-7.5-7.5-7.5z"/><path d="m229.303 191.736c-4.445 0-8.062 3.616-8.062 8.062s3.616 8.062 8.062 8.062 8.062-3.616 8.062-8.062-3.616-8.062-8.062-8.062z"/><path d="m485.02 257.69h-44.887c-4.142 0-7.5 3.357-7.5 7.5s3.358 7.5 7.5 7.5h44.887c4.142 0 7.5-3.357 7.5-7.5s-3.358-7.5-7.5-7.5z"/><path d="m78.943 265.19c0-4.143-3.358-7.5-7.5-7.5h-44.887c-4.142 0-7.5 3.357-7.5 7.5s3.358 7.5 7.5 7.5h44.887c4.142 0 7.5-3.357 7.5-7.5z"/></g></svg>