<svg id="light" enable-background="new 0 0 24 24" height="512" viewBox="0 0 24 24" width="512" xmlns="http://www.w3.org/2000/svg"><g><path d="m8.01 15c-.827 0-1.5-.673-1.5-1.5s.673-1.5 1.5-1.5 1.5.673 1.5 1.5-.673 1.5-1.5 1.5zm0-2c-.275 0-.5.225-.5.5s.224.5.5.5.5-.225.5-.5-.225-.5-.5-.5z"/></g><g><path d="m16.01 15c-.827 0-1.5-.673-1.5-1.5s.673-1.5 1.5-1.5 1.5.673 1.5 1.5-.673 1.5-1.5 1.5zm0-2c-.275 0-.5.225-.5.5s.225.5.5.5.5-.225.5-.5-.225-.5-.5-.5z"/></g><g><path d="m2.74 16.04c-.056 0-.112-.009-.168-.029-.26-.093-.396-.379-.303-.639l1.8-5.04c.072-.199.26-.332.471-.332 5.055 0 6.936-4.038 7.014-4.21.081-.179.26-.294.456-.294.197 0 .376.115.456.295.077.171 1.94 4.179 7.044 4.179.213 0 .403.136.473.337l1.75 5.07c.09.261-.049.546-.31.636-.262.09-.546-.049-.636-.31l-1.636-4.739c-4.111-.138-6.275-2.628-7.142-3.955-.866 1.334-3.032 3.847-7.115 3.985l-1.684 4.714c-.072.205-.265.332-.47.332z"/></g><g><path d="m12.011 19.023c-1.024 0-2.049-.39-2.829-1.17-.195-.195-.195-.512 0-.707s.512-.195.707 0c1.169 1.169 3.072 1.171 4.243 0 .195-.195.512-.195.707 0s.195.512 0 .707c-.78.781-1.805 1.17-2.828 1.17z"/></g><g><path d="m21.49 16.06c-.094 0-.211 0-.349-.034-.269-.065-.433-.336-.367-.604s.341-.433.604-.367c.021.005.053.005.112.005.827 0 1.5-.673 1.5-1.5 0-.819-.671-1.492-1.495-1.5-.276-.003-.498-.229-.495-.505.003-.274.226-.495.5-.495h.005c1.37.014 2.485 1.135 2.485 2.5 0 1.378-1.121 2.5-2.5 2.5z"/></g><g><path d="m2.49 16.06c-1.379 0-2.5-1.121-2.5-2.5s1.121-2.5 2.5-2.5c.276 0 .505.224.505.5s-.219.5-.495.5h-.01c-.827 0-1.5.673-1.5 1.5s.673 1.5 1.5 1.5c.068 0 .129-.009.189-.016.267-.037.523.16.557.436.033.274-.161.523-.436.557-.099.012-.198.023-.31.023z"/></g><g><path d="m20.5 24c-1.504 0-2.836-.957-3.313-2.381-.088-.262.053-.545.314-.633.262-.091.546.053.633.314.342 1.017 1.292 1.7 2.366 1.7.068-.139.114-1.096.004-1.935-.02-.154.033-.309.143-.419.11-.109.268-.161.419-.143.838.108 1.795.064 1.97-.094-.035-1.256-1.089-2.35-2.434-2.4-.276-.011-.491-.243-.481-.519.011-.275.257-.497.519-.481 1.883.072 3.36 1.605 3.36 3.491 0 .254-.108.489-.306.663-.465.406-1.448.429-2.14.392.041.691.015 1.675-.392 2.14-.173.197-.408.305-.662.305z"/></g><g><path d="m3.5 24c-.254 0-.489-.108-.663-.306-.406-.465-.433-1.448-.392-2.14-.692.037-1.675.015-2.14-.392-.197-.173-.305-.408-.305-.662 0-1.886 1.477-3.419 3.361-3.49.271-.013.508.206.519.481.01.275-.205.508-.481.519-1.345.051-2.399 1.144-2.399 2.49.139.068 1.096.114 1.935.004.152-.022.309.032.419.143.109.11.162.265.143.419-.11.839-.064 1.796.094 1.97.983-.036 1.933-.719 2.275-1.735.087-.262.371-.405.633-.314.262.088.402.371.314.633-.477 1.423-1.809 2.38-3.313 2.38z"/></g><g><path d="m12.01 24c-3.512 0-6.343-1.699-8.415-5.051-.029-.049-.494-.864-.695-1.309-.598-1.373-.9-2.819-.9-4.303v-5.349c0-5.488 5.188-7.988 10.01-7.988 4.811 0 9.99 2.504 9.99 8v5.349c0 1.479-.302 2.929-.896 4.307-.227.499-.756 1.389-.778 1.427-2.081 3.267-4.876 4.917-8.316 4.917zm0-23c-4.34 0-9.01 2.187-9.01 6.988v5.349c0 1.346.273 2.657.813 3.898.179.395.636 1.195.641 1.203 1.896 3.065 4.37 4.562 7.556 4.562 3.119 0 5.562-1.453 7.464-4.442s.517-.868.716-1.308c.536-1.243.81-2.56.81-3.901v-5.349c0-4.81-4.66-7-8.99-7z"/></g></svg>