<svg height="512pt" viewBox="0 -49 512 512" width="512pt" xmlns="http://www.w3.org/2000/svg"><path d="m512 114.839844c0-31.871094-27.46875-61.277344-77.34375-82.808594-47.84375-20.65625-111.292969-32.03125-178.65625-32.03125-64.015625 0-125.15625 10.417969-172.160156 29.332031-3.898438 1.570313-5.785156 6-4.214844 9.894531 1.566406 3.894532 5.996094 5.78125 9.890625 4.214844 45.242187-18.207031 104.367187-28.234375 166.484375-28.234375 65.339844 0 126.644531 10.933594 172.628906 30.785157 43.296875 18.691406 68.136719 43.765624 68.164063 68.808593 0 .011719-.003907.027344-.003907.042969v.105469c-.074218 25.019531-24.90625 50.066406-68.160156 68.742187-14.023437 6.054688-29.480468 11.273438-46.03125 15.613282-38.320312-9.636719-82.035156-14.738282-126.597656-14.738282-44.558594 0-88.273438 5.101563-126.59375 14.738282-16.554688-4.335938-32.007812-9.558594-46.03125-15.613282-43.320312-18.703125-68.164062-43.796875-68.164062-68.851562 0-20.707032 16.945312-41.59375 47.714843-58.808594 3.664063-2.050781 4.972657-6.683594 2.921875-10.347656-2.046875-3.667969-6.683594-4.972656-10.347656-2.925782-36.253906 20.285157-55.4375 45.167969-55.4921875 71.964844-.00390625.042969-.0078125.082032-.0078125.121094v184.574219c0 31.871093 27.46875 61.28125 77.34375 82.8125 47.84375 20.660156 111.292969 32.035156 178.65625 32.035156 67.359375 0 130.808594-11.375 178.652344-32.035156 49.878906-21.53125 77.34375-50.941407 77.34375-82.8125v-184.449219c0-.042969.003906-.085938.003906-.128906zm-256 84.9375c30.980469 0 61.496094 2.53125 89.949219 7.378906-28.230469 4.804688-58.621094 7.324219-89.949219 7.324219-31.324219 0-61.71875-2.519531-89.945312-7.324219 28.453124-4.847656 58.96875-7.378906 89.945312-7.378906zm240.789062 99.640625c0 25.054687-24.84375 50.148437-68.164062 68.851562-45.984375 19.855469-107.289062 30.785157-172.625 30.785157s-126.644531-10.933594-172.628906-30.785157c-43.320313-18.703125-68.164063-43.796875-68.164063-68.851562v-144.800781c12.964844 16.207031 33.976563 30.878906 62.140625 43.039062 47.84375 20.65625 111.292969 32.035156 178.652344 32.035156 67.363281 0 130.8125-11.378906 178.65625-32.035156 28.15625-12.160156 49.167969-26.828125 62.132812-43.03125zm0 0"/><path d="m395.777344 244.113281c-7.953125-6.492187-18.292969-9.03125-28.367188-6.96875-35.058594 7.167969-72.542968 10.804688-111.40625 10.804688-38.863281 0-76.351562-3.636719-111.417968-10.804688-10.070313-2.0625-20.410157.476563-28.367188 6.96875-7.941406 6.480469-12.496094 16.078125-12.496094 26.332031v61.492188c0 15.222656 10.191406 28.6875 24.792969 32.742188 38.078125 10.554687 82.164063 16.132812 127.488281 16.132812 27.027344 0 53.679688-1.992188 79.222656-5.925781 4.152344-.640625 7-4.523438 6.359376-8.671875-.636719-4.152344-4.519532-7-8.671876-6.359375-24.777343 3.816406-50.65625 5.75-76.910156 5.75-43.972656 0-86.652344-5.386719-123.417968-15.578125-8.039063-2.234375-13.65625-9.671875-13.65625-18.089844v-61.492188c0-5.664062 2.519531-10.96875 6.90625-14.546874 4.402343-3.59375 10.125-4.996094 15.703124-3.855469 36.070313 7.375 74.582032 11.113281 114.464844 11.113281 39.886719 0 78.394532-3.738281 114.457032-11.113281 5.585937-1.140625 11.304687.261719 15.707031 3.851562 4.382812 3.582031 6.898437 8.882813 6.898437 14.550781v61.492188c0 8.417969-5.613281 15.855469-13.65625 18.089844-5.378906 1.496094-11.15625 2.945312-17.171875 4.308594-4.097656.929687-6.664062 5.003906-5.734375 9.097656.929688 4.097656 5.003906 6.664062 9.097656 5.734375 6.253907-1.417969 12.269532-2.929688 17.882813-4.488281 14.597656-4.054688 24.792969-17.519532 24.792969-32.742188v-61.492188c-.003906-10.253906-4.558594-19.851562-12.5-26.332031zm0 0"/><path d="m342.140625 321.222656c-27.539063 4.816406-56.519531 7.253906-86.140625 7.253906-4.199219 0-7.605469 3.40625-7.605469 7.605469s3.40625 7.605469 7.605469 7.605469c30.496094 0 60.359375-2.519531 88.757812-7.484375 4.136719-.722656 6.90625-4.664063 6.183594-8.800781-.722656-4.136719-4.660156-6.898438-8.800781-6.179688zm0 0"/><path d="m256 312.824219c37.792969 0 75.523438-3.988281 109.109375-11.535157 4.097656-.917968 6.671875-4.988281 5.75-9.082031-.917969-4.101562-4.988281-6.675781-9.082031-5.753906-32.511719 7.304687-69.089844 11.164063-105.777344 11.164063-4.199219 0-7.605469 3.40625-7.605469 7.605468 0 4.199219 3.40625 7.601563 7.605469 7.601563zm0 0"/><path d="m183.644531 281.851562c-6.628906-6.292968-15.335937-8.894531-24.101562-6.765624-10.84375 2.632812-18.417969 11.980468-18.417969 22.734374 0 18.914063 31.570312 44.015626 37.898438 48.855469 1.363281 1.042969 2.988281 1.5625 4.617187 1.5625s3.257813-.519531 4.621094-1.5625c6.328125-4.839843 37.894531-29.941406 37.894531-48.855469 0-10.753906-7.570312-20.101562-18.414062-22.734374-8.765626-2.128907-17.472657.472656-24.097657 6.765624zm27.304688 15.96875c0 6.851563-13.425781 21.636719-27.304688 33.097657-13.882812-11.460938-27.308593-26.246094-27.308593-33.097657 0-4.355468 3.414062-7.136718 6.796874-7.957031.8125-.199219 1.621094-.292969 2.417969-.292969 4.4375 0 8.554688 2.992188 11.335938 8.382813 1.304687 2.527344 3.910156 4.113281 6.757812 4.113281 2.84375 0 5.449219-1.585937 6.757813-4.113281 3.28125-6.359375 8.421875-9.382813 13.753906-8.089844 3.382812.820313 6.792969 3.601563 6.792969 7.957031zm0 0"/></svg>