<svg id="Icons" height="512" viewBox="0 0 74 74" width="512" xmlns="http://www.w3.org/2000/svg"><path d="m44.905 57.72h-.181c-4.13-.141-9.736-.99-12.982-4.237a1 1 0 0 1 1.414-1.414c2.933 2.933 8.549 3.547 11.637 3.652a3.327 3.327 0 0 0 3.429-2.778c.334-1.853-.923-3.474-3.128-4.035l-5.42-1.378a16.25 16.25 0 0 1 -4.414-1.871c-1.167-.707-2.625-1.524-4.335-2.43-6.459-3.421-12.806-2.549-18.352 2.524a1 1 0 1 1 -1.35-1.476c6.226-5.695 13.363-6.669 20.638-2.816 1.744.924 3.236 1.76 4.435 2.487a14.261 14.261 0 0 0 3.871 1.643l5.419 1.378c3.235.822 5.128 3.424 4.6 6.328a5.4 5.4 0 0 1 -5.281 4.423z"/><path d="m38.94 68.969a14.541 14.541 0 0 1 -7.82-2.29l-6.882-4.379a3.153 3.153 0 0 0 -2.867-.263l-9.1 3.676a1 1 0 0 1 -.749-1.854l9.1-3.676a5.154 5.154 0 0 1 4.69.43l6.882 4.38a12.5 12.5 0 0 0 14.054-.384l22.332-15.989a3.4 3.4 0 0 0 .42-5.167 3.353 3.353 0 0 0 -4.128-.531l-14.92 9.823a1 1 0 0 1 -1.1-1.671l14.924-9.822a5.4 5.4 0 0 1 5.967 8.995l-22.33 15.987a14.533 14.533 0 0 1 -8.473 2.735z"/><path d="m45.34 48.937a1 1 0 0 1 -.549-1.836l9.888-6.473a7.507 7.507 0 0 1 9.708 1.234 1 1 0 0 1 -1.479 1.346 5.518 5.518 0 0 0 -7.133-.907l-9.888 6.473a.993.993 0 0 1 -.547.163z"/><path d="m39.149 47.335a1 1 0 0 1 -.567-1.824l8.681-5.968a7.024 7.024 0 0 1 9.082 1.011 1 1 0 1 1 -1.468 1.358 5.012 5.012 0 0 0 -6.481-.721l-8.682 5.969a1 1 0 0 1 -.565.175z"/><path d="m6.873 69.539h-3.873a1 1 0 0 1 -1-1v-27.684a1 1 0 0 1 1-1h3.873a6.031 6.031 0 0 1 6.027 6.025v17.634a6.031 6.031 0 0 1 -6.027 6.025zm-2.873-2h2.873a4.029 4.029 0 0 0 4.027-4.025v-17.634a4.029 4.029 0 0 0 -4.025-4.024h-2.875z"/><path d="m30.446 36.163a1 1 0 0 1 -.659-.248c-.579-.507-14.179-12.516-14.775-21.288a9.508 9.508 0 0 1 2.567-7.2 9.171 9.171 0 0 1 6.645-2.962 8.757 8.757 0 0 1 6.222 2.66 8.757 8.757 0 0 1 6.222-2.66 9.171 9.171 0 0 1 6.645 2.962 9.508 9.508 0 0 1 2.567 7.2c-.6 8.772-14.2 20.781-14.775 21.288a1 1 0 0 1 -.659.248zm-6.222-29.7a7.163 7.163 0 0 0 -5.184 2.326 7.527 7.527 0 0 0 -2.033 5.7c.471 6.931 10.715 16.81 13.439 19.321 2.723-2.512 12.968-12.4 13.439-19.322a7.528 7.528 0 0 0 -2.033-5.7 7.165 7.165 0 0 0 -5.184-2.328 6.9 6.9 0 0 0 -5.432 2.786 1.035 1.035 0 0 1 -1.58 0 6.9 6.9 0 0 0 -5.432-2.785z"/><path d="m41.392 38.961a1 1 0 0 1 -.659-.248 70.543 70.543 0 0 1 -6.8-7.02 1 1 0 1 1 1.533-1.284 70.643 70.643 0 0 0 5.93 6.2c2.49-2.305 11.2-10.771 11.6-16.694a6.45 6.45 0 0 0 -1.744-4.883 6.014 6.014 0 0 0 -6.187-1.706 1 1 0 1 1 -.634-1.9 8.042 8.042 0 0 1 8.281 2.236 8.43 8.43 0 0 1 2.278 6.384c-.522 7.7-12.434 18.218-12.94 18.662a1 1 0 0 1 -.658.253z"/></svg>