<svg id="Layer_1" data-name="Layer 1" xmlns="http://www.w3.org/2000/svg" xmlns:xlink="http://www.w3.org/1999/xlink" viewBox="0 0 473.58 473.57"><defs><clipPath id="clip-path" transform="translate(-139.22 -139.22)"><rect x="139.21" y="139.21" width="473.58" height="473.58" fill="none"/></clipPath></defs><g clip-path="url(#clip-path)"><path d="M589.88,169.77H567V154.49a15.3,15.3,0,0,0-15.28-15.27H536.41a15.29,15.29,0,0,0-15.27,15.27v15.28H505.86V154.49a15.29,15.29,0,0,0-15.28-15.27H475.31A15.29,15.29,0,0,0,460,154.49v15.28H444.75V154.49a15.29,15.29,0,0,0-15.27-15.27H414.2a15.29,15.29,0,0,0-15.28,15.27v15.28H383.65V154.49a15.29,15.29,0,0,0-15.28-15.27H353.1a15.29,15.29,0,0,0-15.28,15.27v15.28H322.54V154.49a15.29,15.29,0,0,0-15.28-15.27H292a15.29,15.29,0,0,0-15.28,15.27v15.28H261.43V154.49a15.29,15.29,0,0,0-15.28-15.27H230.88a15.29,15.29,0,0,0-15.27,15.27v15.28H192.69a22.94,22.94,0,0,0-22.91,22.91V398.25a132.15,132.15,0,0,0-30.56,84.69A130,130,0,0,0,269.07,612.79H589.88a22.94,22.94,0,0,0,22.92-22.92V192.67a22.94,22.94,0,0,0-22.92-22.91Zm-53.47-15.28h15.28v45.84H536.41Zm-61.1,0h15.27v45.84H475.31Zm-61.11,0h15.28v45.84H414.2Zm-61.11,0h15.28v45.84H353.09Zm-61.1,0h15.27v45.84H292Zm-61.11,0h15.27v45.84H230.88ZM154.49,482.94a116.33,116.33,0,0,1,35.89-84.36,140.26,140.26,0,0,0-5.33,38.54A130,130,0,0,0,314.9,567a140,140,0,0,0,38.56-5.27,116.41,116.41,0,0,1-84.39,35.82A114.7,114.7,0,0,1,154.5,482.94ZM381.4,538.65a7.6,7.6,0,0,0-9.18-1.23c-16.36,9.34-36.18,14.27-57.32,14.27a113.91,113.91,0,0,1-63.46-19.25l25.27-19.29,28.4,21.7a7.64,7.64,0,0,0,11.94-8.33l-1.67-5.38H567V567H369.17a124.9,124.9,0,0,0,13.47-19.14,7.63,7.63,0,0,0-1.23-9.18ZM261.21,482.1l-17.09-14.43h20a7.62,7.62,0,0,0,7.25-5.25l5.38-16.24,5.37,16.25a7.62,7.62,0,0,0,7.24,5.24h20L292.2,482.1a7.63,7.63,0,0,0-2.37,8.09l5.57,18-14-10.74a7.64,7.64,0,0,0-9.28,0L258,508.21l5.57-18a7.66,7.66,0,0,0-2.38-8.09Zm275.2,23.76H521.14V460H475.31v45.83H460V460H414.2v45.83H398.92V460H353.09v45.83H337.81v-61.1h198.6Zm-30.55,0H490.59V475.31h15.27Zm-61.11,0H429.48V475.31h15.27Zm-61.1,0H368.37V475.31h15.28ZM305.92,490.5l16.62-14v29.38H310.66Zm1.34-91.58V353.09H353.1v45.83Zm0,15.28H353.1v15.28H337.82a15.29,15.29,0,0,0-15.28,15.28v7.63H307.26ZM499,425.56l-3.91,3.91H379.17l-3.91-3.91a23.36,23.36,0,0,1-6.89-16.63,23.66,23.66,0,0,1,11.42-20.17l57.33-34.4,57.33,34.4a23.64,23.64,0,0,1,11.41,20.17A23.32,23.32,0,0,1,499,425.56ZM363,332.38l-5.43,5.43H302.8l-5.43-5.43a18.31,18.31,0,0,1,1.22-27L330.19,279l31.6,26.33a18.33,18.33,0,0,1,1.22,27ZM567,354.5a22.5,22.5,0,0,0-7.63-1.41,22.92,22.92,0,1,0,0,45.83,22.5,22.5,0,0,0,7.63-1.41V505.86H551.7v-61.1a15.29,15.29,0,0,0-15.28-15.28H515.16a38.43,38.43,0,0,0,6-20.55,39,39,0,0,0-18.84-33.27l-65.19-39.11-65.19,39.11a40.09,40.09,0,0,0-3.55,2.47V348.62l5.44-5.44a33.61,33.61,0,0,0-2.25-49.56l-41.39-34.5L288.8,293.61a33.6,33.6,0,0,0-2.25,49.57l5.44,5.44v95.1l-8-24.28a7.63,7.63,0,0,0-14.5,0l-10.89,32.94H223.25a7.63,7.63,0,0,0-4.93,13.47l29.19,24.64-9.63,31.18a114.17,114.17,0,0,1-37.55-84.56c0-21.15,4.93-41,14.27-57.32.15-.27.16-.57.28-.84a7.32,7.32,0,0,0,.5-1.52,7.59,7.59,0,0,0,.11-1.43h.12V246.16H567ZM567,376a7.64,7.64,0,1,1-7.63-7.64A7.64,7.64,0,0,1,567,376Zm30.56,213.88a7.64,7.64,0,0,1-7.64,7.63h-259a131.1,131.1,0,0,0,22.86-15.28H582.25V230.88H200.33V371.75a125,125,0,0,0-15.28,11.1V192.69a7.65,7.65,0,0,1,7.64-7.64H215.6v15.28a15.3,15.3,0,0,0,15.28,15.27h15.28a15.3,15.3,0,0,0,15.28-15.27V185.05h15.27v15.28A15.29,15.29,0,0,0,292,215.6h15.28a15.29,15.29,0,0,0,15.27-15.27V185.05h15.28v15.28a15.29,15.29,0,0,0,15.27,15.27h15.28a15.29,15.29,0,0,0,15.28-15.27V185.05h15.27v15.28A15.3,15.3,0,0,0,414.2,215.6h15.28a15.3,15.3,0,0,0,15.28-15.27V185.05H460v15.28a15.29,15.29,0,0,0,15.28,15.27h15.27a15.29,15.29,0,0,0,15.28-15.27V185.05h15.28v15.28a15.29,15.29,0,0,0,15.27,15.27h15.28A15.29,15.29,0,0,0,567,200.33V185.05h22.92a7.64,7.64,0,0,1,7.63,7.64Z" transform="translate(-139.22 -139.22)"/></g><path d="M322.53,368.36h15.28v15.28H322.53Z" transform="translate(-139.22 -139.22)"/><path d="M528.77,322.53a22.92,22.92,0,1,0-22.91-22.91A22.94,22.94,0,0,0,528.77,322.53Zm0-30.55a7.64,7.64,0,1,1-7.64,7.64A7.65,7.65,0,0,1,528.77,292Z" transform="translate(-139.22 -139.22)"/><path d="M421.83,307.25a22.92,22.92,0,1,0-22.91-22.91A22.94,22.94,0,0,0,421.83,307.25Zm0-30.55a7.64,7.64,0,1,1-7.64,7.64A7.65,7.65,0,0,1,421.83,276.7Z" transform="translate(-139.22 -139.22)"/></svg>