<svg id="Capa_1" enable-background="new 0 0 511.989 511.989" height="512" viewBox="0 0 511.989 511.989" width="512" xmlns="http://www.w3.org/2000/svg"><g><path d="m319.639 256 185.771-185.77c8.773-8.772 8.773-23.047 0-31.819l-31.82-31.821c-8.772-8.772-23.047-8.772-31.819 0l-185.771 185.771-185.771-185.771c-4.249-4.25-9.899-6.59-15.909-6.59s-11.66 2.34-15.91 6.59l-31.82 31.82c-4.25 4.25-6.59 9.9-6.59 15.91s2.34 11.66 6.59 15.91l169.86 169.86c1.464 1.464 3.384 2.197 5.303 2.197s3.839-.732 5.303-2.197c2.929-2.929 2.929-7.678 0-10.606l-169.859-169.861c-2.924-2.924-2.924-7.682 0-10.606l31.82-31.82c2.924-2.924 7.683-2.924 10.606 0l185.771 185.77-238.804 238.804c-8.773 8.772-8.773 23.047 0 31.819l31.82 31.82c4.386 4.386 10.148 6.58 15.91 6.58s11.523-2.193 15.91-6.58l185.653-185.653 185.888 185.653c4.386 4.386 10.148 6.58 15.91 6.58s11.523-2.193 15.91-6.58l31.82-31.82c8.773-8.772 8.773-23.047 0-31.819zm53.188 74.401 21.213 21.213-42.49 42.491-21.227-21.2zm-53.117 31.904-21.227-21.2 42.524-42.524 21.213 21.213zm84.937-.084 21.214 21.214-42.47 42.47-21.227-21.2zm31.82 31.82 21.213 21.213-42.45 42.45-21.227-21.2zm15.91-376.844c1.462-1.462 3.383-2.193 5.303-2.193s3.841.731 5.303 2.193l31.82 31.82c2.924 2.924 2.924 7.682 0 10.606l-238.928 238.928-42.453-42.399zm-366.238 366.237 21.214-21.214 42.426 42.427-21.213 21.213zm31.82 53.033-21.213 21.213-42.426-42.426 21.213-21.213zm0-84.853 21.213-21.213 42.426 42.427-21.213 21.213zm31.82-31.82 21.213-21.213 42.426 42.426-21.213 21.213zm-90.156 175.009c-2.924 2.924-7.683 2.924-10.606 0l-31.82-31.82c-2.924-2.924-2.924-7.682 0-10.606l26.517-26.517 42.426 42.426zm164.402-164.402-42.426-42.426 21.217-21.217 42.453 42.399zm85.008-63.795 21.368 21.368-42.531 42.531-21.382-21.355zm185.77 196.377-31.82 31.82c-2.924 2.924-7.682 2.924-10.61-.003l-26.53-26.496 42.443-42.443 26.517 26.517c2.924 2.923 2.924 7.681 0 10.605z"/></g></svg>