<?xml version="1.0" encoding="iso-8859-1"?>
<!-- Generator: Adobe Illustrator 19.1.0, SVG Export Plug-In . SVG Version: 6.00 Build 0)  -->
<svg version="1.1" id="Capa_1" xmlns="http://www.w3.org/2000/svg" xmlns:xlink="http://www.w3.org/1999/xlink" x="0px" y="0px"
	 viewBox="0 0 605.658 605.658" style="enable-background:new 0 0 605.658 605.658;" xml:space="preserve">
<g>
	<g>
		<path d="M372.938,147.557c5.473,0,10.843-2.209,14.715-6.099c3.87-3.868,6.097-9.219,6.097-14.713
			c0-5.475-2.227-10.843-6.097-14.715s-9.242-6.097-14.715-6.097c-5.475,0-10.843,2.225-14.713,6.097
			c-3.873,3.87-6.099,9.238-6.099,14.715c0,5.473,2.227,10.843,6.099,14.713C362.094,145.349,367.463,147.557,372.938,147.557z"/>
		<path d="M489.3,288.437c5.475,0,10.843-2.229,14.717-6.097c3.868-3.891,6.095-9.24,6.095-14.715
			c0-5.492-2.227-10.843-6.095-14.715c-3.893-3.889-9.242-6.097-14.717-6.097c-5.473,0-10.841,2.209-14.715,6.097
			c-3.889,3.871-6.097,9.221-6.097,14.715c0,5.475,2.208,10.824,6.097,14.715C478.459,286.208,483.808,288.437,489.3,288.437z"/>
		<path d="M31.527,288.437c5.494,0,10.843-2.229,14.715-6.097c3.871-3.891,6.097-9.24,6.097-14.715
			c0-5.492-2.227-10.843-6.097-14.715c-3.873-3.889-9.242-6.097-14.715-6.097c-5.475,0-10.843,2.209-14.715,6.097
			c-3.871,3.871-6.097,9.221-6.097,14.715c0,5.475,2.227,10.824,6.097,14.715C20.684,286.208,26.051,288.437,31.527,288.437z"/>
		<path d="M278.011,563.748c-5.473,0-10.841,2.229-14.715,6.097c-3.871,3.87-6.075,9.242-6.075,14.736
			c0,5.475,2.204,10.824,6.075,14.717c3.893,3.868,9.242,6.075,14.715,6.075c5.473,0,10.843-2.206,14.715-6.075
			c3.891-3.893,6.097-9.242,6.097-14.717c0-5.492-2.206-10.841-6.097-14.736C288.854,565.975,283.505,563.748,278.011,563.748z"/>
		<path d="M489.3,41.91c5.475,0,10.843-2.227,14.717-6.097c3.868-3.871,6.095-9.242,6.095-14.715s-2.227-10.843-6.095-14.713
			c-3.872-3.871-9.242-6.099-14.717-6.099c-5.492,0-10.863,2.229-14.715,6.099c-3.889,3.868-6.097,9.24-6.097,14.713
			s2.208,10.843,6.097,14.715C478.459,39.683,483.808,41.91,489.3,41.91z"/>
		<polygon points="478.58,122.122 496.105,143.577 494.074,171.618 519.151,160.949 544.223,171.618 542.194,143.577 
			559.722,122.122 533.393,115.459 519.151,91.533 504.909,115.459 		"/>
		<polygon points="47.027,136.4 72.104,125.731 97.176,136.4 95.149,108.355 112.679,86.906 86.346,80.244 72.104,56.315 
			57.856,80.244 31.533,86.906 49.062,108.355 		"/>
		<polygon points="605.658,464.643 579.325,457.98 565.083,434.05 550.837,457.98 524.508,464.643 542.041,486.095 540.006,514.135 
			565.083,503.468 590.157,514.135 588.126,486.095 		"/>
		<polygon points="75.628,502.852 61.386,478.921 47.137,502.852 20.813,509.51 38.344,530.965 36.307,559.005 61.386,548.338 
			86.46,559.005 84.427,530.965 101.959,509.51 		"/>
		<polygon points="330.915,63.487 348.447,42.036 322.118,35.376 307.874,11.445 293.63,35.376 267.297,42.036 284.835,63.487 
			282.797,91.533 307.874,80.861 332.947,91.533 		"/>
		<path d="M455.903,213.794c9.154-6.907,10.998-19.923,4.113-29.1c-6.897-9.203-19.942-11.061-29.137-4.164
			c-1.576,1.183-38.958,29.583-71.515,85.404c-29.84,51.161-61.379,136.342-42.168,251.623c1.697,10.18,10.512,17.395,20.505,17.395
			c1.138,0,2.29-0.094,3.444-0.288c11.34-1.89,18.998-12.615,17.111-23.949c-13.665-81.994-1.509-156.747,36.121-222.185
			C422.655,239.364,455.573,214.045,455.903,213.794z"/>
		<path d="M133.286,180.532c-9.179-6.876-22.167-5.025-29.078,4.129c-6.911,9.156-5.084,22.195,4.05,29.133
			c0.328,0.249,33.25,25.57,61.524,74.737c37.632,65.438,49.786,140.19,36.121,222.185c-1.888,11.336,5.771,22.059,17.111,23.949
			c1.158,0.194,2.308,0.288,3.444,0.288c9.988,0,18.808-7.215,20.507-17.395c19.208-115.279-12.327-200.463-42.17-251.623
			C172.241,210.115,134.862,181.715,133.286,180.532z"/>
		<path d="M267.323,253.213c10.111,0,18.981-7.38,20.548-17.682c12.857-84.435-67.54-125.683-70.97-127.4
			c-10.288-5.141-22.785-0.973-27.923,9.307c-5.141,10.28-0.975,22.783,9.305,27.923c0.569,0.283,56.787,29.076,48.438,83.903
			c-1.731,11.365,6.079,21.977,17.444,23.708C265.225,253.135,266.281,253.213,267.323,253.213z"/>
		<path d="M568.743,331.469c-3.634-10.902-15.411-16.805-26.327-13.159c-1.232,0.41-30.468,10.327-59.56,34.571
			c-39.451,32.883-60.303,76.466-60.303,126.04c0,11.495,9.317,20.813,20.813,20.813c11.493,0,20.813-9.317,20.813-20.813
			c0-88.917,87.669-119.849,91.465-121.144C566.51,354.119,572.375,342.355,568.743,331.469z"/>
		<path d="M20.813,317.241C9.317,317.241,0,326.559,0,338.054c0,11.495,9.317,20.813,20.813,20.813
			c35.289,0,59.25,13.153,73.252,40.21c11.163,21.567,11.567,44.158,11.573,44.711c0.043,11.457,9.346,20.731,20.813,20.731
			c11.493,0,20.813-9.317,20.813-20.813c0-1.279-0.175-31.676-15.402-62.132C117.19,352.225,86.014,317.241,20.813,317.241z"/>
	</g>
</g>
<g>
</g>
<g>
</g>
<g>
</g>
<g>
</g>
<g>
</g>
<g>
</g>
<g>
</g>
<g>
</g>
<g>
</g>
<g>
</g>
<g>
</g>
<g>
</g>
<g>
</g>
<g>
</g>
<g>
</g>
</svg>
