<?xml version="1.0" encoding="iso-8859-1"?>
<!-- Generator: Adobe Illustrator 19.0.0, SVG Export Plug-In . SVG Version: 6.00 Build 0)  -->
<svg version="1.1" id="Capa_1" xmlns="http://www.w3.org/2000/svg" xmlns:xlink="http://www.w3.org/1999/xlink" x="0px" y="0px"
	 viewBox="0 0 489.869 489.869" style="enable-background:new 0 0 489.869 489.869;" xml:space="preserve">
<g>
	<g>
		<path d="M489.658,465.231c-33.2-217.8,0-438.7,0-440.7c2.3-20.7-18.6-27.2-29-21.8c-199.1,96.4-428.2,0.9-430.4,0
			c-18.1-7.5-31.9,10-30.1,21.8c33.2,217.8,0,438.7,0,440.7c-1,7.3,5.2,30.2,29,21.8c187.1-90.6,400.8-11.8,427.6-1.2
			C481.858,497.031,491.458,475.231,489.658,465.231z M443.558,437.531c-69-23-235.9-65-397.8-2.4c7.8-67.8,20-221.8,0.4-383
			c69,23,235.9,65,397.8,2.4C436.258,122.431,424.058,276.331,443.558,437.531z"/>
		<path d="M252.258,222.631c0-5.4-4.4-9.8-9.8-9.8h-28.9v-29.4h28.9c5.4,0,9.8-4.4,9.8-9.8c0-5.4-4.4-9.8-9.8-9.8h-28.9v-29.4h28.9
			c5.4,0,9.8-4.4,9.8-9.8c0-5.4-4.4-9.8-9.8-9.8h-38.7c-5.4,0-9.8,4.4-9.8,9.8v98c0,5.4,4.4,9.8,9.8,9.8h38.7
			C247.858,232.431,252.258,228.131,252.258,222.631z"/>
		<path d="M176.658,222.631v-98c0-5.4-4.4-9.8-9.8-9.8c-5.4,0-9.8,4.4-9.8,9.8v62.6l-40.6-67.6c-2.3-3.8-6.8-5.6-11-4.4
			s-7.2,5-7.2,9.5v98c0,5.4,4.4,9.8,9.8,9.8s9.8-4.4,9.8-9.8v-62.6l40.6,67.6c3.7,5.4,10.2,4.6,11,4.4
			C173.758,230.931,176.658,227.031,176.658,222.631z"/>
		<path d="M355.658,232.431c4.4,0,8.3-3,9.5-7.3l26.2-98c1.4-5.2-1.7-10.6-6.9-12c-5.2-1.4-10.6,1.7-12,6.9l-16.7,62.6l-16.7-62.6
			c-1.2-4.5-5.4-7.4-9.8-7.3l0,0c-4.2,0.1-8,3-9.1,7.2l-16.7,62.6l-16.7-62.6c-1.4-5.2-6.8-8.3-12-6.9s-8.3,6.8-6.9,12l26.2,98
			c1.1,4.3,5,7.3,9.5,7.3s8.3-3,9.5-7.3l16.7-62.6l16.7,62.6C347.258,229.531,351.158,232.431,355.658,232.431z"/>
		<path d="M218.958,277.031c5.4,0,9.8-4.4,9.8-9.8s-4.4-9.8-9.8-9.8h-38.7c-5.4,0-9.8,4.4-9.8,9.8v98c0,5.4,4.4,9.8,9.8,9.8h38.7
			c5.4,0,9.8-4.4,9.8-9.8s-4.4-9.8-9.8-9.8h-28.9v-29.4h28.9c5.4,0,9.8-4.4,9.8-9.8s-4.4-9.8-9.8-9.8h-28.9v-29.4L218.958,277.031
			L218.958,277.031z"/>
		<path d="M295.658,264.331c-1.5-3.8-5.1-6.3-9.2-6.3s-7.7,2.5-9.2,6.3l-37.1,96.6c-1.9,5.1,0.6,10.7,5.6,12.7
			c1.2,0.4,9.5,2.6,12.7-5.6l8.7-22.8h38.4l8.7,22.8c1.9,5.1,7.6,7.6,12.7,5.6c5.1-1.9,7.6-7.6,5.6-12.7L295.658,264.331z
			 M274.758,325.631l11.7-30.4l11.7,30.4H274.758z"/>
		<path d="M153.858,259.431c-4.6-2.8-10.7-1.3-13.5,3.4l-24.4,40.6l-24.4-40.6c-2.8-4.6-8.8-6.1-13.5-3.4c-4.6,2.8-6.1,8.8-3.4,13.5
			l31.4,52.3v40c0,5.4,4.4,9.8,9.8,9.8c5.4,0,9.8-4.4,9.8-9.8v-40l31.4-52.3C160.058,268.331,158.558,262.231,153.858,259.431z"/>
		<path d="M416.558,291.731c0-18.9-15.4-34.3-34.3-34.3h-24c-5.4,0-9.8,4.4-9.8,9.8v98c0,5.4,4.4,9.8,9.8,9.8s9.8-4.4,9.8-9.8v-39.2
			h8.4l21.5,42.4c3.8,6.6,11.8,5,13.2,4.3c4.8-2.4,6.8-8.4,4.3-13.2l-18.7-36.8C408.458,317.231,416.558,305.431,416.558,291.731z
			 M382.258,306.431h-14.1v-29.4h14.1c8.1,0,14.7,6.6,14.7,14.7C396.858,299.831,390.358,306.431,382.258,306.431z"/>
	</g>
</g>
<g>
</g>
<g>
</g>
<g>
</g>
<g>
</g>
<g>
</g>
<g>
</g>
<g>
</g>
<g>
</g>
<g>
</g>
<g>
</g>
<g>
</g>
<g>
</g>
<g>
</g>
<g>
</g>
<g>
</g>
</svg>
