<svg id="Capa_1" enable-background="new 0 0 512 512" height="512" viewBox="0 0 512 512" width="512" xmlns="http://www.w3.org/2000/svg"><g><path d="m395.766 210h10.234c8.284 0 15-6.716 15-15v-30c0-20.723-14.085-38.209-33.181-43.414 2.044-5.137 3.181-10.73 3.181-16.586 0-20.271-13.472-37.455-31.934-43.066-4.354-14.325-15.675-25.646-30-30-5.611-18.462-22.795-31.934-43.066-31.934h-60c-20.271 0-37.455 13.472-43.066 31.934-14.325 4.354-25.646 15.675-30 30-18.462 5.611-31.934 22.795-31.934 43.066 0 5.856 1.137 11.449 3.181 16.586-19.096 5.205-33.181 22.691-33.181 43.414v30c0 8.284 6.716 14.99 15 14.99h10.234c-3.943 8.399-9.807 18.522-15.563 28.445-17.675 30.465-39.671 68.382-39.671 107.565 0 91.533 87.477 166 195 166s195-74.467 195-166c0-39.183-21.996-77.1-39.67-107.565-5.757-9.923-11.621-20.036-15.564-28.435zm-304.766 136c0-14.684 4.402-30.021 10.717-45h308.566c6.315 14.979 10.717 30.316 10.717 45 0 15.765-3.283 30.908-9.295 45h-311.41c-6.012-14.092-9.295-29.235-9.295-45zm75-256c8.284 0 15-6.716 15-15 0-8.271 6.729-15 15-15 8.284 0 15-6.716 15-15 0-8.271 6.729-15 15-15h60c8.271 0 15 6.729 15 15 0 8.284 6.716 15 15 15 8.271 0 15 6.729 15 15 0 8.284 6.716 15 15 15 8.271 0 15 6.729 15 15s-6.729 15-15 15h-180c-8.271 0-15-6.729-15-15s6.729-15 15-15zm-45 75c0-8.271 6.729-15 15-15h240c8.271 0 15 6.729 15 15v15h-270zm242.552 45c3.969 12.696 12.177 26.853 21.828 43.488 3.24 5.584 6.64 11.451 10.003 17.512h-278.766c3.362-6.061 6.763-11.927 10.003-17.512 9.651-16.636 17.859-30.792 21.828-43.488zm-107.552 272c-57.376 0-107.996-24.269-137.57-61.01h275.14c-29.574 36.741-80.194 61.01-137.57 61.01z"/><path d="m189.292 332.583c-5.082 2.542-8.292 7.735-8.292 13.417s3.21 10.875 8.292 13.417l60 30c2.111 1.056 4.41 1.583 6.708 1.583s4.597-.528 6.708-1.583l60-30c5.082-2.542 8.292-7.735 8.292-13.417s-3.21-10.875-8.292-13.417l-60-30c-2.111-1.056-4.41-1.583-6.708-1.583s-4.597.528-6.708 1.583zm93.167 13.417-26.459 13.229-26.459-13.229 26.459-13.229z"/><circle cx="376" cy="346" r="15"/><circle cx="136" cy="346" r="15"/></g></svg>