<svg id="Capa_1" enable-background="new 0 0 511.992 511.992" height="512" viewBox="0 0 511.992 511.992" width="512" xmlns="http://www.w3.org/2000/svg"><g><path d="m498.059 1.699c-11.479-4.72-24.652.773-29.367 12.238l-3.031 7.353c-9.327 22.647-28.006 40.081-51.249 47.832-18.107 6.041-34.688 16.06-48.414 29.18-3.778-3.928-8.144-7.388-13.053-10.222-3.587-2.072-8.175-.842-10.245 2.747-2.071 3.587-.841 8.174 2.747 10.245 15.416 8.896 24.008 26.268 21.614 43.936-19.391-1.366-38.58-.504-50.305 5.752-.449-13.295-9.289-30.337-20.16-46.435 5.79-4.443 12.693-7.448 19.956-8.605 4.091-.652 6.878-4.497 6.227-8.587-.652-4.091-4.504-6.877-8.587-6.227-9.548 1.522-18.638 5.43-26.314 11.209-6.876-9.153-13.881-17.531-19.646-24.115-3.087-3.53-7.547-5.555-12.235-5.555s-9.148 2.025-12.233 5.552c-5.763 6.582-12.765 14.957-19.639 24.106-18.663-14.141-44.284-16.028-65.077-4.022-20.8 12.004-31.974 35.138-29.051 58.372-11.359 1.376-22.112 3.25-30.694 4.946-4.603.91-8.587 3.759-10.933 7.817-2.346 4.06-2.825 8.938-1.312 13.391 2.822 8.277 6.576 18.522 11.063 29.043-21.584 9.1-36.035 30.35-36.035 54.356s14.451 45.256 36.034 54.356c-4.488 10.523-8.242 20.769-11.065 29.049-1.511 4.446-1.032 9.325 1.314 13.385 2.345 4.058 6.33 6.907 10.933 7.817 8.046 1.591 18.012 3.329 28.586 4.675-10.336 16.42-25.919 28.702-44.542 34.912-35.652 11.877-64.31 38.623-78.625 73.38l-3.032 7.363c-4.714 11.464.775 24.638 12.244 29.369 11.215 4.627 24.61-.628 29.367-12.238l3.031-7.353c9.327-22.647 28.006-40.081 51.249-47.832 18.107-6.041 34.688-16.06 48.413-29.18 3.778 3.928 8.143 7.388 13.052 10.221 9.231 5.33 19.414 7.924 29.519 7.924 12.656 0 25.186-4.076 35.564-11.94 6.872 9.147 13.872 17.518 19.633 24.098 3.087 3.53 7.547 5.555 12.235 5.555s9.148-2.025 12.233-5.552c5.761-6.581 12.762-14.953 19.635-24.101 10.378 7.864 22.907 11.94 35.564 11.94 10.103 0 20.288-2.595 29.517-7.924 20.801-12.005 31.975-35.14 29.05-58.376 11.358-1.376 22.114-3.246 30.695-4.943 4.603-.91 8.587-3.759 10.933-7.817 2.346-4.06 2.825-8.938 1.312-13.391-2.822-8.277-6.576-18.522-11.063-29.043 21.584-9.101 36.034-30.351 36.034-54.356 0-24.006-14.451-45.256-36.034-54.356 4.488-10.523 8.242-20.769 11.065-29.049 1.511-4.446 1.032-9.325-1.314-13.385-2.345-4.058-6.33-6.907-10.933-7.817-8.047-1.591-18.01-3.332-28.584-4.678 10.336-16.418 25.918-28.699 44.54-34.909 35.652-11.877 64.31-38.623 78.625-73.38l3.032-7.363c4.714-11.463-.776-24.636-12.244-29.368zm-243.007 76.175c.552-.63 1.339-.628 1.891.003 27.667 31.602 44.853 59.934 44.853 73.939 0 7.564-1.824 14.854-5.303 21.406-12.231-6.007-25.976-9.388-40.497-9.388s-28.266 3.38-40.497 9.388c-3.479-6.553-5.303-13.842-5.303-21.406 0-14.006 17.187-42.338 44.856-73.942zm-88.506 23.197c15.633-9.025 34.919-7.529 48.858 3.241-10.875 16.102-19.719 33.149-20.168 46.447-11.729-6.254-30.917-7.117-50.305-5.752-2.367-17.459 5.978-34.911 21.615-43.936zm-64.336 65.042c25.907-5.121 70.241-11.205 86.465-1.867 3.709 2.135 7.043 4.775 9.974 7.815 1.075 3.044 2.394 6.002 3.955 8.853-21.846 15.578-36.631 40.44-38.559 68.775-2.687-.096-5.349-.425-7.964-.992-.096-.022-.19-.049-.287-.067-4.492-1.005-8.841-2.692-12.927-5.049-17.026-9.822-33.048-50.697-41.61-75.81-.273-.802.119-1.493.953-1.658zm-25.124 89.893c0-18.046 10.945-34.006 27.251-40.7 8.512 17.475 18.853 33.663 30.13 40.7-11.277 7.035-21.618 23.224-30.131 40.7-16.305-6.694-27.25-22.654-27.25-40.7zm24.169 88.24c8.153-23.992 25.554-66.54 41.612-75.815 3.678-2.125 7.597-3.714 11.668-4.743 3.191.6 6.432.941 9.699 1.017.778 8.325 2.672 16.46 5.668 24.278 1.483 3.869 5.822 5.801 9.688 4.319 3.868-1.482 5.802-5.82 4.319-9.688-19.433-50.701 18.548-104.78 72.088-104.78 42.552 0 77.171 34.619 77.171 77.171s-34.619 77.171-77.171 77.171c-20.653 0-40.023-8.094-54.514-22.549-2.933-2.926-7.682-2.921-10.607.01-2.926 2.932-2.921 7.681.01 10.607 3.658 3.65 7.581 6.934 11.705 9.879-1.554 2.843-2.869 5.792-3.941 8.827-2.931 3.04-6.266 5.68-9.982 7.82-16.838 9.691-60.545 3.252-86.457-1.872-.832-.164-1.228-.852-.956-1.652zm-8.421 84.415c-27.379 9.13-49.384 29.668-60.372 56.346l-3.032 7.356c-1.527 3.767-6.032 5.627-9.783 4.08-3.824-1.578-5.656-5.972-4.085-9.792l3.03-7.359c12.653-30.722 37.983-54.363 69.498-64.861 16.803-5.604 31.512-15.399 42.952-28.368 1.245 5.413 3.247 10.622 5.946 15.471-12.389 12.249-27.541 21.584-44.154 27.127zm73.711-17.72c-15.371-8.875-24.016-26.295-21.614-43.937 16.935 1.282 37.75.929 50.305-5.743.453 13.297 9.295 30.34 20.168 46.439-13.94 10.77-33.226 12.267-48.859 3.241zm90.396 23.197c-.552.631-1.337.629-1.891-.003-27.667-31.602-44.853-59.934-44.853-73.939 0-7.552 1.818-14.829 5.285-21.374 12.458 6.108 26.235 9.355 40.514 9.355 14.521 0 28.266-3.38 40.497-9.388 3.479 6.553 5.303 13.842 5.303 21.406 0 14.007-17.187 42.339-44.855 73.943zm88.505-23.197c-15.631 9.027-34.918 7.531-48.858-3.241 10.873-16.099 19.716-33.142 20.168-46.439 8.688 4.63 21.459 6.309 35.383 6.308 4.876 0 9.893-.212 14.921-.566 2.369 17.46-5.977 34.913-21.614 43.938zm64.336-65.042c-24.369 4.818-70.84 10.86-86.465 1.867-3.709-2.135-7.043-4.775-9.974-7.815-1.075-3.044-2.394-6.002-3.955-8.853 21.846-15.578 36.631-40.439 38.559-68.774 7.41.266 14.63 2.329 21.178 6.106 14.777 8.525 33.409 51.757 41.61 75.81.277.811-.117 1.493-.953 1.659zm25.124-89.893c0 18.046-10.945 34.006-27.251 40.7-8.512-17.475-18.853-33.663-30.13-40.7 11.277-7.035 21.618-23.224 30.131-40.7 16.305 6.694 27.25 22.654 27.25 40.7zm-24.169-88.24c-8.875 26.028-24.551 65.961-41.612 75.815-3.681 2.126-7.604 3.717-11.678 4.746-3.19-.599-6.427-.94-9.693-1.016-2.571-27.345-17.134-51.256-38.366-66.396 1.56-2.85 2.88-5.809 3.955-8.853 2.931-3.04 6.266-5.68 9.982-7.82 16.324-9.396 59.978-3.364 86.457 1.872.839.165 1.228.853.955 1.652zm85.694-142.406-3.03 7.359c-12.653 30.722-37.983 54.363-69.498 64.861-16.803 5.604-31.512 15.399-42.952 28.368-1.245-5.413-3.247-10.622-5.946-15.471 12.388-12.249 27.54-21.584 44.154-27.127 27.379-9.13 49.384-29.668 60.372-56.346l3.032-7.356c1.528-3.781 6.019-5.632 9.783-4.08 3.824 1.579 5.656 5.973 4.085 9.792z"/><g><g><circle cx="255.996" cy="256.006" r="7.5"/></g><g><g><circle cx="255.996" cy="136.006" r="7.5"/></g><g><circle cx="255.996" cy="376.006" r="7.5"/></g><g><circle cx="151.429" cy="197.136" r="7.5"/></g><g><circle cx="360.564" cy="314.876" r="7.5"/></g><g><circle cx="361.322" cy="198.504" r="7.5"/></g><g><circle cx="150.671" cy="313.508" r="7.5"/></g></g></g></g></svg>