<svg id="Layer_1" data-name="Layer 1" xmlns="http://www.w3.org/2000/svg" viewBox="0 0 469.38 375.89"><path d="M214.41,251.94l0-38.73v-.07a19.9,19.9,0,0,0-.14-2.22h0a6.74,6.74,0,0,0-.43-1.66,6.22,6.22,0,0,0-3.33-3.49,7.73,7.73,0,0,0-4.92-.4c-9.89,2.78-17.3,1-24.5-.81-7-1.71-13.78-3.39-22.52-1.48a6.64,6.64,0,0,0-3.77,2.54,7.26,7.26,0,0,0-1.53,4.23v16.28c0,.07,0,.14,0,.21-.06,4.18,1,6.48,3,7.83s4.14,1.25,6.88,1.08c5.36-.32,10.41.76,15.57,1.85,8.63,1.83,17.54,3.72,29.38.15v14.69l-.9,0a2.82,2.82,0,0,0-.86.14,9.1,9.1,0,0,0-2.51,1.26,15.88,15.88,0,0,0-4,4.13,7.5,7.5,0,0,0-1.37,6.2,5,5,0,0,0,.67,1.4l2.8,4a22.35,22.35,0,0,0-4.73,3,12.84,12.84,0,0,0-2.63,3,5,5,0,0,0-.46,4.86,4.7,4.7,0,0,0,1.63,1.91l3.17,2.18a19,19,0,0,0-4.84,3.3,23,23,0,0,0-5.89,9.07,11.15,11.15,0,0,0-.82,4.23c-9.94,9.13-17.23,20.7-22.58,33.05-7.11,16.45-10.75,34.23-12.56,49.37-.15,1.28-.44,4.41-.7,7.26l-.18,2a2.66,2.66,0,0,0,0,.28,15.67,15.67,0,0,0,.82,7,11.19,11.19,0,0,0,3.5,4.76c6.77,5.55,19.77,5.26,24.59,5.06v23.31H166.42V417.14a3.16,3.16,0,1,0-6.31,0v15.64H147.63V417.14a3.16,3.16,0,0,0-6.32,0v18.79a3.17,3.17,0,0,0,3.16,3.16h35.78v10h-31a3.15,3.15,0,0,0,0,6.29h34.24l97,0V469l-131.38-.16a3.15,3.15,0,1,0,0,6.29l133.78.16a3.08,3.08,0,0,0,.75.09h50.13v16H283.7a3.16,3.16,0,0,0,0,6.31H468.36a3.16,3.16,0,1,0,0-6.31H416.17v-16h52.19a3.22,3.22,0,0,0,.76-.09l133.72-.16a3.15,3.15,0,0,0,0-6.29L471.5,469l0-13.79,40.71.05a3.41,3.41,0,0,0,.85.11,3.35,3.35,0,0,0,.85-.11l54.13.06a3.33,3.33,0,0,0,1.15,0l33.56,0a3.15,3.15,0,1,0,0-6.29l-31,0v-9.94h35.79a3.15,3.15,0,0,0,3.15-3.15v-18.8a3.16,3.16,0,1,0-6.31,0v15.64H591.9V417.14a3.16,3.16,0,1,0-6.32,0v15.64H571.75v-23.3c4.82.19,17.82.49,24.59-5.06a11.23,11.23,0,0,0,3.5-4.76,15.54,15.54,0,0,0,.83-7c0-.09,0-.18,0-.28l-.18-2c-.26-2.85-.54-6-.7-7.26-1.81-15.13-5.44-32.91-12.56-49.37-5.34-12.35-12.63-23.92-22.58-33.05a11,11,0,0,0-.82-4.23,23.08,23.08,0,0,0-5.88-9.06,19.17,19.17,0,0,0-4.84-3.31l3.16-2.18a4.67,4.67,0,0,0,1.64-1.91,5,5,0,0,0-.47-4.86,12.17,12.17,0,0,0-2.63-3,21.35,21.35,0,0,0-4.73-3l2.8-4a5.1,5.1,0,0,0,.67-1.39c.62-2-.06-4.23-1.36-6.21a16,16,0,0,0-4-4.12,9.42,9.42,0,0,0-2.51-1.27,3.29,3.29,0,0,0-.87-.14l-.89,0V237.24c11.84,3.58,20.74,1.69,29.38-.14,5.15-1.1,10.2-2.17,15.57-1.85,2.73.16,4.92.21,6.87-1.09s3.1-3.64,3-7.83a1.48,1.48,0,0,0,0-.21V209.84a7.28,7.28,0,0,0-1.53-4.23,6.65,6.65,0,0,0-3.77-2.54c-8.73-1.9-15.54-.23-22.52,1.49-7.2,1.77-14.6,3.59-24.5.8a7.8,7.8,0,0,0-4.92.4,6.34,6.34,0,0,0-3.33,3.5,6.66,6.66,0,0,0-.42,1.66h0a17,17,0,0,0-.15,2.21v.07l0,38.73-.54,0a3,3,0,0,0-.86.15,10.22,10.22,0,0,0-3,1.65,16.17,16.17,0,0,0-3.65,4,7.18,7.18,0,0,0-1.2,5.89,4.82,4.82,0,0,0,.8,1.56l2.93,3.8a21.87,21.87,0,0,0-5,3.14,12.67,12.67,0,0,0-2.64,3,5,5,0,0,0-.46,4.86,4.73,4.73,0,0,0,1.64,1.91l2.85,2a19.5,19.5,0,0,0-6.28,4.5,23.15,23.15,0,0,0-4.91,8.08,10.45,10.45,0,0,0-.77,4.73.68.68,0,0,0,0,.14c0,.1,0,.21,0,.32-9.3,8.61-16.08,19.19-21.09,30.54-5.2,11.75-8.49,24.32-10.75,36.33-.29,1.5-.56,3.07-.87,5.07s-.6,4-.95,6.68a2.21,2.21,0,0,0-.05.25c-.43,3.67-.79,7.65-1.08,10.75l-.1,1.08,0,.28a15.69,15.69,0,0,0,.82,7,11.31,11.31,0,0,0,3.5,4.76c6.46,5.28,18.55,5.27,23.85,5.09v23.27H494.56V417.12a3.16,3.16,0,1,0-6.31,0v15.64H475.76V417.12a3.16,3.16,0,1,0-6.31,0v18.8a3.16,3.16,0,0,0,3.16,3.15H509.9v9.87l-41.55,0A3.14,3.14,0,0,0,465.2,452l0,16.95-19.41,0V446.48a3.16,3.16,0,0,0-6.32,0V469h-6.24a2.42,2.42,0,0,0-.38,0h-16.7V434.83c6.33.27,24,.75,33.06-6.65a14.26,14.26,0,0,0,4.44-6,20.3,20.3,0,0,0,1.06-9.09,2.36,2.36,0,0,0,0-.28l-.14-1.58c-.39-4.19-.88-9.54-1.49-14.67a2,2,0,0,0,0-.26c-.49-3.69-.91-6.62-1.31-9.18s-.79-4.83-1.18-6.92c-3.08-16.35-7.57-33.46-14.64-49.45-6.89-15.59-16.23-30.12-29.09-41.87a7.58,7.58,0,0,0,.24-1.17,13.2,13.2,0,0,0-1-5.94,30.42,30.42,0,0,0-6.46-10.64,25.17,25.17,0,0,0-9.8-6.52l-.41-.14,5.71-3.93a5.34,5.34,0,0,0,1.84-2.14,5.83,5.83,0,0,0-.58-5.58A15.94,15.94,0,0,0,393,249a27.86,27.86,0,0,0-7.85-4.69l4.91-6.4a5.26,5.26,0,0,0,.92-1.77c.69-2.23-.05-4.77-1.52-7.1a21.14,21.14,0,0,0-4.72-5.16A12.89,12.89,0,0,0,381,221.8h0a3,3,0,0,0-.84-.16l-1.85-.08,0-30.37a3.15,3.15,0,0,0-6.29,0l0,30.34-2.36.11a2.93,2.93,0,0,0-.87.14,11.28,11.28,0,0,0-3.11,1.58,20.45,20.45,0,0,0-5.16,5.32c-1.61,2.44-2.45,5.15-1.72,7.51a5.42,5.42,0,0,0,.76,1.59l4.63,6.66a28.34,28.34,0,0,0-7.47,4.55,15.91,15.91,0,0,0-3.36,3.79,5.81,5.81,0,0,0-.58,5.58,5.34,5.34,0,0,0,1.84,2.14l6.07,4.18a25,25,0,0,0-8.23,5.13,30.33,30.33,0,0,0-7.75,11.93,13.4,13.4,0,0,0-1,5.89c-13.69,12.43-23.71,28.28-31,45.21-9.68,22.38-14.63,46.6-17.1,67.22-.22,1.86-.61,6.07-1,9.91l-.26,2.8,0,.28a20.13,20.13,0,0,0,1.05,9.09,14.29,14.29,0,0,0,4.44,6c9.39,7.69,28.16,6.87,33.76,6.62h.31v34.26H319.15a2.3,2.3,0,0,0-.37,0h-6.2V446.48a3.16,3.16,0,0,0-6.31,0V469l-19.4,0V452.24h0a3.14,3.14,0,0,0-3.14-3.15H242.12v-10h37.3a3.15,3.15,0,0,0,3.15-3.15v-18.8a3.16,3.16,0,1,0-6.31,0v15.64H263.78V417.12a3.16,3.16,0,1,0-6.32,0v15.64H242.12V409.49c5.3.18,17.4.2,23.85-5.09a11.31,11.31,0,0,0,3.5-4.76,15.52,15.52,0,0,0,.83-7,2.89,2.89,0,0,0,0-.29l-.1-1.08c-.28-3.11-.65-7.08-1.08-10.74a2,2,0,0,0,0-.26c-.35-2.67-.66-4.8-1-6.67s-.59-3.58-.87-5.08c-2.26-12-5.56-24.58-10.75-36.33-5-11.34-11.8-21.93-21.1-30.54l.06-.32c0-.05,0-.09,0-.14a10.33,10.33,0,0,0-.78-4.73,23.26,23.26,0,0,0-4.9-8.08,19.27,19.27,0,0,0-6.29-4.49l2.86-2A4.81,4.81,0,0,0,228,280a5,5,0,0,0-.47-4.86,12.21,12.21,0,0,0-2.63-3,22.09,22.09,0,0,0-4.95-3.14l2.92-3.79a5,5,0,0,0,.81-1.57,7.25,7.25,0,0,0-1.2-5.89,16.21,16.21,0,0,0-3.66-4,10,10,0,0,0-3-1.64A3.11,3.11,0,0,0,215,252l-.54,0Zm-6.32-38.66v17.34c-11.24,3.86-19.79,2-28.06.3-5.57-1.19-11-2.34-17.25-2a9,9,0,0,1-3,0c-.17-.12-.26-.8-.22-2.44,0-.12,0-.23,0-.34V209.83a.94.94,0,0,1,.22-.43c.08-.11.06-.17.09-.17,7.34-1.6,13.44-.1,19.69,1.44,8,2,16.22,4,27.7.75a1.08,1.08,0,0,1,.63.08.16.16,0,0,1,.07.07,1,1,0,0,1,0,.21c0,.32.07.79.09,1.51Zm27.71,235.8H186.56v-10H235.8Zm104.34,26.29h69.7v16h-69.7Zm69.7-6.31H397.56V446.49a3.16,3.16,0,1,0-6.31,0v22.57H360.81V446.49a3.16,3.16,0,1,0-6.31,0v22.57H340.14V408.79c0-6.62,3.11-11.86,8-15.7l5.75-3.39a3.31,3.31,0,0,0,.52-.38,42.11,42.11,0,0,1,5.9-2.16,55.72,55.72,0,0,1,29.37,0,42.11,42.11,0,0,1,5.9,2.16,2.82,2.82,0,0,0,.51.38l5.75,3.39c4.9,3.84,8,9.08,8,15.7Zm155.59-20L516.19,449v-9.88h49.24ZM196.18,376.35a2.8,2.8,0,0,0,.4-.27,29.63,29.63,0,0,1,4.09-1.5,39.8,39.8,0,0,1,21,0,29.16,29.16,0,0,1,4.09,1.5,3.51,3.51,0,0,0,.4.27l4.11,2.42a13.41,13.41,0,0,1,5.52,10.8v43.2h-7.27V417.13a3.16,3.16,0,0,0-6.32,0v15.64H201.66V417.13a3.16,3.16,0,1,0-6.31,0v15.64h-8.79v-43.2a13.39,13.39,0,0,1,5.53-10.8l4.1-2.42Zm-8.05-2.55L176,381a289.58,289.58,0,0,1,5.93-35.8c3.36-14.12,8.06-27.52,14.62-37.37,1.05.24,2.17.45,3.35.63a83.56,83.56,0,0,0,23.07,0c.8-.12,1.57-.26,2.32-.41,6.45,9.67,11,21.85,14.27,34.58a248.13,248.13,0,0,1,6.3,38.07l-11.63-6.85a31.89,31.89,0,0,0-10.83-5.28,45.85,45.85,0,0,0-24.45,0,31.75,31.75,0,0,0-10.82,5.28Zm-12.88,14.88,5.38-3.17a20.48,20.48,0,0,0-.4,4.06v13.59c-1.32,0-3.47.13-5.92.06.19-4.34.5-9.25.94-14.54Zm66.86.89a20.48,20.48,0,0,0-.4-4.06l4.76,2.81q.24,3.44.39,6.62c0,.93.2,2.89.36,4.95.09,1.16.18,2.33.25,3.33-2.11.07-4,0-5.36,0Zm-31-61.06a14.89,14.89,0,0,0-8,2.21,7.63,7.63,0,0,0,0,13.47,15.54,15.54,0,0,0,16,0,7.63,7.63,0,0,0,0-13.47A15,15,0,0,0,211.14,328.51ZM206.57,336a9.46,9.46,0,0,1,9.15,0c.71.47,1.16,1,1.16,1.46s-.45,1-1.16,1.46a8.61,8.61,0,0,1-4.58,1.18,8.46,8.46,0,0,1-4.57-1.18c-.72-.47-1.17-1-1.17-1.46S205.85,336.47,206.57,336ZM262,399.51c-2,1.66-5,2.6-8.21,3.12-.07-1-.16-2.11-.24-3.21-.17-2.23-.33-4.35-.35-4.78-.76-15.11-2.71-34.9-7.48-53.62-3.07-12-7.31-23.62-13.15-33.35a86.17,86.17,0,0,1,18.14,27.05A159.61,159.61,0,0,1,261,369.67c.31,1.62.58,3.17.85,4.88s.57,3.82.93,6.53c0,.06,0,.12,0,.18.51,4.26.83,7.8,1.09,10.57l.1,1.1a1.21,1.21,0,0,0,0,.19,9.58,9.58,0,0,1-.41,4.25,5.14,5.14,0,0,1-1.62,2.15ZM168,402.66c-3.23-.52-6.33-1.46-8.38-3.15a5.2,5.2,0,0,1-1.63-2.14,9.77,9.77,0,0,1-.4-4.25c0-.07,0-.13,0-.2l.18-2c.23-2.51.48-5.26.7-7.09,1.76-14.68,5.26-31.87,12.07-47.62,4.55-10.5,10.58-20.39,18.57-28.48-5.92,10.1-10.24,22.76-13.37,36-5,21-7,43.51-7.74,59Zm39.39-120.38-6.81-4.69q.31-.31.72-.66a13.44,13.44,0,0,1,4.68-2.66l5-.16,5,.16a13.28,13.28,0,0,1,4.68,2.66,9.47,9.47,0,0,1,.71.66l-6.8,4.69c-.95,0-2,0-3.24,0-1.67,0-3,0-4,0ZM211,267.82l-2.16.07-4.25-6.11.56-.84a9.38,9.38,0,0,1,2.34-2.4,5.7,5.7,0,0,1,.51-.32l3.09-.13,3.11.13a6.55,6.55,0,0,1,.78.52,9.37,9.37,0,0,1,2.17,2.36,4.59,4.59,0,0,0,.47.6l-4.74,6.17-1.71-.05Zm.48,35.07a72.7,72.7,0,0,1-10.6-.73,26.24,26.24,0,0,1-6.92-1.81c-.19-.09-.23.15-.24,0v0a6.72,6.72,0,0,1,.49-1.87,16.57,16.57,0,0,1,4.23-6.5,12.53,12.53,0,0,1,6-3.17,11.26,11.26,0,0,1,1.72-.19c1-.05,2.53-.08,5.29-.08a62.44,62.44,0,0,1,6.26.22,9.84,9.84,0,0,1,2.44.53,13,13,0,0,1,5,3.37,16.59,16.59,0,0,1,3.54,5.82,5.79,5.79,0,0,1,.48,1.89v0c0,.06-.06-.16-.24-.07a26.13,26.13,0,0,1-6.92,1.81,72.56,72.56,0,0,1-10.59.73ZM543.9,230.61V213.28a13.39,13.39,0,0,1,.1-1.51,1.12,1.12,0,0,1,0-.2.11.11,0,0,1,.08-.07.91.91,0,0,1,.62-.08c11.48,3.23,19.71,1.21,27.7-.76,6.26-1.54,12.35-3,19.69-1.44,0,0,0,.06.1.18a1,1,0,0,1,.22.43v16.28c0,.11,0,.23,0,.34,0,1.64-.05,2.32-.23,2.44a9,9,0,0,1-3,.05c-6.22-.37-11.68.79-17.25,2-8.27,1.75-16.82,3.57-28.06-.3Zm11.5,145.46a2.63,2.63,0,0,0,.4.28l4.11,2.42a13.42,13.42,0,0,1,5.53,10.8v43.2h-8.79V417.12a3.16,3.16,0,0,0-6.32,0v15.65H529.79V417.12a3.16,3.16,0,0,0-6.31,0v15.65H516.2v-43.2a13.42,13.42,0,0,1,5.53-10.8l4.1-2.42a1.91,1.91,0,0,0,.4-.28,31,31,0,0,1,4.09-1.49,39.8,39.8,0,0,1,21,0,30.45,30.45,0,0,1,4.09,1.49Zm16,9.44,5.38,3.17c.45,5.29.75,10.2.95,14.54-2.46.07-4.6,0-5.93-.06V389.57a20.3,20.3,0,0,0-.4-4.05ZM576,381l-12.13-7.15A31.66,31.66,0,0,0,553,368.52a45.88,45.88,0,0,0-24.46,0,31.66,31.66,0,0,0-10.82,5.28l-11.63,6.85a249.61,249.61,0,0,1,6.29-38.08c3.25-12.72,7.83-24.9,14.28-34.57.74.15,1.52.28,2.32.41a83.49,83.49,0,0,0,23.06,0q1.78-.27,3.36-.63c6.55,9.85,11.26,23.24,14.62,37.37A291.47,291.47,0,0,1,576,381Zm-65.72,4.56a20.49,20.49,0,0,0-.39,4.06v13.62c-1.36.05-3.25.09-5.37,0,.07-1,.16-2.17.25-3.32.16-2.06.31-4,.36-4.95q.15-3.18.39-6.62Zm30.58-50.69a8.49,8.49,0,0,1,4.57,1.18c.72.47,1.16,1,1.16,1.46s-.44,1-1.16,1.46a9.46,9.46,0,0,1-9.15,0c-.72-.47-1.16-1-1.16-1.46s.44-1,1.16-1.46A8.59,8.59,0,0,1,540.85,334.82Zm8-4.1a15.6,15.6,0,0,0-16,0,7.63,7.63,0,0,0,0,13.47,15.54,15.54,0,0,0,16,0,7.63,7.63,0,0,0,0-13.47Zm-50.62,71.91c-3.16-.52-6.19-1.46-8.2-3.12a5.2,5.2,0,0,1-1.63-2.14,9.77,9.77,0,0,1-.4-4.25,1.34,1.34,0,0,0,0-.2l.1-1.09c.26-2.77.58-6.32,1.08-10.58a1,1,0,0,0,0-.18c.35-2.7.65-4.78.92-6.53s.55-3.25.85-4.88c2.18-11.57,5.35-23.67,10.33-34.94a86.35,86.35,0,0,1,18.15-27.06c-5.84,9.73-10.08,21.34-13.15,33.35-4.78,18.72-6.73,38.51-7.48,53.63,0,.43-.18,2.55-.36,4.77-.08,1.1-.17,2.23-.24,3.22Zm94.11-3.12c-2.06,1.69-5.15,2.63-8.39,3.15-.71-15.45-2.74-38-7.74-59-3.13-13.19-7.45-25.85-13.37-35.95,8,8.08,14,18,18.57,28.48,6.81,15.75,10.31,32.94,12.07,47.61.22,1.83.47,4.58.7,7.09l.18,2c0,.06,0,.13,0,.19a9.75,9.75,0,0,1-.4,4.25,5.17,5.17,0,0,1-1.63,2.15Zm-41-121.92-6.81,4.69c-1,0-2.33,0-4,0-1.22,0-2.29,0-3.23,0l-6.81-4.69c.21-.21.45-.44.71-.66a13.32,13.32,0,0,1,4.68-2.67l5-.15,5,.15a13.32,13.32,0,0,1,4.68,2.67c.26.22.5.45.71.66Zm-8.17-9.71-2.17-.06h-.17l-1.7.05-4.75-6.17a3.39,3.39,0,0,0,.47-.6,9.75,9.75,0,0,1,2.17-2.36,6.57,6.57,0,0,1,.79-.52l3.1-.13,3.1.13.5.32a9.22,9.22,0,0,1,2.34,2.4l.56.84-4.24,6.11Zm8,34.27a77.25,77.25,0,0,1-21.19,0,25.8,25.8,0,0,1-6.92-1.8c-.18-.09-.22.13-.24.07v0a6.11,6.11,0,0,1,.48-1.9,16.56,16.56,0,0,1,3.54-5.81,13.14,13.14,0,0,1,5-3.38,10.41,10.41,0,0,1,2.44-.52,59.48,59.48,0,0,1,6.26-.22c2.76,0,4.34,0,5.29.07a10.91,10.91,0,0,1,1.72.2,12.53,12.53,0,0,1,6,3.17,16.43,16.43,0,0,1,4.23,6.5,6.76,6.76,0,0,1,.49,1.86v0c0,.1-.05-.13-.24,0a25.91,25.91,0,0,1-6.92,1.8Zm-207,86-18.73,11a401.32,401.32,0,0,1,8.37-51.41c4.7-19.77,11.33-38.51,20.62-52.18,1.62.38,3.39.72,5.28,1a112.32,112.32,0,0,0,31.22,0c1.36-.2,2.65-.44,3.88-.7C404,309.33,410.4,326.37,415,344.18a346.77,346.77,0,0,1,8.84,54.54l-18-10.61a42.14,42.14,0,0,0-14.4-7,61.49,61.49,0,0,0-32.82,0,42.23,42.23,0,0,0-14.4,7Zm-18.94,18.45L335,400.8a25.9,25.9,0,0,0-1.21,8v19.71l-.59,0c-1.94.08-5.65.24-9.9.06.27-6.4.72-13.78,1.41-21.77a2.55,2.55,0,0,0,.5-.24Zm90.91,2.21a26.15,26.15,0,0,0-1.21-8l9.46,5.58c.24,3.36.43,6.6.58,9.69.06,1.17.27,3.89.49,6.74.16,2.07.32,4.2.43,5.75-4.07.19-7.67.06-9.75,0V408.78ZM404,367.68a3.16,3.16,0,0,0,0-6.31H344.74a3.16,3.16,0,1,0,0,6.31Zm-29.06-41.29a19.08,19.08,0,0,0-10.32,2.84c-3.09,2-5,4.92-5,8.24s1.92,6.23,5,8.24a20.17,20.17,0,0,0,20.64,0c3.1-2,5-4.92,5-8.24s-1.91-6.23-5-8.24A19.08,19.08,0,0,0,374.94,326.39Zm-6.89,8.12a14,14,0,0,1,13.79,0,3.13,3.13,0,0,1,0,5.92,14,14,0,0,1-13.79,0,3.13,3.13,0,0,1,0-5.92ZM349.38,557.62a3.16,3.16,0,1,0,0,6.32h53.28a3.16,3.16,0,0,0,0-6.32Zm-59.49-19.8a3.16,3.16,0,0,0,0,6.31H462.14a3.16,3.16,0,1,0,0-6.31ZM230.41,518a3.16,3.16,0,1,0,0,6.31H521.64a3.16,3.16,0,0,0,0-6.31Zm214.8-94.72c-3.2,2.62-8.08,4-13,4.7-.12-1.6-.27-3.66-.42-5.65-.24-3-.45-5.89-.49-6.56-1-20.62-3.69-47.62-10.21-73.15-4.52-17.71-10.9-34.76-19.89-48.6q.69-.28,1.29-.57c12.19,11.11,21.06,24.94,27.63,39.81,6.86,15.51,11.22,32.15,14.21,48.06.42,2.21.79,4.33,1.17,6.72s.79,5.3,1.28,9c0,.06,0,.12,0,.18.68,5.73,1.13,10.65,1.49,14.5l.14,1.58c0,.07,0,.13,0,.2a14.38,14.38,0,0,1-.63,6.33,8.22,8.22,0,0,1-2.56,3.41ZM317.05,428c-5-.69-10.05-2.07-13.31-4.74a8.19,8.19,0,0,1-2.57-3.42,14.33,14.33,0,0,1-.63-6.32c0-.07,0-.13,0-.2.08-.88.17-1.84.26-2.81.32-3.5.66-7.33.95-9.74,2.42-20.16,7.23-43.79,16.61-65.47,6.87-15.87,16.19-30.71,28.83-42.41.29.17.59.34.92.5l.14.07c-9.28,14.25-15.89,33.07-20.58,52.79-7,29.26-9.72,60.63-10.63,81.75Zm52.46-164.88-10.67-7.35a10,10,0,0,1,1.91-2,19.16,19.16,0,0,1,7-3.91l7.06-.22,7.06.22a19.31,19.31,0,0,1,7,3.91,10.61,10.61,0,0,1,1.91,2l-10.67,7.35c-1.37,0-2.94-.07-4.76-.07-2.5,0-4.37,0-5.82.07Zm5.2-19.8-3.59.1-6.39-9.19a4.82,4.82,0,0,1,1-2.13,14.15,14.15,0,0,1,3.51-3.6,7.09,7.09,0,0,1,1.06-.62l4.53-.21,4.53.21a7.92,7.92,0,0,1,1.5.94,14.32,14.32,0,0,1,3.25,3.52,4.7,4.7,0,0,1,.84,1.82l-7.12,9.24-2.92-.09h-.17Zm.62,48a100.42,100.42,0,0,1-14.68-1,36.65,36.65,0,0,1-9.79-2.58c-.68-.33-.95-.59-1-.83a8.43,8.43,0,0,1,.71-3.12,23.87,23.87,0,0,1,6.09-9.37,18.34,18.34,0,0,1,8.82-4.63,16.21,16.21,0,0,1,2.53-.28c1.35-.08,3.53-.11,7.29-.11a85.38,85.38,0,0,1,8.7.31,14.85,14.85,0,0,1,3.59.78A18.91,18.91,0,0,1,395,275.4a24.19,24.19,0,0,1,5.11,8.38,8.68,8.68,0,0,1,.71,3.13c0,.24-.3.5-1,.83a36.52,36.52,0,0,1-9.8,2.57,98.81,98.81,0,0,1-14.67,1Z" transform="translate(-141.31 -188.05)"/></svg>