<svg id="Layer_1" data-name="Layer 1" xmlns="http://www.w3.org/2000/svg" viewBox="0 0 445.46 429.21"><path d="M389.62,525.11H371.86a58.16,58.16,0,0,0-58.09,58.09,7.4,7.4,0,1,0,14.8,0,43.29,43.29,0,0,1,43.29-43.29h17.76a43.29,43.29,0,0,1,43.29,43.29,7.4,7.4,0,0,0,14.8,0,58.16,58.16,0,0,0-58.09-58.09Z" transform="translate(-145.14 -161.39)"/><path d="M532.5,525.11H514.74a58.16,58.16,0,0,0-58.09,58.09,7.4,7.4,0,1,0,14.8,0,43.29,43.29,0,0,1,43.29-43.29H532.5a43.29,43.29,0,0,1,43.29,43.29,7.4,7.4,0,1,0,14.8,0,58.16,58.16,0,0,0-58.09-58.09Z" transform="translate(-145.14 -161.39)"/><path d="M476.2,522.59a50.33,50.33,0,0,0,16-13.39,46,46,0,0,0,63,0,49.89,49.89,0,0,0,16.06,13.39,6.38,6.38,0,0,0,3.25.81,7.39,7.39,0,0,0,6.29-3.47,45,45,0,0,0,5.85-32.41,42.15,42.15,0,0,0-18.2-22.72,45.88,45.88,0,0,0-89.24,0A42.57,42.57,0,0,0,461,487a44.46,44.46,0,0,0,5.85,32.41,7.4,7.4,0,0,0,9.4,3.18ZM475,491.51h0a30.12,30.12,0,0,1,14.06-15.39,7.39,7.39,0,0,0,3.85-5.33,31.08,31.08,0,0,1,61.42,0,7.42,7.42,0,0,0,3.77,5.33,30.43,30.43,0,0,1,14.28,15.47,24.13,24.13,0,0,1-1,13.46,23.57,23.57,0,0,1-7.4-11,1.14,1.14,0,0,0,0-.45A7.39,7.39,0,0,0,550.64,492a31,31,0,0,1-53,0,7.39,7.39,0,0,0-6.29-3.55h-1a7.38,7.38,0,0,0-6.14,5.33,23.37,23.37,0,0,1-7.4,11A23.61,23.61,0,0,1,475,491.51Z" transform="translate(-145.14 -161.39)"/><path d="M179.61,312.66a30.32,30.32,0,0,0,23-16.43,53.21,53.21,0,0,0,19.46,3.85,48.45,48.45,0,0,0,8.59-.74,54.39,54.39,0,0,0,45.14-62.08,52.37,52.37,0,0,0-3-10.73,12.52,12.52,0,0,0,2.67-3.26,22.72,22.72,0,0,0,2.07-5c6-16.72-7-41.88-26.34-51.06a67.25,67.25,0,0,0-37-5.18,77.9,77.9,0,0,0-54.54,29.61c-12.5,17.53-15.91,40.4-10.36,67.85l.89,6.36h0a29.65,29.65,0,0,0-4.74,20.57A30.5,30.5,0,0,0,175.47,313a40.94,40.94,0,0,0,4.14-.3Zm74.52-43.73h0a39.38,39.38,0,0,1-51.06,11.32c-1-40.4,24-43.66,46.1-46.39,3.7-.45,7.4-1,10.06-1.49a32.77,32.77,0,0,1,1.92,7.4,39.12,39.12,0,0,1-7,29.15Zm-88,26.05a16,16,0,0,1-6.06-10.51,15.16,15.16,0,0,1,3.47-12.06,7.38,7.38,0,0,0,1.63-5.78l-1.33-9.84c-4.81-23.68-2.22-42.69,7.4-56.53a65.26,65.26,0,0,1,44.4-23.76,59.76,59.76,0,0,1,8.14-.29,49.48,49.48,0,0,1,21.09,4.44c13.32,6.29,22.2,24.12,18.64,32.78a2.3,2.3,0,0,0,0,.74,14.52,14.52,0,0,1-.74,1.78,7.58,7.58,0,0,1-1.7.81,78.62,78.62,0,0,1-13.61,2.44c-22.87,2.82-61.27,7.4-59.2,63.42v8A15,15,0,0,1,166.14,295Z" transform="translate(-145.14 -161.39)"/><path d="M302.6,408.71l-20.13-12.06c1.48-3.48,2.67-6.88,3.55-9.55,3-9,.37-19.24-7.77-31l9.48-1.41h0a7.34,7.34,0,0,0,4.07-2.07l23.82-23.46,17-14.8h0A16.23,16.23,0,0,0,337.53,297l67.41-54.17a7.4,7.4,0,1,0-9.25-11.54L327.09,286a17.19,17.19,0,0,0-14.43,1.85l-40.92,27.46-38.26-2h0a29.38,29.38,0,0,0-4.3-2.44,35.19,35.19,0,0,0-31.59,1,32.32,32.32,0,0,0-16.95,24.85,30,30,0,0,0,0,4.45v69.18a21.19,21.19,0,0,1-3.18,12c-9.4,12.8-10.14,39.59-10.14,47.43V524a7.41,7.41,0,0,0,7.4,7.4h10.73v51.8a7.4,7.4,0,1,0,14.8,0V531.4h44.4v51.8a7.4,7.4,0,1,0,14.8,0V531.4h4.29A20.08,20.08,0,0,0,280,524.81c7.4-8.8,4.51-22.79.74-42.1h0a244.82,244.82,0,0,1-5.92-49.14L287,438.83a16.95,16.95,0,0,0,15.4-30.12Zm-39.37-23.53a8.27,8.27,0,0,0,1.26-2.22,8,8,0,0,0-.37-5.7l-16.8-33.59A159.26,159.26,0,0,1,259,355.51c10.29,11.61,14.8,21.16,12.95,27-.74,2.22-1.55,4.45-2.29,6.52Zm10.21-54.91a7.4,7.4,0,0,0,4.45-1.25l42.91-28.64a2.18,2.18,0,0,1,1.7,0,3.17,3.17,0,0,1,.82.59,1.7,1.7,0,0,1-.37,2.29l-17.39,15.4-22.2,22.19-15.76,2.3c-4.74-5-9.63-9.62-14-13.55Zm-78.14,8.29A17.68,17.68,0,0,1,204.63,325a20.89,20.89,0,0,1,16-1.33l26.72,53.65h-.45l-8.14,4.07-22.2,11L195.15,349v-7.77c0-.89.08-1.78.15-2.67Zm65.12,88.8a236.62,236.62,0,0,0,6,58.23c2.44,12.43,5.18,26.5,2.37,29.6h0a6.94,6.94,0,0,1-4.81,1.18H182.13V469.83c0-13.83,2.22-31.89,7.4-39a36.06,36.06,0,0,0,5.77-20.43V382.22l11.62,23.39a7.39,7.39,0,0,0,9.84,3.32l9.48-4.73,4.51,8.8a7.36,7.36,0,0,0,3.55,3.26Zm35.45-2.89a2.23,2.23,0,0,1-2.74.82l-50.32-21.91-3.33-5.18,8.8-4.36,20.87,12.5,25.6,15.32h0a2.34,2.34,0,0,1,1.11,1.93,2.75,2.75,0,0,1,0,.81Z" transform="translate(-145.14 -161.39)"/><path d="M583.19,161.41H298.38a7.4,7.4,0,0,0-7.4,7.4V271.08a7.4,7.4,0,0,0,14.8,0V176.22h270V343.67H320.44a7.4,7.4,0,1,0,0,14.8H583.2a7.41,7.41,0,0,0,7.4-7.41V168.81a7.39,7.39,0,0,0-7.4-7.39Z" transform="translate(-145.14 -161.39)"/><path d="M534,201.14H376a7.4,7.4,0,1,0,0,14.8H534a7.4,7.4,0,0,0,0-14.8Z" transform="translate(-145.14 -161.39)"/><path d="M534,242.36H434.6a7.4,7.4,0,0,0,0,14.8H534a7.4,7.4,0,0,0,0-14.8Z" transform="translate(-145.14 -161.39)"/><path d="M534,283.65H434.6a7.4,7.4,0,0,0,0,14.8H534a7.4,7.4,0,0,0,0-14.8Z" transform="translate(-145.14 -161.39)"/><path d="M380.74,521.7a46.09,46.09,0,0,0,45.95-46,23.22,23.22,0,0,0,0-2.89,15.14,15.14,0,0,0-.45-4.44h0a46,46,0,0,0-90.73,0,27,27,0,0,0-.36,3.48,26.29,26.29,0,0,0,0,3.55A44.4,44.4,0,0,0,342,499.5a45.52,45.52,0,0,0,38.7,22.2Zm-31-48.1h0a16.48,16.48,0,0,1,0-2.81,31.07,31.07,0,0,1,61.41,0,29.41,29.41,0,0,1,.37,3.62,9.27,9.27,0,0,1,0,1.49,29.63,29.63,0,0,1-4.66,16.2,30.69,30.69,0,0,1-26.49,14.8,31.15,31.15,0,0,1-31.15-31.15,13.21,13.21,0,0,1,.52-2.15Z" transform="translate(-145.14 -161.39)"/></svg>