<svg id="Capa_1" enable-background="new 0 0 512.168 512.168" height="512" viewBox="0 0 512.168 512.168" width="512" xmlns="http://www.w3.org/2000/svg"><g><g><path d="m164.404 113.964c-3.79-1.668-8.217.052-9.886 3.843-6.206 14.099-9.352 29.118-9.352 44.641 0 61.161 49.758 110.918 110.918 110.918s110.918-49.758 110.918-110.918-49.758-110.918-110.918-110.918c-30.445 0-59.881 12.716-80.762 34.889-2.84 3.016-2.697 7.762.318 10.602s7.762 2.698 10.602-.318c18.323-19.457 43.127-30.172 69.842-30.172 52.89 0 95.918 43.029 95.918 95.918 0 52.89-43.029 95.918-95.918 95.918s-95.918-43.029-95.918-95.918c0-13.429 2.719-26.416 8.081-38.598 1.668-3.792-.052-8.218-3.843-9.887z"/><path d="m418.533 162.448c0-89.574-72.874-162.448-162.449-162.448s-162.449 72.874-162.449 162.448c0 75.642 52.391 141.2 125.446 158.203v32.015h-16.226c-20.403 0-37.003 16.599-37.003 37.002s16.6 37.003 37.003 37.003h16.226v48.495c0 20.403 16.599 37.002 37.002 37.002s37.002-16.599 37.002-37.002v-8.488c0-4.142-3.358-7.5-7.5-7.5s-7.5 3.358-7.5 7.5v8.488c0 12.132-9.87 22.002-22.002 22.002s-22.002-9.87-22.002-22.002v-55.995c0-4.142-3.358-7.5-7.5-7.5h-23.726c-12.132 0-22.003-9.871-22.003-22.003s9.871-22.002 22.003-22.002h23.726c4.142 0 7.5-3.358 7.5-7.5v-45.586c0-3.595-2.55-6.684-6.08-7.364-69.166-13.335-119.366-74.219-119.366-144.767 0-81.304 66.146-147.449 147.449-147.449s147.449 66.145 147.449 147.448c0 70.548-50.201 131.432-119.366 144.767-3.53.68-6.08 3.77-6.08 7.364v45.586c0 4.142 3.358 7.5 7.5 7.5h23.726c12.132 0 22.003 9.87 22.003 22.002s-9.871 22.003-22.003 22.003h-23.726c-4.142 0-7.5 3.358-7.5 7.5v12.673c0 4.142 3.358 7.5 7.5 7.5s7.5-3.358 7.5-7.5v-5.173h16.226c20.403 0 37.003-16.6 37.003-37.003s-16.6-37.002-37.003-37.002h-16.226v-32.015c73.055-17.002 125.446-82.56 125.446-158.202z"/></g></g></svg>