<svg id="Layer_1" data-name="Layer 1" xmlns="http://www.w3.org/2000/svg" viewBox="0 0 201.6 248.39"><defs><style>.cls-1{font-size:125px;fill:#231f20;font-family:Effra-Bold, Effra;font-weight:700;}</style></defs><path d="M221.6,44.07a3.69,3.69,0,0,0,3.69-3.69V4.13A3.69,3.69,0,0,0,221.6.44H27.39A3.69,3.69,0,0,0,23.7,4.13v241a3.69,3.69,0,0,0,3.69,3.69H80.91a3.69,3.69,0,0,0,0-7.38H55.11V224.8h162.8v16.66H95.67a3.69,3.69,0,1,0,0,7.38H221.6a3.69,3.69,0,0,0,3.69-3.69v-190a3.69,3.69,0,0,0-7.38,0V217.42H201.26V7.82h16.65V40.38a3.69,3.69,0,0,0,3.69,3.69ZM31.08,7.82h162.8V24.48H31.08Zm0,24H47.74v209.6H31.08Zm24,185.56V31.86H193.88V217.42Zm0,0" transform="translate(-23.7 -0.44)"/><path d="M212.65,14.1a3.69,3.69,0,1,0-.51,4.71,3.74,3.74,0,0,0,.51-4.71Zm0,0" transform="translate(-23.7 -0.44)"/><path d="M42.81,14.74a3.69,3.69,0,1,0-1.35,4.48,3.74,3.74,0,0,0,1.35-4.48Zm0,0" transform="translate(-23.7 -0.44)"/><path d="M206.52,235.18a3.69,3.69,0,1,0,.52-4.72,3.72,3.72,0,0,0-.52,4.72Zm0,0" transform="translate(-23.7 -0.44)"/><path d="M42.81,231.72a3.69,3.69,0,1,0-1.43,4.52,3.71,3.71,0,0,0,1.43-4.52Zm0,0" transform="translate(-23.7 -0.44)"/><text class="cls-1" transform="translate(66.89 161.78)">7</text></svg>