<?xml version="1.0" encoding="utf-8"?>
<!-- Svg Vector Icons : http://www.onlinewebfonts.com/icon -->
<!DOCTYPE svg PUBLIC "-//W3C//DTD SVG 1.1//EN" "http://www.w3.org/Graphics/SVG/1.1/DTD/svg11.dtd">
<svg version="1.1" xmlns="http://www.w3.org/2000/svg" xmlns:xlink="http://www.w3.org/1999/xlink" x="0px" y="0px" viewBox="0 0 1000 1000" enable-background="new 0 0 1000 1000" xml:space="preserve">
<metadata> Svg Vector Icons : http://www.onlinewebfonts.com/icon </metadata>
<g><g transform="translate(0.000000,411.000000) scale(0.100000,-0.100000)"><path d="M4233.6,3031.8c-151.3-23-331.3-72.8-450.1-126.4c-256.6-113-528.6-339-678-563c-38.3-57.5-247.1-448.1-465.4-871.4c-243.2-473-404.1-766.1-421.3-764.1c-13.4,1.9-59.4,17.2-101.5,32.6c-44,17.2-139.8,28.7-224.1,30.6c-214.5,0-337.1-49.8-484.5-199.2c-107.3-109.2-151.3-191.5-693.3-1250.6C342.1-1407.5,127.6-1848,114.2-1913.1c-49.8-233.7,34.5-496,210.7-653.1c136-120.6,3129.3-1654.7,3286.4-1683.4c220.2-40.2,448.1,34.5,612.8,203c82.3,84.3,172.4,247.1,672.2,1225.7c317.9,622.4,586,1158.7,599.4,1195.1c34.5,107.2,26.8,331.3-19.2,452c-44,118.7-197.3,298.8-296.8,350.5l-63.2,32.6L5518.7-9.5c407.9,796.7,476.9,953.7,517.1,1197c23,134.1,21.1,137.9-23,176.2c-107.3,90-210.7,122.6-381.1,124.5h-162.8l-15.3-134.1c-7.7-72.8-26.8-176.2-44-229.8c-23-70.9-790.9-1599.1-821.6-1633.6c-5.7-5.8-1729.4,875.2-1788.7,913.5c-21.1,13.4,59.4,183.9,373.5,798.6c394.5,773.7,402.2,785.2,543.9,928.8c160.9,160.9,316,250.9,507.5,291.1c84.3,17.2,159,53.6,283.4,134.1c174.3,118.7,394.5,220.2,565,262.4c53.6,15.3,99.6,32.6,99.6,40.2c0,19.2-235.6,111.1-369.6,141.7C4653,3035.6,4371.5,3050.9,4233.6,3031.8z M2661.3-486.3c84.3-26.8,193.4-99.6,256.6-170.4c91.9-105.3,166.6-323.7,166.6-488.4v-74.7l101.5,67c128.3,84.3,256.6,122.6,415.6,122.6c226,0,442.4-145.5,543.9-361.9c30.6-69,40.2-124.5,40.2-260.5c0-212.6-44-314.1-201.1-469.2c-183.9-183.8-455.8-312.2-890.5-421.3c-260.5-67-620.5-120.7-687.5-103.4c-78.5,19.2-157,126.4-277.7,377.3c-181.9,377.3-289.2,722-316,1009.3C1761.2-710.4,2176.8-331.2,2661.3-486.3z"/><path d="M5277.4,2463c-775.6-172.4-1315.7-888.6-1267.8-1679.6c13.4-214.5,42.1-342.8,120.7-526.7c47.9-113,59.4-124.5,164.7-178.1c63.2-32.6,116.8-55.5,118.7-51.7c3.8,3.8,61.3,113,130.2,245.1l122.6,239.4l-26.8,86.2c-15.3,49.8-28.7,168.5-30.6,277.7c-1.9,153.2,7.7,216.4,42.1,319.8c250.9,725.8,1151,940.3,1687.2,400.3c122.6-122.6,137.9-151.3,524.7-926.9c218.3-440.5,396.4-808.2,396.4-815.8c0-7.7-329.4-176.2-731.6-375.4c-404.1-197.3-735.4-362-739.2-363.9c-3.8-3.8,11.5-40.2,32.6-80.4c109.2-214.5,128.3-587.9,42.1-810.1c-21.1-57.5-206.8-430.9-411.7-831.2L5082-3332.2l281.5-578.4c358.1-731.6,423.3-808.2,735.4-886.7c237.5-57.5,203-70.9,1926.6,777.6c850.3,419.4,1578.1,787.1,1614.5,813.9c164.7,126.4,273.9,381.1,258.6,595.6c-13.4,147.5-30.6,189.6-672.2,1484.2C8667.1,2,8657.6,17.4,8435.4,122.7c-189.6,88.1-327.5,90-593.7,5.7c-36.4-11.5-74.7,53.6-436.7,785.2c-216.4,440.5-432.8,852.2-478.8,917.3c-191.5,268.1-486.4,480.7-815.8,589.9c-158.9,51.7-212.6,59.4-440.5,65.1C5484.2,2491.7,5373.1,2484.1,5277.4,2463z M7782.3-1068.5c507.5-189.6,549.6-823.5,118.7-1714.1c-218.3-446.2-247.1-469.2-542-421.3c-601.4,95.8-1061,272-1300.4,494.1c-168.5,159-220.2,264.3-231.7,475c-7.7,149.4-3.8,176.2,44.1,283.4c57.5,128.3,166.6,241.3,300.7,312.2c68.9,36.4,111.1,44,254.7,44c143.6-1.9,189.6-9.6,277.7-49.8c57.5-26.8,134.1-72.8,168.5-101.5l61.3-53.6v78.5c0,321.7,181.9,587.9,459.6,674.1C7487.4-1018.7,7677-1030.2,7782.3-1068.5z"/></g></g>
</svg>