<svg id="Layer_1" enable-background="new 0 0 512 512" height="512" viewBox="0 0 512 512" width="512" xmlns="http://www.w3.org/2000/svg"><g><g><path d="m499.177 273.916c-6.349-12.823-18.449-23.541-35.267-31.585l-88.25-152.853c-10.997-19.047-32.258-27.387-55.494-21.763l-34.443 8.338c-5.368 1.3-8.666 6.705-7.366 12.072 1.299 5.368 6.703 8.665 12.072 7.367l34.443-8.338c5.425-1.314 23.869-4.305 33.468 12.323l76.673 132.8c-4.463-1.088-9.107-2.047-13.929-2.87-32.937-5.615-70.707-4.155-98.573 3.811-30.017 8.579-48.606 30.524-52.336 59.853-4.497-1.644-9.279-2.525-14.174-2.525s-9.678.88-14.175 2.525c-3.73-29.329-22.319-51.274-52.336-59.853-27.866-7.966-65.638-9.426-98.573-3.811-4.822.822-9.466 1.782-13.929 2.87l76.672-132.8c9.601-16.628 28.044-13.637 33.468-12.323l34.443 8.338c5.371 1.301 10.773-1.999 12.072-7.367 1.299-5.367-1.999-10.772-7.366-12.072l-34.443-8.338c-23.234-5.623-44.497 2.716-55.494 21.763l-88.249 152.852c-16.818 8.045-28.918 18.763-35.268 31.586-9.751 19.691-14.077 42.693-12.509 66.518 1.439 21.889 7.956 43.796 18.347 61.686 15.29 26.323 37.774 42.225 61.687 43.627 3.007.177 6.006.265 8.999.265 36.674-.001 72.018-13.17 100.371-37.58 27.216-23.43 45.912-55.015 51.294-86.656.34-1.997.603-3.967.828-5.923 4.012-3.374 8.984-5.304 14.162-5.304s10.15 1.93 14.161 5.304c.226 1.956.489 3.926.828 5.923 5.382 31.642 24.078 63.227 51.294 86.656 28.355 24.411 63.694 37.581 100.371 37.58 2.99 0 5.994-.088 8.999-.265 23.913-1.402 46.396-17.304 61.687-43.627 10.391-17.89 16.907-39.797 18.347-61.686 1.565-23.825-2.761-46.827-12.512-66.518zm-468.431 8.875c7.848-15.85 31.005-28.12 63.532-33.666 1.471-.251 2.953-.484 4.442-.704l-78.679 78.679c.443-14.907 3.676-30.114 10.705-44.309zm10.908 117.981 40.843-40.843c3.905-3.905 3.905-10.237 0-14.143-3.905-3.904-10.237-3.904-14.143 0l-37.115 37.115c-4.036-8.841-7.236-18.875-9.176-29.539l107.334-107.334c.974-.012 1.948-.029 2.92-.029 11.503 0 22.835.838 33.34 2.485l-33.663 33.664c-3.905 3.905-3.905 10.237 0 14.143 1.953 1.952 4.512 2.929 7.071 2.929s5.119-.977 7.071-2.929l42.38-42.381c16.336 5.866 25.146 16.112 29.665 27.05l-143.75 143.75c-11.978-2.894-23.41-11.246-32.777-23.938zm60.335 24.665 120.496-120.497c-.005.828-.022 1.644-.051 2.441-1.482 1.917-2.842 3.957-4.024 6.142-2.104 3.887-1.361 8.547 1.508 11.602-11.342 47.645-56.805 94.627-117.929 100.312zm329.585-173.402-118.115 118.115c-5.728-7.759-10.536-15.971-14.315-24.401l99.023-99.023c6.622.519 13.183 1.313 19.554 2.399 4.834.824 9.454 1.8 13.853 2.91zm-103.568.415c12.432-3.554 27.109-5.657 42.415-6.262l-76.809 76.809c1.527-2.862 1.638-6.408-.021-9.474-1.182-2.185-2.542-4.225-4.024-6.142-.673-18.296 4.559-45.247 38.439-54.931zm-1.5 132.939 126.21-126.21c14.003 6.206 23.921 14.289 28.538 23.612 2.868 5.791 5.102 11.751 6.775 17.79l-115.635 115.634c-17.677-7.215-33.194-17.982-45.888-30.826zm149.539 6.684c-11.86 20.419-28.467 32.705-45.563 33.708-12.76.747-24.983-.307-36.526-2.843l97.915-97.914c1.185 25.108-5.655 49.539-15.826 67.049z"/><path d="m107.246 331.037c5.523 0 10-4.478 10-10s-4.477-10-10-10h-.007c-5.523 0-9.996 4.478-9.996 10s4.48 10 10.003 10z"/></g></g></svg>