<svg id="Capa_1" data-name="Capa 1" xmlns="http://www.w3.org/2000/svg" viewBox="0 0 453.28 480"><path d="M342,16V496H486V16Zm16,464V32H470v80H414v16h56v16H446v16h24v16H414v16h56v16H446v16h24v16H414v16h56v16H446v16h24v16H414v16h56v16H446v16h24v16H414v16h56v16H446v16h24v16H414v16h56v32Z" transform="translate(-32.72 -16)"/><path d="M438,64a24,24,0,1,0-24,24A24,24,0,0,0,438,64Zm-32,0a8,8,0,1,1,8,8A8,8,0,0,1,406,64Z" transform="translate(-32.72 -16)"/><path d="M172.36,29c-77,0-139.64,62.64-139.64,139.64V341.86c0,77,62.65,139.64,139.64,139.64a139.92,139.92,0,0,0,66-16.53A8.84,8.84,0,1,0,230,449.39a122.22,122.22,0,0,1-70.2,13.78A211.35,211.35,0,0,1,222,316.44l72.28-72.28v97.7A120.72,120.72,0,0,1,281.21,397a8.83,8.83,0,1,0,15.76,8,138.18,138.18,0,0,0,15-63.08V168.64C312,91.64,249.36,29,172.36,29ZM74.91,289a193.81,193.81,0,0,0,96.82,64.76,231,231,0,0,0-21.4,51.85C90.16,378.05,50.4,316.81,50.4,250.12v-.93A191.55,191.55,0,0,0,74.91,289ZM50.4,341.86V329.94a189.2,189.2,0,0,0,95.83,93.17A228.7,228.7,0,0,0,142.16,460,122.19,122.19,0,0,1,50.4,341.86Zm159.14-37.92a230,230,0,0,0-28.15,34.14,174.22,174.22,0,0,1-99-68.25,114.12,114.12,0,0,1,28-26.39,97,97,0,0,0,124,0,113,113,0,0,1,19.4,16.26ZM172.36,89.1a10.75,10.75,0,0,1,0,21.5,8.84,8.84,0,0,0,0,17.68,28.44,28.44,0,0,0,27.85-34.15,79.55,79.55,0,1,1-27.85-5Zm122,130.12c-.21.17-.41.36-.61.55L266.28,247.2a129.62,129.62,0,0,0-19.17-16.47,97.23,97.23,0,1,0-149.49,0A132.45,132.45,0,0,0,72.4,254a175.23,175.23,0,0,1-22-85.33,122,122,0,0,1,243.92,0Zm0,0" transform="translate(-32.72 -16)"/><path d="M172.36,218.17a24.06,24.06,0,0,0,17.07-7.06,8.84,8.84,0,0,0-12.5-12.5,6.46,6.46,0,0,1-9.13,0,8.84,8.84,0,0,0-12.51,12.5,24.06,24.06,0,0,0,17.07,7.06Zm0,0" transform="translate(-32.72 -16)"/><path d="M140.14,167.35a8.84,8.84,0,1,0-6.25-2.59,8.9,8.9,0,0,0,6.25,2.59Zm0,0" transform="translate(-32.72 -16)"/><path d="M204.58,167.35a8.84,8.84,0,1,0-6.24-2.59,8.91,8.91,0,0,0,6.24,2.59Zm0,0" transform="translate(-32.72 -16)"/><path d="M265.92,424.43a8.84,8.84,0,1,0,6.24,2.58,8.92,8.92,0,0,0-6.24-2.58Zm0,0" transform="translate(-32.72 -16)"/></svg>