<svg height="512pt" viewBox="0 -38 512 512" width="512pt" xmlns="http://www.w3.org/2000/svg"><path d="m330.558594 232.476562c-2.980469 2.976563-2.980469 7.804688 0 10.785157 11.816406 11.816406 27.332031 17.722656 42.855468 17.722656 15.515626 0 31.039063-5.910156 42.851563-17.722656 2.980469-2.980469 2.980469-7.808594 0-10.785157-2.976563-2.980468-7.804687-2.980468-10.785156 0-17.683594 17.679688-46.453125 17.679688-64.132813 0-2.980468-2.976562-7.808594-2.980468-10.789062 0zm0 0"/><path d="m332.109375 207.148438c4.210937 0 7.625-3.414063 7.625-7.628907v-23.304687c0-4.210938-3.414063-7.625-7.625-7.625-4.214844 0-7.628906 3.414062-7.628906 7.625v23.304687c0 4.214844 3.414062 7.628907 7.628906 7.628907zm0 0"/><path d="m414.71875 207.148438c4.210938 0 7.625-3.414063 7.625-7.628907v-23.304687c0-4.210938-3.414062-7.625-7.625-7.625-4.214844 0-7.628906 3.414062-7.628906 7.625v23.304687c0 4.214844 3.414062 7.628907 7.628906 7.628907zm0 0"/><path d="m474.074219 231.242188c20.980469-.414063 37.925781-17.597657 37.925781-38.675782 0-20.476562-15.996094-37.277344-36.144531-38.59375v-39.675781c0-4.210937-3.414063-7.625-7.628907-7.625-4.210937 0-7.625 3.414063-7.625 7.625l-.003906 40.035156c-52.359375.496094-86.335937-16.015625-105.859375-30.332031-22.121093-16.21875-31.085937-33.222656-31.175781-33.390625-1.917969-3.738281-6.5-5.21875-10.246094-3.3125-3.753906 1.914063-5.246094 6.503906-3.332031 10.257813.214844.421874 3.070313 5.925781 9.34375 13.722656-6.582031 4.683594-18.328125 11.78125-33.105469 15.375v-14.996094c0-44.429688 36.144532-80.570312 80.570313-80.570312h13.238281c34.96875 0 65.75 22.3125 76.59375 55.519531 1.308594 4.003906 5.613281 6.191406 9.617188 4.882812 4.003906-1.304687 6.191406-5.613281 4.882812-9.617187-12.898438-39.5-49.503906-66.039063-91.09375-66.039063h-13.238281c-41.582031 0-77.054688 26.625-90.285157 63.71875-8.121093-6.871093-19.867187-12.382812-30.867187-14.101562-1.3125-5.8125-4.230469-11.15625-8.546875-15.472657-4.410156-4.410156-9.800781-7.246093-15.472656-8.527343-2.601563-16.734375-14-35.210938-25.585938-40.011719-6.140625-2.542969-12.207031-1.4570312-16.644531 2.980469-1.972656 1.972656-3.605469 4.238281-4.914063 6.765625-16.007812-7.328125-33.566406-11.183594-51.304687-11.183594-67.917969 0-123.171875 55.253906-123.171875 123.164062v103.421876c0 4.210937 3.414062 7.625 7.625 7.625 4.214844 0 7.628906-3.414063 7.628906-7.625v-103.421876c0-59.5 48.410156-107.910156 107.917969-107.910156 15.921875 0 31.671875 3.527344 45.957031 10.246094-1.585937 1.96875-3.855468 3.347656-6.496094 3.816406-6.566406 1.164063-12.015624 3.871094-16.1875 8.046875-4.4375 4.433594-5.523437 10.503907-2.976562 16.644531 4.796875 11.582032 23.257812 22.972657 39.988281 25.578126 1.308594 5.816406 4.226563 11.160156 8.546875 15.476562 4.410156 4.410156 9.800782 7.246094 15.472656 8.53125 2.453126 15.777344 12.726563 33.09375 23.605469 39.042969v149.371093h-29.59375c-1.863281-2.207031-3.824219-4.351562-5.894531-6.417968-2.207031-2.210938-4.527344-4.3125-6.933594-6.3125 22.746094-18.964844 36.945313-47.476563 36.945313-78.738282v-50.714843c.007812-.972657-.171875-1.953125-.546875-2.886719-1.199219-3.003906-4.132813-4.867188-7.285156-4.789062-44.648438-.15625-51.933594-50.476563-52.21875-52.605469-.4375-3.351563-3.03125-6.015625-6.367188-6.546875-3.34375-.53125-6.625 1.199218-8.078125 4.25-11.535156 24.171875-36.664063 31.316406-63.265625 38.882812-16.746094 4.761719-32.5625 9.261719-45.058594 18.195313-14.796875 10.578125-22.011718 25.5625-22.054687 45.804687-.003907.058594-.003907.121094-.003907.183594v10.226562c0 31.589844 14.394532 59.90625 36.949219 78.71875-4.683593 3.894532-8.980469 8.160157-12.847656 12.753907h-29.574219v-34.917969c0-4.210938-3.414062-7.625-7.628906-7.625-4.210938 0-7.625 3.414062-7.625 7.625v42.542969c0 4.210937 3.414062 7.628906 7.625 7.628906h26.554688c-8.691407 15.230469-13.449219 32.664063-13.449219 50.761719v70.699218c0 4.210938 3.414062 7.625 7.628906 7.625 4.210937 0 7.625-3.414062 7.625-7.625v-53.835937h32.042969v53.835937c0 4.210938 3.410156 7.625 7.625 7.625s7.625-3.414062 7.625-7.625v-61.460937c0-4.214844-3.410156-7.628906-7.625-7.628906h-39.667969v-1.609375c0-26.230469 11.742187-50.816406 31.777344-67.320313 4.554687 26.359375 27.71875 46.628907 55.207031 46.707031h.445312c.386719 0 .769532-.007812 1.15625-.019531h.128907c3.054687-.082031 6.132812-.417969 9.140625-.996093 23.113281-4.4375 40.8125-23.003907 44.726562-45.691407 2.171875 1.789063 4.257813 3.683594 6.242188 5.667969 16.46875 16.476562 25.539062 38.371094 25.539062 61.652344v1.609375h-39.675781c-4.210937 0-7.625 3.414062-7.625 7.628906v61.460937c0 4.210938 3.414063 7.625 7.625 7.625 4.214844 0 7.628906-3.414062 7.628906-7.625v-53.835937h32.046875v53.835937c0 4.210938 3.414063 7.625 7.625 7.625 4.214844 0 7.628906-3.414062 7.628906-7.625v-70.699218c0-18.09375-4.664062-35.46875-13.417968-50.765625h26.523437c4.214844 0 7.628907-3.414063 7.628907-7.625v-79.574219c6.816406 6.746094 16.121093 10.972656 26.398437 11.179688 3.914063 20.867187 14.175781 39.523437 28.699219 53.882812-19.453125 19.1875-30.460938 45.300781-30.460938 72.886719v70.707031c0 4.210938 3.414063 7.625 7.628906 7.625 2.628907 0 4.953126-1.332031 6.324219-3.363281.820313-1.21875 1.300781-2.683594 1.300781-4.265625v-41.351563h32.046876v41.351563c0 4.210937 3.414062 7.628906 7.628906 7.628906 4.210937 0 7.625-3.417969 7.625-7.628906v-63.011719c0-4.210937-3.414063-7.625-7.625-7.625-4.214844 0-7.628906 3.414063-7.628906 7.625v6.40625h-32.046876v-14.101563c0-23.917968 9.730469-46.535156 26.882813-62.949218 1.457031 1.066406 2.945313 2.09375 4.460937 3.082031.007813 30.789063 25.054688 55.835937 55.839844 55.835937 3.554688 0 7.128906-.34375 10.601563-1.015624 26.199219-5.035157 45.214843-28.0625 45.246093-54.769532 1.523438-.996094 3.019532-2.023437 4.484376-3.09375.4375.421875.894531.835938 1.316406 1.257813 16.472656 16.476562 25.542968 38.375 25.542968 61.652343v14.101563h-32.050781v-6.40625c0-4.210937-3.414062-7.625-7.625-7.625-4.214843 0-7.628906 3.414063-7.628906 7.625v63.011719c0 4.210937 3.414063 7.628906 7.628906 7.628906 4.210938 0 7.625-3.417969 7.625-7.628906v-41.351563h32.046875v41.351563c0 2.371094 1.082032 4.488281 2.777344 5.886718 1.316406 1.089844 3.007812 1.742188 4.851562 1.742188 4.214844 0 7.625-3.414062 7.625-7.625v-70.707031c0-27.355469-10.65625-53.078125-30.003906-72.4375-.144531-.144531-.300781-.28125-.449218-.425781 14.589843-14.445313 24.777343-33.171876 28.675781-53.90625zm-438.09375-30.703126v-10.054687c.003906-.058594.003906-.113281.003906-.175781 0-31.949219 21.292969-39.625 56.035156-49.507813 22.140625-6.296875 46.679688-13.273437 62.914063-31.828125 1.65625 4.632813 3.875 9.792969 6.832031 14.964844 11.167969 19.546875 27.867187 30.867188 48.585937 33.066406v43.535156c0 41.738282-29.699218 77.738282-70.621093 85.601563-4.625.890625-9.359375 1.410156-14.074219 1.546875h-.019531c-.09375 0-.183594 0-.273438.003906-.789062.027344-1.589843.035156-2.441406.027344-47.941406-.089844-86.941406-39.195312-86.941406-87.179688zm94.976562 120.878907c-2.167969.417969-4.378906.660156-6.574219.722656-.070312 0-.144531.003906-.214843.003906-.332031.011719-.664063.019531-1.003907.015625-.039062 0-.078124-.003906-.113281-.003906-17.378906-.03125-32.386719-11.140625-38.238281-26.617188 11.761719 4.765626 24.597656 7.40625 38.03125 7.433594.234375 0 .472656.003906.707031.003906.742188 0 1.480469-.011718 2.214844-.035156.070313 0 .136719-.003906.207031-.003906 5.570313-.152344 11.171875-.765625 16.640625-1.816406 6.574219-1.265625 12.894531-3.167969 18.925781-5.601563-4.90625 13.058594-16.332031 23.164063-30.582031 25.898438zm365.789063-128.851563c0 12.09375-9.203125 22.074219-20.972656 23.3125.039062-1.1875.078124-2.375.078124-3.570312v-18.496094c1.238282.433594 2.363282 1.25 3.003907 2.726562 1.25 2.875 4.054687 4.589844 7 4.589844 1.015625 0 2.046875-.203125 3.035156-.632812 3.863281-1.679688 5.632813-6.175782 3.953125-10.035156-3.039062-6.996094-9.058594-11.304688-16.945312-12.136719-.015626 0-.03125-.003907-.042969-.003907v-9.046874c11.730469 1.273437 20.890625 11.234374 20.890625 23.292968zm-339.308594-144.621094c1.90625-1.808593 4.546875-3.019531 7.855469-3.605468 10.707031-1.898438 19.175781-10.371094 21.074219-21.074219.582031-3.285156 1.785156-5.914063 3.613281-7.855469 4.082031.996094 13.617187 13.300782 16.253906 26.347656-5.21875 1.398438-10.144531 4.132813-14.230469 8.21875-4.007812 4.003907-6.808594 8.894532-8.238281 14.222657-13.042969-2.640625-25.339844-12.175781-26.328125-16.253907zm40.480469 24.574219c0-4.441406 1.730469-8.617187 4.871093-11.757812 3.242188-3.242188 7.5-4.863281 11.761719-4.863281 4.257813 0 8.515625 1.621093 11.757813 4.863281 3.140625 3.140625 4.871094 7.316406 4.871094 11.757812 0 4.445313-1.730469 8.621094-4.871094 11.761719-6.484375 6.480469-17.035156 6.484375-23.519532 0-3.140624-3.144531-4.871093-7.320312-4.871093-11.761719zm24.949219 30.761719c5.214843-1.398438 10.144531-4.132812 14.226562-8.214844 4.007812-4.007812 6.808594-8.894531 8.238281-14.226562 13.042969 2.640625 25.339844 12.175781 26.328125 16.253906-1.90625 1.808594-4.546875 3.023438-7.855468 3.609375-10.707032 1.894531-19.175782 10.363281-21.074219 21.070313-.582031 3.285156-1.785157 5.914062-3.613281 7.855468-4.082032-.992187-13.617188-13.296875-16.25-26.347656zm23.46875 39.902344c1.199218-.667969 2.332031-1.519532 3.371093-2.5625 4.171875-4.171875 6.878907-9.617188 8.042969-16.183594.796875-4.496094 4.21875-7.917969 8.714844-8.714844 1.566406-.277344 3.066406-.648437 4.503906-1.101562v39.351562c-9.574219.628906-18.207031 4.746094-24.632812 11.101563zm3.753906 49.378906c0-12.054688 9.15625-22.007812 20.878906-23.289062v8.96875c-8.828125.890624-14.453125 6.390624-16.988281 12.214843-1.679688 3.859375.089843 8.355469 3.949219 10.035157.992187.429687 2.023437.636718 3.039062.636718 2.945312 0 5.75-1.714844 7-4.585937.640625-1.476563 1.746094-2.300781 3.003906-2.734375v18.5c0 1.195312.03125 2.382812.070313 3.566406-11.761719-1.246094-20.953125-11.222656-20.953125-23.3125zm36.136718 19.746094v-64.570313c0-.035156-.003906-.066406-.003906-.097656v-5.359375c19.972656-4.066406 35.488282-13.785156 43.421875-19.636719 4.296875 4.230469 9.367188 8.675781 15.304688 13.085938 21.179687 15.738281 57.667969 33.878906 113.34375 33.878906.757812 0 1.535156-.015625 2.304687-.023437v42.722656c0 41.738281-29.699218 77.742187-70.621094 85.605468-5.425781 1.046876-11 1.578126-16.566406 1.578126-48.074218 0-87.183594-39.109376-87.183594-87.183594zm94.898438 125.675781c-2.535156.492187-5.128906.738281-7.714844.738281-19.421875 0-35.691406-13.714844-39.65625-31.96875 12.203125 5.144532 25.601563 7.992188 39.65625 7.992188 6.53125 0 13.078125-.625 19.445313-1.851563 7.046875-1.355469 13.804687-3.4375 20.214843-6.128906-3.394531 15.585937-15.785156 28.113281-31.945312 31.21875zm0 0"/><path d="m88.296875 222.382812c-2.980469 2.980469-2.980469 7.808594 0 10.785157 9.3125 9.3125 21.695313 14.445312 34.867187 14.445312 13.171876 0 25.554688-5.132812 34.867188-14.445312 2.976562-2.976563 2.976562-7.804688 0-10.785157-2.980469-2.976562-7.808594-2.976562-10.785156 0-6.433594 6.433594-14.984375 9.976563-24.082032 9.976563-9.097656 0-17.648437-3.542969-24.082031-9.976563-2.976562-2.976562-7.804687-2.976562-10.785156 0zm0 0"/><path d="m67.074219 183.703125c6.695312-6.695313 17.585937-6.695313 24.285156 0 1.488281 1.488281 3.441406 2.234375 5.390625 2.234375 1.953125 0 3.90625-.746094 5.394531-2.234375 2.980469-2.976563 2.980469-7.804687 0-10.785156-12.644531-12.644531-33.210937-12.640625-45.855469 0-2.980468 2.980469-2.980468 7.808593 0 10.785156 2.976563 2.980469 7.804688 2.980469 10.785157 0zm0 0"/><path d="m154.976562 183.703125c6.695313-6.695313 17.589844-6.695313 24.285157 0 1.488281 1.488281 3.441406 2.234375 5.394531 2.234375 1.949219 0 3.902344-.746094 5.390625-2.234375 2.980469-2.976563 2.980469-7.804687 0-10.785156-12.640625-12.644531-33.210937-12.644531-45.855469 0-2.980468 2.980469-2.980468 7.808593 0 10.785156 2.980469 2.980469 7.808594 2.980469 10.785156 0zm0 0"/></svg>