<?xml version="1.0" encoding="iso-8859-1"?>
<!-- Generator: Adobe Illustrator 19.0.0, SVG Export Plug-In . SVG Version: 6.00 Build 0)  -->
<svg version="1.1" id="Layer_1" xmlns="http://www.w3.org/2000/svg" xmlns:xlink="http://www.w3.org/1999/xlink" x="0px" y="0px"
	 viewBox="0 0 512.002 512.002" style="enable-background:new 0 0 512.002 512.002;" xml:space="preserve">
<g>
	<g>
		<g>
			<path d="M288.091,231.942c0-13.256-7.273-18.937-17.539-20.73c6.978-3.588,10.265-10.065,10.265-17.64
				c0-15.646-11.162-20.928-25.314-20.928H229.99v82.22h31.195C278.225,254.864,288.091,245.496,288.091,231.942z M248.728,187.095
				h1.495c8.172,0,12.459,2.491,12.459,8.372c0,6.876-4.386,9.368-12.459,9.368h-1.495V187.095z M248.728,240.411v-19.433h5.879
				c8.869,0,13.754,2.691,13.754,10.265c0,6.477-4.884,9.168-13.754,9.168H248.728z"/>
			<path d="M392.352,285.826c14.666,0,26.597-11.932,26.597-26.598c0-14.666-11.931-26.597-26.597-26.597
				s-26.597,11.931-26.597,26.597C365.754,273.895,377.687,285.826,392.352,285.826z M392.352,248.808
				c5.746,0,10.42,4.674,10.42,10.42c0,5.746-4.674,10.421-10.42,10.421s-10.42-4.675-10.42-10.421
				C381.931,253.483,386.606,248.808,392.352,248.808z"/>
			<path d="M440.906,2.035c-1.732-1.536-4.04-2.252-6.337-1.977L75.49,43.535l0.001,0.005c-4.01,0.481-7.118,3.887-7.118,8.025
				v452.347c0,4.467,3.62,8.089,8.089,8.089H435.54c4.468,0,8.089-3.622,8.089-8.089V8.088
				C443.629,5.774,442.638,3.57,440.906,2.035z M427.452,17.215v26.262H210.558L427.452,17.215z M354.946,495.823H157.057v-35.371
				h197.889V495.823z M354.946,444.276H157.057v-49.214c0-5.746,4.674-10.421,10.42-10.421h177.049
				c5.746,0,10.42,4.675,10.42,10.421V444.276z M427.453,88.59h-0.001c-2.794-15.954-16.739-28.121-33.48-28.121
				c-18.748,0-34.001,15.253-34.001,34c0,18.749,15.254,34.002,34.001,34.002c16.741,0,30.686-12.168,33.48-28.123v395.476h-56.329
				V395.062c0-14.666-11.932-26.598-26.597-26.598h-26.359v-16.891H301.99v16.891h-37.904v-16.891h-16.177v16.891h-37.904v-16.891
				h-16.177v16.891h-26.35c-14.666,0-26.597,11.932-26.597,26.598v100.762H84.551v-200.38c3.528,10.556,13.5,18.19,25.229,18.19
				c14.667,0,26.598-11.932,26.598-26.598c0-14.666-11.931-26.598-26.598-26.598c-11.728,0-21.7,7.633-25.229,18.19V130.505
				c4.133,14.12,17.193,24.467,32.631,24.467c18.748,0,34.001-15.253,34.001-34.001c0-18.748-15.254-34.001-34.001-34.001
				c-15.437,0-28.499,10.347-32.631,24.467V59.654h342.902V88.59z M411.794,94.468c0,9.829-7.995,17.825-17.822,17.825
				c-9.828,0-17.824-7.997-17.824-17.825s7.996-17.823,17.824-17.823C403.8,76.646,411.794,84.64,411.794,94.468z M99.357,287.034
				c0-5.746,4.675-10.421,10.421-10.421s10.421,4.675,10.421,10.421s-4.675,10.421-10.421,10.421S99.357,292.78,99.357,287.034z
				 M99.357,120.971c0-9.828,7.996-17.824,17.824-17.824s17.824,7.996,17.824,17.824s-7.996,17.824-17.824,17.824
				S99.357,130.799,99.357,120.971z"/>
			<circle cx="406.118" cy="312.352" r="12.147"/>
			<circle cx="111.01" cy="237.771" r="12.146"/>
			<polygon points="198.724,85.327 177.09,92.452 204.523,146.229 			"/>
			<path d="M255.997,277.712c-2.772,0-5.351,1.419-6.834,3.762c-5.315,8.393-17.675,29.027-17.675,39.328
				c0,13.514,10.994,24.51,24.509,24.51c13.514,0,24.509-10.995,24.509-24.51c0-10.302-12.36-30.935-17.675-39.328
				C261.348,279.131,258.769,277.712,255.997,277.712z M255.997,329.135c-4.594,0-8.332-3.738-8.332-8.327
				c0.052-2.578,3.52-10.341,8.333-19.099c4.812,8.753,8.279,16.515,8.331,19.093C264.328,325.395,260.591,329.135,255.997,329.135z
				"/>
			<polygon points="308.996,94.468 293.305,152.762 329.825,103.684 			"/>
			<path d="M201.915,277.712c-2.772,0-5.351,1.419-6.834,3.762c-5.315,8.393-17.676,29.027-17.676,39.328
				c0,13.514,10.995,24.51,24.51,24.51c13.513,0,24.508-10.995,24.508-24.51c0-10.302-12.36-30.935-17.674-39.328
				C207.266,279.131,204.688,277.712,201.915,277.712z M201.915,329.135c-4.595,0-8.333-3.738-8.333-8.327
				c0.052-2.578,3.52-10.341,8.334-19.099c4.811,8.753,8.278,16.515,8.33,19.093C210.246,325.395,206.509,329.135,201.915,329.135z"
				/>
			<path d="M296.36,172.644v82.22h23.819c22.623,0,41.458-17.142,41.458-41.16c0-23.918-18.936-41.06-41.458-41.06H296.36z
				 M341.406,213.803c-0.098,13.754-9.568,24.317-23.418,24.317h-2.894v-48.734h2.894
				C331.94,189.387,341.406,200.051,341.406,213.803z"/>
			<path d="M310.078,277.712c-2.772,0-5.351,1.419-6.834,3.762c-5.315,8.393-17.675,29.027-17.675,39.328
				c0,13.514,10.994,24.51,24.509,24.51c13.514,0,24.509-10.995,24.509-24.51c0-10.302-12.36-30.935-17.675-39.328
				C315.43,279.131,312.851,277.712,310.078,277.712z M310.078,329.135c-4.594,0-8.332-3.738-8.332-8.327
				c0.052-2.578,3.52-10.341,8.333-19.099c4.812,8.753,8.279,16.515,8.331,19.093C318.41,325.395,314.672,329.135,310.078,329.135z"
				/>
			<polygon points="172.79,221.876 199.301,221.876 199.301,254.864 218.035,254.864 218.035,172.645 199.301,172.645 
				199.301,205.433 172.79,205.433 172.79,172.645 154.054,172.645 154.054,254.864 172.79,254.864 			"/>
		</g>
	</g>
</g>
<g>
</g>
<g>
</g>
<g>
</g>
<g>
</g>
<g>
</g>
<g>
</g>
<g>
</g>
<g>
</g>
<g>
</g>
<g>
</g>
<g>
</g>
<g>
</g>
<g>
</g>
<g>
</g>
<g>
</g>
</svg>
