<?xml version="1.0" encoding="iso-8859-1"?>
<!-- Generator: Adobe Illustrator 19.0.0, SVG Export Plug-In . SVG Version: 6.00 Build 0)  -->
<svg version="1.1" id="Capa_1" xmlns="http://www.w3.org/2000/svg" xmlns:xlink="http://www.w3.org/1999/xlink" x="0px" y="0px"
	 viewBox="0 0 512 512" style="enable-background:new 0 0 512 512;" xml:space="preserve">
<g>
	<g>
		<g>
			<path d="M486.4,128h-56.7c-14.122-11.505-85.338-69.112-131.391-98.769C295.925,12.722,281.693,0,264.533,0
				s-31.392,12.722-33.776,29.231C184.704,58.888,113.489,116.495,99.366,128H25.6c-4.71,0-8.533,3.823-8.533,8.533v366.933
				c0,4.71,3.823,8.533,8.533,8.533h460.8c4.71,0,8.533-3.823,8.533-8.533V136.533C494.933,131.823,491.11,128,486.4,128z
				 M264.533,17.067c9.412,0,17.067,7.654,17.067,17.067c0,9.412-7.654,17.067-17.067,17.067c-9.412,0-17.067-7.654-17.067-17.067
				C247.467,24.721,255.121,17.067,264.533,17.067z M233.33,47.946c5.313,11.958,17.295,20.321,31.204,20.321
				c13.909,0,25.891-8.362,31.204-20.321c34.532,23.036,81.165,59.596,106.766,80.054H126.564
				C152.165,107.542,198.797,70.982,233.33,47.946z M477.867,494.933H34.133V145.067h443.733V494.933z"/>
			<path d="M341.333,383.954v-57.861c0-15.121-12.305-27.426-27.426-27.426h-49.374V280.53c5.85-1.5,11.216-4.541,15.603-8.928
				c6.443-6.451,10.001-15.019,10.001-24.132c0-9.122-3.558-17.69-10.377-24.491l-18.099-16.034c-3.234-2.859-8.09-2.859-11.324,0
				l-18.475,16.384c-6.443,6.451-9.993,15.019-9.993,24.141c0,9.114,3.55,17.681,9.993,24.132c4.386,4.386,9.752,7.427,15.603,8.927
				v18.138h-49.374c-15.121,0-27.426,12.305-27.426,27.426v57.862c0,0.03,0,0.06,0,0.089v42.622c0,4.71,3.823,8.533,8.533,8.533
				h153.6c4.71,0,8.533-3.823,8.533-8.533v-42.621C341.333,384.015,341.333,383.985,341.333,383.954z M238.938,247.47
				c0-4.565,1.775-8.849,4.625-11.716l12.442-11.025l12.066,10.667c3.226,3.226,5.001,7.509,5.001,12.075
				c0,4.557-1.775,8.841-5.001,12.066c-6.451,6.443-17.69,6.443-24.141,0C240.713,256.311,238.938,252.027,238.938,247.47z
				 M198.093,315.733h115.814c5.709,0,10.359,4.651,10.359,10.359v37.308l-11.034-11.034c-3.337-3.337-8.73-3.337-12.066,0
				L281.6,371.934l-19.567-19.567c-3.337-3.337-8.73-3.337-12.066,0L230.4,371.934l-19.567-19.567c-3.337-3.337-8.73-3.337-12.066,0
				l-11.034,11.034v-37.308C187.733,320.384,192.384,315.733,198.093,315.733z M187.733,418.133v-30.601l17.067-17.067
				l19.567,19.567c3.337,3.337,8.73,3.337,12.066,0L256,370.466l19.567,19.567c3.337,3.337,8.73,3.337,12.066,0l19.567-19.567
				l17.067,17.067v30.601H187.733z"/>
			<path d="M59.733,179.2v281.6c0,4.71,3.823,8.533,8.533,8.533h375.467c4.71,0,8.533-3.823,8.533-8.533V179.2
				c0-4.71-3.823-8.533-8.533-8.533H68.267C63.556,170.667,59.733,174.49,59.733,179.2z M76.8,187.733h358.4v264.533H76.8V187.733z"
				/>
		</g>
	</g>
</g>
<g>
</g>
<g>
</g>
<g>
</g>
<g>
</g>
<g>
</g>
<g>
</g>
<g>
</g>
<g>
</g>
<g>
</g>
<g>
</g>
<g>
</g>
<g>
</g>
<g>
</g>
<g>
</g>
<g>
</g>
</svg>
