<svg xmlns="http://www.w3.org/2000/svg" data-name="Layer 1" viewBox="0 0 512 512"><path d="M207.00391,332.01562a7.49944,7.49944,0,0,0-7.5-7.5h-.09375a7.45958,7.45958,0,0,0-7.45313,7.5,7.52348,7.52348,0,0,0,15.04688,0Zm-64.042,7.5a7.5,7.5,0,0,0,0-15h-.05078a7.5,7.5,0,0,0,.05078,15Zm92.31348-7.5a7.49944,7.49944,0,0,0-7.5-7.5h-.09375a7.45957,7.45957,0,0,0-7.45312,7.5,7.52347,7.52347,0,0,0,15.04687,0Zm-56.543,0a7.49944,7.49944,0,0,0-7.5-7.5h-.09375a7.45957,7.45957,0,0,0-7.45312,7.5,7.52347,7.52347,0,0,0,15.04687,0Zm190.35645,37.5H142.91113a7.5,7.5,0,0,0,0,15H369.08887a7.5,7.5,0,0,0,0-15Zm-105.542-37.5a7.49944,7.49944,0,0,0-7.5-7.5h-.09376a7.45958,7.45958,0,0,0-7.45312,7.5,7.52348,7.52348,0,0,0,15.04688,0Zm.542,82.5H142.91113a7.5,7.5,0,0,0,0,15H264.08887a7.5,7.5,0,0,0,0-15Zm105-135H142.91113a7.5,7.5,0,0,0,0,15H369.08887a7.5,7.5,0,0,0,0-15ZM421.5,60A22.52554,22.52554,0,0,1,399,37.5a7.49974,7.49974,0,0,0-7.5-7.5h-271a7.49974,7.49974,0,0,0-7.5,7.5A22.52554,22.52554,0,0,1,90.5,60,7.49974,7.49974,0,0,0,83,67.5v377a7.49943,7.49943,0,0,0,7.5,7.5A22.52586,22.52586,0,0,1,113,474.5a7.49943,7.49943,0,0,0,7.5,7.5h271a7.49943,7.49943,0,0,0,7.5-7.5A22.52586,22.52586,0,0,1,421.5,452a7.49943,7.49943,0,0,0,7.5-7.5V67.5A7.49974,7.49974,0,0,0,421.5,60ZM414,437.75293A37.62153,37.62153,0,0,0,384.75293,467H127.24707A37.62153,37.62153,0,0,0,98,437.75293V169.5h31.15869a22.41045,22.41045,0,0,0,16.6958,12.01953c9.738,1.43848,19.66113,2.41577,29.5542,2.917L165.08105,197.103a17.41037,17.41037,0,0,0-3.10839,16.44922l10.46875,32.45752a17.28919,17.28919,0,0,0,13.23047,11.79394,17.97683,17.97683,0,0,0,3.52636.35156,17.25907,17.25907,0,0,0,13.22168-6.16259L250.52954,195.5h13.0448l45.92078,55.89062a17.50537,17.50537,0,0,0,30.18359-5.73925l10.40137-32.26514a17.50663,17.50663,0,0,0-2.82324-16.082l-10.002-12.90015c9.6709-.511,19.36975-1.47815,28.89356-2.885A22.4103,22.4103,0,0,0,382.84131,169.5H414ZM228.5,148v19.4021a294.919,294.919,0,0,1-48.82129,2.21313,295.3348,295.3348,0,0,1-31.62988-2.93408,7.32441,7.32441,0,0,1-5.10938-3.271,7.45044,7.45044,0,0,1-.98535-6.08838l14.58008-54.39942a7.50566,7.50566,0,0,1,9.39941-5.249,190.29222,190.29222,0,0,1,68.01831,36.83728A19.41723,19.41723,0,0,0,228.5,148Zm6.55151,42.53979L191.002,242.26465a2.50149,2.50149,0,0,1-4.28418-.85694L176.249,208.95117a2.48131,2.48131,0,0,1,.44336-2.352l17.78-21.80713a310.50734,310.50734,0,0,0,35.12036-2.41455A19.53,19.53,0,0,0,235.05151,190.53979ZM243.5,176V148a4.50491,4.50491,0,0,1,4.5-4.5h16a4.50491,4.50491,0,0,1,4.5,4.5v28a4.50491,4.50491,0,0,1-4.5,4.5H248A4.50491,4.50491,0,0,1,243.5,176Zm88.8252-6.38477A294.78326,294.78326,0,0,1,283.5,167.40234V148a19.41715,19.41715,0,0,0-5.45435-13.49207,190.3601,190.3601,0,0,1,68.01978-36.8341,7.50555,7.50555,0,0,1,9.40039,5.24805l14.5791,54.395a7.45456,7.45456,0,0,1-.98437,6.09327,7.32255,7.32255,0,0,1-5.10645,3.2705A295.35465,295.35465,0,0,1,332.3252,169.61523Zm3.47656,39.17334-10.39942,32.25831a2.50548,2.50548,0,0,1-4.31738.82177l-43.03613-52.38012a19.50747,19.50747,0,0,0,4.3584-7.11109A310.53312,310.53312,0,0,0,318.5835,184.802l16.81494,21.68775A2.50252,2.50252,0,0,1,335.80176,208.78857ZM414,154.5H384.78784c-.07666-.355-.15942-.70947-.25366-1.062L369.9541,99.0376a22.5051,22.5051,0,0,0-28.20019-15.73047A205.38331,205.38331,0,0,0,262.16089,128.5H249.83667a205.36251,205.36251,0,0,0-79.59155-45.19336A22.5052,22.5052,0,0,0,142.0459,99.03809l-14.582,54.40478c-.09375.351-.176.70361-.25244,1.05713H98V74.24658A37.61963,37.61963,0,0,0,127.24707,45H384.75293A37.61963,37.61963,0,0,0,414,74.24658ZM369.08887,324.51562h-.05078a7.52543,7.52543,0,1,0,.05078,0Zm-77.27051,7.5a7.49944,7.49944,0,0,0-7.5-7.5h-.09473a7.45875,7.45875,0,0,0-7.45215,7.5,7.52348,7.52348,0,0,0,15.04688,0ZM441.5,0H70.5A17.52,17.52,0,0,0,53,17.5v477A17.52,17.52,0,0,0,70.5,512h371A17.52,17.52,0,0,0,459,494.5V17.5A17.52,17.52,0,0,0,441.5,0ZM444,494.5a2.50231,2.50231,0,0,1-2.5,2.5H70.5a2.50231,2.50231,0,0,1-2.5-2.5V17.5A2.50263,2.50263,0,0,1,70.5,15h371a2.50263,2.50263,0,0,1,2.5,2.5ZM320.08984,332.01562a7.49944,7.49944,0,0,0-7.5-7.5h-.09472a7.45958,7.45958,0,0,0-7.45313,7.5,7.524,7.524,0,0,0,15.04785,0Zm28.27051,0a7.49944,7.49944,0,0,0-7.5-7.5h-.09375a7.45957,7.45957,0,0,0-7.45312,7.5,7.52347,7.52347,0,0,0,15.04687,0Z"/></svg>