<svg id="Capa_1" enable-background="new 0 0 512 512" height="512" viewBox="0 0 512 512" width="512" xmlns="http://www.w3.org/2000/svg"><g><g><path d="m447.462 190.853c-10.312-34.114-25.449-66.858-43.776-94.693-19.286-29.292-41.36-52.533-65.609-69.077-26.342-17.971-53.956-27.083-82.077-27.083s-55.735 9.112-82.076 27.083c-24.249 16.544-46.323 39.785-65.609 69.077-18.327 27.834-33.465 60.579-43.776 94.693-10.493 34.709-16.039 71.068-16.039 105.147 0 66.925 21.048 122.636 60.867 161.11 18.592 17.963 40.86 31.807 66.188 41.148 24.724 9.118 51.79 13.742 80.445 13.742s55.721-4.624 80.444-13.742c25.328-9.341 47.597-23.186 66.188-41.148 39.82-38.474 60.868-94.185 60.868-161.11 0-34.079-5.546-70.438-16.038-105.147zm-9.347 178.351c-3.612 2.323-7.762 3.546-12.115 3.546-12.406 0-22.5-10.093-22.5-22.5s10.094-22.5 22.5-22.5c7.943 0 15.129 4.089 19.204 10.784-1.716 10.672-4.085 20.908-7.089 30.67zm-371.319-30.668c4.074-6.697 11.254-10.786 19.204-10.786 12.406 0 22.5 10.093 22.5 22.5s-10.094 22.5-22.5 22.5c-4.359 0-8.504-1.227-12.116-3.552-3.003-9.76-5.372-19.994-7.088-30.662zm2.782-105.036h82.945c1.553 2.63 3.444 5.084 5.661 7.301 8.381 8.381 8.381 22.018 0 30.398-2.216 2.217-4.108 4.671-5.661 7.301h-88.516c.839-14.88 2.717-29.967 5.571-45zm17.546-62.287c6.916 7.013 16.487 11.223 26.723 11.223 20.678 0 37.5-16.822 37.5-37.5 0-19.037-14.262-34.795-32.661-37.177.716-1.12 1.429-2.244 2.157-3.351 2.121-3.222 4.278-6.349 6.461-9.408h257.393c2.182 3.059 4.34 6.187 6.461 9.408.728 1.106 1.441 2.23 2.157 3.351-18.399 2.382-32.661 18.14-32.661 37.177 0 20.678 16.822 37.5 37.5 37.5 10.242 0 19.81-4.208 26.724-11.221 5.806 15.383 10.618 31.252 14.358 47.285h-74.916c1.002-10.476-2.5-21.306-10.505-29.311-14.229-14.23-37.382-14.228-51.611 0l-20.011 20.01c-6.764-6.612-16.008-10.699-26.193-10.699s-19.429 4.087-26.194 10.7l-20.011-20.011c-14.229-14.229-37.381-14.229-51.611 0-6.893 6.893-10.688 16.058-10.688 25.806 0 1.178.058 2.347.168 3.505h-74.899c3.74-16.033 8.552-31.903 14.359-47.287zm22.503-48.363c1.389-.265 2.798-.414 4.22-.414 12.406 0 22.5 10.093 22.5 22.5s-10.094 22.5-22.5 22.5c-8.577 0-16.365-4.932-20.132-12.49 4.797-11.072 10.117-21.81 15.912-32.096zm308.658 32.096c-3.765 7.56-11.548 12.49-20.132 12.49-12.406 0-22.5-10.093-22.5-22.5s10.094-22.5 22.5-22.5c1.422 0 2.832.149 4.22.414 5.795 10.286 11.115 21.024 15.912 32.096zm-249.494 126.86c14.229-14.229 14.229-37.382 0-51.611-8.381-8.381-8.381-22.018-.001-30.399 8.38-8.379 22.017-8.382 30.398 0l22.082 22.082c-1.781 4.362-2.77 9.128-2.77 14.123v5c0 4.142 3.357 7.5 7.5 7.5s7.5-3.358 7.5-7.5v-5c0-12.407 10.094-22.5 22.5-22.5s22.5 10.093 22.5 22.5v40c0 12.407-10.094 22.5-22.5 22.5s-22.5-10.093-22.5-22.5v-5c0-4.142-3.357-7.5-7.5-7.5s-7.5 3.358-7.5 7.5v5c0 4.995.99 9.761 2.77 14.123l-22.081 22.081c-8.384 8.381-22.02 8.379-30.399 0-4.06-4.06-6.295-9.458-6.295-15.199 0-5.742 2.235-11.14 6.296-15.2zm3.77 99.85c2.408-17.702 7.653-33.97 15.598-48.42 7.911-.902 15.583-4.371 21.638-10.425l20.011-20.011c2.734 2.673 5.874 4.929 9.318 6.672-20.453 26.286-27.774 54.832-30.231 75.027-.232 1.908-1.614 2.694-2.197 2.944-.713.304-2.123.652-3.573-.43l-2.535-1.891c-6.556-4.891-15.716-4.892-22.273 0-1.673 1.248-3.21.677-3.979.224-.636-.373-2.078-1.48-1.777-3.69zm109.633-78.856 20.011 20.011c6.055 6.055 13.726 9.524 21.638 10.425 7.944 14.449 13.189 30.717 15.596 48.42.301 2.209-1.142 3.317-1.775 3.69-.768.453-2.306 1.024-3.979-.224-6.559-4.893-15.718-4.892-22.272 0l-2.536 1.892c-1.45 1.082-2.861.733-3.573.429-.583-.25-1.965-1.037-2.197-2.944-2.457-20.195-9.778-48.741-30.231-75.028 3.443-1.742 6.583-3.998 9.318-6.671zm30.618 9.405-22.082-22.081c1.781-4.362 2.77-9.128 2.77-14.123v-40c0-4.995-.99-9.761-2.77-14.124l22.081-22.081c8.384-8.381 22.019-8.379 30.398 0 4.061 4.06 6.296 9.458 6.296 15.199s-2.235 11.139-6.296 15.199c-14.229 14.229-14.229 37.382 0 51.611 4.061 4.06 6.296 9.458 6.296 15.2 0 5.741-2.235 11.139-6.295 15.199-8.381 8.379-22.018 8.381-30.398.001zm41.004-41.006c-8.381-8.381-8.381-22.018 0-30.398 2.236-2.236 4.12-4.693 5.653-7.301h82.953c2.855 15.033 4.732 30.12 5.571 45h-88.516c-1.553-2.63-3.444-5.084-5.661-7.301zm-23.221-231.199h-149.19c23.711-16.379 48.989-25 74.595-25s50.884 8.621 74.595 25zm-168.09 15h186.991c8.175 7.373 16.104 15.718 23.73 25h-234.452c7.626-9.282 15.555-17.627 23.731-25zm93.495 442c-38.989 0-73.37-8.782-101.893-25h203.786c-28.523 16.218-62.904 25-101.893 25zm124.021-40h-248.042c-9.239-7.406-17.649-15.756-25.156-25h169.177c4.143 0 7.5-3.358 7.5-7.5s-3.357-7.5-7.5-7.5h-180.064c-5.957-9.202-11.146-19.109-15.526-29.667 1.834.272 3.7.417 5.591.417 20.678 0 37.5-16.822 37.5-37.5s-16.822-37.5-37.5-37.5c-7.907 0-15.353 2.434-21.521 6.758-.645-7.644-.98-15.48-.98-23.508 0-.831.019-1.667.025-2.5h84.137c-.11 1.158-.168 2.327-.168 3.505 0 9.748 3.796 18.913 10.689 25.806 4.064 4.064 8.856 6.962 13.96 8.705-7.236 14.644-12.09 30.781-14.448 48.118-1.019 7.49 2.522 14.805 9.022 18.636 6.568 3.87 14.447 3.44 20.563-1.124 1.277-.952 3.06-.952 4.335 0l2.536 1.892c3.298 2.46 7.164 3.721 11.084 3.721 2.475 0 4.972-.503 7.359-1.525 6.189-2.649 10.371-8.227 11.187-14.922 2.383-19.595 9.802-47.864 31.448-72.831.256.005.511.019.768.019s.512-.014.768-.019c21.645 24.967 29.064 53.236 31.448 72.831.815 6.695 4.997 12.273 11.187 14.922 2.388 1.022 4.885 1.525 7.36 1.525 3.919 0 7.785-1.261 11.083-3.721l2.537-1.892c1.275-.952 3.057-.952 4.334 0 6.116 4.563 13.996 4.994 20.563 1.124 6.5-3.831 10.041-11.146 9.022-18.635-2.358-17.338-7.213-33.475-14.448-48.119 5.104-1.743 9.897-4.641 13.961-8.705 6.894-6.893 10.689-16.057 10.689-25.806 0-1.178-.058-2.347-.168-3.505h84.137c.007.833.025 1.669.025 2.5 0 8.029-.335 15.865-.979 23.51-6.171-4.326-13.619-6.76-21.521-6.76-20.678 0-37.5 16.822-37.5 37.5s16.822 37.5 37.5 37.5c1.89 0 3.756-.145 5.591-.418-4.38 10.558-9.569 20.466-15.526 29.668h-110.06c-4.143 0-7.5 3.358-7.5 7.5s3.357 7.5 7.5 7.5h99.177c-7.507 9.244-15.917 17.594-25.156 25z"/><path d="m256 182.436c20.678 0 37.5-16.822 37.5-37.5s-16.822-37.5-37.5-37.5-37.5 16.822-37.5 37.5 16.822 37.5 37.5 37.5zm0-60c12.406 0 22.5 10.093 22.5 22.5s-10.094 22.5-22.5 22.5-22.5-10.093-22.5-22.5 10.094-22.5 22.5-22.5z"/></g></g></svg>