<svg id="Layer_1" data-name="Layer 1" xmlns="http://www.w3.org/2000/svg" viewBox="0 0 394.65 434.12"><path d="M295,421.68a29.63,29.63,0,0,0-46.49,6l-10.58-7.47V366.13a29.6,29.6,0,0,0-59.2,0v89.39A29.35,29.35,0,0,0,189,478L277.34,558v25.23a9.87,9.87,0,0,0,9.86,9.87h59.2a9.87,9.87,0,0,0,9.87-9.87V492.68a29.52,29.52,0,0,0-8.83-21.06Zm41.59,151.64H297.07V553.59a9.83,9.83,0,0,0-3.25-7.32L202,463.14a9.9,9.9,0,0,1-3.57-7.63V366.13a9.87,9.87,0,1,1,19.73,0v59.19a9.88,9.88,0,0,0,4.18,8.07l23,16.22a30.1,30.1,0,0,0,8,14.13l38.13,36.05A9.86,9.86,0,1,0,305,485.45L267.05,449.6a9.87,9.87,0,1,1,14.12-13.79l52.49,49.93a9.69,9.69,0,0,1,2.87,6.93Z" transform="translate(-178.68 -158.95)"/><path d="M543.73,336.54a29.64,29.64,0,0,0-29.6,29.6v54.08l-10.59,7.47a30,30,0,0,0-4.63-6,29.62,29.62,0,0,0-41.68-.16L404.39,471.8a29.28,29.28,0,0,0-8.65,20.88V583.2a9.83,9.83,0,0,0,9.86,9.86h59.2a9.85,9.85,0,0,0,9.87-9.86V558l88-79.65a29.63,29.63,0,0,0,10.67-22.8V366.14a29.64,29.64,0,0,0-29.6-29.6Zm9.87,119a10.22,10.22,0,0,1-3.87,7.9l-91.55,82.86a9.86,9.86,0,0,0-3.25,7.31v19.74H415.47V492.68a9.62,9.62,0,0,1,2.7-6.76L471,435.65a9.87,9.87,0,0,1,14.15,13.76l-38.13,36a9.86,9.86,0,0,0,13.54,14.34l38.34-36.24h0a29.26,29.26,0,0,0,7.83-14l22.94-16.18a9.88,9.88,0,0,0,4.19-8.06V366.14a9.87,9.87,0,1,1,19.73,0Z" transform="translate(-178.68 -158.95)"/><path d="M494.4,277.34A118.52,118.52,0,1,0,459.68,361,118.41,118.41,0,0,0,494.4,277.34Zm-20.73-9.87H444.79a162.52,162.52,0,0,0-20.72-75.76A98.18,98.18,0,0,1,473.67,267.47Zm-107.53-86.7v86.7H327.19C329.44,225.06,345.53,189.52,366.14,180.77Zm0,106.44v86.7c-20.61-8.76-36.7-44.29-38.95-86.7Zm19.73,86.7v-86.7h38.95c-2.25,42.41-18.34,77.94-38.95,86.7Zm0-106.44v-86.7c20.61,8.75,36.7,44.29,38.95,86.7Zm-57.93-75.76a162.52,162.52,0,0,0-20.72,75.76H278.34A98.18,98.18,0,0,1,327.94,191.71Zm-49.6,95.49h28.88A162.49,162.49,0,0,0,327.94,363,98.14,98.14,0,0,1,278.34,287.2ZM424.07,363a162.48,162.48,0,0,0,20.71-75.76h28.89A98.17,98.17,0,0,1,424.07,363Z" transform="translate(-178.68 -158.95)"/></svg>