<svg id="Capa_1" enable-background="new 0 0 512 512" height="512" viewBox="0 0 512 512" width="512" xmlns="http://www.w3.org/2000/svg"><g><g><g><path d="m61.895 399.237 2.268-16.271c1.347-9.664 5.889-18.786 12.788-25.686l32.57-32.57c2.929-2.929 2.929-7.678 0-10.606-2.929-2.929-7.678-2.929-10.606 0l-32.57 32.57c-9.193 9.192-15.244 21.346-17.038 34.222l-1.92 13.781-45.19 45.188c-2.929 2.929-2.929 7.678 0 10.606 1.464 1.464 3.384 2.197 5.303 2.197s3.839-.732 5.303-2.197l46.966-46.966c1.154-1.154 1.901-2.652 2.126-4.268z"/><path d="m205.177 373.105c-6.552.964-13.13 4.258-18.162 9.29l-21.223 21.223c-10.92-10.241-25.999-14.198-40.633-10.598-4.022.991-6.48 5.054-5.49 9.076.991 4.022 5.057 6.478 9.076 5.49 9.965-2.456 20.242.407 27.488 7.653l4.272 4.272c2.929 2.929 7.678 2.929 10.606 0l26.51-26.509c6.601-6.6 17.34-6.6 23.94 0 .202.202.218.523.042.744l-43.909 47.792c-4.019 4.374-9.11 7.713-14.723 9.658l-20.915 7.243c-4.393 1.521-9.129 1.268-13.335-.715l-18.553-8.748-19.655-19.656c-2.929-2.929-7.678-2.929-10.606 0-2.929 2.929-2.929 7.677 0 10.606l17.743 17.744-38.824 38.824c-2.929 2.929-2.929 7.678 0 10.606 1.464 1.464 3.384 2.197 5.303 2.197s3.839-.732 5.303-2.197l41.283-41.283 11.611 5.474c4.422 2.085 9.161 3.136 13.921 3.135 3.604 0 7.221-.602 10.719-1.814l20.915-7.243c7.953-2.754 15.166-7.486 20.86-13.683l43.983-47.872c.031-.034.062-.068.092-.103 5.443-6.147 5.159-15.511-.647-21.316-2.641-2.642-5.637-4.717-8.832-6.237l17.415-17.415 2.031 2.032c3.643 3.644 8.429 5.465 13.215 5.465 3.135 0 6.263-.797 9.076-2.36.474.583.971 1.148 1.504 1.681l80.095 80.095c9.192 9.193 21.346 15.244 34.222 17.038l13.781 1.92 45.188 45.188c1.464 1.464 3.384 2.197 5.303 2.197s3.839-.732 5.303-2.197c2.929-2.929 2.929-7.678 0-10.606l-46.966-46.966c-1.154-1.154-2.652-1.9-4.268-2.125l-16.271-2.268c-9.664-1.347-18.786-5.889-25.686-12.788l-80.095-80.095c-.368-.368-.681-.772-.954-1.197l9.93-9.931 46.449 46.449c1.464 1.464 3.384 2.197 5.303 2.197s3.839-.732 5.303-2.197c2.929-2.929 2.929-7.678 0-10.606l-46.449-46.449 10.052-10.052 47.873 47.873c1.464 1.464 3.384 2.197 5.303 2.197s3.839-.732 5.303-2.197c2.929-2.929 2.929-7.678 0-10.606l-47.873-47.873 10.052-10.052 47.437 47.437c1.464 1.464 3.384 2.197 5.303 2.197s3.839-.732 5.303-2.197c2.929-2.929 2.929-7.678 0-10.606l-47.437-47.437 5.666-5.667c.002-.002.004-.004.007-.006 1.475-1.479 2.856-3.017 4.161-4.597l25.494 25.494c.969 6.539 3.963 12.834 8.986 17.857l21.223 21.223c-10.241 10.921-14.202 26-10.598 40.634.842 3.42 3.905 5.708 7.276 5.708.594 0 1.197-.071 1.799-.22 4.022-.99 6.479-5.054 5.489-9.076-2.454-9.965.407-20.241 7.654-27.488l4.272-4.272c2.929-2.929 2.929-7.678 0-10.606l-26.509-26.51c-6.6-6.6-6.6-17.34 0-23.94.203-.203.524-.217.745-.042l13.08 12.017c3.049 2.802 7.794 2.601 10.597-.449 2.802-3.05 2.602-7.795-.449-10.597l-13.16-12.091c-.034-.031-.068-.062-.103-.092-6.147-5.442-15.51-5.158-21.316.647-2.641 2.642-4.716 5.637-6.237 8.832l-19.578-19.578c-.116-.116-.241-.223-.36-.336 3.222-6.581 5.281-13.587 6.177-20.718 1.128-.773 2.197-1.641 3.164-2.609l80.095-80.095c9.193-9.192 15.244-21.346 17.038-34.222l1.92-13.781 45.188-45.188c2.929-2.929 2.929-7.678 0-10.606-2.929-2.929-7.678-2.929-10.606 0l-46.966 46.966c-1.154 1.154-1.9 2.652-2.125 4.268l-2.268 16.271c-1.347 9.664-5.889 18.786-12.788 25.686l-73.198 73.198c-.952-5.248-2.541-10.4-4.771-15.333l33.195-33.195c2.929-2.929 2.929-7.678 0-10.606-2.929-2.929-7.678-2.929-10.606 0l-30.582 30.582c-1.655-2.124-3.439-4.179-5.391-6.131-1.447-1.447-2.947-2.808-4.491-4.091l31.835-31.835c2.929-2.929 2.929-7.678 0-10.606-2.929-2.929-7.678-2.929-10.606 0l-34.085 34.085c-4.773-2.355-9.776-4.087-14.888-5.215l38.485-38.485c2.929-2.929 2.929-7.678 0-10.606-2.929-2.929-7.678-2.929-10.606 0 0 0-47.633 47.652-47.726 47.756-3.939.331-7.854 1.015-11.692 2.05-.076-.07-.157-.136-.23-.209-2.771-2.771-2.771-7.28 0-10.052l27.436-27.436c6.54-.969 12.834-3.962 17.857-8.986l21.223-21.223c10.921 10.241 26 14.201 40.633 10.598 4.022-.991 6.48-5.054 5.49-9.076s-5.055-6.477-9.076-5.49c-9.968 2.455-20.242-.408-27.488-7.653l-4.272-4.272c-2.929-2.93-7.678-2.929-10.606 0l-26.51 26.509c-6.601 6.6-17.34 6.6-23.94 0-.202-.202-.218-.523-.042-.744l43.909-47.792c4.019-4.374 9.11-7.713 14.723-9.658l20.915-7.243c4.394-1.521 9.13-1.268 13.335.715l18.553 8.748 19.656 19.656c2.929 2.93 7.678 2.929 10.606 0 2.929-2.929 2.929-7.677 0-10.606l-17.745-17.745 38.824-38.824c2.929-2.929 2.929-7.678 0-10.606-2.928-2.93-7.677-2.929-10.606 0l-41.283 41.283-11.61-5.474c-7.771-3.664-16.522-4.134-24.64-1.321l-20.915 7.242c-7.953 2.754-15.166 7.486-20.86 13.683l-43.983 47.872c-.031.034-.062.068-.092.103-5.443 6.147-5.159 15.511.647 21.316 2.642 2.642 5.637 4.716 8.832 6.237l-19.578 19.578c-7.21 7.21-8.365 18.191-3.514 26.638-3.329 1.82-6.538 3.937-9.574 6.375-4.195-3.369-8.714-6.137-13.438-8.326 1.003-.711 1.965-1.505 2.862-2.403 8.62-8.62 8.62-22.645 0-31.265l-16.183-16.183c-2.929-2.929-7.678-2.929-10.606 0-2.929 2.929-2.929 7.678 0 10.606l16.183 16.183c2.771 2.771 2.771 7.28 0 10.052-1.342 1.342-3.127 2.082-5.026 2.082s-3.684-.739-5.026-2.082c-.234-.234-45.374-45.374-45.374-45.374-2.929-2.929-7.678-2.929-10.606 0-2.929 2.929-2.929 7.678 0 10.606l41.819 41.819c-5.697.363-11.354 1.453-16.818 3.286l-36.476-36.476c-2.929-2.929-7.678-2.929-10.606 0-2.929 2.929-2.929 7.678 0 10.606l32.736 32.736c-3.95 2.52-7.695 5.488-11.141 8.934-.005.005-31.211-31.183-31.211-31.183-2.929-2.929-7.678-2.929-10.606 0-2.929 2.929-2.929 7.678 0 10.606l32.435 32.435c-2.694 4.346-4.838 8.937-6.425 13.679 0 0-13.6-13.553-13.878-13.762-.947-6.59-3.95-12.938-9.009-17.996l-21.223-21.223c10.241-10.92 14.201-25.999 10.598-40.633-.991-4.022-5.057-6.478-9.076-5.49-4.022.991-6.48 5.054-5.49 9.076 2.454 9.966-.407 20.242-7.653 27.488l-4.272 4.272c-2.929 2.929-2.929 7.678 0 10.606l26.509 26.51c6.6 6.6 6.6 17.34 0 23.94-.203.201-.523.218-.744.042l-47.792-43.909c-4.374-4.019-7.713-9.11-9.658-14.723l-7.243-20.915c-1.521-4.394-1.268-9.129.715-13.335l8.748-18.553 19.657-19.652c2.929-2.929 2.929-7.678 0-10.606-2.929-2.929-7.678-2.929-10.606 0l-17.744 17.743-38.824-38.824c-2.929-2.93-7.678-2.929-10.606 0-2.929 2.929-2.929 7.678 0 10.606l41.283 41.283-5.474 11.61c-3.664 7.771-4.133 16.521-1.321 24.64l7.243 20.915c2.754 7.953 7.486 15.166 13.683 20.86 0 0 47.94 44.045 47.975 44.075 2.947 2.609 6.632 3.902 10.31 3.902 3.996 0 7.983-1.526 11.006-4.549 2.641-2.642 4.716-5.637 6.237-8.832l13.299 13.299c-.405 8.595.872 17.253 3.81 25.443-2.397 1.085-4.598 2.587-6.511 4.5l-22.497 22.497c-2.929 2.929-2.929 7.678 0 10.606 1.464 1.464 3.384 2.197 5.303 2.197s3.839-.732 5.303-2.197l22.497-22.497c.84-.84 1.741-1.34 2.566-1.642 2.434 3.757 5.284 7.32 8.562 10.617l-46.45 46.45c-2.929 2.929-2.929 7.678 0 10.606 1.464 1.464 3.384 2.197 5.303 2.197s3.839-.732 5.303-2.197l46.448-46.448 10.052 10.052-47.871 47.871c-2.929 2.929-2.929 7.678 0 10.606 1.464 1.464 3.384 2.197 5.303 2.197s3.839-.732 5.303-2.197l47.871-47.871 10.052 10.052-47.434 47.434c-2.929 2.929-2.929 7.678 0 10.606 1.464 1.464 3.384 2.197 5.303 2.197s3.839-.732 5.303-2.197l47.434-47.434 10.052 10.052zm48.212-22.936-74.529-74.532c-19.757-19.806-19.737-52.013.044-71.795 9.899-9.899 22.909-14.85 35.92-14.85 12.989 0 25.981 4.935 35.876 14.806 2.928 2.921 7.666 2.921 10.594 0 19.807-19.758 52.014-19.738 71.796.044 19.779 19.779 19.801 51.981.051 71.789l-74.536 74.539c-1.436 1.437-3.776 1.437-5.216-.001z"/><path d="m108.495 59.77c1.154 1.154 2.652 1.9 4.268 2.125l16.271 2.268c9.664 1.347 18.786 5.889 25.686 12.788l38.884 38.884c1.464 1.464 3.384 2.197 5.303 2.197s3.839-.732 5.303-2.197c2.929-2.929 2.929-7.678 0-10.606l-38.884-38.884c-9.192-9.193-21.346-15.244-34.222-17.038l-13.781-1.92-45.188-45.19c-2.929-2.929-7.678-2.929-10.606 0-2.929 2.929-2.929 7.678 0 10.606z"/><path d="m465.817 401.285 5.474-11.61c3.664-7.771 4.133-16.521 1.321-24.64l-7.243-20.915c-2.754-7.953-7.486-15.166-13.683-20.86l-8.648-7.946c-3.05-2.803-7.795-2.602-10.597.449-2.802 3.05-2.602 7.795.449 10.597l8.648 7.946c4.374 4.019 7.713 9.11 9.658 14.723l7.243 20.915c1.521 4.394 1.268 9.129-.715 13.335l-8.748 18.553-19.656 19.656c-2.929 2.929-2.929 7.677 0 10.606 1.464 1.465 3.384 2.197 5.303 2.197s3.839-.732 5.303-2.197l17.744-17.743 38.824 38.824c1.464 1.465 3.384 2.197 5.303 2.197s3.839-.732 5.303-2.197c2.929-2.929 2.929-7.678 0-10.606z"/></g></g></g></svg>