<svg xmlns="http://www.w3.org/2000/svg" data-name="Layer 1" viewBox="0 0 512 512"><path d="M497.96777,71.50482a20.489,20.489,0,0,0-15.88086.82129c-.13525.06153-.26709.13379-.40185.19825-1.7478-7.86817-6.37061-14.13282-13.26611-16.75586a20.30691,20.30691,0,0,0-14.99415.46289,33.77594,33.77594,0,0,0-6.92773-16.01563,23.18052,23.18052,0,0,0-15.98437-8.74121,24.339,24.339,0,0,0-17.81128,6.13379c-4.65284-13.35449-14.98-22.43555-27.2024-22.43555-.07714,0-.15527.001-.23242.001-7.54639.07129-14.31445,3.5957-19.44873,9.417C359.59741,10.15619,347.15845.291,332.91016.291c-.09571,0-.19532,0-.291.001C312.21875.48529,295.8125,20.82807,296.0459,45.63861c.2334,24.69532,16.86035,44.65332,37.13086,44.65137.0957,0,.19531,0,.291-.001,10.22852-.09668,19.6836-5.10351,26.62305-14.09765.30347-.39356.59351-.79785.884-1.20215,5.32593,10.21289,14.3667,16.80566,24.782,16.80566.07714,0,.15527-.001.23242-.001a25.62866,25.62866,0,0,0,17.04638-7.06641,30.60668,30.60668,0,0,0,4.01709,6.45606,23.18209,23.18209,0,0,0,15.98536,8.74218c.62109.05078,1.2373.07617,1.85253.07617a22.87906,22.87906,0,0,0,8.478-1.65918c1.77222,7.80079,6.37989,14.00489,13.23291,16.61133a19.00245,19.00245,0,0,0,6.77637,1.2295,21.95515,21.95515,0,0,0,9.10645-2.05079c.13476-.06152.26611-.13379.40014-.19824,1.7478,7.86914,6.3711,14.13379,13.26685,16.75586a19.00235,19.00235,0,0,0,6.77636,1.22949,21.92792,21.92792,0,0,0,9.1045-2.05078c7.63476-3.48926,13.99121-10.9082,17.43945-20.35449C515.51465,92.95307,510.46191,76.25775,497.96777,71.50482ZM348.21484,67.02826c-4.07031,5.27539-9.35742,8.209-14.88769,8.26074-.05176.001-.10254.001-.1543.001-12.05957-.001-21.97168-13.32129-22.12695-29.792-.15625-16.541,9.585-30.0918,21.71484-30.20606.05176-.001.10254-.001.1543-.001,12.06055,0,21.97266,13.32129,22.12793,29.792C355.12207,53.42572,352.69727,61.21869,348.21484,67.02826ZM395.419,70.79291c-1.57032,2.22266-4.90333,5.957-9.57032,6.001-7.96484.10058-14.82031-10.53614-14.93847-23.1709-.11914-12.63574,6.5205-23.374,14.498-23.44922.02832-.001.05567-.001.084-.001,7.94238,0,14.73535,10.582,14.85351,23.17188C400.4082,59.916,398.6123,66.27533,395.419,70.79291Zm43.34863-4.34668a28.98169,28.98169,0,0,1-.87354,4.39063,42.56928,42.56928,0,0,0-2.79541,6.10937v-.001c-.14209.38965-.272.77832-.40185,1.168-2.81616,4.40723-6.6626,7.18653-10.41651,6.86328a8.13913,8.13913,0,0,1-5.62011-3.29492c-3.19336-3.90039-4.64258-10.15429-3.877-16.72754v-.001c1.17676-10.10157,7.585-18.55371,13.90723-18.55371.19336,0,.38769.00781.58008.02441a8.13742,8.13742,0,0,1,5.61914,3.29394C438.083,53.61908,439.5332,59.873,438.76758,66.44623Zm27.06347,22.18945c-2.01953,5.53321-5.69043,10.0752-9.582,11.85352a5.55519,5.55519,0,0,1-4.31445.44531c-4.33984-1.65137-5.26025-9.57031-3.459-16.51172a41.10654,41.10654,0,0,0,3.31518-7.59472,17.52023,17.52023,0,0,1,6.98071-6.59473,6.899,6.899,0,0,1,2.8418-.70605,4.1075,4.1075,0,0,1,1.47168.26074C467.92188,71.62787,468.52441,81.25678,465.83105,88.63568ZM495.37988,104.372c-2.01953,5.5332-5.6914,10.07617-9.582,11.85449a5.56814,5.56814,0,0,1-4.31347.44434c-4.83692-1.83984-5.43848-11.46777-2.74512-18.84668,2.01953-5.53418,5.6914-10.07715,9.582-11.85547a6.91125,6.91125,0,0,1,2.84082-.70508,4.1037,4.1037,0,0,1,1.47168.26075C497.4707,87.3642,498.07324,96.99311,495.37988,104.372Zm-264.029,173.43164a7.5,7.5,0,1,0-7.5-7.5A7.50037,7.50037,0,0,0,231.35083,277.80365Zm-28.9231,96.42383a209.41183,209.41183,0,0,0-16.24316-19.4248c-7.08789-7.80567-13.7832-15.17872-18.88965-23.80079-6.95215-11.73925-14.54785-29.70507-11.25586-48.62793,3.25879-18.72363,16.7002-35.18457,29.69922-51.10253q2.24121-2.74512,4.45313-5.47461c14.65136-18.15235,31.05371-42.375,27.81933-68.792a57.10622,57.10622,0,0,0-22.998-38.76171,66.89263,66.89263,0,0,0-7.22657-4.69629c-.67383-.37891-16.7539-9.26368-39.70019-9.26368h-.10156c-81.502.09571-112.10157,51.21-114.3877,55.27735l-.00488-.00293c-8.81934,16.06933-12.40528,34.80078-10.65918,55.67285,1.45508,17.39453,6.69922,35.94434,15.167,53.64453,6.29,13.14942,14.97656,24.17676,23.37793,34.84082,11.71582,14.8711,22.78223,28.918,26.76953,47.60156,3.34668,15.68262,1.49023,32.79981-.30469,49.35254-.7041,6.498-1.43261,13.21778-1.84375,19.79395-1.168,18.70508,2.0918,36.32519,9.42774,50.958a71.72472,71.72472,0,0,0,40.168,35.86816,80.34081,80.34081,0,0,0,27.12988,4.65332c14.09668-.001,28.81152-3.67285,40.46973-12.84668,23.77246-18.709,24.22558-50.97363,20.42089-74.74512C221.03516,407.60736,213.47656,389.80658,202.42773,374.22748Zm-8.41015,113.082c-15.17578,11.94141-37.64453,11.56153-53.17871,5.89063-40.14551-14.65918-40.58985-58.66309-39.76953-71.80078.38964-6.23536,1.06738-12.49024,1.78613-19.11231,1.92285-17.72949,3.91015-36.0625.06152-54.10059-4.71582-22.0957-17.39453-38.18945-29.65625-53.7539-8.25781-10.48145-16.05859-20.38281-21.62988-32.03027-24.11524-50.41114-11.45215-83.66895-4.88867-95.62793l.01758-.03321c.11816-.21289,6.76269-12.07129,22.40625-23.74316,21.041-15.69922,47.56543-23.67871,78.83593-23.71485h.084a73.48982,73.48982,0,0,1,32.37988,7.35645,51.89816,51.89816,0,0,1,5.65918,3.6875,42.62634,42.62634,0,0,1,16.99707,28.5c2.53516,20.71-11.01465,40.71289-24.60254,57.54785q-2.17822,2.69971-4.39941,5.4082c-14.22168,17.416-28.92676,35.42383-32.8584,58.01954-4.07715,23.42968,4.88867,44.93066,13.12695,58.84179,5.88281,9.93555,13.41113,18.22461,20.69141,26.24219a195.20075,195.20075,0,0,1,15.1123,18.01855c9.60157,13.53907,16.42188,29.50977,18.71094,43.81641C214.64551,462.59564,203.97754,479.47064,194.01758,487.30951Zm78.15893-217.00586a7.5,7.5,0,1,0,7.5-7.5A7.50037,7.50037,0,0,0,272.17651,270.30365ZM35.84766,130.69037c6.89636-2.62207,11.51977-8.88672,13.26782-16.75586.134.06445.26538.13672.40014.19824a21.93985,21.93985,0,0,0,9.10645,2.05079,18.99326,18.99326,0,0,0,6.77539-1.2295C72.251,112.3476,76.85864,106.1435,78.6311,98.34271a22.85977,22.85977,0,0,0,8.47828,1.65918q.92137,0,1.85253-.07617a23.18209,23.18209,0,0,0,15.98536-8.74218,30.60668,30.60668,0,0,0,4.01709-6.45606,25.62913,25.62913,0,0,0,17.04638,7.06641c.07813,0,.1543.001.23242.001,10.41455,0,19.45557-6.59375,24.78174-16.80566.29053.4043.58081.80859.88428,1.20215,6.93945,8.99414,16.39453,14.001,26.62305,14.09765.09668.001.19336.001.291.001,20.26856,0,36.89746-19.957,37.13086-44.65137C216.1875,20.82807,199.78125.48529,179.37988.29193c-.09668-.001-.19336-.001-.29-.001-14.24682,0-26.68652,9.86621-32.90747,24.2998-5.13452-5.82129-11.90283-9.3457-19.44995-9.417-.07812,0-.1543-.001-.23242-.001-12.22339,0-22.55249,9.085-27.2041,22.44434a24.38645,24.38645,0,0,0-17.8086-6.14258,23.18052,23.18052,0,0,0-15.98437,8.74121,33.77736,33.77736,0,0,0-6.92786,16.01563,20.31128,20.31128,0,0,0-14.994-.46289c-6.8955,2.623-11.51831,8.88769-13.26623,16.75586-.13452-.06446-.26636-.13672-.40173-.19825a20.50141,20.50141,0,0,0-15.88086-.82129C1.53809,76.25775-3.51465,92.95307,2.52832,109.51459c3.44824,9.44629,9.80469,16.86523,17.43945,20.35449a21.917,21.917,0,0,0,9.10547,2.05078A18.99188,18.99188,0,0,0,35.84766,130.69037ZM179.084,15.291c.05176,0,.10352,0,.1543.001,12.13086.11426,21.87207,13.665,21.71582,30.20606-.15527,16.47168-10.06543,29.793-22.127,29.792-.05078,0-.10254,0-.1543-.001-5.53027-.05175-10.81738-2.98535-14.88769-8.26074-4.48243-5.80957-6.90723-13.60254-6.82813-21.94531C157.1123,28.61127,167.02344,15.291,179.084,15.291ZM126.50684,30.17279c.02832,0,.05664,0,.084.001,7.97852.07519,14.61816,10.81348,14.499,23.44922-.11816,12.59082-6.91113,23.17187-14.85449,23.17187-.02734,0-.05566,0-.084-.001-4.667-.044-8-3.77832-9.57032-6.001-3.19335-4.51758-4.98925-10.877-4.92675-17.44824C111.77246,40.75385,118.56543,30.17279,126.50684,30.17279ZM77.11035,49.71771a8.13742,8.13742,0,0,1,5.61914-3.29394q.29-.0249.58008-.02441c6.32227,0,12.73047,8.45214,13.90723,18.55371v.001c.76562,6.57325-.6836,12.82715-3.877,16.72754a8.13913,8.13913,0,0,1-5.62011,3.29492c-3.76026.31836-7.59864-2.45019-10.40967-6.84277-.13184-.39551-.26416-.792-.40869-1.1875A42.65968,42.65968,0,0,0,74.10278,70.83a29.0028,29.0028,0,0,1-.87036-4.38281C72.4668,59.873,73.917,53.61908,77.11035,49.71771ZM48.915,69.788a4.1075,4.1075,0,0,1,1.47168-.26074,6.90257,6.90257,0,0,1,2.8418.70605,17.50978,17.50978,0,0,1,6.98,6.59375,41.1143,41.1143,0,0,0,3.31665,7.59863c1.80029,6.94043.87939,14.8584-3.4607,16.50879a5.548,5.548,0,0,1-4.31347-.44531c-3.8916-1.77832-7.5625-6.32031-9.582-11.85352C43.47559,81.25678,44.07812,71.62787,48.915,69.788ZM26.20215,116.2265c-3.89063-1.77832-7.5625-6.32129-9.582-11.85449-2.69336-7.3789-2.09082-17.00781,2.74609-18.84765a4.1075,4.1075,0,0,1,1.47168-.26075,6.91125,6.91125,0,0,1,2.84082.70508c3.89063,1.77832,7.5625,6.32129,9.582,11.85547,2.69336,7.37891,2.0918,17.00684-2.74609,18.84668A5.56148,5.56148,0,0,1,26.20215,116.2265ZM279.67651,311.67182a7.5,7.5,0,1,0,7.5,7.5A7.49974,7.49974,0,0,0,279.67651,311.67182Zm-40.82568,7.5a7.5,7.5,0,1,0-7.5,7.5A7.49974,7.49974,0,0,0,238.85083,319.17182ZM364.01562,104.28314h-.10253c-22.94336,0-39.02539,8.88477-39.67383,9.249a67.07365,67.07365,0,0,0-7.252,4.71094,57.10622,57.10622,0,0,0-22.998,38.76171c-1.47071,12.01465.86328,24.26563,7.13672,37.45118,5.93652,12.47851,14.64746,23.86328,20.68261,31.34082q2.2046,2.73193,4.45313,5.47461c12.999,15.918,26.44043,32.3789,29.69922,51.10156,3.292,18.92383-4.30371,36.88965-11.25586,48.6289-5.10645,8.62207-11.80176,15.99512-18.88965,23.80079a209.574,209.574,0,0,0-16.24414,19.4248c-11.04785,15.5791-18.60645,33.37988-21.28516,50.123-3.80566,23.77246-3.35254,56.03711,20.4209,74.74609,11.65918,9.17481,26.37109,12.84668,40.46875,12.84668A80.365,80.365,0,0,0,376.30566,507.29a71.72162,71.72162,0,0,0,40.168-35.86816c7.33594-14.63282,10.59571-32.25293,9.42774-50.958-.40137-6.41992-1.09082-12.94043-1.75782-19.24707-1.917-18.12891-3.72851-35.252.44825-51.69531,4.57031-17.99414,15.10058-31.55372,26.25-45.91016,8.25879-10.63379,16.79785-21.62891,23.09863-34.81836,18.89453-39.55664,20.53418-79.35156,4.49805-109.17871C477.22656,157.35932,447.78125,104.3808,364.01562,104.28314Zm96.38965,158.04493c-5.60351,11.73047-13.28125,21.61621-21.41015,32.082-11.60254,14.94043-23.60059,30.38965-28.94239,51.418-4.83691,19.04492-2.79785,38.32324-.82617,56.96679.68067,6.43164,1.32324,12.50586,1.7041,18.6045.82032,13.13769.376,57.1416-39.76953,71.80078-15.53222,5.67187-38.002,6.05078-53.17773-5.89063-9.96094-7.83887-20.62891-24.71387-14.88574-60.58887,2.28808-14.30566,9.10839-30.27636,18.709-43.81543a195.21423,195.21423,0,0,1,15.11328-18.01855c7.28028-8.01758,14.8086-16.30664,20.69141-26.24219,8.23828-13.91113,17.2041-35.41211,13.12695-58.84277-3.93164-22.59473-18.63672-40.60254-32.8584-58.01856q-2.21337-2.71-4.39941-5.4082c-13.58789-16.835-27.1377-36.83789-24.60254-57.54785a42.62875,42.62875,0,0,1,16.99609-28.5,52.07518,52.07518,0,0,1,5.66309-3.68945,73.48967,73.48967,0,0,1,32.377-7.3545h.084c31.27539.03614,57.80273,8.01758,78.8457,23.72266,15.57813,11.625,22.22949,23.43457,22.39551,23.7334C484.74414,203.04682,468.35742,245.68061,460.40527,262.32807Zm-163,80.57714a7.5,7.5,0,0,0,15,0V301.416a14.933,14.933,0,0,0-14.916-14.916H263.5v-33.9043h41.40527a7.5,7.5,0,0,0,0-15H263.416a14.93222,14.93222,0,0,0-14.916,14.915v33.98926H214.59473v-41.4043a7.5,7.5,0,0,0-15,0v41.48829a14.933,14.933,0,0,0,14.916,14.916H248.5v33.90527H207.09473a7.5,7.5,0,0,0,0,15H248.584a14.933,14.933,0,0,0,14.916-14.916V301.49994h33.90527Z"/></svg>