<svg xmlns="http://www.w3.org/2000/svg" data-name="Layer 1" viewBox="0 0 512 512"><path d="M509.80664,26.749A7.49929,7.49929,0,0,0,504.5,24.54877h-.06836l-59.70312.542a7.50048,7.50048,0,0,0-5.23536,12.80371l5.30274,5.30274L422.00928,65.98432l-.00806.0083L397.46973,90.52436c-.03467.03369-.07227.0625-.10645.09668l-39.98242,39.98242L282.5166,55.7392a37.50046,37.50046,0,0,0-53.0332,0l-74.865,74.86475L116.813,92.80805l-.019-.021-.38184-.38184L114.63672,90.621c-.03076-.03077-.06445-.05665-.0957-.08692L67.2041,43.19721l5.30274-5.30274a7.50048,7.50048,0,0,0-5.23536-12.80371l-59.70312-.542H7.5A7.50092,7.50092,0,0,0,0,32.12592L.61523,91.75678A7.50087,7.50087,0,0,0,13.419,96.98334l5.30273-5.30273,1.668,1.668.00757.00782,47.9143,47.91406a12.21676,12.21676,0,0,0,16.5271.69336,16.18325,16.18325,0,0,1,4.54224,14.376A5.00071,5.00071,0,0,0,93.415,162.1474a5.06319,5.06319,0,0,0,.89258.08008,5.00155,5.00155,0,0,0,4.915-4.11426,26.10947,26.10947,0,0,0-7.28638-23.17529l22.9021-22.90234L144.0127,141.2099l-98.377,98.377a37.50165,37.50165,0,0,0,0,53.03418L229.4834,476.46869a37.50046,37.50046,0,0,0,53.0332,0L466.36426,292.621a37.50165,37.50165,0,0,0,0-53.03418L367.988,141.21039,397.166,112.04,420.064,134.93793a26.11177,26.11177,0,0,0-7.28662,23.17529,5.00155,5.00155,0,0,0,4.915,4.11426,5.06319,5.06319,0,0,0,.89258-.08008,5.00071,5.00071,0,0,0,4.03418-5.80761,16.18359,16.18359,0,0,1,4.54248-14.37549,12.21719,12.21719,0,0,0,16.52686-.69385L491.606,93.353l.00244-.00244,1.66992-1.66992,5.30273,5.30273a7.50115,7.50115,0,0,0,12.80372-5.22656L512,32.12592A7.4992,7.4992,0,0,0,509.80664,26.749ZM15.43066,73.75775l-.35254-34.13964,34.18165.31054ZM56.59692,53.80463,70.33374,67.54145l-38.51343,11.04ZM40.07568,91.81977,82.46191,79.66938,94.13623,91.34369l-43.05688,11.48ZM76.958,128.70209,63.33618,115.08l37.1482-9.9043ZM455.75684,250.19428a22.49768,22.49768,0,0,1,0,31.81933L271.90918,465.86127a22.52248,22.52248,0,0,1-31.81836,0L56.24316,282.01361a22.52367,22.52367,0,0,1,0-31.81933L240.09082,66.34662a22.52248,22.52248,0,0,1,31.81836,0ZM435.042,128.70209l-23.52637-23.52637,37.1482,9.9043Zm25.87866-25.87842-43.05688-11.48,11.67432-11.67431,42.38623,12.15039ZM441.66626,67.54145l13.73682-13.73682,24.77661,24.77685Zm54.90308,6.2163-33.82911-33.8291,34.18165-.31054ZM241.90942,194.25629c-2.47924,0-4.05053,1.57031-4.05053,3.30615V251.2851c0,2.23144,2.6455,3.38867,5.37329,3.38867,2.64428,0,5.37207-1.15723,5.37207-3.38867V232.11029h9.25635c10.90991,0,19.4226-5.20654,19.4226-18.76123V212.853c0-13.55469-8.26416-18.59668-18.76123-18.59668Zm24.63013,18.92725v.99169c0,6.44678-3.30713,9.50489-8.679,9.50489h-9.25635V203.67865h9.25635C263.23242,203.67865,266.53955,206.73676,266.53955,213.18354Zm76.53809,16.1997a2.05814,2.05814,0,0,1,.24829,1.07422V251.2851c0,2.23144,2.72778,3.38867,5.37182,3.38867,2.728,0,5.37354-1.15723,5.37354-3.38867V230.45746a2.07079,2.07079,0,0,1,.3291-1.07422l17.0271-29.58886a1.98749,1.98749,0,0,0,.24683-1.07422c0-2.645-4.21509-4.46387-7.10767-4.46387-1.7356,0-2.47925.74463-3.22314,2.14941l-12.64576,23.88575L336.136,196.4057a3.235,3.235,0,0,0-3.30689-2.14941c-2.89258,0-7.10766,1.81885-7.10766,4.46387a3.22251,3.22251,0,0,0,.24829,1.07422ZM175.03809,194.25629c-2.72657,0-5.37207.99219-5.37207,3.30615v21.57129H151.06934V197.56244c0-2.314-2.72632-3.30615-5.37183-3.30615-2.72778,0-5.37183.99219-5.37183,3.30615V251.2851c0,2.23144,2.644,3.38867,5.37183,3.38867,2.64551,0,5.37183-1.15723,5.37183-3.38867V227.56439H169.666V251.2851c0,2.23144,2.6455,3.38867,5.37207,3.38867,2.6455,0,5.37182-1.15723,5.37182-3.38867V197.56244C180.40991,195.24848,177.68359,194.25629,175.03809,194.25629Zm114.23242,60.41748c2.644,0,5.37182-1.15723,5.37182-3.38867V232.11029h9.2566c10.90966,0,19.4226-5.20654,19.4226-18.76123V212.853c0-13.55469-8.2644-18.59668-18.76147-18.59668H287.94775c-2.47949,0-4.04931,1.57031-4.04931,3.30615V251.2851C283.89844,253.51654,286.54248,254.67377,289.27051,254.67377Zm5.37182-50.99512h9.2566c5.373,0,8.67871,3.05811,8.67871,9.50489v.99169c0,6.44678-3.30567,9.50489-8.67871,9.50489h-9.2566ZM221.739,252.52533c.41285,1.57031,1.81812,2.14844,3.636,2.14844,2.89258,0,6.7771-1.90088,6.7771-4.46289a3.65213,3.65213,0,0,0-.16455-.82666L216.03638,197.3974c-.7439-2.47949-3.80225-3.63623-6.94312-3.63623-3.05859,0-6.11572,1.15674-6.85937,3.63623l-15.9524,51.98682a4.78733,4.78733,0,0,0-.16479.82666c0,2.645,3.88452,4.46289,6.7771,4.46289,1.81811,0,3.22314-.57813,3.636-2.14844l3.14111-10.99316h18.92724Zm-19.83569-19.42285,7.18994-25.37353,7.18994,25.37353Zm99.86157,47.55176c-.74389-2.48047-3.80346-3.63721-6.94531-3.63721-3.05835,0-6.11792,1.15674-6.86157,3.63721L272,332.65912a4.76678,4.76678,0,0,0-.16479.82715c0,2.64551,3.88574,4.46436,6.77929,4.46436,1.81861,0,3.22437-.57862,3.63892-2.14942l3.14184-10.99658h18.93238l3.14184,10.99658c.41333,1.5708,1.81861,2.14942,3.63745,2.14942,2.89478,0,6.78077-1.90186,6.78077-4.46436a3.66694,3.66694,0,0,0-.166-.82715ZM287.627,316.372l7.19263-25.38281,7.19385,25.38281Zm75.98658-35.55224V334.561c0,2.23193,2.64624,3.38965,5.37377,3.38965,2.64649,0,5.375-1.15772,5.375-3.38965V280.81977c0-2.315-2.72851-3.30713-5.375-3.30713C366.25977,277.51264,363.61353,278.50482,363.61353,280.81977ZM257.0293,334.80854l16.3706-52.00489a3.55837,3.55837,0,0,0,.166-.9917c0-2.398-3.80347-4.29931-6.863-4.29931-1.654,0-3.14184.5791-3.55493,2.1499l-13.06323,44.81152-7.02784-28.77246c-.49633-2.0664-2.89428-2.97607-5.209-2.97607-2.39722,0-4.79517.90967-5.2915,2.97607l-7.02784,28.77246-13.063-44.81152c-.41333-1.5708-1.90186-2.1499-3.55518-2.1499-3.05884,0-6.8623,1.90136-6.8623,4.29931a3.55934,3.55934,0,0,0,.16528.9917l16.3706,52.00489c.7439,2.48046,3.88575,3.63818,7.02784,3.63818,3.05859,0,6.283-1.15772,6.8623-3.63818l5.37378-22.32276,5.29126,22.32276c.57861,2.48046,3.80371,3.63818,6.86255,3.63818C253.14355,338.44672,256.20239,337.289,257.0293,334.80854Zm-66.06153-57.2959c-2.729,0-5.37451.99218-5.37451,3.30713V334.561c0,2.23193,2.64551,3.38965,5.37451,3.38965,2.64551,0,5.37354-1.15772,5.37354-3.38965V280.81977C196.34131,278.50482,193.61328,277.51264,190.96777,277.51264Zm-33.98339,0h-14.634c-2.811,0-4.71264,1.5708-4.71264,3.30713V334.6435c0,1.73632,1.90161,3.30713,4.71264,3.30713h14.634c10.91381,0,19.42944-5.126,19.42944-18.93311V296.44623C176.41382,282.63861,167.89819,277.51264,156.98438,277.51264Zm8.68115,41.50488c0,6.44824-3.22412,9.50781-8.68115,9.50781h-8.59864V286.93842h8.59864c5.457,0,8.68115,3.05859,8.68115,9.50781Zm162.6416,18.93311h26.21c2.14966,0,3.22437-2.39795,3.22437-4.7129,0-2.39746-1.07471-4.7124-3.22437-4.7124H334.344V280.81977c0-2.315-2.72876-3.30713-5.37524-3.30713-2.72729,0-5.37378.99218-5.37378,3.30713V334.561C323.595,336.79291,325.91064,337.95063,328.30713,337.95063ZM413.5,273.604a7.5,7.5,0,1,0-7.5-7.5A7.50006,7.50006,0,0,0,413.5,273.604Zm-315-15a7.5,7.5,0,1,0,7.5,7.5A7.50006,7.50006,0,0,0,98.5,258.604ZM256,416.104a7.5,7.5,0,1,0,7.5,7.5A7.50006,7.50006,0,0,0,256,416.104Zm0-300a7.5,7.5,0,1,0-7.5-7.5A7.50006,7.50006,0,0,0,256,116.104Z"/></svg>