<svg id="Layer_1" data-name="Layer 1" xmlns="http://www.w3.org/2000/svg" xmlns:xlink="http://www.w3.org/1999/xlink" viewBox="0 0 472.92 471.72"><defs><clipPath id="clip-path" transform="translate(-139.57 -141.07)"><rect x="139.21" y="141" width="387.79" height="432" fill="none"/></clipPath><clipPath id="clip-path-2" transform="translate(-139.57 -141.07)"><rect x="405" y="390" width="207.79" height="222.79" fill="none"/></clipPath></defs><g clip-path="url(#clip-path)"><path d="M149.48,326.2v0l1.61,4.06h0a11.22,11.22,0,1,0,6.88-2.73l-1.61-4.05v0h0a9.82,9.82,0,0,1,1-8.52,17.29,17.29,0,0,1,8.72-7.25c7.58-3,15.59-.82,17.85,4.87l1.61,4.07a11.23,11.23,0,1,0,6.88-2.72l-1.61-4.07a9.78,9.78,0,0,1,1-8.53,17.26,17.26,0,0,1,8.71-7.24c7.58-3,15.58-.82,17.84,4.87h0l1.61,4.07a11.07,11.07,0,1,0,17.6,4.24h0a11,11,0,0,0-10.73-7l-1.6-4.05v0h0a9.81,9.81,0,0,1,1-8.53,18.23,18.23,0,0,1,20-7.93,9.8,9.8,0,0,1,6.54,5.56l1.61,4.07a11.07,11.07,0,0,0,7.29,19.43c.13,0,.26,0,.39,0l43.41,109.64s0,.06,0,.09v0h0a3.54,3.54,0,0,0,0,1.77c3.54,11.9,4.25,16.52,3.29,21.48h0a10.86,10.86,0,0,1-6.11,7.49c-1.69.82-3.31,1.7-4.9,2.62.17,1.94.28,3.9.28,5.87,0,.93-.11,1.84-.15,2.76h0a66.41,66.41,0,0,1,8-4.58A18.28,18.28,0,0,0,316,443.22a36.22,36.22,0,0,0-1-16.13,80.11,80.11,0,0,0,39.84.07,29.46,29.46,0,0,0,1.6,20.35,18.23,18.23,0,0,0,8.39,8.77,62.79,62.79,0,0,1,8.9,5.37c-19.5,15.1-49.6,16-76.05,2.72a64,64,0,0,1-1.19,7.67,91.79,91.79,0,0,0,39.31,9.29,68.33,68.33,0,0,0,43.85-14.87,61.62,61.62,0,0,1,6.57,7.13c-29.19,18.77-58.87,21-92.18,6.8a69.66,69.66,0,0,1-2.91,6.83,112.25,112.25,0,0,0,44.36,9.94A99.76,99.76,0,0,0,390.3,479.7a53.93,53.93,0,0,1,7.57,27.43c0,.81-.09,1.6-.13,2.41-31.7,17.83-80.84,17.79-123.82,0-1.21,1.08-2.55,2-3.83,3-1.53,1.19-3,2.4-4.66,3.48,4.73,31.68,34.07,56.18,69.55,56.18h0a70.55,70.55,0,0,0,65.13-40.73,3.39,3.39,0,0,0,.28-.71,60.3,60.3,0,0,0,4.88-23.69,61.48,61.48,0,0,0-10-33.56l12.65-169.12h0a11,11,0,0,0,1.55-20.8l.33-4.34v0h0a9.79,9.79,0,0,1,4.58-7.25,18.21,18.21,0,0,1,21.48,1.61,9.78,9.78,0,0,1,3.46,7.84h0l-.33,4.37h0a11.08,11.08,0,0,0,2.09,21.75c.28,0,.55,0,.83,0h0a11.07,11.07,0,0,0,4.45-21.21l.33-4.36h0c.46-6.11,7.45-10.55,15.59-10s14.37,6.07,13.93,12.16v0l-.33,4.36h0a11.08,11.08,0,0,0,2.09,21.74l.84,0a11.12,11.12,0,0,0,11.06-10.27h0a11.1,11.1,0,0,0-6.61-10.94l.33-4.35h0c.46-6.11,7.43-10.56,15.59-10h0a17.21,17.21,0,0,1,10.47,4.32,9.78,9.78,0,0,1,3.46,7.84h0l-.33,4.38h0a11.07,11.07,0,0,0,2.09,21.73,7.87,7.87,0,0,0,.84,0h0a11.07,11.07,0,0,0,4.45-21.22l.32-4.35v0l.27-3.66h0a119.58,119.58,0,0,0-27.21-85.95,112.18,112.18,0,0,0-74.75-40.31l.94-12.59h0a3.7,3.7,0,0,0-7.38-.56l-.94,12.59a112.19,112.19,0,0,0-79.71,28.76A119.62,119.62,0,0,0,292,266.77l-.27,3.67h0A3.55,3.55,0,0,0,292,272l0,1.76-.05,0h0a11.35,11.35,0,0,0,3.57,22.05h.1a11.46,11.46,0,0,0,4.83-21.92c-.34-.14-.7-.22-1-.33l0-3.62c0-.07,0-.12,0-.19,1.23-5.46,7.74-9.3,15.33-8.76h0a17.26,17.26,0,0,1,10.48,4.32,9.77,9.77,0,0,1,3.45,7.85l-.32,4.37h0a11.07,11.07,0,0,0,2.09,21.73,7.87,7.87,0,0,0,.84,0h0a11.07,11.07,0,0,0,4.45-21.23l.32-4.36c.46-6.1,7.44-10.55,15.59-10s14.37,6.07,13.93,12.16v0l-.32,4.35h0a11.08,11.08,0,0,0,2.09,21.75c.28,0,.56,0,.85,0h0a11.07,11.07,0,0,0,4.45-21.23l.32-4.33v0a9.79,9.79,0,0,1,4.58-7.25,17.32,17.32,0,0,1,11-2.71c8.13.61,14.37,6.06,13.93,12.16v0l-.33,4.36h0a11,11,0,0,0-1.55,20.8l-12,161a69.62,69.62,0,0,0-20.41-15.26,10.73,10.73,0,0,1-4.95-5.22c-2.82-6.16-2.64-11.21,1-23.55a5.89,5.89,0,0,0,.33-1.18l0-.09c0-.07,0-.13,0-.19h0a6.53,6.53,0,0,0,.13-.87c0-.08,0-.15,0-.23s0-.3-.07-.45c-1.15-10.1-26.53-10.42-29.49-10.42-2.18,0-16.4.18-24.31,4.25L268.86,306.08a11.1,11.1,0,0,0,3.05-12.41h0a11.07,11.07,0,0,0-10.71-7l-1.63-4.1c-2.22-5.69,2.11-12.74,9.68-15.74h0a15.48,15.48,0,0,1,15.21,1.33l.15-2q.22-3.08.6-6.12a24,24,0,0,0-18.69-.12,23.64,23.64,0,0,0-14.14,14.48,19.87,19.87,0,0,0-4-1.74,25.6,25.6,0,0,0-28.63,11.33,20.51,20.51,0,0,0-1.76,4.05,23.65,23.65,0,0,0-20.22-.88,24.67,24.67,0,0,0-12.42,10.45,20.51,20.51,0,0,0-1.76,4.05,23.61,23.61,0,0,0-20.22-.87,24.92,24.92,0,0,0-11.72,9.31A113.15,113.15,0,0,1,147,279.47a31.6,31.6,0,0,1,15.25-2.41A42.94,42.94,0,0,0,196,263.7a35.57,35.57,0,0,1,28.16-11.15,43,43,0,0,0,33.76-13.37A35.57,35.57,0,0,1,286.05,228a49.13,49.13,0,0,0,7.38-.11q1.63-4.14,3.55-8.15h0a31.71,31.71,0,0,1-10.63.86A43,43,0,0,0,252.6,234a35.57,35.57,0,0,1-28.16,11.15,43,43,0,0,0-33.75,13.37,31.68,31.68,0,0,1-12.83,8.72c-1.07.42-2,.75-3,1.05h0a3.65,3.65,0,0,0,1.61-4.5,3.7,3.7,0,1,0-3.52,5.06,32.18,32.18,0,0,1-10.44.82,38.43,38.43,0,0,0-15.35,1.85c.17-2.83.43-5.65.81-8.45a3.43,3.43,0,0,0,.34-.06,26.91,26.91,0,0,1,14.07-2A37.66,37.66,0,0,0,194,248.5a27.15,27.15,0,0,1,8.71-6.89,3.65,3.65,0,0,0-1.45,4.4,3.7,3.7,0,1,0,2.41-4.86c.6-.28,1.24-.56,1.94-.84a27.23,27.23,0,0,1,14.07-2A34.56,34.56,0,0,0,237,235.84a3.61,3.61,0,1,0,4.76,1.9,3.61,3.61,0,0,0-4.76-1.9,34.45,34.45,0,0,0,14.28-10A27.21,27.21,0,0,1,263,217.61c.71-.28,1.38-.52,2-.73a3.76,3.76,0,1,0,1.05-.33,27.46,27.46,0,0,1,11-.93,34.46,34.46,0,0,0,17.32-2.48,36,36,0,0,0,8.91-4.91,124.81,124.81,0,0,1,13.63-18.06c1.37-1.53,2.75-3,4.21-4.5a119,119,0,0,0-21.72-12.78,112.16,112.16,0,0,0-84.75-3.69l-4.12-10.41a3.7,3.7,0,0,0-6.88,2.72l4.12,10.42c-56.47,24.53-83.21,91.34-59.65,150.86ZM335,564.85h0a63.75,63.75,0,0,1-55.3-30.48,180.71,180.71,0,0,0,58.19,10.54,165.74,165.74,0,0,0,51.3-8.62A64.09,64.09,0,0,1,335,564.85Zm59-38c-41.79,14.89-74.19,14.38-118.7-1.82h0a52.46,52.46,0,0,1-2.16-7.78,182.58,182.58,0,0,0,66.82,13,130.24,130.24,0,0,0,56.66-11.81,54.26,54.26,0,0,1-2.62,8.35ZM299,286.19a3.66,3.66,0,0,1-1.63,1.38,3.69,3.69,0,0,1-4.76-4.89,4.24,4.24,0,0,1,.38-.56,3.73,3.73,0,0,1,2.6-1.06h0a3.69,3.69,0,0,1,3.38,5.13Zm142.63,14h0a3.7,3.7,0,0,1,.27-7.38h.28a3.7,3.7,0,1,1-.55,7.37ZM478.5,303h0a3.7,3.7,0,0,1,.26-7.39h.29a3.66,3.66,0,0,1,2.53,1.27,3.71,3.71,0,0,1,.89,2.69,3.75,3.75,0,0,1-1.28,2.53,3.71,3.71,0,0,1-2.69.89ZM516,298.35h0a4,4,0,1,1-.28,0ZM414.64,164.63a104.16,104.16,0,0,1,41.46,12.06c-32.91,6.52-56.93,4.41-81.71-7.17a104.22,104.22,0,0,1,40.25-4.89ZM365,173.11a118.49,118.49,0,0,0,57.42,14.68,192.72,192.72,0,0,0,42.31-5.35,4,4,0,0,0,.51-.23,104.28,104.28,0,0,1,8.62,6.48c-44.4,11.43-83.22,7.87-118.28-10.87q4.6-2.59,9.42-4.71ZM336.6,191.35h0a110.8,110.8,0,0,1,11.74-9.09,153,153,0,0,0,77.08,20.41,204.73,204.73,0,0,0,55-8.08c2.58,2.55,5.06,5.23,7.42,8.07h0a111.75,111.75,0,0,1,11.47,16.72A34.77,34.77,0,0,0,486,222.28a30.31,30.31,0,0,1-27.57-2.06,37.68,37.68,0,0,0-33.94-2.54A30.27,30.27,0,0,1,397,215.62,37.65,37.65,0,0,0,363,213.08,30.25,30.25,0,0,1,335.47,211a34.39,34.39,0,0,0-12.7-4.83,111,111,0,0,1,13.83-14.83ZM317.84,213h0l.42.12a27.12,27.12,0,0,1,13.52,4.35A37.63,37.63,0,0,0,365.71,220a27.16,27.16,0,0,1,10.86-2.39,3.63,3.63,0,0,0-3.24,3.32,3.7,3.7,0,1,0,4.28-3.32c.67,0,1.37,0,2.12.09A27.16,27.16,0,0,1,393.26,222a34.46,34.46,0,0,0,16.66,5.32,4.28,4.28,0,1,0,.05,0,34.48,34.48,0,0,0,17.22-2.79,27.06,27.06,0,0,1,14-2.29c.77.05,1.46.13,2.14.22a3.78,3.78,0,1,0,1.1.17,27.23,27.23,0,0,1,10.3,4A34.55,34.55,0,0,0,471.43,232c1.2.09,2.33.13,3.38.13h0a34.24,34.24,0,0,0,13.89-2.92,27.1,27.1,0,0,1,14-2.29,3,3,0,0,0,.42-.06c1.2,2.57,2.27,5.19,3.27,7.85h0a38.74,38.74,0,0,0-15.27,2.79A32.49,32.49,0,0,1,481,239.78a3.7,3.7,0,1,0-4.89-3.77,3.66,3.66,0,0,0,2.86,3.81c-1,0-2,0-3.15-.12a31.58,31.58,0,0,1-14.85-4.5,43,43,0,0,0-36.21-2.71,35.62,35.62,0,0,1-30.21-2.26,43,43,0,0,0-36.2-2.7A31.61,31.61,0,0,1,343,229.77c-1.14-.09-2.16-.21-3.12-.35h0a3.67,3.67,0,1,0-2.08-6.85,3.7,3.7,0,0,0,.12,6.52,32.29,32.29,0,0,1-9.75-3.83,39,39,0,0,0-14.69-5c1.39-2.47,2.83-4.91,4.4-7.27Zm15.76,78.09h0a3.7,3.7,0,1,1-2.42-6.5h.29a3.69,3.69,0,0,1,2.13,6.49Zm36.89,2.76h0a3.7,3.7,0,1,1-2.41-6.5h.28a3.69,3.69,0,0,1,2.13,6.49ZM389,259.18h0a24.73,24.73,0,0,0-15.73,4,20.4,20.4,0,0,0-3.35,2.87,24.8,24.8,0,0,0-36.85-2.75,19.59,19.59,0,0,0-2.89-3.34,25.61,25.61,0,0,0-29.59-3,113.25,113.25,0,0,1,9.27-29.68,31.71,31.71,0,0,1,14.76,4.49,42.93,42.93,0,0,0,36.19,2.71,35.6,35.6,0,0,1,30.2,2.26,43,43,0,0,0,36.21,2.71,35.6,35.6,0,0,1,30.2,2.26,39.17,39.17,0,0,0,17.81,5.36c1.37.1,2.65.15,3.85.15h0a38.84,38.84,0,0,0,14.56-2.8,31.78,31.78,0,0,1,15.27-2.25,113.56,113.56,0,0,1,4.75,30.69,24.89,24.89,0,0,0-14-5.41,23.57,23.57,0,0,0-19.06,6.89,23.61,23.61,0,0,0-17.84-9.65c-.67-.05-1.33-.07-2-.07h0a23.28,23.28,0,0,0-17,6.93,19.53,19.53,0,0,0-2.88-3.34,25.6,25.6,0,0,0-30.7-2.3,19.6,19.6,0,0,0-3.36,2.88,23.6,23.6,0,0,0-17.8-9.62ZM402.57,291h0a3.67,3.67,0,0,1,2.41-.9l.28,0h0a3.7,3.7,0,0,1,2.14,6.49,3.79,3.79,0,0,1-2.7.88,3.66,3.66,0,0,1-3.23-2.53,3.7,3.7,0,0,1,1.1-4ZM335,414.85a48.16,48.16,0,0,1,21.57,3.7,48.3,48.3,0,0,1-21.57,3.7,48.23,48.23,0,0,1-21.56-3.7A48.12,48.12,0,0,1,335,414.85ZM258.19,296.28a3.69,3.69,0,1,1-.05,2.83,3.7,3.7,0,0,1,.05-2.83Zm-32.38,11.65h0a3.79,3.79,0,0,1,1.37-.26,3.71,3.71,0,0,1,3.44,2.34h0a3.7,3.7,0,1,1-4.81-2.08Zm-36.42,15.59a3.7,3.7,0,0,1,6.83.1h0a3.7,3.7,0,1,1-6.83-.11ZM155,337.14a3.7,3.7,0,0,1,6.83.11h0a3.7,3.7,0,1,1-6.83-.11ZM213.9,177.35A104.15,104.15,0,0,1,252.3,170c2.71,0,5.42.15,8.14.36-26.15,22.17-52.19,32-83.06,31.48a103.79,103.79,0,0,1,36.52-24.48ZM171.08,209l.08,0q4.47.26,8.81.26c33.55,0,61.74-11.85,90.29-37.69,3.38.59,6.76,1.33,10.11,2.25-36.86,32.12-73,46.11-116.36,45.06h0a106.54,106.54,0,0,1,7.08-9.9ZM159.8,226.15a1.46,1.46,0,0,0,.2,0c2.91.12,5.78.19,8.64.19,43.94,0,80.8-15.19,118.45-48.58h0a3.61,3.61,0,0,0,1-1.52c2.79,1,5.56,2.08,8.3,3.32h0a110.22,110.22,0,0,1,17.54,10.08,35,35,0,0,0-10.62,8.36,30.34,30.34,0,0,1-25.7,10.18,37.67,37.67,0,0,0-31.65,12.53,30.23,30.23,0,0,1-25.69,10.17,37.67,37.67,0,0,0-31.64,12.53,30.22,30.22,0,0,1-25.67,10.17,34.5,34.5,0,0,0-13.52,1.19,110.92,110.92,0,0,1,10.38-28.68Z" transform="translate(-139.57 -141.07)"/></g><path d="M302.2,210.09a3.63,3.63,0,0,0-2.06,3.54C300.79,212.43,301.5,211.26,302.2,210.09Z" transform="translate(-139.57 -141.07)"/><path d="M308.79,480.45c0,4.93-7.4,4.93-7.4,0s7.4-4.93,7.4,0" transform="translate(-139.57 -141.07)"/><path d="M336,483.52c2.43,4.3-4,7.93-6.45,3.63s4-7.93,6.45-3.63" transform="translate(-139.57 -141.07)"/><path d="M350.25,483.11c2.42,4.3-4,7.93-6.45,3.63s4-7.93,6.45-3.63" transform="translate(-139.57 -141.07)"/><path d="M365.48,479.41c2.42,4.3-4,7.93-6.45,3.63s4-7.93,6.45-3.63" transform="translate(-139.57 -141.07)"/><path d="M378.2,472.84c2.42,4.3-4,7.93-6.45,3.63s4-7.93,6.45-3.63" transform="translate(-139.57 -141.07)"/><path d="M322.14,483.78c0,4.93-7.4,4.93-7.4,0s7.4-4.93,7.4,0" transform="translate(-139.57 -141.07)"/><path d="M277.35,520.63a1.85,1.85,0,0,1-.07,3.7,1.85,1.85,0,0,1,.07-3.7" transform="translate(-139.57 -141.07)"/><path d="M285.39,523.58a1.85,1.85,0,0,1-.08,3.7,1.85,1.85,0,0,1,.08-3.7" transform="translate(-139.57 -141.07)"/><path d="M294,526.15a1.85,1.85,0,0,1-.07,3.7,1.85,1.85,0,0,1,.07-3.7" transform="translate(-139.57 -141.07)"/><path d="M302.7,528.18a1.85,1.85,0,0,1-.07,3.7,1.85,1.85,0,0,1,.07-3.7" transform="translate(-139.57 -141.07)"/><path d="M311,530.21a1.85,1.85,0,0,1-.07,3.7,1.85,1.85,0,0,1,.07-3.7" transform="translate(-139.57 -141.07)"/><path d="M320.21,531.44a1.85,1.85,0,0,1-.08,3.7,1.85,1.85,0,0,1,.08-3.7" transform="translate(-139.57 -141.07)"/><path d="M337.47,532.61a1.85,1.85,0,0,1-.08,3.7,1.85,1.85,0,0,1,.08-3.7" transform="translate(-139.57 -141.07)"/><path d="M335.38,498.06a1.85,1.85,0,0,1-.08,3.7,1.85,1.85,0,0,1,.08-3.7" transform="translate(-139.57 -141.07)"/><path d="M343.68,501.53a1.85,1.85,0,1,1-2.67,2.56,1.85,1.85,0,1,1,2.67-2.56" transform="translate(-139.57 -141.07)"/><path d="M345.28,508a1.85,1.85,0,0,1-.08,3.7,1.85,1.85,0,0,1,.08-3.7" transform="translate(-139.57 -141.07)"/><path d="M343.68,515.54A1.85,1.85,0,1,1,341,518.1a1.85,1.85,0,1,1,2.67-2.56" transform="translate(-139.57 -141.07)"/><path d="M335.38,517.87a1.85,1.85,0,0,1-.08,3.7,1.85,1.85,0,0,1,.08-3.7" transform="translate(-139.57 -141.07)"/><path d="M329.67,515.54A1.85,1.85,0,1,1,327,518.1a1.85,1.85,0,1,1,2.67-2.56" transform="translate(-139.57 -141.07)"/><path d="M325.47,508a1.85,1.85,0,0,1-.08,3.7,1.85,1.85,0,0,1,.08-3.7" transform="translate(-139.57 -141.07)"/><path d="M329.67,501.53a1.85,1.85,0,1,1-2.67,2.56,1.85,1.85,0,1,1,2.67-2.56" transform="translate(-139.57 -141.07)"/><path d="M329,532.43a1.85,1.85,0,0,1-.07,3.7,1.85,1.85,0,0,1,.07-3.7" transform="translate(-139.57 -141.07)"/><path d="M346.41,532.61a1.85,1.85,0,0,1-.08,3.7,1.85,1.85,0,0,1,.08-3.7" transform="translate(-139.57 -141.07)"/><path d="M355.75,531.44a1.85,1.85,0,0,1-.07,3.7,1.85,1.85,0,0,1,.07-3.7" transform="translate(-139.57 -141.07)"/><path d="M364.23,530.5a1.85,1.85,0,0,1-.08,3.7,1.85,1.85,0,0,1,.08-3.7" transform="translate(-139.57 -141.07)"/><path d="M373,528.51a1.85,1.85,0,0,1-.08,3.7,1.85,1.85,0,0,1,.08-3.7" transform="translate(-139.57 -141.07)"/><path d="M381.82,526.66a1.85,1.85,0,0,1-.08,3.7,1.85,1.85,0,0,1,.08-3.7" transform="translate(-139.57 -141.07)"/><path d="M390.74,523a1.85,1.85,0,0,1-.08,3.7,1.85,1.85,0,0,1,.08-3.7" transform="translate(-139.57 -141.07)"/><path d="M327.94,509.81a7.4,7.4,0,1,0,7.4-7.4,7.4,7.4,0,0,0-7.4,7.4Zm7.4-1.85a1.85,1.85,0,0,1,1.71,1.14,1.89,1.89,0,0,1-.4,2,1.85,1.85,0,1,1-1.31-3.16Z" transform="translate(-139.57 -141.07)"/><path d="M187.92,400.67c-23.4,11.12-37.93,33-37.93,57.13,0,35.48,31.53,64.34,70.3,64.34s70.29-28.86,70.29-64.34A63.73,63.73,0,0,0,253.34,401a10.74,10.74,0,0,1-4.94-5.13c-2.81-6.07-2.62-11,1-23.21a5.71,5.71,0,0,0,.33-1.14l0-.1c0-.06,0-.13,0-.19h0a5.2,5.2,0,0,0,.14-.88c0-.08,0-.15,0-.23s0-.3-.07-.44c-1.14-10-26.53-10.33-29.49-10.33s-29.6.31-29.6,11h0a3.54,3.54,0,0,0,0,1.77c3.54,11.73,4.24,16.28,3.28,21.17a10.66,10.66,0,0,1-6.09,7.36ZM161.41,438.9h31.26l-17.08,17.86L161.21,439c-.06-.08-.15-.11-.21-.18h0a2.71,2.71,0,0,0,.41.09ZM217.27,457,200,438.9h34.61Zm21-11.21L252.9,461.1H223.59ZM211,461.1H181.68l14.64-15.31Zm-53.56-3.3a52.23,52.23,0,0,1,1.08-10.43l11.11,13.73h-12c-.07-1.1-.18-2.19-.18-3.3Zm62.9,56.94a63.84,63.84,0,0,1-56.16-31.44H276.45a63.87,63.87,0,0,1-56.16,31.44Zm59.58-38.84H160.7a52.83,52.83,0,0,1-2.16-7.41H282a51.52,51.52,0,0,1-2.16,7.41Zm3.32-18.1c0,1.12-.12,2.2-.19,3.3H265.54l15.88-16.59h0a52.33,52.33,0,0,1,1.77,13.29Zm-24-.8-17.33-18.1h34.66Zm16.84-25.5H164.48a55.37,55.37,0,0,1,5.12-7.4H271a55.3,55.3,0,0,1,5.11,7.4Zm-55.77-64.76a49.38,49.38,0,0,1,21.49,3.61A49.55,49.55,0,0,1,220.29,374a49.57,49.57,0,0,1-21.5-3.61A49.43,49.43,0,0,1,220.29,366.74Zm-19,28a35.35,35.35,0,0,0-1-15.9,80.85,80.85,0,0,0,39.82.07A28.82,28.82,0,0,0,241.69,399a18.06,18.06,0,0,0,8.41,8.67,63.55,63.55,0,0,1,13.72,9.05H176.76a63.52,63.52,0,0,1,14.34-9.35,18.1,18.1,0,0,0,10.18-12.62Z" transform="translate(-139.57 -141.07)"/><path d="M179.72,446.91c0,4.87-7.4,4.87-7.4,0s7.4-4.87,7.4,0" transform="translate(-139.57 -141.07)"/><path d="M263.08,446.91c0,4.87-7.4,4.87-7.4,0s7.4-4.87,7.4,0" transform="translate(-139.57 -141.07)"/><path d="M221.53,446.91c0,4.87-7.4,4.87-7.4,0s7.4-4.87,7.4,0" transform="translate(-139.57 -141.07)"/><path d="M199.84,455c0,4.87-7.4,4.87-7.4,0s7.4-4.87,7.4,0" transform="translate(-139.57 -141.07)"/><path d="M242,455c0,4.87-7.4,4.87-7.4,0s7.4-4.87,7.4,0" transform="translate(-139.57 -141.07)"/><path d="M176.36,214a1.85,1.85,0,1,1-3.7,0,1.85,1.85,0,0,1,3.7,0" transform="translate(-139.57 -141.07)"/><path d="M188.73,213.39a1.85,1.85,0,1,1-3.7,0,1.85,1.85,0,0,1,3.7,0" transform="translate(-139.57 -141.07)"/><path d="M201.91,212.12a1.85,1.85,0,0,1-3.7,0,1.85,1.85,0,1,1,3.7,0" transform="translate(-139.57 -141.07)"/><path d="M214.38,208.83a1.85,1.85,0,0,1-3.7,0,1.85,1.85,0,1,1,3.7,0" transform="translate(-139.57 -141.07)"/><path d="M226.93,205.13a1.85,1.85,0,0,1-3.7,0,1.85,1.85,0,1,1,3.7,0" transform="translate(-139.57 -141.07)"/><path d="M238.48,200.41a1.85,1.85,0,0,1-3.7,0,1.85,1.85,0,1,1,3.7,0" transform="translate(-139.57 -141.07)"/><path d="M249.5,194.55a1.85,1.85,0,0,1-3.7,0,1.85,1.85,0,0,1,3.7,0" transform="translate(-139.57 -141.07)"/><path d="M258.45,187.89a1.85,1.85,0,1,1-3.7,0,1.85,1.85,0,0,1,3.7,0" transform="translate(-139.57 -141.07)"/><path d="M267.7,180.37a1.85,1.85,0,1,1-3.7,0,1.85,1.85,0,0,1,3.7,0" transform="translate(-139.57 -141.07)"/><g clip-path="url(#clip-path-2)"><path d="M508.88,390.8c-7.49,0-12.72,7-17.78,13.84-3.34,4.48-6.78,9.11-9.85,10.13-3.31,1.11-8.9-.59-14.33-2.24-7.85-2.38-16-4.83-21.77-.5s-6,13-6.23,21.4c-.14,5.78-.29,11.77-2.33,14.64s-7.4,4.74-12.65,6.63c-7.81,2.81-15.88,5.72-18.13,12.83-2.14,6.77,2.56,13.8,7.11,20.6,3.28,4.87,6.65,9.9,6.65,13.67s-3.37,8.8-6.64,13.67c-4.55,6.8-9.26,13.83-7.11,20.61,2.24,7.1,10.32,10,18.12,12.83,5.25,1.89,10.68,3.84,12.66,6.63s2.18,8.85,2.33,14.64c.2,8.38.42,17.05,6.23,21.39s13.92,1.87,21.77-.5c5.42-1.65,11-3.34,14.32-2.25,3.08,1,6.53,5.66,9.85,10.14,5.06,6.79,10.29,13.83,17.78,13.83s12.72-7,17.79-13.84c3.33-4.48,6.77-9.11,9.84-10.13,3.31-1.11,8.91.6,14.33,2.24,7.85,2.38,16,4.84,21.77.5s6-13,6.23-21.39c.15-5.79.29-11.77,2.33-14.64s7.41-4.74,12.65-6.63c7.81-2.81,15.88-5.73,18.13-12.83,2.14-6.78-2.56-13.81-7.11-20.6-3.27-4.88-6.64-9.92-6.64-13.68s3.37-8.8,6.64-13.67c4.55-6.8,9.26-13.83,7.11-20.61-2.25-7.1-10.32-10-18.13-12.83-5.25-1.89-10.67-3.84-12.65-6.63s-2.18-8.85-2.33-14.64c-.21-8.38-.42-17.06-6.23-21.39s-13.92-1.88-21.77.5c-5.42,1.65-11,3.34-14.32,2.24-3.08-1-6.52-5.65-9.85-10.13-5.07-6.79-10.31-13.83-17.79-13.83Zm-62.56,42.8c.15-6.31.33-13.46,3.26-15.64s9.39-.11,15.19,1.65h0a53.86,53.86,0,0,0,13.39,2.86,85.35,85.35,0,0,0-32.76,22.75,71.78,71.78,0,0,0,.92-11.62ZM419.08,484c-3.41-5.09-7.29-10.86-6.21-14.25,1.14-3.62,7.47-5.9,13.58-8.1h0a74,74,0,0,0,9.74-4,84.57,84.57,0,0,0-11.89,34.89,89,89,0,0,0-5.22-8.49Zm7.37,57.94c-6.11-2.2-12.44-4.48-13.58-8.1-1.08-3.39,2.8-9.16,6.21-14.26a86.46,86.46,0,0,0,5.22-8.48A84.61,84.61,0,0,0,436.18,546a75.06,75.06,0,0,0-9.73-4Zm38.32,42c-5.8,1.76-12.38,3.76-15.19,1.66s-3.1-9.34-3.26-15.65h0a71.42,71.42,0,0,0-.92-11.59,85.5,85.5,0,0,0,32.72,22.73A53.81,53.81,0,0,0,464.78,584Zm56,10.55c-3.79,5.09-8.08,10.86-11.85,10.86s-8.06-5.77-11.85-10.86a53.53,53.53,0,0,0-9-10.22,85.18,85.18,0,0,0,41.73,0,53.52,53.52,0,0,0-9,10.22ZM571.44,570c-.15,6.31-.33,13.46-3.25,15.65s-9.4.1-15.2-1.66h0a54.3,54.3,0,0,0-13.33-2.86,85.44,85.44,0,0,0,32.7-22.72,72.56,72.56,0,0,0-.92,11.59Zm27.24-50.4c3.42,5.09,7.29,10.87,6.21,14.25-1.14,3.62-7.47,5.9-13.58,8.1h0a74.3,74.3,0,0,0-9.72,4,84.64,84.64,0,0,0,11.87-34.88,87.81,87.81,0,0,0,5.22,8.49Zm-7.37-57.94c6.11,2.21,12.44,4.49,13.58,8.1,1.08,3.39-2.79,9.16-6.21,14.26h0a89.14,89.14,0,0,0-5.23,8.49,84.52,84.52,0,0,0-11.89-34.9,73.44,73.44,0,0,0,9.75,4.06Zm-38.33-42c5.8-1.75,12.39-3.75,15.2-1.65s3.1,9.33,3.26,15.64h0a71.78,71.78,0,0,0,.92,11.62,85.39,85.39,0,0,0-32.77-22.75A53.76,53.76,0,0,0,553,419.61Zm33.6,82.2a77.79,77.79,0,1,1-22.79-54.92,77.73,77.73,0,0,1,22.79,54.92Zm-56.8-82.49a85,85,0,0,0-41.81,0A53,53,0,0,0,497,409.06c3.79-5.09,8.08-10.86,11.85-10.86s8.06,5.77,11.85,10.86h0a53.58,53.58,0,0,0,9,10.26Z" transform="translate(-139.57 -141.07)"/></g><path d="M377.72,181.36a1.85,1.85,0,0,1-1.55,3.36,1.85,1.85,0,1,1,1.55-3.36" transform="translate(-139.57 -141.07)"/><path d="M385.64,184.47a1.85,1.85,0,1,1-1.55,3.36,1.85,1.85,0,1,1,1.55-3.36" transform="translate(-139.57 -141.07)"/><path d="M369.22,177.66a1.85,1.85,0,1,1-1.55,3.36,1.85,1.85,0,0,1,1.55-3.36" transform="translate(-139.57 -141.07)"/><path d="M393.23,186.32a1.85,1.85,0,0,1-1.55,3.36,1.85,1.85,0,1,1,1.55-3.36" transform="translate(-139.57 -141.07)"/><path d="M402.68,188.17a1.85,1.85,0,1,1-1.55,3.36,1.85,1.85,0,0,1,1.55-3.36" transform="translate(-139.57 -141.07)"/><path d="M412.39,189.5a1.85,1.85,0,1,1-1.55,3.36,1.85,1.85,0,1,1,1.55-3.36" transform="translate(-139.57 -141.07)"/><path d="M422.18,189.88a1.85,1.85,0,1,1-1.55,3.36,1.85,1.85,0,1,1,1.55-3.36" transform="translate(-139.57 -141.07)"/><path d="M432.14,189.63a1.7,1.7,0,1,1-1.43,3.09,1.7,1.7,0,0,1,1.43-3.09" transform="translate(-139.57 -141.07)"/><path d="M442.14,189.14a1.71,1.71,0,1,1-1.43,3.1,1.71,1.71,0,0,1,1.43-3.1" transform="translate(-139.57 -141.07)"/><path d="M451.73,188.3a1.71,1.71,0,0,1-1.43,3.1,1.71,1.71,0,1,1,1.43-3.1" transform="translate(-139.57 -141.07)"/><path d="M461.45,186.22a1.71,1.71,0,1,1-1.43,3.1,1.71,1.71,0,0,1,1.43-3.1" transform="translate(-139.57 -141.07)"/></svg>