<svg id="Layer_1" enable-background="new 0 0 512 512" height="512" viewBox="0 0 512 512" width="512" xmlns="http://www.w3.org/2000/svg"><g><g><path d="m349.325 142.179c-2.173-2.171-5.061-3.367-8.132-3.367-3.072 0-5.96 1.196-8.132 3.368l-16.681 16.68-70.853 14.678c-4.981 1.032-8.979 4.699-10.436 9.571-.977 3.268-.698 6.711.67 9.716l-114.235 114.669c-2.923 2.934-2.914 7.683.021 10.606 2.933 2.922 7.682 2.915 10.607-.021l8.427-8.459 61.52 61.518-69.519 69.782-61.52-61.518 38.53-38.676c2.923-2.934 2.914-7.683-.021-10.606-2.933-2.922-7.682-2.914-10.607.02l-43.814 43.979c-2.92 2.931-2.915 7.672.01 10.597l20.86 20.859-32.036 32.034c-11.636-2.033-24.052 1.425-33.02 10.392-14.621 14.621-14.621 38.411 0 53.032 7.312 7.311 16.916 10.967 26.519 10.967s19.207-3.656 26.517-10.966c8.968-8.968 12.425-21.383 10.393-33.018l32.035-32.035 20.86 20.859c1.407 1.407 3.314 2.197 5.303 2.197h.007c1.991-.002 3.9-.796 5.306-2.207l180.603-181.287c1.793.812 3.737 1.248 5.711 1.248 1.326 0 2.664-.191 3.974-.582 4.871-1.457 8.539-5.456 9.571-10.436l4.47-21.573c.841-4.056-1.767-8.025-5.822-8.866-4.053-.834-8.026 1.767-8.865 5.823l-4.032 19.46-.352-.352-72.127-72.124c-.002-.002-.003-.003-.005-.005l-.347-.347 66.778-13.834 19.888 19.888-3.172 15.315c-.841 4.056 1.767 8.025 5.822 8.866 4.062.838 8.026-1.768 8.865-5.823l3.579-17.276 16.683-16.683c4.483-4.483 4.483-11.778 0-16.262zm-295.931 348.248c-8.774 8.772-23.048 8.772-31.821 0-8.772-8.773-8.772-23.047 0-31.82 4.387-4.386 10.149-6.58 15.911-6.58s11.524 2.193 15.911 6.58c8.771 8.774 8.771 23.048-.001 31.82zm14.796-37.422c-1.232-1.757-2.621-3.436-4.19-5.004-1.568-1.568-3.247-2.958-5.004-4.19l27.628-27.627 9.194 9.193zm191.079-139.252-61.52-61.518 14.82-14.877 61.52 61.518zm-21.175 21.255-61.52-61.518 10.589-10.628 61.52 61.518zm-86.927-36.014 14.821-14.877 61.52 61.518-14.821 14.877zm133.509-10.744-61.52-61.517 22.585-22.671 30.755 30.754 30.764 30.764zm60.76-107.532-14.85-14.849 10.607-10.607 14.85 14.849z"/><path d="m345.084 96.677c-3.684 8.976-6.594 16.065-2.418 21.522 1.653 2.16 4.08 3.431 6.832 3.58.179.009.356.014.534.014 6.042 0 12.415-5.508 22.575-16.173.487-.511.92-.965 1.284-1.342 7.143-7.382 13.541-15.488 19.019-24.094 9.028-14.182 13.471-27.046 13.584-39.327.152-16.673-8.703-32.005-22.038-38.151-8.066-3.719-17.931-3.58-26.387.373-7.61 3.556-12.907 9.6-14.916 17.02-2.499 9.23.336 17.994 2.837 25.726.438 1.353.874 2.7 1.275 4.038 2.971 9.899 3.956 20.747 2.848 31.371-.444 4.277-2.88 10.209-5.029 15.443zm12.549-72.657c1.128-4.164 4.737-6.393 6.788-7.352 4.441-2.075 9.71-2.205 13.756-.34 7.94 3.66 13.416 13.69 13.318 24.391-.086 9.391-3.762 19.665-11.239 31.41-4.936 7.754-10.703 15.061-17.145 21.718-.375.388-.818.853-1.316 1.375 1.528-4.139 2.818-8.399 3.239-12.433 1.312-12.58.136-25.457-3.4-37.238-.432-1.439-.9-2.888-1.371-4.343-2.04-6.303-3.965-12.257-2.63-17.188z"/><path d="m407.713 128.596c29.124-12.466 64.326-28.688 78.143-43.609 13.799-14.902 27.187-39.953 26.073-59-.479-8.194-3.642-15.011-9.147-19.714-11.662-9.962-30.297-7.99-51.126 5.416-3.483 2.242-4.49 6.883-2.248 10.366 2.241 3.483 6.884 4.49 10.366 2.248 11.31-7.279 25.992-12.84 33.265-6.624 2.394 2.044 3.674 5.049 3.916 9.184.828 14.168-10.589 35.497-22.105 47.933-13.419 14.492-56.734 33.031-73.039 40.01-1.563.669-2.919 1.25-4.032 1.733 4.763-6.177 9.235-13.266 13.811-21.857 3.07-5.766 5.939-11.695 8.713-17.429 5.752-11.889 11.185-23.119 18.379-33.305 2.39-3.383 1.584-8.063-1.799-10.453-3.385-2.391-8.065-1.583-10.453 1.799-7.907 11.195-13.867 23.513-19.63 35.426-2.712 5.605-5.517 11.402-8.449 16.91-5.346 10.035-10.455 17.719-16.081 24.183-1.82 2.091-4.428 4.772-7.189 7.61-3.498 3.597-7.115 7.316-9.803 10.526-2.596 3.102-7.998 9.557-3.587 15.564 1.763 2.399 3.944 3.213 6.138 3.213 3.214 0 6.452-1.749 8.424-2.814 2.883-1.558 6.527-3.761 10.383-6.095 5.62-3.4 11.99-7.253 15.875-8.976 1.241-.55 3.012-1.308 5.202-2.245z"/><path d="m503.871 128.895c-8.947-9.786-24.602-14.592-42.962-13.2-14.189 1.08-33.17 10.721-43.222 16.371-6.429 3.614-12.713 7.552-17.694 11.086-8.345 5.921-9.671 8.264-10.379 10.327-1.032 3.011-.205 6.311 2.107 8.409 3.307 2.999 7.168 2.359 12.517 1.473 9.355-1.55 26.767-4.436 46.53 5.623 16.598 8.448 28.301 12.45 37.193 12.449 3.915 0 7.287-.776 10.289-2.291 9.235-4.659 11.956-15.096 13.2-22.541 1.795-10.739-.826-20.32-7.579-27.706zm-7.215 25.236c-1.091 6.533-2.828 10.443-5.161 11.62-4.668 2.355-16.082-1.054-33.921-10.134-13.033-6.633-25.25-8.658-35.352-8.848 12.867-7.476 29.215-15.309 39.826-16.117 13.521-1.035 25.021 2.097 30.753 8.365 3.578 3.915 4.876 9 3.855 15.114z"/></g></g></svg>