<svg id="Layer_1" enable-background="new 0 0 512.003 512.003" height="512" viewBox="0 0 512.003 512.003" width="512" xmlns="http://www.w3.org/2000/svg"><g><path d="m286.318 267.991c4.142 0 7.5-3.358 7.5-7.5s-3.358-7.5-7.5-7.5-7.5 3.358-7.5 7.5 3.358 7.5 7.5 7.5zm126.869 96.995c-2.75-3.097-7.491-3.377-10.588-.627s-3.377 7.491-.627 10.588c30.065 33.849 47.331 76.937 49.056 122.056h-33.487c1.657-2.072 3.985-3.606 6.683-4.22 5.485-1.248 9.069-6.356 8.338-11.884-2.007-15.17-5.977-30.036-11.8-44.177-2.14-5.197-7.817-7.854-13.202-6.185-5.308 1.646-11.177-.657-13.96-5.477-2.779-4.813-1.843-11.045 2.227-14.818 4.133-3.833 4.66-10.078 1.225-14.524-9.33-12.079-20.186-22.934-32.264-32.264-4.448-3.436-10.691-2.908-14.527 1.226-3.831 4.134-9.925 5.049-14.816 2.225-4.82-2.783-7.124-8.654-5.477-13.961 1.671-5.385-.988-11.06-6.185-13.201-14.139-5.825-29.009-9.793-44.176-11.8-5.525-.731-10.637 2.851-11.885 8.336-1.231 5.411-6.161 9.339-11.72 9.339s-10.489-3.928-11.72-9.337c-1.248-5.485-6.35-9.074-11.884-8.337-15.19 2.022-30.022 5.968-44.179 11.801-5.195 2.141-7.854 7.815-6.183 13.201 1.647 5.306-.656 11.177-5.477 13.96-4.814 2.778-11.044 1.843-14.818-2.227-3.833-4.132-10.077-4.66-14.524-1.225-13.225 10.214-19.695 15.991-32.264 32.264-3.435 4.447-2.909 10.691 1.226 14.526 4.069 3.772 5.005 10.003 2.226 14.817-2.783 4.82-8.652 7.125-13.961 5.477-5.385-1.672-11.059.988-13.201 6.185-5.825 14.136-9.793 29.011-11.8 44.178-.731 5.527 2.853 10.636 8.336 11.883 2.698.614 5.027 2.148 6.684 4.22h-33.489c3.952-104.158 89.92-187.67 195.028-187.67 44.323 0 86.052 14.244 121.382 42.328 3.243 2.578 7.96 2.04 10.539-1.202 2.578-3.242 2.04-7.96-1.202-10.539-18.543-14.747-38.972-26.05-60.689-33.715v-63.433c0-8.517-6.119-15.624-14.19-17.176v-29.934c0-3.188.688-6.391 1.995-9.272l16.72-36.999c2.934-6.49 4.158-13.663 3.538-20.739l-2.6-29.911c2.099-4.002 3.027-8.522 2.633-13.133-.545-6.38-3.542-12.165-8.438-16.29-4.73-3.986-10.686-5.955-16.836-5.592-.665-5.881-3.483-11.528-8.355-15.633-4.725-3.981-10.671-5.952-16.818-5.593-.684-6.063-3.65-11.653-8.376-15.634-4.869-4.1-10.908-5.917-16.813-5.579-.682-6.066-3.649-11.658-8.372-15.637-4.898-4.131-11.111-6.106-17.491-5.561s-12.169 3.542-16.293 8.44l-15.925 18.896c-.886 1.054-1.663 2.182-2.35 3.357-10.971-2.331-22.421 2.167-28.852 11.923l-22.752 34.532c-8.498 12.909-8.07 29.955 1.065 42.417l15.396 21.01c1.469 2.005 3.747 3.067 6.055 3.067 1.539 0 3.091-.472 4.427-1.451 3.341-2.448 4.065-7.142 1.616-10.482l-15.396-21.01c-5.449-7.434-5.704-17.603-.636-25.3l22.75-34.529c3.499-5.31 10.229-7.233 16.002-4.575l39.519 18.189c4.327 1.993 6.286 7.002 4.462 11.397-1.377 3.311-4.579 5.451-8.155 5.451-.986 0-1.955-.164-2.893-.493l-10.691-3.724c-8.858-3.07-18.685-.172-24.46 7.215l-5.73 7.35c-2.546 3.267-1.963 7.979 1.304 10.526 3.268 2.547 7.98 1.962 10.526-1.304l5.723-7.342c1.821-2.329 4.926-3.241 7.715-2.277l10.667 3.715c2.523.884 5.161 1.332 7.84 1.332 4.637 0 9.031-1.341 12.766-3.712 1.362 4.229 3.877 8.005 7.359 10.938 4.722 3.978 10.709 5.947 16.824 5.581.687 6.123 3.637 11.659 8.367 15.645 4.489 3.782 9.971 5.628 15.426 5.628 6.829 0 13.616-2.896 18.35-8.515l5.26-6.244 1.236 14.212c.396 4.522-.386 9.106-2.263 13.257l-16.716 36.991c-2.178 4.803-3.33 10.148-3.33 15.458v29.61h-81.56v-26.26c0-8.032-2.508-15.697-7.25-22.163l-11.981-16.35c-2.449-3.341-7.142-4.065-10.482-1.616-3.341 2.448-4.065 7.142-1.616 10.482l11.983 16.352c2.844 3.878 4.348 8.475 4.348 13.294v26.583c-8.076 1.549-14.2 8.657-14.2 17.178v63.533c-81.617 28.878-140.25 106.813-140.25 198.197 0 4.142 3.358 7.5 7.5 7.5h405.34c4.142 0 7.5-3.358 7.5-7.5-.003-51.498-18.82-101.046-52.987-139.513zm-171.662-335.235-12.308 14.612-16.906-7.781 15.497-18.389c3.122-3.757 8.902-4.228 12.641-1.075 3.722 3.139 4.242 8.908 1.076 12.633zm1.825 21.117 9.649-11.455c3.188-3.776 8.859-4.259 12.641-1.075 3.724 3.135 4.239 8.918 1.077 12.641l-10.925 12.963c-2.19-5.642-6.513-10.379-12.442-13.074zm32.642 40.23c-3.127 3.747-12.641 5.941-12.641 1.08-3.748-3.125-4.242-8.924-1.08-12.64l15.919-18.894c3.116-3.751 8.899-4.233 12.64-1.081 3.783 3.188 4.267 8.858 1.081 12.641zm41.111 2.332-15.919 18.894c-3.187 3.783-8.858 4.267-12.641 1.08-3.747-3.126-4.242-8.924-1.08-12.641l15.919-18.894c3.12-3.753 8.907-4.227 12.64-1.08 3.715 3.134 4.244 8.925 1.081 12.641zm-116.021 149.343c0-1.378 1.122-2.5 2.5-2.5h104.95c1.378 0 2.5 1.122 2.5 2.5v58.778c-17.711-4.77-36.152-7.218-55.03-7.218-18.996 0-37.405 2.548-54.92 7.294zm104.345 106.252c3.139.997 6.251 2.078 9.325 3.264-1.762 10.947 3.325 21.91 13.192 27.606 9.853 5.688 21.88 4.622 30.477-2.356 2.564 2.071 5.057 4.228 7.491 6.448l-82.612 82.612c-2.528-1.826-5.245-3.403-8.117-4.701zm-74.645-5.696c3.954 10.348 13.838 17.289 25.219 17.289 11.38 0 21.264-6.941 25.219-17.289 3.259.506 6.497 1.122 9.714 1.824l-30.237 112.847c-1.545-.155-3.111-.236-4.696-.236s-3.151.081-4.696.236l-30.237-112.847c3.218-.702 6.456-1.318 9.714-1.824zm-77.199 34.21c8.598 6.979 20.625 8.045 30.477 2.356 9.867-5.696 14.954-16.66 13.192-27.606 3.073-1.187 6.185-2.268 9.325-3.264l30.244 112.873c-2.871 1.298-5.588 2.875-8.117 4.701l-82.612-82.612c2.433-2.221 4.926-4.377 7.491-6.448zm-42.507 119.464c-2.302-8.08-8.261-14.666-16.249-17.719.506-3.259 1.122-6.497 1.824-9.714l102.382 27.433zm102.321-11.681-112.873-30.244c.997-3.14 2.078-6.252 3.264-9.325 10.947 1.765 21.91-3.325 27.606-13.192 5.689-9.853 4.622-21.88-2.356-30.477 2.072-2.564 4.228-5.057 6.448-7.491l82.612 82.612c-1.826 2.529-3.404 5.246-4.701 8.117zm11.761 11.681c2.734-11.243 11.474-20.161 22.614-23.154.005-.001.01-.001.014-.003.012-.003.023-.008.035-.011 2.611-.697 5.352-1.07 8.179-1.07s5.569.373 8.179 1.07c.012.003.023.008.035.011.005.001.01.001.014.003 11.141 2.994 19.88 11.911 22.614 23.154zm68.747-19.797 82.612-82.612c2.221 2.434 4.377 4.926 6.448 7.491-6.978 8.598-8.045 20.625-2.356 30.477 5.697 9.867 16.654 14.957 27.606 13.192 1.187 3.073 2.268 6.186 3.264 9.325l-112.873 30.245c-1.298-2.873-2.875-5.59-4.701-8.118zm107.022 19.797h-87.957l102.382-27.433c.702 3.217 1.318 6.455 1.824 9.714-7.988 3.052-13.947 9.638-16.249 17.719z"/></g></svg>