<svg id="light" enable-background="new 0 0 24 24" height="512" viewBox="0 0 24 24" width="512" xmlns="http://www.w3.org/2000/svg"><g><path d="m8 15c-.827 0-1.5-.673-1.5-1.5s.673-1.5 1.5-1.5 1.5.673 1.5 1.5-.673 1.5-1.5 1.5zm0-2c-.276 0-.5.225-.5.5s.224.5.5.5.5-.225.5-.5-.224-.5-.5-.5z"/></g><g><path d="m16 15c-.827 0-1.5-.673-1.5-1.5s.673-1.5 1.5-1.5 1.5.673 1.5 1.5-.673 1.5-1.5 1.5zm0-2c-.276 0-.5.225-.5.5s.224.5.5.5.5-.225.5-.5-.224-.5-.5-.5z"/></g><g><path d="m12.01 24c-3.511 0-6.342-1.699-8.416-5.051-.029-.049-.494-.865-.694-1.309-.598-1.371-.9-2.818-.9-4.303v-5.349c0-5.488 5.189-7.988 10.01-7.988 4.811 0 9.99 2.504 9.99 8v5.349c0 1.481-.302 2.93-.897 4.307-.227.499-.755 1.389-.778 1.427-2.079 3.267-4.874 4.917-8.315 4.917zm0-23c-4.34 0-9.01 2.187-9.01 6.988v5.349c0 1.348.274 2.658.814 3.897.178.396.634 1.196.639 1.204 1.897 3.065 4.371 4.562 7.557 4.562 3.12 0 5.562-1.453 7.464-4.442s.516-.868.715-1.308c.537-1.242.811-2.558.811-3.901v-5.349c0-4.81-4.66-7-8.99-7z"/></g><g><path d="m21.26 16.05c-.208 0-.401-.13-.473-.337l-1.634-4.744c-6.978-.057-9.779-1.752-10.899-3.024-.698 1.852-2.626 2.7-3.324 2.953l-1.718 4.82c-.093.259-.378.398-.639.303-.26-.093-.396-.379-.303-.639l1.8-5.05c.054-.151.178-.268.332-.312.126-.038 3.108-.939 3.108-3.52 0-.264.205-.482.469-.499.253-.017.494.175.527.437.004.025.719 3.532 11.004 3.532.213 0 .403.136.473.337l1.75 5.08c.09.262-.049.546-.31.636-.054.018-.109.027-.163.027z"/></g><g><path d="m12.01 19.025c-1.068 0-2.073-.416-2.828-1.172-.195-.195-.195-.512 0-.707s.512-.195.707 0c1.134 1.133 3.109 1.133 4.243 0 .195-.195.512-.195.707 0s.195.512 0 .707c-.756.756-1.76 1.172-2.829 1.172z"/></g><g><path d="m2.5 16.06c-1.378 0-2.5-1.121-2.5-2.5s1.122-2.5 2.5-2.5c.276 0 .5.224.5.5s-.224.5-.5.5c-.827 0-1.5.673-1.5 1.5 0 .843.713 1.502 1.545 1.5.045 0 .09-.001.135-.006.277-.04.523.161.557.436.034.274-.162.523-.436.557-.1.012-.201.013-.301.013z"/></g><g><path d="m21.5 16.06c-.1 0-.201-.001-.301-.014-.274-.033-.469-.282-.436-.557.033-.274.279-.473.557-.436.06.007.12.006.18.006.827 0 1.5-.673 1.5-1.5s-.673-1.5-1.5-1.5c-.276 0-.5-.224-.5-.5s.224-.5.5-.5c1.378 0 2.5 1.121 2.5 2.5s-1.122 2.501-2.5 2.501z"/></g></svg>