<svg id="Capa_1" enable-background="new 0 0 512 512" height="512" viewBox="0 0 512 512" width="512" xmlns="http://www.w3.org/2000/svg"><g><path d="m501.429 102.53c-.048-.079-.098-.157-.148-.233-12.174-18.4-10.437-14.193-29.15-45.546-3.957-6.629-11.166-10.749-18.814-10.749-4.621 0-9.564 1.638-12.953 4.284-.233.171-.456.34-.671.509-10.032-13.926-22.857-25.675-37.573-34.315-18.362-10.782-39.305-16.48-60.567-16.48-25.795 0-50.457 8.156-71.318 23.585-3.33 2.463-4.033 7.16-1.57 10.49 2.465 3.331 7.159 4.033 10.49 1.57 18.261-13.506 39.838-20.645 62.398-20.645 36.032 0 68.909 18.107 88.802 48.667-8.981 15.215-11.433 18.491-19.881 30.945-19.63-15.602-43.804-24.123-68.921-24.123-47.209 0-88.554 29.9-104.847 73.605-1.207-6.583-1.814-13.301-1.814-20.122 0-23.702 7.352-46.251 21.261-65.212 2.449-3.34 1.729-8.033-1.611-10.483-3.339-2.449-8.034-1.729-10.483 1.611-15.81 21.551-24.166 47.169-24.166 74.084 0 16.979 3.323 33.407 9.867 48.877-4.387 1.904-7.468 6.302-7.468 11.414v34.726c0 2.661.842 5.123 2.26 7.146-7.675 6.673-12.597 16.272-13.107 27.186-2.452-8.183-9.966-14.159-18.838-14.159-10.855 0-19.687 8.942-19.687 19.934v31.79h-7.178v-4.607c0-5.911-4.78-10.719-10.655-10.719h-13.718v-16.806c0-10.771-8.736-19.539-19.585-19.591-.521-.003-1.17.03-1.648.066-10.172.75-18.141 9.327-18.141 19.525v16.806h-9.373v-16.806c0-10.771-8.736-19.54-19.585-19.591-.522-.003-1.169.03-1.648.066-10.172.75-18.141 9.327-18.141 19.525v32.132h-40.324c-5.876 0-10.656 4.809-10.656 10.72v30.731c0 5.911 4.78 10.719 10.656 10.719h40.323v27.717c0 14.822 8.204 28.297 20.88 35.043v98.684c0 4.142 3.357 7.5 7.5 7.5h382.544c4.143 0 7.5-3.358 7.5-7.5v-16.706c0-4.142-3.357-7.5-7.5-7.5s-7.5 3.358-7.5 7.5v9.206h-44.449c3.646-10.999 29.429-88.78 32.255-97.305 7.741 4.666 12.194 12.899 12.194 21.521v31.578c0 4.142 3.357 7.5 7.5 7.5s7.5-3.358 7.5-7.5v-31.578c0-10.29-3.928-19.858-10.519-27.07 3.937-4.775 8.031-10.929 7.94-21.391-.188-21.415-16.28-22.491-16.403-36.713-.126-14.232 15.944-15.586 15.758-37.014-.073-8.283-2.721-13.817-5.816-18.097 5.661-6.743 9.079-15.43 9.079-24.903v-.825c0-10.665-4.678-21.532-13.175-29.041 1.43-2.029 2.281-4.501 2.281-7.174v-32.49c41.734-3.746 61.282-50.073 40.613-83.968zm-88.029 69.31h-19.429c-.557-10.21-5.063-19.866-12.677-27.288-4.432-4.321-9.249-6.613-19.234-22.892-1.13-1.842-2.317-3.818-3.611-5.974-3.772-6.283-6.943-13.671-16.895-13.671s0 0 0 0c-9.986 0-13.182 7.493-16.906 13.688-7.304 12.163-10.993 18.306-19.381 25.809-9.836 7.822-15.537 18.734-16.137 30.329h-43.866c6.303-49.312 47.475-86.352 96.289-86.352 22.273 0 43.738 7.779 60.936 21.972-3.803 7.865-5.584 14.81-5.584 24.587 0 14.921 5.816 29.374 16.495 39.792zm-62.428 59.57v5.09c0 5.19-4.223 9.413-9.413 9.413-5.189 0-9.412-4.223-9.412-9.413v-5.09zm-9.413 29.503c13.462 0 24.413-10.952 24.413-24.413v-5.09h59.161c.243 2.733.309 5.586.344 8.359v32.328c0 18.893-6.116 37.655-18.14 53.159-16.928 21.336-42.528 34.059-71.115 32.283-.144-.009-.288-.021-.432-.03-12.26-.827-24.091-4.336-34.744-10.266-.007-.004-.013-.01-.021-.014-2.299-1.282-4.532-2.679-6.7-4.173h34.1c5.86 0 10.629-4.796 10.629-10.691v-4.369c.784.068 1.572.112 2.368.112 14.739 0 26.73-11.991 26.73-26.731 0-4.142-3.357-7.5-7.5-7.5s-7.5 3.358-7.5 7.5c0 6.468-5.263 11.731-11.73 11.731-.806 0-1.596-.086-2.368-.244v-11.285c0-5.896-4.769-10.692-10.629-10.692h-44.168c-1.989-4.204-6.165-6.741-10.55-6.741h-15.485c-.548-3.972-.847-7.968-.847-12.047 0-35.217-.131-35.169.349-40.687h59.424v5.09c-.001 13.459 10.95 24.411 24.411 24.411zm88.301 135.206-33.441 100.881h-34.696l9.273-10.686c5.308-6.115 5.308-15.339 0-21.455l-3.392-3.908c27.121-10.093 46.506-35.296 49.399-64.842.001 0 12.647.006 12.857.01zm-89.185 100.536c-.009-.01-.018-.02-.033-.037-18.933-21.531-18.149-20.631-17.678-21.631l.021-.047c.799-1.029 4.235-4.929 11.349-13.129 1.755-2.021 2.299-4.825 1.428-7.356s-3.025-4.406-5.652-4.92c-26.182-5.119-45.797-26.995-48.951-53.426h14.11c3.631 22.646 23.038 40.015 46.284 40.015s42.655-17.367 46.285-40.015h14.092c-3.222 26.542-22.918 48.438-49.148 53.466-2.634.505-4.798 2.377-5.675 4.912-.878 2.535-.335 5.345 1.423 7.37l11.139 12.834c1.107 1.275.894.762-17.485 21.941-.21.241-.463.365-.752.368-.307.017-.544-.113-.757-.345zm32.777-129.278v21.128c0 .024-.004.047-.004.071-.078 17.947-14.387 32.547-31.895 32.547-17.509 0-31.816-14.601-31.894-32.547 0-.03-.004-.059-.005-.089v-21.026c20.625 7.049 43.441 6.95 63.798-.084zm-89.103 12.472c.802-3.35 1.134-6.913 1.064-10.432.139-3.956.123-8.571.081-14.207 2.959 2.057 6.018 3.936 9.16 5.643v20.255h-10.584c.1-.413.192-.833.279-1.259zm172.361-123.822c0 10.517-6.91 19.516-16.45 22.626.09-1.375.216-4.42.216-6.557-.008-11.644.077-23.634 0-32.998 0-1.377-.036-3.222-.213-6.422 10.738 3.419 16.446 13.209 16.446 22.525v.826zm-171.209 72.028v-22.17h38.551v22.17zm-73.208-43.911v-19.754c1.354 6.247 4.197 11.893 8.172 16.577-.71.984-1.388 2.041-2.024 3.178h-6.148zm14.104-28.941c0-9.289 5.613-19.048 16.177-22.495-.101 1.616-.2 4.325-.2 6.392v32.998c0 2.378.131 5.296.202 6.425-4.311-1.406-6.623-3.489-7.623-4.196-5.611-4.644-8.555-11.587-8.555-18.299v-.825zm-32.598 167.629-48.937 49.284v-66.359c10.722-5.763 18.228-16.378 20.053-28.793 1.149-7.777.826-.584.826-32.733v-1.177h7.178v27.717c0 12.475 5.614 23.959 15.405 31.509 1.731 1.335 3.562 2.516 5.475 3.533zm-80.031-94.777c2.006-3.088 3.227-6.947 3.227-10.925v-11.245h9.374c0 9.786-.243 12.403.483 15.67-1.698 1.507-3.61 4.327-4.741 6.5zm59.151-22.17v22.17h-10.403c2.13-3.29 3.226-7.182 3.226-10.925v-11.245zm-22.177-15.326v26.572c0 3.87-3.986 6.141-7.046 4.247-1.457-.904-2.327-2.491-2.327-4.247 0-14.84 0-11.029 0-26.572zm-33.747-31.806c0-2.385 1.864-4.391 4.326-4.573.186-.013.297-.008.464-.019 2.528.004 4.584 2.063 4.584 4.591v32.132h-9.374c0-11.92 0-19.929 0-32.131zm-15 31.806v26.572c0 2.72-2.103 4.934-4.687 4.934s-4.687-2.213-4.687-4.934c0-14.84 0-11.029 0-26.572zm-33.747-31.806c0-2.385 1.864-4.391 4.326-4.573.186-.013.297-.008.464-.019 2.528.004 4.584 2.063 4.584 4.591v32.132h-9.374zm-50.98 47.132h60.354v11.245c0 3.695 1.075 7.612 3.227 10.925-7.511 0-56.561 0-63.58 0v-22.17zm66.918 88.028c-9.533-3.459-15.938-12.759-15.938-23.141v-27.717h50.797c.004.052.005.104.009.157.3 3.755 1.324 7.339 2.993 10.593-8.501 5.76-13.893 15.474-13.893 26.185 0 4.142 3.357 7.5 7.5 7.5s7.5-3.358 7.5-7.5c0-7.481 5.003-14.035 12.195-16.021 6.023-1.357 7.907-9.026 3.216-13.025-4.589-3.911-5.941-10.418-3.158-15.922l15.337 13.072c.023 26.657.273 20.281-.668 26.69-1.297 8.82-7.192 16.153-15.387 19.138-3.414 1.244-5.434 4.749-4.826 8.306v94.771h-40.736v-96.037c0-3.155-1.975-5.973-4.941-7.049zm60.677 99.493 48.937-49.284v52.878h-48.937zm63.936-92.443c0-3.156-1.976-5.974-4.941-7.05-2.282-.828-4.427-2.009-6.374-3.51-6.078-4.688-9.564-11.842-9.564-19.63 0-10.919 0-100.742 0-111.677 0-2.721 2.103-4.934 4.687-4.934 2.585 0 4.688 2.213 4.688 4.934v32.549c0 4.142 3.357 7.5 7.5 7.5h65.62v70.141c-.215 5.764-.703 10.027-4.113 15.21-2.871 4.347-7.069 7.692-11.826 9.418-2.966 1.077-4.941 3.895-4.941 7.05v96.036h-40.734v-96.037zm55.735 4.851c.379-.202 1.874-1.066 2.755-1.633 5.275 25.9 23.44 47.474 47.989 56.689-4.925 5.672-5.017 5.868-5.843 7.637l-.045.096c-3.056 6.497-1.853 12.898 3.577 19.027l.206.234c1.577 1.818 4.776 5.505 7.927 9.135h-56.567v-91.185zm173.156-69.641c.188 21.419 16.28 22.49 16.403 36.713.051 5.742-1.903 8.625-4.967 12.264-7.986-3.905-13.967-4.041-19.915-4.041-4.423-.057-32.959-.007-40.76-.002v-20.371c25.465-13.961 43.455-38.712 49.55-66.254 3.87-.517 7.728-1.618 11.396-3.347.003-.001.005-.002.008-.004.381-.18.757-.37 1.132-.561.131-.067.264-.127.394-.196 1.559 2.354 2.483 4.909 2.517 8.784.125 14.137-15.944 15.652-15.758 37.015zm-186.6-119.763h-13.8v-29.57h59.75c15.025-1.501-1.272-20.207 18.04-33.983 11.723-10.436 16.067-19.02 26.168-35.635.181-.332.454-.278.61 0 10.033 16.499 14.41 25.167 26.168 35.635.113.101.229.198.349.292 6.771 5.329 10.654 12.926 10.654 20.842-1.108 5.568-.126 12.819 7.037 12.849h59.749v29.57h-14.064zm230.559-54.279c-7.484 6.692-17.319 11.087-34.901 9.499-.004 0-.008-.001-.013-.002-25.972-2.339-41.848-30.225-31.821-55.136 3.265-7.474 7.748-12.485 18.229-28.699 4.655-7.17 12.608-20.623 12.676-20.754 1.934-3.22 3.418-6.037 7.497-6.037 2.396 0 4.669 1.316 5.934 3.436v.001c18.972 31.783 17.463 27.916 29.442 46.014 10.231 16.902 7.082 39.047-7.043 51.678z"/><path d="m459.757 88.399c-2.908-4.872-9.969-4.878-12.88-.003-15.52 25.982-21.25 27.89-21.25 40.628 0 14.426 10.53 25.643 24.49 26.089 9.152.295 15.68-.456 22.324-6.398 5.441-4.865 8.563-12.042 8.563-19.691 0-12.782-5.947-14.975-21.247-40.625zm2.686 49.135c-2.243 2.007-3.874 2.847-11.842 2.587-5.779-.185-9.974-4.852-9.974-11.097 0-5.537 1.956-5.994 12.688-22.577 10.741 16.588 12.689 17.041 12.689 22.577 0 3.385-1.297 6.486-3.561 8.51z"/><path d="m341.433 148.943c-10.982 0-19.585 10.362-19.585 23.591s8.603 23.591 19.585 23.591 19.585-10.362 19.585-23.591-8.602-23.591-19.585-23.591zm0 32.182c-1.825 0-4.585-3.426-4.585-8.591s2.76-8.591 4.585-8.591 4.585 3.426 4.585 8.591-2.76 8.591-4.585 8.591z"/><path d="m385.758 282.161c4.143 0 7.5-3.358 7.5-7.5v-16.675c0-4.142-3.357-7.5-7.5-7.5s-7.5 3.358-7.5 7.5v16.675c0 4.142 3.358 7.5 7.5 7.5z"/><path d="m297.36 250.486c-4.143 0-7.5 3.358-7.5 7.5v16.675c0 4.142 3.357 7.5 7.5 7.5s7.5-3.358 7.5-7.5v-16.675c0-4.142-3.358-7.5-7.5-7.5z"/></g></svg>