<svg xmlns="http://www.w3.org/2000/svg" data-name="Layer 1" viewBox="0 0 512 512"><path d="M278.31055,335.9726a7.5,7.5,0,0,0,0-15H255.999a7.49944,7.49944,0,0,0-7.5,7.5v14.86816h-7.31054V328.4726a7.5,7.5,0,0,0-15,0v22.36816a7.49943,7.49943,0,0,0,7.5,7.5H248.499v7.36914H233.68848a7.5,7.5,0,1,0,0,15H255.999a7.49943,7.49943,0,0,0,7.5-7.5V358.34076h7.31153V373.2099a7.5,7.5,0,0,0,15,0V350.84076a7.49944,7.49944,0,0,0-7.5-7.5H263.499V335.9726Zm140.417-190.4834c-10.62695-7.53027-39.46387-24.415-77.61328-18.5918-1.29053.19727-2.55615.42285-3.81006.66114-3.19629-18.36231-15.87085-43.73145-37.81494-75.626C280.832,24.81635,262.48633,3.17084,261.71484,2.26264a7.50074,7.50074,0,0,0-11.42968,0c-.77149.9082-19.11719,22.55371-37.77442,49.66992-21.94385,31.89355-34.61816,57.26269-37.81494,75.625-1.25415-.23828-2.52-.46289-3.811-.66016-38.20508-5.82226-67.00489,11.06446-77.61719,18.59473a7.50026,7.50026,0,0,0,4.55371,13.61328c8.21-.22949,36.5791.72168,57.02441,22.7627a68.33781,68.33781,0,0,1,10.60547,15.16406,11.04024,11.04024,0,0,0-3.35058,4.42187,10.6811,10.6811,0,0,0,2.38086,11.66114l9.85839,9.86035c5.1836,5.18554,5.4502,12.31152.66309,17.73242l-1.99219,2.25391c-.14526.16406-.271.34082-.3999.51464l-39.689,41.56739a128.39061,128.39061,0,0,0-9.68165,11.40332c-1.33886,1.77636-2.51367,3.42675-3.55859,4.99511a113.60615,113.60615,0,0,0-20.01172,63.83789c0,1.4795.03223,2.98438.0957,4.45411a111.41553,111.41553,0,0,0,2.22071,17.96875c.53125,2.56152,1.15674,5.11523,1.85449,7.59277.00684.02637.01318.05273.02051.07812l.001.00391a115.19735,115.19735,0,0,0,10.249,24.71484c.47265.8418.94629,1.6836,1.44336,2.5293a126.33048,126.33048,0,0,0,23.541,28.98145l15.3584,14.1084A71.23641,71.23641,0,0,0,168.915,475.94623a20.96684,20.96684,0,0,0,14.19238,36.42871H328.8916a20.96737,20.96737,0,0,0,14.19312-36.42969A71.18458,71.18458,0,0,0,357.544,465.71381l15.36132-14.11231a126.30657,126.30657,0,0,0,23.40918-28.76562c.07813-.12207.15161-.24707.22217-.374,1.08984-1.84961,2.113-3.69239,3.03858-5.4834.53418-1.03418,1.05468-2.06934,1.51074-3.041a114.07887,114.07887,0,0,0,7.04883-18.54883l.00341-.01269c.00782-.02735.01416-.05469.02149-.082.70508-2.49121,1.32812-5.05371,1.84228-7.583a110.30275,110.30275,0,0,0,2.23243-17.97852c1.01757-25.22363-6.56153-49.8291-21.89747-71.127-.51464-.72168-1.05078-1.4541-1.60742-2.17578A126.85667,126.85667,0,0,0,379.0752,285.04l-39.69434-41.57227c-.126-.16992-.248-.34179-.38965-.502l-1.99414-2.25781c-4.78711-5.4209-4.52148-12.54785.66211-17.73242l9.86133-9.86231a10.6794,10.6794,0,0,0,2.37793-11.66113,11.045,11.045,0,0,0-3.34961-4.41992,68.36049,68.36049,0,0,1,10.60547-15.16406c20.44629-22.041,48.81445-22.99415,57.02441-22.7627a7.5,7.5,0,0,0,4.54883-13.61621ZM224.79883,60.53607c12.08691-17.57519,24.29394-33.09668,31.20215-41.625,6.89062,8.50684,19.05566,23.97461,31.12988,41.52344,20.93018,30.4209,33.37549,55.2959,35.61768,70.99707A107.33072,107.33072,0,0,0,287.874,151.57025a102.19955,102.19955,0,0,0-26.57714-41.00488,7.50191,7.50191,0,0,0-10.50293.31738,117.202,117.202,0,0,0-25.54712,41.63868,107.08737,107.08737,0,0,0-36.00269-21.10352C190.92114,119.43158,199.00366,98.04584,224.79883,60.53607Zm96.25293,182.91309a272.083,272.083,0,0,1-75.72461,7.69336,272.4205,272.4205,0,0,1-54.38086-7.6875c4.7334-10.31738,2.6748-22.40918-5.999-31.085l-2.87891-2.87988h44.94629c.03711,0,.074.001.11108,0h56.50464c.0249,0,.05.0039.07471.0039.01513,0,.02978-.0039.04516-.0039h46.1814l-2.87988,2.87988C318.37988,221.04389,316.32129,233.13373,321.05176,243.44916Zm-85.83594-69.793A100.65435,100.65435,0,0,1,256.48828,127.079a85.12455,85.12455,0,0,1,21.27051,48.043,82.8,82.8,0,0,1-.36987,19.36817H233.94336A98.46989,98.46989,0,0,1,235.21582,173.65619Zm-69.37305-1.98926c-13.54394-14.59961-29.83593-21.55664-43.415-24.8164a90.1639,90.1639,0,0,1,46.19532-5.125c26.34619,4.01855,44.01074,18.85644,52.18652,27.32715-.13159.69726-.26318,1.39355-.38281,2.10156a113.46643,113.46643,0,0,0-1.49463,23.33594H180.87061A83.68665,83.68665,0,0,0,165.84277,171.66693ZM116.6748,384.6601a96.33436,96.33436,0,0,1-1.92187-15.55371c-.05469-1.27344-.083-2.56153-.083-3.82618A97.76111,97.76111,0,0,1,128.07031,316.289a37.93208,37.93208,0,0,1-11.356,68.54688C116.70215,384.77729,116.687,384.71869,116.6748,384.6601ZM328.8916,497.37494H183.10742a5.99854,5.99854,0,0,1,0-11.99707h23.58692c.0288,0,.05712.002.08593.002H305.21c1.52539,0,3.04492-.05859,4.56079-.14355a7.53208,7.53208,0,0,0,1.44116.1416H328.8916a5.99854,5.99854,0,1,1,0,11.99707Zm33.86426-56.81836-15.36231,14.11231c-10.85937,9.98437-26.23437,15.71093-42.18359,15.71093H208.32275c-.01294,0-.02539-.002-.03857-.002h-1.59106c-15.91211-.02051-31.24708-5.74316-42.08863-15.71094l-15.3623-14.1123c-2.7146-2.49219-5.27539-5.10059-7.70508-7.79883C175.77783,442.11908,214.85986,447.02436,256,447.02436c40.49976,0,80.29053-5.02344,114.49756-14.3086Q366.84094,436.77778,362.75586,440.55658Zm21.16528-124.25976a97.01812,97.01812,0,0,1,13.325,52.82714,95.29331,95.29331,0,0,1-1.93554,15.56055c-.01026.04981-.02295.09961-.03321.14942a37.92379,37.92379,0,0,1-11.3562-68.53711Zm-15.69848-20.90137c2.59033,2.7168,5.03076,5.5625,7.29687,8.4707a52.92281,52.92281,0,0,0,15.56226,95.37207q-1.57032,4.15577-3.54175,8.25684c-.41016.875-.84863,1.74023-1.293,2.60156-.43091.834-.89062,1.68555-1.37109,2.54785C348.37524,425.15033,302.74854,432.02436,256,432.02436c-46.75244,0-92.37256-6.8711-128.86035-19.37012a101.53233,101.53233,0,0,1-6.22217-13.415,52.93159,52.93159,0,0,0,15.55518-95.37988c2.26562-2.89942,4.70825-5.74121,7.30175-8.46l37.25342-39.01563a287.60023,287.60023,0,0,0,63.7124,9.74707q5.61476.21973,11.22364.21973a287.74838,287.74838,0,0,0,75.00488-9.97071ZM346.1582,171.66693a83.68579,83.68579,0,0,0-15.02929,22.82325h-38.6333a97.77422,97.77422,0,0,0,.19091-20.84082c-.18188-1.84278-.4209-3.64258-.69531-5.41211a91.61437,91.61437,0,0,1,51.38672-26.51172,90.1542,90.1542,0,0,1,46.17773,5.1289C375.97949,150.11713,359.69531,157.07318,346.1582,171.66693ZM255.999,280.49311a70.34833,70.34833,0,1,0,70.18653,70.34765A70.34634,70.34634,0,0,0,255.999,280.49311Zm0,125.69628a55.34838,55.34838,0,1,1,55.18653-55.34863A55.32956,55.32956,0,0,1,255.999,406.18939Z"/></svg>