<svg id="Capa_1" enable-background="new 0 0 512 512" height="512" viewBox="0 0 512 512" width="512" xmlns="http://www.w3.org/2000/svg"><g><path d="m364.193 457.533c-9.204 0-17.292 4.845-21.845 12.11-21.909-6.309-16.123-22.543-20.721-39.481-1.195-3.952-4.077-11.377-10.506-20.019l48.131 12.629c5.92 1.514 12.075.237 16.893-3.501 4.77-3.703 7.505-9.276 7.505-15.292v-107.403c.231-12.454-12.402-22.12-24.397-18.792-.009.003-72.331 18.885-72.349 18.89v-25.624c20.407-6.939 20.394-35.875 0-42.805v-20.428l43.919-8.497c45.284-7.891 72.317-59.531 52.735-101.144l-33.809-85.361c-.116-.295-.252-.583-.406-.861-7.598-13.753-28.746-6.372-26.115 9.109.057.45 12.195 89.514 12.268 89.907 3.422 21.758-15.92 32.502-35.176 32.485h-8.96l-7.131-44.614c-.654-4.089-4.5-6.879-8.59-6.223-4.091.654-6.876 4.5-6.223 8.59l8.141 50.931c.582 3.639 3.721 6.316 7.406 6.316h15.356c28.833.24 54.99-19.057 49.955-50.048l-11.129-81.63c.138.326 30.524 77.113 30.667 77.405 15.651 33.074-5.827 74.133-41.84 80.41 0 0-49.994 9.672-49.994 9.672-3.527.682-6.075 3.771-6.075 7.363v25.438h-31.392v-25.438c0-3.688-2.681-6.829-6.324-7.407l-48.319-7.671c-35.683-5.009-58.58-44.346-45.022-77.764 0 0 1.904-4.928 1.904-4.928l30.518-77.077-11.128 81.625c-5.03 30.998 21.12 50.279 49.956 50.048h15.124c3.67 0 6.801-2.656 7.399-6.277l21.425-129.641c.064-.389.625-.375.669.016 2.454 22.22 7.879 48.471 7.879 48.471.653 4.089 4.494 6.879 8.59 6.222 4.09-.653 6.876-4.499 6.223-8.589-.09-.32-9.082-57.034-9.163-57.307-1.286-6.656-6.93-11.324-13.724-11.348-.017 0-.033.002-.05.002-.001-.001-.001-.002-.002-.002v.002c-6.803.024-12.431 4.638-13.757 11.256-.142.166-21.74 131.993-21.852 132.198h-8.762c-19.259.014-38.598-10.741-35.176-32.485-.029-.359 12.281-89.515 12.267-89.903 1.178-6.815-2.53-13.181-9.077-15.532-6.634-2.382-13.64.258-17.038 6.418-.746.991-33.699 85.408-34.291 86.44-20.282 43.823 6.812 95.563 54.736 102.97 0 0 41.995 6.667 41.995 6.667v20.043c-21.076 6.658-21.062 36.495 0 43.145v25.515c-.157-.039-72.985-19.218-73.13-19.25-11.932-3.113-24.344 6.509-24.121 18.861v107.865c0 11.859 12.77 21.813 24.268 18.824l47.884-12.544c-8.225 10.677-11.993 22.745-13.033 35.752-.689 6.426-1.186 11.069-4.619 15.365-2.93 3.667-7.36 6.356-13.199 8.036-4.554-7.264-12.641-12.109-21.845-12.109-34.161 1.412-34.149 49.964 0 51.371 13.89 0 25.24-11.029 25.726-24.769 9.011-2.54 16.072-6.95 21.037-13.166 8.42-10.54 6.398-24.291 10.133-36.386 3.071-10.221 10.099-19.702 20.898-28.264v33.516c.341 9.925 14.658 9.929 15 0v-39.85l15.959-4.181 15.433 4.049v97.146h-31.392v-26.298c0-4.107-3.165-7.688-7.27-7.811-4.247-.127-7.73 3.278-7.73 7.497v34.112c0 4.142 3.358 7.5 7.5 7.5h46.392c4.142 0 7.5-3.358 7.5-7.5v-98.224c14.235 11.986 18.958 23.527 20.387 28.297 3.605 12.383 1.464 25.532 10.141 36.39 4.964 6.219 12.023 10.631 21.036 13.174.487 13.739 11.837 24.767 25.727 24.767 34.161-1.412 34.149-49.965 0-51.371zm-216.476 36.371c-5.927 0-10.749-4.793-10.749-10.686.59-14.175 20.912-14.17 21.499 0 0 5.892-4.823 10.686-10.75 10.686zm215.265-201.591c2.677-.596 5.497.898 5.667 4.264v39.038l-78.103-24.389zm-138.372-42.666c0-4.18 3.4-7.581 7.581-7.581h47.527c10.021.35 10.043 14.805 0 15.163h-47.527c-4.181 0-7.581-3.401-7.581-7.582zm-81.35 46.698c0-1.828 1.051-2.929 1.678-3.422 1.226-.884 2.519-1.173 3.877-.868l72.671 19.131-78.226 24.428zm5.556 112.155c-3.242.334-5.094-1.096-5.556-4.29v-39.003l78.254 24.248zm100.268-26.268-.107.028-102.783-31.848 102.597-32.038.293.077zm6.879-77.481-15.451-4.068v-28.455h31.392v28.361zm8.121 77.163v-63.238l101.634 31.737zm26.775 7.405 77.79-24.111v38.772c0 1.845-1.067 2.949-1.703 3.443-1.13.876-2.58 1.174-3.932.829zm73.334 104.585c-7.057.113-12.419-7.044-10.299-13.733.003-.013.007-.026.011-.04 3.734-11.596 20.774-9.242 21.037 3.088 0 5.891-4.822 10.685-10.749 10.685z"/></g></svg>