<svg id="Capa_1" enable-background="new 0 0 480 480" height="512" viewBox="0 0 480 480" width="512" xmlns="http://www.w3.org/2000/svg"><path d="m164.321 171.073c-13.237-16.839-20.397-37.655-20.321-59.073 0-53.019 42.981-96 96-96s96 42.981 96 96c.076 21.418-7.084 42.234-20.321 59.073l12.605 9.855c15.446-19.647 23.803-43.936 23.716-68.928 0-61.856-50.144-112-112-112s-112 50.144-112 112c-.087 24.992 8.27 49.281 23.716 68.928z"/><path d="m416 404.37h-4.2c8.71-15.216 3.437-34.612-11.779-43.323-3.485-1.995-7.316-3.311-11.292-3.877l-59.269-8.47c18.401-7.205 30.517-24.939 30.54-44.7v-64c-.03-26.497-21.503-47.97-48-48h-24.79c-.862.001-1.628-.551-1.9-1.37l-2.4-7.191c13.432-12.112 21.096-29.353 21.09-47.439v-42c-.025-19.018-14.083-35.098-32.927-37.663-4.235-17.161-21.579-27.64-38.74-23.406-11.544 2.848-20.557 11.862-23.406 23.406-18.844 2.565-32.902 18.645-32.927 37.663v42c-.007 18.086 7.657 35.326 21.088 47.439l-2.4 7.2c-.273.817-1.039 1.367-1.9 1.365h-24.788c-26.497.03-47.97 21.503-48 48v113.058l-28.722 4.107c-17.356 2.465-29.427 18.533-26.962 35.889.566 3.982 1.883 7.82 3.882 11.311h-4.198c-4.418 0-8 3.582-8 8v35.631c0 2.122.843 4.157 2.343 5.657l24 24c1.5 1.5 3.535 2.343 5.657 2.343h304c2.122 0 4.157-.843 5.657-2.343l24-24c1.5-1.5 2.343-3.535 2.343-5.657v-35.63c0-4.418-3.582-8-8-8zm-248 6 72-10.288 72 10.288v21.63h-144zm112-42.37c-.01 8.832-7.168 15.99-16 16h-16v-32h16c8.832.01 15.99 7.168 16 16zm116.15 10.286c5.699 6.581 4.983 16.536-1.598 22.235-3.449 2.986-8.023 4.332-12.54 3.689l-95.364-13.626c8.011-8.02 11.177-19.683 8.32-30.653l91.51 13.08c3.755.533 7.19 2.407 9.672 5.275zm-52.15-138.286v64c-.02 17.665-14.335 31.98-32 32h-72c-4.418 0-8-3.582-8-8s3.582-8 8-8h60c15.457-.018 27.982-12.543 28-28v-36h-16v36c-.007 6.624-5.376 11.993-12 12h-60c-13.261.006-24.006 10.761-24 24.022.002 3.807.909 7.56 2.647 10.948l-50.647 7.236v-51.342l81.177-12.487c12.683-1.93 23.527-10.148 28.815-21.836l23.889-52.541h10.119c17.665.02 31.98 14.335 32 32zm-130-168h2c4.418 0 8-3.582 8-8 0-8.837 7.163-16 16-16s16 7.163 16 16c0 4.418 3.582 8 8 8h2c12.145.014 21.986 9.855 22 22v11.052l-11.562-7.708c-1.314-.876-2.858-1.344-4.438-1.344h-64c-1.58 0-3.124.468-4.438 1.344l-11.562 7.708v-11.052c.014-12.145 9.855-21.986 22-22zm-22 64v-11.719l18.422-12.281h59.156l18.422 12.281v11.719c0 26.51-21.49 48-48 48s-48-21.49-48-48zm-56 104c.02-17.665 14.335-31.98 32-32h24.79c7.752.01 14.637-4.952 17.08-12.31l.924-2.772c18.326 9.443 40.086 9.443 58.412 0l.923 2.767c2.117 6.389 7.627 11.059 14.276 12.1l-20.978 46.14c-3.062 6.767-9.34 11.525-16.683 12.643l-78.744 12.107v-22.675h-16v104c0 4.418-3.582 8-8 8s-8-3.582-8-8zm-52.145 138.279c2.484-2.867 5.921-4.738 9.677-5.27l28.2-4.032c4.962 12.295 18.951 18.239 31.246 13.277 8.274-3.339 14.013-10.991 14.902-19.869l64.12-9.161v31.838l-134.009 19.148c-8.618 1.231-16.601-4.757-17.832-13.375-.646-4.523.702-9.104 3.696-12.556zm324.145 66.407-19.313 19.314h-297.374l-19.313-19.314v-24.316h80v19.63c0 4.418 3.582 8 8 8h160c4.418 0 8-3.582 8-8v-19.63h80z"/><path d="m232 408h16v16h-16z"/></svg>