<svg id="Capa_1" enable-background="new 0 0 512 512" height="512" viewBox="0 0 512 512" width="512" xmlns="http://www.w3.org/2000/svg"><g><path d="m256 512c140.958 0 256-115.049 256-256 0-31.081-5.868-62.863-16.97-91.908-2.498-6.533-9.182-10.471-16.102-9.498-6.925.974-12.258 6.604-12.855 13.572-6.033 70.33-47.184 130.737-105.073 164.386v-16.552c0-8.284-6.716-15-15-15h-15v-37.761c20.167-17.001 30-36.606 30-59.739 0-22.037-16.418-46.94-50.191-76.131-15.66-13.536-31.161-24.551-39.809-30.426v-9.496c10.81-3.794 19.905-11.64 25.25-22.308 3.711-7.407.715-16.419-6.692-20.13-7.405-3.711-16.418-.715-20.13 6.692-2.564 5.12-7.71 8.3-13.428 8.3-8.271 0-15-6.729-15-15s6.729-15 15-15c8.284 0 15-6.716 15-15s-6.716-15-15-15c-24.813 0-45 20.187-45 45 0 19.555 12.541 36.228 30 42.42v9.523c-8.648 5.875-24.148 16.89-39.809 30.426-33.773 29.19-50.191 54.093-50.191 76.13 0 23.133 9.833 42.739 30 59.739v37.761h-15c-8.284 0-15 6.716-15 15v16.551c-57.889-33.648-99.041-94.056-105.073-164.386-.598-6.967-5.931-12.597-12.855-13.572-6.922-.973-13.604 2.966-16.102 9.498-11.102 29.046-16.97 60.828-16.97 91.909 0 140.958 115.049 256 256 256zm-35.442-361.717c13.477-11.672 27.125-21.517 35.445-27.245 8.254 5.681 21.757 15.419 35.188 27.028 35.93 31.054 39.809 47.713 39.809 53.434 0 14.377-6.276 26.091-20.181 37.5h-109.638c-13.905-11.409-20.181-23.123-20.181-37.5 0-5.699 3.854-22.294 39.558-53.217zm-9.558 120.717h90v30h-90zm-30 60h150v15.967c-23.419 9.057-48.73 14.033-75 14.033s-51.581-4.976-75-14.033zm-150.067-95.328c34.931 91.286 123.546 155.328 225.067 155.328 101.449 0 190.123-64.009 225.067-155.328.62 6.784.933 13.574.933 20.328 0 124.617-101.383 226-226 226s-226-101.383-226-226c0-6.754.313-13.544.933-20.328z"/><path d="m376 60h15v15c0 8.284 6.716 15 15 15s15-6.716 15-15v-15h15c8.284 0 15-6.716 15-15s-6.716-15-15-15h-15v-15c0-8.284-6.716-15-15-15s-15 6.716-15 15v15h-15c-8.284 0-15 6.716-15 15s6.716 15 15 15z"/><path d="m76 120h15v15c0 8.284 6.716 15 15 15s15-6.716 15-15v-15h15c8.284 0 15-6.716 15-15s-6.716-15-15-15h-15v-15c0-8.284-6.716-15-15-15s-15 6.716-15 15v15h-15c-8.284 0-15 6.716-15 15s6.716 15 15 15z"/></g></svg>