<?xml version="1.0"?>
<svg xmlns="http://www.w3.org/2000/svg" id="Layer_2" data-name="Layer 2" viewBox="0 0 64 64" width="512" height="512"><title>21. India,Rama, hindu, god</title><path d="M1,64a1,1,0,0,0,1-1V59a1,1,0,0,0-2,0v4A1,1,0,0,0,1,64Z"/><path d="M1,56a1,1,0,0,0,1-1V53.287L6.619,45.9,16,44.02V47a9.01,9.01,0,0,0,9,9v6h2V56a9.01,9.01,0,0,0,9-9V44.368l3.389.9A.981.981,0,0,0,40,45.5a.939.939,0,0,0,.139-.028l5.055,1.348L47,53.14V64h2V38a1,1,0,0,0-2,0v7.861l-.039-.135a1,1,0,0,0-.7-.691L41,43.632V34a1,1,0,0,0-2,0v9.1l-7-1.867V36.878c2.136-1.427,4-3.14,4-4.778V21.123l1.22-4.88L39,20.692V30a1,1,0,0,0,2,0V20.5a1.007,1.007,0,0,0-.071-.371l-2.942-7.355c-.128-3.259-2.96-5.327-5.987-5.7V7c0-2.923-1.9-7-5-7H25c-3.186,0-4.83,4.451-4.928,7.06-3.056.354-5.936,2.432-6.06,5.723l-2.949,7.865A1,1,0,0,0,11,21V40.647L7.051,28.01l1.9-5.694-1.9-.633L5.633,25.94,2.781,22.375l-1.562,1.25L5.1,28.478,9.714,43.238l-3.161.632L2,34.764V31H0v4a1,1,0,0,0,.105.447l4.749,9.5L.152,52.47A1,1,0,0,0,0,53v2A1,1,0,0,0,1,56ZM30.742,42.966,34,43.835V47a7.008,7.008,0,0,1-7,7H25a7.008,7.008,0,0,1-7-7V43.62l3.2-.639A1,1,0,0,0,22,42V38.1c1.459.823,2.823,1.469,3.59,1.813a1,1,0,0,0,.819,0c.768-.345,2.131-.99,3.59-1.813V42A1,1,0,0,0,30.742,42.966ZM25,2h2c1.712,0,3,3.033,3,5H22.074C22.226,4.878,23.479,2,25,2ZM21,9H31c2.419,0,4.921,1.45,5,3.884l-1.59,6.362-2.573-2.059a3,3,0,0,0-3.674-.057l-.96.721a2.011,2.011,0,0,1-2.4,0l-.961-.722a3.006,3.006,0,0,0-3.674.058l-2.573,2.059L16,12.884C16.079,10.45,18.581,9,21,9Zm-6.191,7.358L16,21.123V24a1,1,0,0,0,2,0V21.481l3.415-2.732a1,1,0,0,1,1.225-.02l.96.721a4.018,4.018,0,0,0,4.8,0l.96-.72a1,1,0,0,1,1.226.019L34,21.481V32.1c0,1.276-4.062,3.974-8,5.8-3.938-1.827-8-4.524-8-5.8V28a1,1,0,0,0-2,0v4.1c0,1.639,1.864,3.352,4,4.778v4.3l-7,1.4v-21.4Z"/><rect x="10" y="55" width="2" height="9"/><rect x="38" y="55" width="2" height="9"/><path d="M22,27a1,1,0,0,0,1-1V24a1,1,0,0,0-2,0v2A1,1,0,0,0,22,27Z"/><path d="M19,58v2a1,1,0,0,0,2,0V58a1,1,0,0,0-2,0Z"/><path d="M31,58v2a1,1,0,0,0,2,0V58a1,1,0,0,0-2,0Z"/><path d="M30,27a1,1,0,0,0,1-1V24a1,1,0,0,0-2,0v2A1,1,0,0,0,30,27Z"/><path d="M63,53H60.029a82.043,82.043,0,0,0-2.055-21.226c-1.045-4.511-4.3-8.416-7.164-11.861-.688-.826-1.356-1.632-1.959-2.406a.985.985,0,0,0-.193-.247A17.65,17.65,0,0,1,47,14.764V10H45v5a1,1,0,0,0,.1.436A18.022,18.022,0,0,0,47,18.381V34a1,1,0,0,0,2,0V20.863l.273.329c2.726,3.274,5.815,6.985,6.752,11.033a80.038,80.038,0,0,1,2,20.774H55a1,1,0,0,0-1,1v9a1,1,0,0,0,1,1h8a1,1,0,0,0,1-1V54A1,1,0,0,0,63,53Zm-1,9H56V55h6Z"/><path d="M22,14h1a1,1,0,0,0,0-2H22a1,1,0,0,0,0,2Z"/><path d="M26,14h1a1,1,0,0,0,0-2H26a1,1,0,0,0,0,2Z"/></svg>
