<svg id="Capa_1" enable-background="new 0 0 512 512" height="512" viewBox="0 0 512 512" width="512" xmlns="http://www.w3.org/2000/svg"><g><path d="m504.5 67.5h-22.5v-22.5c0-12.407-10.093-22.5-22.5-22.5-9.778 0-18.114 6.271-21.21 15h-17.58c-3.096-8.729-11.432-15-21.21-15s-18.114 6.271-21.21 15h-17.58c-3.096-8.729-11.432-15-21.21-15s-18.114 6.271-21.21 15h-19.639l-13.331-21.272c-6.367-10.162-17.328-16.228-29.32-16.228s-22.953 6.066-29.321 16.228l-13.33 21.272h-19.639c-3.096-8.729-11.432-15-21.21-15s-18.114 6.271-21.21 15h-17.58c-3.096-8.729-11.432-15-21.21-15s-18.114 6.271-21.21 15h-17.58c-3.096-8.729-11.432-15-21.21-15-12.407 0-22.5 10.093-22.5 22.5v22.5h-22.5c-4.142 0-7.5 3.358-7.5 7.5v429.5c0 4.142 3.358 7.5 7.5 7.5h497c4.142 0 7.5-3.358 7.5-7.5v-429.5c0-4.142-3.358-7.5-7.5-7.5zm-67.5 0h-15v-15h15zm15 58.71c2.347.833 4.871 1.29 7.5 1.29s5.153-.458 7.5-1.29v8.79c0 4.136-3.364 7.5-7.5 7.5s-7.5-3.364-7.5-7.5zm0-81.21c0-4.136 3.364-7.5 7.5-7.5s7.5 3.364 7.5 7.5v60c0 4.136-3.364 7.5-7.5 7.5s-7.5-3.364-7.5-7.5zm-75 22.5h-15v-15h15zm15 58.71c2.347.833 4.871 1.29 7.5 1.29s5.153-.458 7.5-1.29v8.79c0 4.136-3.364 7.5-7.5 7.5s-7.5-3.364-7.5-7.5zm0-81.21c0-4.136 3.364-7.5 7.5-7.5s7.5 3.364 7.5 7.5v60c0 4.136-3.364 7.5-7.5 7.5s-7.5-3.364-7.5-7.5zm-60 81.21c2.347.833 4.871 1.29 7.5 1.29s5.153-.458 7.5-1.29v8.79c0 4.136-3.364 7.5-7.5 7.5s-7.5-3.364-7.5-7.5zm0-81.21c0-4.136 3.364-7.5 7.5-7.5s7.5 3.364 7.5 7.5v60c0 4.136-3.364 7.5-7.5 7.5s-7.5-3.364-7.5-7.5zm-114.5 7.5c2.583 0 4.984-1.329 6.355-3.518l15.534-24.789c3.609-5.756 9.818-9.193 16.611-9.193s13.002 3.437 16.61 9.193l15.535 24.79c1.372 2.188 3.773 3.518 6.355 3.518h22.5v15h-122v-15h22.5zm-67.5 15h-15v-15h15zm15 58.71c2.347.833 4.871 1.29 7.5 1.29s5.153-.458 7.5-1.29v8.79c0 4.136-3.364 7.5-7.5 7.5s-7.5-3.364-7.5-7.5zm0-81.21c0-4.136 3.364-7.5 7.5-7.5s7.5 3.364 7.5 7.5v60c0 4.136-3.364 7.5-7.5 7.5s-7.5-3.364-7.5-7.5zm-75 22.5h-15v-15h15zm15 58.71c2.347.833 4.871 1.29 7.5 1.29s5.153-.458 7.5-1.29v8.79c0 4.136-3.364 7.5-7.5 7.5s-7.5-3.364-7.5-7.5zm0-81.21c0-4.136 3.364-7.5 7.5-7.5s7.5 3.364 7.5 7.5v60c0 4.136-3.364 7.5-7.5 7.5s-7.5-3.364-7.5-7.5zm-60 81.21c2.347.833 4.871 1.29 7.5 1.29s5.153-.458 7.5-1.29v8.79c0 4.136-3.364 7.5-7.5 7.5s-7.5-3.364-7.5-7.5zm0-81.21c0-4.136 3.364-7.5 7.5-7.5s7.5 3.364 7.5 7.5v60c0 4.136-3.364 7.5-7.5 7.5s-7.5-3.364-7.5-7.5zm-15 37.5v52.5c0 12.407 10.093 22.5 22.5 22.5s22.5-10.093 22.5-22.5v-52.5h15v52.5c0 12.407 10.093 22.5 22.5 22.5s22.5-10.093 22.5-22.5v-52.5h15v52.5c0 12.407 10.093 22.5 22.5 22.5s22.5-10.093 22.5-22.5v-52.5h122v52.5c0 12.407 10.093 22.5 22.5 22.5s22.5-10.093 22.5-22.5v-52.5h15v52.5c0 12.407 10.093 22.5 22.5 22.5s22.5-10.093 22.5-22.5v-52.5h15v52.5c0 12.407 10.093 22.5 22.5 22.5s22.5-10.093 22.5-22.5v-52.5h15v90h-482v-90zm-15 414.5v-309.5h482v309.5z"/><path d="m239.984 303.459c.585-32.476-24.246-60.234-56.531-63.195-22.846-2.097-44.934 8.445-57.645 27.506-3.334 5-4.522 11-3.344 16.894 1.178 5.893 4.581 10.975 9.581 14.309 10.321 6.883 24.319 4.085 31.202-6.237 4.016-6.021 11.211-8.886 18.336-7.303 6.868 1.528 12.175 7.22 13.208 14.162.656 4.41-.308 8.796-2.71 12.342l-66.164 97.421c-4.694 6.912-5.18 15.792-1.269 23.175 3.911 7.382 11.529 11.967 19.883 11.967.005 0 72.965-.019 72.965-.019 6.008-.001 11.657-2.343 15.904-6.593s6.586-9.9 6.584-15.908c-.003-12.4-10.095-22.488-22.495-22.488h-30.475l42.309-62.296c6.757-9.975 10.443-21.64 10.661-33.737zm-23.074 25.317-50.258 74.002c-1.561 2.298-1.723 5.27-.423 7.724 1.3 2.455 3.851 3.99 6.628 3.99h44.635c4.131 0 7.493 3.361 7.495 7.493 0 2.002-.778 3.884-2.193 5.3s-3.297 2.196-5.299 2.196l-72.959.019c-4.076 0-5.994-2.79-6.63-3.989-.635-1.199-1.867-4.354.423-7.725l66.169-97.43c4.52-6.674 6.343-14.831 5.132-22.968-1.94-13.041-11.901-23.729-24.786-26.597-2.41-.537-4.825-.797-7.208-.797-10.691 0-20.75 5.248-26.866 14.42-2.294 3.441-6.959 4.375-10.401 2.08-1.667-1.112-2.801-2.806-3.194-4.77s.003-3.964 1.114-5.631c9.655-14.479 26.438-22.484 43.795-20.891 24.503 2.247 43.349 23.325 42.904 47.987-.167 9.183-2.962 18.033-8.078 25.587z"/><path d="m322.494 414.5c20.678 0 37.5-16.822 37.5-37.5s-16.822-37.5-37.5-37.5-37.5 16.822-37.5 37.5 16.822 37.5 37.5 37.5zm0-60c12.407 0 22.5 10.093 22.5 22.5s-10.093 22.5-22.5 22.5-22.5-10.093-22.5-22.5 10.093-22.5 22.5-22.5z"/><path d="m322.182 285.002c6.508-.102 12.783 2.678 17.139 7.593 4.172 4.706 10.252 7.405 16.682 7.405 9.006 0 16.886-5.112 20.565-13.34 3.669-8.209 2.229-17.467-3.761-24.159-12.797-14.299-31.135-22.5-50.313-22.5-37.22 0-67.5 30.28-67.5 67.5v69.499c0 37.22 30.28 67.5 67.5 67.5s67.5-30.28 67.5-67.5-30.28-67.5-67.5-67.5c-7.688 0-15.303 1.319-22.5 3.863v-5.227c.001-12.377 10.161-22.971 22.188-23.134zm-33.434 46.541c2.322 1.339 5.183 1.337 7.503-.006 7.956-4.604 17.03-7.038 26.243-7.038 28.949 0 52.5 23.551 52.5 52.5s-23.551 52.5-52.5 52.5-52.5-23.551-52.5-52.5v-69.5c0-28.949 23.552-52.5 52.5-52.5 14.916 0 29.18 6.38 39.135 17.503 2.993 3.344 1.709 6.995 1.245 8.035-.468 1.046-2.346 4.462-6.871 4.462-2.142 0-4.131-.859-5.458-2.355-7.252-8.181-17.682-12.758-28.566-12.641-20.047.271-36.984 17.734-36.984 38.133v16.91c0 2.681 1.431 5.158 3.753 6.497z"/><path d="m474.5 202.5h-437c-4.142 0-7.5 3.358-7.5 7.5v117.25c0 4.142 3.358 7.5 7.5 7.5s7.5-3.358 7.5-7.5v-109.75h422v249.5h-422v-109.75c0-4.142-3.358-7.5-7.5-7.5s-7.5 3.358-7.5 7.5v117.25c0 4.142 3.358 7.5 7.5 7.5h437c4.142 0 7.5-3.358 7.5-7.5v-264.5c0-4.142-3.358-7.5-7.5-7.5z"/></g></svg>