<?xml version="1.0" encoding="UTF-8" standalone="no"?>
<!-- Created with Inkscape (http://www.inkscape.org/) -->

<svg
   version="1.1"
   id="svg2007"
   xml:space="preserve"
   width="682.66669"
   height="682.66669"
   viewBox="0 0 682.66669 682.66669"
   xmlns="http://www.w3.org/2000/svg"
   xmlns:svg="http://www.w3.org/2000/svg"><defs
     id="defs2011"><clipPath
       clipPathUnits="userSpaceOnUse"
       id="clipPath2021"><path
         d="M 0,512 H 512 V 0 H 0 Z"
         id="path2019" /></clipPath></defs><g
     id="g2013"
     transform="matrix(1.3333333,0,0,-1.3333333,0,682.66667)"><g
       id="g2015"><g
         id="g2017"
         clip-path="url(#clipPath2021)"><g
           id="g2023"
           transform="translate(36.8389,504.2935)"><path
             d="M 0,0 C 0,0 70.052,-14.987 219.161,-14.987 368.271,-14.987 438.322,0 438.322,0"
             style="fill:none;stroke:#000000;stroke-width:15;stroke-linecap:round;stroke-linejoin:round;stroke-miterlimit:10;stroke-dasharray:none;stroke-opacity:1"
             id="path2025" /></g><g
           id="g2027"
           transform="translate(421.8965,367.7964)"><path
             d="M 0,0 C 0.88,77.352 4.106,129.48 4.106,129.48"
             style="fill:none;stroke:#000000;stroke-width:15;stroke-linecap:round;stroke-linejoin:round;stroke-miterlimit:10;stroke-dasharray:none;stroke-opacity:1"
             id="path2029" /></g><g
           id="g2031"
           transform="translate(339.1064,127.208)"><path
             d="M 0,0 C 53.048,19.685 86.896,39.256 86.896,39.256 83.529,99.3 82.492,157.396 82.575,207.705"
             style="fill:none;stroke:#000000;stroke-width:15;stroke-linecap:round;stroke-linejoin:round;stroke-miterlimit:10;stroke-dasharray:none;stroke-opacity:1"
             id="path2033" /></g><g
           id="g2035"
           transform="translate(88.75,229.0137)"><path
             d="m 0,0 c -0.661,-20.437 -1.559,-41.372 -2.747,-62.549 0,0 71.73,-41.476 170,-64.397 17.73,4.135 34.596,8.875 50.332,13.865"
             style="fill:none;stroke:#000000;stroke-width:15;stroke-linecap:round;stroke-linejoin:round;stroke-miterlimit:10;stroke-dasharray:none;stroke-opacity:1"
             id="path2037" /></g><g
           id="g2039"
           transform="translate(86.0029,497.2764)"><path
             d="M 0,0 C 0,0 6.399,-103.394 3.632,-235.023"
             style="fill:none;stroke:#000000;stroke-width:15;stroke-linecap:round;stroke-linejoin:round;stroke-miterlimit:10;stroke-dasharray:none;stroke-opacity:1"
             id="path2041" /></g><g
           id="g2043"
           transform="translate(127.9995,394.917)"><path
             d="m 0,0 c 1.004,-56.51 0.953,-130.216 -2.638,-206.781 25.328,-12.397 72.846,-33.334 130.641,-47.753 57.785,14.417 105.299,35.349 130.642,47.754 -5.024,107.142 -3.118,208.686 -1.088,265.343 H -1.549 c 0.295,-8.23 0.587,-17.408 0.856,-27.412"
             style="fill:none;stroke:#000000;stroke-width:15;stroke-linecap:round;stroke-linejoin:round;stroke-miterlimit:10;stroke-dasharray:none;stroke-opacity:1"
             id="path2045" /></g><g
           id="g2047"
           transform="translate(256.0034,7.2935)"><path
             d="m 0,0 c 16.301,0 23.873,2.538 23.873,2.538 0,0 6.515,63.755 -23.873,63.755 -30.388,0 -23.873,-63.755 -23.873,-63.755 C -23.873,2.538 -16.301,0 0,0"
             style="fill:none;stroke:#000000;stroke-width:15;stroke-linecap:round;stroke-linejoin:round;stroke-miterlimit:10;stroke-dasharray:none;stroke-opacity:1"
             id="path2049" /></g><g
           id="g2051"
           transform="translate(256.0029,102.0679)"><path
             d="M 0,0 V -28.481"
             style="fill:none;stroke:#000000;stroke-width:15;stroke-linecap:butt;stroke-linejoin:round;stroke-miterlimit:10;stroke-dasharray:none;stroke-opacity:1"
             id="path2053" /></g><g
           id="g2055"
           transform="translate(98.5,58.7021)"><path
             d="m 0,0 c 16.301,0 23.873,2.538 23.873,2.538 0,0 6.515,63.754 -23.873,63.754 -30.388,0 -23.873,-63.754 -23.873,-63.754 C -23.873,2.538 -16.301,0 0,0"
             style="fill:none;stroke:#000000;stroke-width:15;stroke-linecap:round;stroke-linejoin:round;stroke-miterlimit:10;stroke-dasharray:none;stroke-opacity:1"
             id="path2057" /></g><g
           id="g2059"
           transform="translate(98.5,159.4941)"><path
             d="M 0,0 V -34.5"
             style="fill:none;stroke:#000000;stroke-width:15;stroke-linecap:butt;stroke-linejoin:round;stroke-miterlimit:10;stroke-dasharray:none;stroke-opacity:1"
             id="path2061" /></g><g
           id="g2063"
           transform="translate(413.5,58.7021)"><path
             d="m 0,0 c 16.301,0 23.873,2.538 23.873,2.538 0,0 6.515,63.754 -23.873,63.754 -30.388,0 -23.873,-63.754 -23.873,-63.754 C -23.873,2.538 -16.301,0 0,0"
             style="fill:none;stroke:#000000;stroke-width:15;stroke-linecap:round;stroke-linejoin:round;stroke-miterlimit:10;stroke-dasharray:none;stroke-opacity:1"
             id="path2065" /></g><g
           id="g2067"
           transform="translate(413.5,159.4941)"><path
             d="M 0,0 V -34.5"
             style="fill:none;stroke:#000000;stroke-width:15;stroke-linecap:butt;stroke-linejoin:round;stroke-miterlimit:10;stroke-dasharray:none;stroke-opacity:1"
             id="path2069" /></g><g
           id="g2071"
           transform="translate(214.2363,271.7505)"><path
             d="M 0,0 V 0"
             style="fill:none;stroke:#000000;stroke-width:15;stroke-linecap:round;stroke-linejoin:round;stroke-miterlimit:10;stroke-dasharray:none;stroke-opacity:1"
             id="path2073" /></g><g
           id="g2075"
           transform="translate(297.7622,271.7505)"><path
             d="M 0,0 V 0"
             style="fill:none;stroke:#000000;stroke-width:15;stroke-linecap:round;stroke-linejoin:round;stroke-miterlimit:10;stroke-dasharray:none;stroke-opacity:1"
             id="path2077" /></g><g
           id="g2079"
           transform="translate(214.2363,348.1543)"><path
             d="M 0,0 V 0"
             style="fill:none;stroke:#000000;stroke-width:15;stroke-linecap:round;stroke-linejoin:round;stroke-miterlimit:10;stroke-dasharray:none;stroke-opacity:1"
             id="path2081" /></g><g
           id="g2083"
           transform="translate(297.7622,348.1543)"><path
             d="M 0,0 V 0"
             style="fill:none;stroke:#000000;stroke-width:15;stroke-linecap:round;stroke-linejoin:round;stroke-miterlimit:10;stroke-dasharray:none;stroke-opacity:1"
             id="path2085" /></g><g
           id="g2087"
           transform="translate(334.2607,232.5684)"><path
             d="m 0,0 c -4.603,39.697 0,77.256 0,77.256 h -156.515 c 0,0 4.603,37.56 0,77.257"
             style="fill:none;stroke:#000000;stroke-width:15;stroke-linecap:round;stroke-linejoin:round;stroke-miterlimit:10;stroke-dasharray:none;stroke-opacity:1"
             id="path2089" /></g><g
           id="g2091"
           transform="translate(178.6826,231.6318)"><path
             d="m 0,0 c 39.73,4.6 77.321,0 77.321,0 v 156.386 c 0,0 37.59,-4.6 77.32,0"
             style="fill:none;stroke:#000000;stroke-width:15;stroke-linecap:round;stroke-linejoin:round;stroke-miterlimit:10;stroke-dasharray:none;stroke-opacity:1"
             id="path2093" /></g></g></g></g></svg>
