<?xml version="1.0" encoding="UTF-8"?>
<svg xmlns="http://www.w3.org/2000/svg" viewBox="0 0 64 64" width="512" height="512"><g id="outline"><path d="M47.025,2.005A17.2,17.2,0,0,0,32,10.651,17.144,17.144,0,0,0,16.975,2.005C8.437,2.226,2,9.1,2,18c0,4.7,3.82,12.415,6.527,17.289A4,4,0,0,0,6,39a3.959,3.959,0,0,0,.556,2H3a1,1,0,0,0-1,1v7a1,1,0,0,0,1,1H6V61a1,1,0,0,0,1,1H37a1,1,0,0,0,1-1V59.355c.236-.21,1.556-1.519,2-2V61a1,1,0,0,0,1,1H61a1,1,0,0,0,1-1V33a1,1,0,0,0-1-1H57.23C59.56,27.44,62,21.768,62,18,62,9.1,55.562,2.226,47.025,2.005ZM57.694,9.891l-6.13,6.13a15.559,15.559,0,0,0-9.323,3.423A1.977,1.977,0,0,0,41,19H39.414L52.9,5.518A12.729,12.729,0,0,1,57.694,9.891ZM53,19v8c0,.738-.262,1-1,1a13.637,13.637,0,0,1-9-3.425v-3.15A13.637,13.637,0,0,1,52,18C52.738,18,53,18.262,53,19ZM41,21l-.031,4H37V21ZM4,18C4,10.085,9.479,4.2,17.025,4a15.029,15.029,0,0,1,14.041,9.353,1,1,0,0,0,1.868,0A14.974,14.974,0,0,1,46.975,4a13.853,13.853,0,0,1,3.939.668L36.522,19.064a2,2,0,0,0-.763.38A15.583,15.583,0,0,0,26,16a2.783,2.783,0,0,0-3,3v8a2.742,2.742,0,0,0,2.617,2.969L18.5,37.086l-1.793-1.793A1,1,0,0,0,16,35H10.658C6.425,27.5,4,21.322,4,18Zm31,3.425v3.15A13.637,13.637,0,0,1,26,28c-.738,0-1-.262-1-1V19c0-.738.262-1,1-1A13.637,13.637,0,0,1,35,21.425ZM18,60H8V50H18Zm0-12H4V43H18Zm-8-7a2,2,0,0,1,0-4h5.586l4,4ZM28.658,29.756a15.387,15.387,0,0,0,7.108-3.206A1.973,1.973,0,0,0,37,27h3.586l-8,8H28a1,1,0,0,0-.707.293L22,40.586,19.914,38.5ZM24,60H20V43h4Zm.414-19,4-4H34a2,2,0,0,1,0,4ZM36,60H26V50H36Zm4-5.652c-.693.806-1.364,1.552-2,2.22V50h2ZM40,48H26V43H40Zm8,12H42V46h3.586l-1.293,1.293A1,1,0,0,0,44,48v9a1,1,0,0,0,1.707.707L47,56.414l1,1Zm0-5.414-.293-.293a1,1,0,0,0-1.414,0L46,54.586V48.414l2-2Zm0-11L47.586,44H42V38h2.586L48,41.414Zm0-5-2.293-2.293A1,1,0,0,0,45,36H42V34h6ZM52,57v3H50V46h2Zm0-13H50V42h2Zm0-4H50V34h2Zm8,20H54V57.414l1-1,1.293,1.293A1,1,0,0,0,58,57V48a1,1,0,0,0-.293-.707L56.414,46H60Zm-6-5.414V46.414l2,2v6.172l-.293-.293a1,1,0,0,0-1.414,0ZM60,44H54.414L54,43.586V41.414L57.414,38H60Zm0-10v2H57a1,1,0,0,0-.707.293L54,38.586V34Zm-5.028-2H41a1,1,0,0,0-1,1v8H37.444a3.946,3.946,0,0,0-2.237-5.793l7.96-7.961A15.7,15.7,0,0,0,52,30a2.783,2.783,0,0,0,3-3V19a2.866,2.866,0,0,0-1.132-2.454l4.821-4.821A15.237,15.237,0,0,1,60,18C60,20.86,58.209,25.824,54.972,32Z"/></g></svg>
