<svg id="logo" xmlns="http://www.w3.org/2000/svg" viewBox="0 0 642.42 140.09"><g id="myname" style="isolation:isolate"><path d="M81.63,94.44H59.54V62.82a11.46,11.46,0,0,0-.77-5A2.87,2.87,0,0,0,56,56.36c-2.48,0-3.72,2.18-3.72,6.52V94.44H30.19V62.82c0-2.42-.26-4.11-.8-5a2.94,2.94,0,0,0-2.8-1.41c-2.44,0-3.66,2.18-3.66,6.52V94.44H.84V58.36A23.26,23.26,0,0,1,7.51,41.58a21.69,21.69,0,0,1,16.19-6.9q9.8,0,17.59,8.23Q50,34.68,58.66,34.68q11,0,17.71,8,5.26,6.22,5.26,18.16Z" transform="translate(-0.84 -0.03)" style="fill:#fff"/><path d="M102.18,120.12V101A20.88,20.88,0,0,0,110,102.9q10.75,0,13.94-12.05a22.31,22.31,0,0,1-11.34,3.41,17.17,17.17,0,0,1-13.52-6.08Q93.8,82.09,93.79,72.7V35.85h22.09v31.5q0,5.24,4.37,5.23c2.8,0,4.19-1.92,4.19-5.76v-31h22.09v52.3q0,14.63-8.27,23.62-9.85,10.7-23.86,10.7A33.81,33.81,0,0,1,102.18,120.12Z" transform="translate(-0.84 -0.03)" style="fill:#fff"/><path d="M211.9,94.44H189.82V61.36q0-5.05-4.2-5.06t-4.13,5.06V94.44H159.4V61.77A26.65,26.65,0,0,1,167,42.46a25,25,0,0,1,18.66-7.84q12.65,0,20.26,9.11,6,7.11,6,19.8Z" transform="translate(-0.84 -0.03)" style="fill:#fff"/><path d="M257.5,72.46V95.2a29.8,29.8,0,0,1-5,.47q-13.28,0-22.14-8.7t-8.86-21.79a29.31,29.31,0,0,1,8.95-21.63,29.76,29.76,0,0,1,21.76-8.87q14.29,0,22.53,8.31T283,65.7V94.44H260.92V67.29a11.32,11.32,0,0,0-2.27-7.4,7.54,7.54,0,0,0-6.12-2.77,8.65,8.65,0,0,0-6.26,14.52A7.84,7.84,0,0,0,252.12,74,10.08,10.08,0,0,0,257.5,72.46Z" transform="translate(-0.84 -0.03)" style="fill:#fff"/><path d="M376.67,94.44H354.58V62.82a11.46,11.46,0,0,0-.77-5A2.87,2.87,0,0,0,351,56.36c-2.48,0-3.72,2.18-3.72,6.52V94.44H325.23V62.82a11.22,11.22,0,0,0-.8-5,2.94,2.94,0,0,0-2.8-1.41c-2.44,0-3.66,2.18-3.66,6.52V94.44H295.88V58.36a23.26,23.26,0,0,1,6.67-16.78,21.69,21.69,0,0,1,16.19-6.9q9.79,0,17.59,8.23,8.69-8.23,17.37-8.23,11,0,17.71,8,5.26,6.22,5.26,18.16Z" transform="translate(-0.84 -0.03)" style="fill:#fff"/><path d="M447.48,68.7H414a15.25,15.25,0,0,1,.3-10.4h11.22q-1.18-6.52-7.39-6.52a8,8,0,0,0-6.73,3.49,14.66,14.66,0,0,0-2.6,9,15.58,15.58,0,0,0,2.51,9.23A7.75,7.75,0,0,0,417.89,77q3.3,0,6.38-3.29l12.58,15a31,31,0,0,1-19.55,6.87,30.19,30.19,0,0,1-22-8.75,29.21,29.21,0,0,1-8.92-21.68,29.39,29.39,0,0,1,9-21.75,30.32,30.32,0,0,1,22.12-8.87A29.31,29.31,0,0,1,439,43.23a29,29,0,0,1,8.71,21.36C447.71,65.45,447.63,66.82,447.48,68.7Z" transform="translate(-0.84 -0.03)" style="fill:#fff"/></g><g id="a" style="isolation:isolate"><path d="M525.16,82.39v39.29a51.46,51.46,0,0,1-8.63.81q-23.13,0-38.55-15T462.55,69.8a50.44,50.44,0,0,1,15.58-37.35Q493.7,17.12,516,17.12q24.88,0,39.22,14.36t14.34,39.24v49.64H531.12V73.46q0-8-4-12.79a13.12,13.12,0,0,0-10.64-4.77A14.42,14.42,0,0,0,506,60.26,14.83,14.83,0,0,0,505.63,81,13.69,13.69,0,0,0,515.81,85,17.62,17.62,0,0,0,525.16,82.39Z" transform="translate(-0.84 -0.03)" style="fill:#fe6847"/></g><g id="t" style="opacity:0.8100000023841858;isolation:isolate"><path d="M625.27,0V38.8h17.27V78.9H625.27q0,12.09,3.86,16.65t14.13,4.57V140c-2,.07-3.46.1-4.42.1a52.71,52.71,0,0,1-24.62-6,49.58,49.58,0,0,1-18.56-16.24q-8.83-13.09-8.84-34.71V0Z" transform="translate(-0.84 -0.03)" style="fill:#008180"/></g><g id="r" style="opacity:0.8100000023841858;isolation:isolate"><path d="M605.16,18.13V58.74a15.28,15.28,0,0,0-7.3-2.23q-10.49,0-10.49,15.83v48H548.92V65q0-21.93,12.13-35t32.39-13A80.32,80.32,0,0,1,605.16,18.13Z" transform="translate(-0.84 -0.03)" style="fill:#3d5778"/></g></svg>